<?xml version="1.0" encoding="UTF-8" standalone="no"?>
<!DOCTYPE svg PUBLIC "-//W3C//DTD SVG 1.1//EN" "http://www.w3.org/Graphics/SVG/1.1/DTD/svg11.dtd">
<svg width="100%" height="100%" viewBox="0 0 502 250" version="1.1" xmlns="http://www.w3.org/2000/svg" xmlns:xlink="http://www.w3.org/1999/xlink" xml:space="preserve" xmlns:serif="http://www.serif.com/" style="fill-rule:evenodd;clip-rule:evenodd;stroke-linejoin:round;stroke-miterlimit:2;">
    <g>
        <g>
            <path d="M197.238,82.838L131.569,82.838C131.079,82.838 130.682,82.441 130.682,81.951C130.682,81.461 131.079,81.064 131.569,81.064L197.238,81.064C197.728,81.064 198.125,81.461 198.125,81.951C198.125,82.441 197.728,82.838 197.238,82.838Z" style="fill:rgb(30,0,178);fill-rule:nonzero;"/>
            <path d="M130.568,77.536C130.213,77.536 129.879,77.323 129.742,76.973C129.05,75.207 128.02,73.633 126.682,72.295C126.336,71.948 126.336,71.387 126.682,71.04C127.029,70.694 127.59,70.694 127.937,71.04C129.449,72.553 130.612,74.331 131.393,76.325C131.572,76.781 131.347,77.296 130.891,77.475C130.785,77.516 130.675,77.536 130.568,77.536Z" style="fill:rgb(30,0,178);fill-rule:nonzero;"/>
            <path d="M130.568,77.536C130.213,77.536 129.879,77.322 129.741,76.972C129.563,76.516 129.788,76.002 130.244,75.823L176.275,57.8C176.73,57.621 177.245,57.846 177.424,58.302C177.603,58.758 177.378,59.273 176.921,59.452L130.891,77.475C130.785,77.517 130.675,77.536 130.568,77.536Z" style="fill:rgb(30,0,178);fill-rule:nonzero;"/>
            <path d="M209.049,123.075C208.93,123.075 208.809,123.051 208.694,123.001L129.996,88.59C129.547,88.394 129.342,87.871 129.539,87.422C129.735,86.973 130.258,86.768 130.707,86.965L209.404,121.375C209.853,121.571 210.058,122.094 209.862,122.543C209.716,122.876 209.39,123.075 209.049,123.075Z" style="fill:rgb(30,0,178);fill-rule:nonzero;"/>
            <path d="M131.569,82.838C131.079,82.838 130.682,82.441 130.682,81.951C130.682,80.24 130.366,78.565 129.742,76.973C129.563,76.517 129.788,76.002 130.244,75.823C130.7,75.645 131.215,75.869 131.393,76.325C132.099,78.125 132.456,80.017 132.456,81.951C132.456,82.441 132.059,82.838 131.569,82.838Z" style="fill:rgb(30,0,178);fill-rule:nonzero;"/>
            <path d="M130.351,88.665C130.232,88.665 130.111,88.641 129.995,88.59C129.547,88.394 129.342,87.871 129.539,87.422C130.297,85.689 130.682,83.849 130.682,81.951C130.682,81.461 131.079,81.064 131.569,81.064C132.059,81.064 132.456,81.461 132.456,81.951C132.456,84.095 132.021,86.175 131.164,88.134C131.018,88.466 130.692,88.665 130.351,88.665Z" style="fill:rgb(30,0,178);fill-rule:nonzero;"/>
            <path d="M127.309,72.555C127.082,72.555 126.855,72.468 126.682,72.295C126.336,71.948 126.336,71.387 126.682,71.04L152.56,45.162C152.907,44.816 153.469,44.816 153.815,45.162C154.161,45.509 154.161,46.07 153.815,46.417L127.937,72.295C127.763,72.468 127.536,72.555 127.309,72.555Z" style="fill:rgb(30,0,178);fill-rule:nonzero;"/>
            <path d="M199.381,165.193C199.154,165.193 198.927,165.107 198.753,164.933L173.634,139.814C173.287,139.467 173.287,138.906 173.634,138.559C173.98,138.213 174.542,138.213 174.888,138.559L200.008,163.679C200.354,164.026 200.354,164.587 200.008,164.933C199.835,165.107 199.608,165.193 199.381,165.193Z" style="fill:rgb(30,0,178);fill-rule:nonzero;"/>
            <path d="M145.802,111.615C145.576,111.615 145.348,111.528 145.175,111.355L126.682,92.862C126.336,92.516 126.336,91.954 126.682,91.608C127.028,91.261 127.59,91.261 127.937,91.608L146.43,110.101C146.776,110.447 146.776,111.009 146.43,111.355C146.256,111.528 146.029,111.615 145.802,111.615Z" style="fill:rgb(30,0,178);fill-rule:nonzero;"/>
            <path d="M127.309,72.555C127.082,72.555 126.855,72.468 126.682,72.295C125.474,71.086 124.065,70.125 122.497,69.438C122.048,69.242 121.843,68.719 122.04,68.27C122.236,67.822 122.759,67.616 123.208,67.813C124.98,68.589 126.571,69.675 127.937,71.04C128.283,71.387 128.283,71.948 127.937,72.295C127.763,72.468 127.536,72.555 127.309,72.555Z" style="fill:rgb(30,0,178);fill-rule:nonzero;"/>
            <path d="M122.852,69.513C122.733,69.513 122.612,69.489 122.497,69.438C122.048,69.242 121.843,68.719 122.04,68.27L133.896,41.154C134.092,40.705 134.615,40.5 135.064,40.696C135.513,40.893 135.718,41.416 135.522,41.864L123.665,68.981C123.519,69.314 123.193,69.513 122.852,69.513Z" style="fill:rgb(30,0,178);fill-rule:nonzero;"/>
            <path d="M127.309,93.122C127.082,93.122 126.855,93.035 126.682,92.862C126.336,92.516 126.336,91.954 126.682,91.608C127.891,90.399 128.852,88.991 129.539,87.422C129.735,86.973 130.258,86.768 130.707,86.965C131.156,87.162 131.36,87.685 131.164,88.133C130.388,89.906 129.302,91.497 127.937,92.862C127.763,93.035 127.536,93.122 127.309,93.122Z" style="fill:rgb(30,0,178);fill-rule:nonzero;"/>
            <path d="M117.026,137.04C116.536,137.04 116.139,136.643 116.139,136.153L116.139,96.494C116.139,96.005 116.536,95.607 117.026,95.607C117.516,95.607 117.913,96.005 117.913,96.494L117.913,136.153C117.913,136.643 117.516,137.04 117.026,137.04Z" style="fill:rgb(30,0,178);fill-rule:nonzero;"/>
            <path d="M117.026,168.635C116.536,168.635 116.139,168.238 116.139,167.748L116.139,139.187C116.139,138.697 116.536,138.3 117.026,138.3C117.516,138.3 117.913,138.697 117.913,139.187L117.913,167.748C117.913,168.238 117.516,168.635 117.026,168.635Z" style="fill:rgb(30,0,178);fill-rule:nonzero;"/>
            <path d="M103.7,77.012C103.581,77.012 103.46,76.988 103.345,76.937L69.698,62.225C69.249,62.029 69.044,61.506 69.24,61.057C69.436,60.608 69.96,60.403 70.408,60.6L104.056,75.312C104.504,75.508 104.709,76.031 104.513,76.48C104.367,76.813 104.041,77.012 103.7,77.012Z" style="fill:rgb(30,0,178);fill-rule:nonzero;"/>
            <path d="M106.742,72.555C106.515,72.555 106.288,72.468 106.115,72.295L85.124,51.303C84.777,50.957 84.777,50.395 85.124,50.049C85.47,49.703 86.032,49.703 86.378,50.049L107.369,71.04C107.716,71.387 107.716,71.948 107.369,72.295C107.196,72.468 106.969,72.555 106.742,72.555Z" style="fill:rgb(30,0,178);fill-rule:nonzero;"/>
            <path d="M106.742,72.555C106.515,72.555 106.288,72.468 106.115,72.295C105.768,71.948 105.768,71.387 106.115,71.04C107.627,69.528 109.405,68.365 111.4,67.583C111.856,67.406 112.371,67.63 112.549,68.086C112.728,68.542 112.503,69.056 112.047,69.235C110.281,69.927 108.707,70.957 107.369,72.295C107.196,72.468 106.969,72.555 106.742,72.555Z" style="fill:rgb(30,0,178);fill-rule:nonzero;"/>
            <path d="M111.724,69.296C111.369,69.296 111.035,69.083 110.898,68.733L101.375,44.412C101.196,43.956 101.421,43.441 101.877,43.263C102.333,43.084 102.848,43.309 103.027,43.765L112.549,68.086C112.728,68.542 112.503,69.057 112.047,69.235C111.941,69.277 111.831,69.296 111.724,69.296Z" style="fill:rgb(30,0,178);fill-rule:nonzero;"/>
            <path d="M102.482,82.838C101.992,82.838 101.595,82.441 101.595,81.951C101.595,79.807 102.03,77.727 102.888,75.769C103.084,75.32 103.607,75.115 104.056,75.312C104.505,75.509 104.709,76.032 104.513,76.481C103.754,78.213 103.369,80.054 103.369,81.951C103.369,82.441 102.972,82.838 102.482,82.838Z" style="fill:rgb(30,0,178);fill-rule:nonzero;"/>
            <path d="M103.484,88.141C103.13,88.141 102.795,87.927 102.658,87.577C101.953,85.778 101.595,83.885 101.595,81.951C101.595,81.461 101.992,81.064 102.482,81.064C102.972,81.064 103.369,81.461 103.369,81.951C103.369,83.662 103.686,85.337 104.31,86.93C104.488,87.386 104.264,87.901 103.807,88.079C103.701,88.121 103.592,88.141 103.484,88.141Z" style="fill:rgb(30,0,178);fill-rule:nonzero;"/>
            <path d="M117.026,68.295C116.536,68.295 116.139,67.898 116.139,67.408L116.139,41.332C116.139,40.842 116.536,40.445 117.026,40.445C117.516,40.445 117.913,40.842 117.913,41.332L117.913,67.408C117.913,67.898 117.516,68.295 117.026,68.295Z" style="fill:rgb(30,0,178);fill-rule:nonzero;"/>
            <path d="M122.328,96.38C121.974,96.38 121.639,96.167 121.502,95.817C121.323,95.361 121.548,94.846 122.004,94.667C123.77,93.975 125.344,92.946 126.682,91.608C127.028,91.261 127.59,91.261 127.937,91.608C128.283,91.954 128.283,92.516 127.937,92.862C126.425,94.374 124.647,95.537 122.652,96.319C122.545,96.361 122.436,96.38 122.328,96.38Z" style="fill:rgb(30,0,178);fill-rule:nonzero;"/>
            <path d="M132.781,123.075C132.426,123.075 132.091,122.861 131.954,122.511L121.502,95.816C121.323,95.36 121.548,94.846 122.005,94.667C122.461,94.488 122.975,94.714 123.154,95.17L133.606,121.865C133.785,122.321 133.56,122.835 133.104,123.014C132.998,123.055 132.888,123.075 132.781,123.075Z" style="fill:rgb(30,0,178);fill-rule:nonzero;"/>
            <path d="M117.026,97.381C114.881,97.381 112.801,96.947 110.843,96.089C110.395,95.893 110.19,95.37 110.387,94.921C110.583,94.472 111.106,94.268 111.555,94.464C113.287,95.223 115.128,95.607 117.026,95.607C117.516,95.607 117.913,96.005 117.913,96.494C117.913,96.984 117.516,97.381 117.026,97.381Z" style="fill:rgb(30,0,178);fill-rule:nonzero;"/>
            <path d="M117.026,97.381C116.536,97.381 116.139,96.984 116.139,96.494C116.139,96.005 116.536,95.607 117.026,95.607C118.738,95.607 120.413,95.291 122.004,94.667C122.46,94.488 122.975,94.713 123.154,95.17C123.333,95.625 123.108,96.14 122.652,96.319C120.853,97.024 118.96,97.381 117.026,97.381Z" style="fill:rgb(30,0,178);fill-rule:nonzero;"/>
            <path d="M106.742,93.122C106.515,93.122 106.288,93.035 106.115,92.862C104.603,91.35 103.44,89.572 102.658,87.577C102.479,87.121 102.704,86.606 103.16,86.428C103.616,86.25 104.131,86.474 104.31,86.93C105.002,88.696 106.031,90.27 107.369,91.608C107.716,91.954 107.716,92.516 107.369,92.862C107.196,93.035 106.969,93.122 106.742,93.122Z" style="fill:rgb(30,0,178);fill-rule:nonzero;"/>
            <path d="M103.7,77.012C103.581,77.012 103.46,76.988 103.345,76.937C102.896,76.741 102.691,76.218 102.888,75.769C103.664,73.997 104.75,72.406 106.115,71.04C106.461,70.694 107.023,70.694 107.369,71.04C107.716,71.387 107.716,71.948 107.369,72.295C106.161,73.503 105.2,74.912 104.513,76.48C104.367,76.813 104.041,77.012 103.7,77.012Z" style="fill:rgb(30,0,178);fill-rule:nonzero;"/>
            <path d="M102.482,82.838L52.815,82.838C52.325,82.838 51.928,82.441 51.928,81.951C51.928,81.461 52.325,81.064 52.815,81.064L102.482,81.064C102.972,81.064 103.369,81.461 103.369,81.951C103.369,82.441 102.972,82.838 102.482,82.838Z" style="fill:rgb(30,0,178);fill-rule:nonzero;"/>
            <path d="M111.199,96.164C111.08,96.164 110.959,96.14 110.843,96.089C109.071,95.313 107.48,94.227 106.115,92.862C105.768,92.516 105.768,91.954 106.115,91.608C106.461,91.261 107.023,91.261 107.369,91.608C108.578,92.816 109.986,93.777 111.555,94.464C112.004,94.661 112.208,95.184 112.012,95.633C111.866,95.966 111.54,96.164 111.199,96.164Z" style="fill:rgb(30,0,178);fill-rule:nonzero;"/>
            <path d="M42.073,112.187C41.719,112.187 41.384,111.972 41.247,111.623C41.068,111.167 41.293,110.652 41.749,110.473L103.16,86.427C103.616,86.249 104.131,86.474 104.31,86.93C104.488,87.386 104.263,87.901 103.807,88.079L42.396,112.125C42.29,112.167 42.181,112.187 42.073,112.187Z" style="fill:rgb(30,0,178);fill-rule:nonzero;"/>
            <path d="M76.938,174.52C76.819,174.52 76.699,174.496 76.583,174.446C76.134,174.249 75.93,173.726 76.126,173.277L85.494,151.852C85.69,151.403 86.213,151.198 86.662,151.395C87.111,151.591 87.315,152.114 87.119,152.563L77.751,173.988C77.605,174.321 77.28,174.52 76.938,174.52Z" style="fill:rgb(30,0,178);fill-rule:nonzero;"/>
            <path d="M102.281,116.558C102.163,116.558 102.042,116.534 101.927,116.484C101.478,116.287 101.273,115.765 101.469,115.316L110.387,94.921C110.583,94.473 111.105,94.268 111.555,94.464C112.003,94.661 112.208,95.183 112.012,95.632L103.095,116.027C102.949,116.359 102.623,116.558 102.281,116.558Z" style="fill:rgb(30,0,178);fill-rule:nonzero;"/>
            <path d="M45.788,154.076C45.561,154.076 45.334,153.989 45.161,153.816C44.815,153.469 44.815,152.908 45.161,152.561L70.205,127.518C70.551,127.172 71.113,127.172 71.459,127.518C71.805,127.864 71.805,128.426 71.459,128.772L46.416,153.816C46.242,153.989 46.015,154.076 45.788,154.076Z" style="fill:rgb(30,0,178);fill-rule:nonzero;"/>
            <path d="M93.833,106.031C93.606,106.031 93.379,105.944 93.206,105.771C92.86,105.424 92.86,104.863 93.206,104.517L106.115,91.608C106.461,91.261 107.023,91.261 107.369,91.608C107.716,91.954 107.716,92.516 107.369,92.862L94.46,105.771C94.287,105.944 94.06,106.031 93.833,106.031Z" style="fill:rgb(30,0,178);fill-rule:nonzero;"/>
            <path d="M122.852,69.513C122.733,69.513 122.612,69.489 122.496,69.438C120.764,68.68 118.923,68.295 117.026,68.295C116.536,68.295 116.139,67.898 116.139,67.408C116.139,66.918 116.536,66.521 117.026,66.521C119.17,66.521 121.25,66.956 123.208,67.813C123.657,68.01 123.861,68.533 123.665,68.982C123.519,69.314 123.193,69.513 122.852,69.513Z" style="fill:rgb(30,0,178);fill-rule:nonzero;"/>
            <path d="M111.724,69.296C111.369,69.296 111.035,69.083 110.898,68.733C110.719,68.277 110.944,67.762 111.4,67.583C113.199,66.878 115.092,66.521 117.026,66.521C117.516,66.521 117.913,66.918 117.913,67.408C117.913,67.898 117.516,68.295 117.026,68.295C115.315,68.295 113.639,68.611 112.047,69.235C111.941,69.277 111.831,69.296 111.724,69.296Z" style="fill:rgb(30,0,178);fill-rule:nonzero;"/>
            <path d="M42.074,112.186C42.026,112.186 41.978,112.182 41.929,112.174C41.446,112.095 41.118,111.639 41.198,111.155C42.925,100.634 46.578,90.656 52.054,81.496C52.305,81.076 52.85,80.939 53.27,81.19C53.69,81.441 53.828,81.986 53.576,82.406C48.216,91.374 44.64,101.143 42.948,111.443C42.877,111.878 42.501,112.186 42.074,112.186Z" style="fill:rgb(30,0,178);fill-rule:nonzero;"/>
            <path d="M45.788,154.076C45.424,154.076 45.082,153.849 44.953,153.485C41.709,144.36 40.064,134.785 40.064,125.027C40.064,120.402 40.445,115.735 41.198,111.155C41.277,110.672 41.733,110.346 42.217,110.424C42.7,110.503 43.028,110.96 42.948,111.443C42.211,115.927 41.838,120.498 41.838,125.027C41.838,134.582 43.448,143.957 46.624,152.892C46.788,153.353 46.547,153.86 46.086,154.024C45.987,154.059 45.887,154.076 45.788,154.076Z" style="fill:rgb(30,0,178);fill-rule:nonzero;"/>
            <path d="M70.053,62.3C69.805,62.3 69.558,62.196 69.382,61.993C69.062,61.622 69.102,61.062 69.473,60.742C74.321,56.548 79.658,52.898 85.336,49.892C85.769,49.664 86.306,49.828 86.535,50.261C86.764,50.694 86.599,51.231 86.166,51.46C80.607,54.403 75.381,57.977 70.633,62.083C70.465,62.229 70.259,62.3 70.053,62.3Z" style="fill:rgb(30,0,178);fill-rule:nonzero;"/>
            <path d="M182.988,186.815C182.754,186.815 182.52,186.723 182.346,186.54C182.008,186.185 182.022,185.624 182.377,185.286C190.455,177.595 196.81,168.537 201.265,158.365C205.877,147.835 208.215,136.618 208.215,125.027C208.215,124.184 208.198,123.291 208.163,122.217C208.146,121.728 208.53,121.318 209.02,121.301C209.512,121.289 209.919,121.669 209.936,122.158C209.972,123.252 209.989,124.164 209.989,125.027C209.989,136.865 207.6,148.321 202.89,159.077C198.34,169.466 191.85,178.716 183.6,186.571C183.428,186.734 183.208,186.815 182.988,186.815Z" style="fill:rgb(30,0,178);fill-rule:nonzero;"/>
            <path d="M176.597,59.513C176.407,59.513 176.215,59.452 176.054,59.326C169.034,53.866 161.241,49.593 152.89,46.625C152.429,46.461 152.188,45.954 152.352,45.492C152.516,45.031 153.023,44.789 153.485,44.954C162.014,47.985 169.973,52.35 177.143,57.925C177.529,58.226 177.599,58.783 177.298,59.17C177.123,59.395 176.862,59.513 176.597,59.513Z" style="fill:rgb(30,0,178);fill-rule:nonzero;"/>
            <path d="M153.188,46.677C153.089,46.677 152.989,46.66 152.89,46.625C146.997,44.531 140.846,43.106 134.608,42.39C134.121,42.334 133.772,41.895 133.828,41.408C133.884,40.922 134.322,40.575 134.81,40.628C141.181,41.359 147.464,42.814 153.485,44.954C153.946,45.118 154.187,45.625 154.023,46.087C153.894,46.45 153.552,46.677 153.188,46.677Z" style="fill:rgb(30,0,178);fill-rule:nonzero;"/>
            <path d="M52.814,82.838C52.659,82.838 52.502,82.798 52.36,82.713C51.939,82.461 51.802,81.917 52.054,81.496C56.725,73.681 62.586,66.698 69.473,60.742C69.843,60.421 70.403,60.462 70.724,60.832C71.044,61.203 71.004,61.763 70.633,62.083C63.89,67.916 58.151,74.754 53.576,82.406C53.41,82.684 53.116,82.838 52.814,82.838Z" style="fill:rgb(30,0,178);fill-rule:nonzero;"/>
            <path d="M102.2,44.976C101.813,44.976 101.457,44.72 101.347,44.329C101.214,43.857 101.489,43.367 101.96,43.235C106.826,41.865 111.867,40.928 116.942,40.449C117.429,40.4 117.863,40.761 117.909,41.249C117.955,41.736 117.597,42.169 117.109,42.215C112.14,42.684 107.205,43.602 102.441,44.942C102.361,44.965 102.28,44.976 102.2,44.976Z" style="fill:rgb(30,0,178);fill-rule:nonzero;"/>
            <path d="M197.239,82.838C196.937,82.838 196.643,82.684 196.477,82.406C191.142,73.483 184.271,65.717 176.054,59.326C175.667,59.025 175.597,58.468 175.898,58.081C176.198,57.694 176.756,57.625 177.143,57.926C185.534,64.453 192.552,72.383 198,81.496C198.251,81.917 198.114,82.461 197.693,82.713C197.551,82.798 197.394,82.838 197.239,82.838Z" style="fill:rgb(30,0,178);fill-rule:nonzero;"/>
            <path d="M134.71,42.396C134.676,42.396 134.642,42.394 134.608,42.39C131.412,42.024 128.189,41.838 125.027,41.838C122.423,41.838 119.759,41.965 117.109,42.215C116.621,42.261 116.189,41.903 116.143,41.415C116.097,40.928 116.455,40.495 116.942,40.449C119.648,40.194 122.368,40.064 125.027,40.064C128.256,40.064 131.547,40.254 134.81,40.628C135.297,40.684 135.646,41.123 135.59,41.61C135.538,42.063 135.155,42.396 134.71,42.396Z" style="fill:rgb(30,0,178);fill-rule:nonzero;"/>
            <path d="M209.049,123.075C208.572,123.075 208.179,122.697 208.163,122.217C207.697,108.182 203.656,94.415 196.477,82.406C196.225,81.986 196.363,81.441 196.783,81.19C197.204,80.939 197.748,81.076 198,81.496C205.332,93.762 209.46,107.823 209.936,122.158C209.952,122.648 209.568,123.058 209.079,123.074C209.068,123.075 209.058,123.075 209.049,123.075Z" style="fill:rgb(30,0,178);fill-rule:nonzero;"/>
            <path d="M67.065,186.815C66.845,186.815 66.625,186.734 66.453,186.571C56.822,177.402 49.387,165.961 44.953,153.485C44.789,153.024 45.03,152.517 45.491,152.353C45.953,152.188 46.46,152.43 46.624,152.892C50.966,165.106 58.246,176.308 67.676,185.286C68.031,185.624 68.045,186.185 67.707,186.54C67.533,186.723 67.299,186.815 67.065,186.815Z" style="fill:rgb(30,0,178);fill-rule:nonzero;"/>
            <path d="M85.752,51.563C85.433,51.563 85.126,51.392 84.967,51.091C84.738,50.658 84.903,50.122 85.336,49.892C90.631,47.089 96.225,44.849 101.96,43.235C102.431,43.102 102.922,43.377 103.054,43.848C103.187,44.32 102.913,44.81 102.441,44.942C96.826,46.523 91.35,48.716 86.166,51.46C86.034,51.53 85.891,51.563 85.752,51.563Z" style="fill:rgb(30,0,178);fill-rule:nonzero;"/>
            <path d="M171.573,174.079C171.083,174.079 170.686,173.682 170.686,173.192L170.686,139.187C170.686,138.697 171.083,138.3 171.573,138.3L180.366,138.3L148.151,109.836L115.936,138.3L124.73,138.3C125.22,138.3 125.617,138.697 125.617,139.187L125.617,167.68C125.617,168.17 125.22,168.567 124.73,168.567C124.24,168.567 123.843,168.17 123.843,167.68L123.843,140.074L113.593,140.074C113.224,140.074 112.894,139.846 112.763,139.5C112.632,139.156 112.729,138.766 113.005,138.522L147.564,107.988C147.899,107.692 148.403,107.692 148.738,107.988L183.297,138.522C183.573,138.766 183.67,139.156 183.539,139.5C183.409,139.846 183.078,140.074 182.71,140.074L172.46,140.074L172.46,173.192C172.46,173.682 172.063,174.079 171.573,174.079Z" style="fill:rgb(30,0,178);fill-rule:nonzero;"/>
            <path d="M144.312,159.904C144.232,159.904 144.152,159.894 144.072,159.871C143.69,159.764 143.425,159.415 143.425,159.017L143.425,143.497L135.505,143.497C135.184,143.497 134.889,143.323 134.732,143.044C134.575,142.764 134.581,142.422 134.748,142.148L148.087,120.265C148.294,119.926 148.702,119.766 149.085,119.873C149.467,119.98 149.732,120.33 149.732,120.727L149.732,136.248L157.652,136.248C157.972,136.248 158.268,136.421 158.425,136.701C158.582,136.981 158.576,137.323 158.409,137.597L145.069,159.479C144.906,159.748 144.616,159.904 144.312,159.904ZM137.085,141.723L144.312,141.723C144.802,141.723 145.199,142.12 145.199,142.61L145.199,155.858L156.072,138.022L148.845,138.022C148.355,138.022 147.958,137.625 147.958,137.135L147.958,123.886L137.085,141.723Z" style="fill:rgb(30,0,178);fill-rule:nonzero;"/>
            <path d="M87.719,171.921C87.229,171.921 86.832,171.524 86.832,171.034L86.832,153.063C77.484,152.402 70.022,141.343 70.022,127.844C70.022,113.921 77.961,102.594 87.719,102.594C97.476,102.594 105.415,113.921 105.415,127.844C105.415,141.343 97.953,152.402 88.606,153.063L88.606,171.034C88.606,171.524 88.209,171.921 87.719,171.921ZM87.719,104.368C78.939,104.368 71.796,114.899 71.796,127.844C71.796,140.351 78.463,150.604 86.832,151.284L86.832,146.139C86.831,146.122 86.831,146.105 86.832,146.088L86.832,139.667L77.718,129.15C77.397,128.78 77.437,128.219 77.807,127.898C78.177,127.578 78.738,127.618 79.058,127.988L86.832,136.958L86.832,120.727C86.832,120.237 87.229,119.84 87.719,119.84C88.209,119.84 88.606,120.237 88.606,120.727L88.606,143.672L95.979,134.865C96.294,134.489 96.853,134.44 97.229,134.754C97.604,135.069 97.654,135.628 97.339,136.003L88.606,146.436L88.606,151.284C96.974,150.604 103.641,140.351 103.641,127.844C103.641,114.899 96.498,104.368 87.719,104.368Z" style="fill:rgb(30,0,178);fill-rule:nonzero;"/>
            <path d="M189.482,179.89C189.371,179.89 189.257,179.869 189.148,179.824C171.301,172.565 148.529,168.567 125.027,168.567C101.523,168.567 78.751,172.565 60.905,179.824C60.452,180.009 59.934,179.79 59.749,179.337C59.565,178.883 59.783,178.365 60.237,178.181C78.29,170.837 101.3,166.793 125.027,166.793C148.752,166.793 171.762,170.837 189.816,178.181C190.27,178.365 190.488,178.883 190.304,179.337C190.164,179.681 189.832,179.89 189.482,179.89Z" style="fill:rgb(30,0,178);fill-rule:nonzero;"/>
        </g>
        <path d="M209.936,125C209.936,171.909 171.909,209.936 125,209.936C78.091,209.936 40.064,171.909 40.064,125C40.064,78.091 78.091,40.064 125,40.064C171.909,40.064 209.936,78.091 209.936,125ZM125,41.785C79.042,41.785 41.785,79.042 41.785,125C41.785,170.958 79.042,208.215 125,208.215C170.958,208.215 208.215,170.958 208.215,125C208.215,79.042 170.958,41.785 125,41.785Z" style="fill:rgb(30,0,178);fill-rule:nonzero;"/>
    </g>
    <g>
        <path d="M234.427,105.021C234.427,105.021 244.632,105.021 244.632,105.021C244.736,107.818 246.393,110.201 249.76,110.201C252.66,110.201 254.473,108.44 254.473,106.005C254.473,103.156 252.091,102.017 247.532,100.411C240.126,97.821 235.93,94.558 235.93,87.565C235.93,80.262 241.886,75.393 249.604,75.393C257.891,75.393 263.33,80.78 263.382,88.912L253.852,88.86C253.748,86.374 252.401,84.406 249.604,84.406C247.273,84.406 245.771,85.856 245.771,87.721C245.771,90.362 248.413,91.243 251.572,92.331C258.824,94.765 264.988,96.941 264.988,106.161C264.988,114.603 258.41,119.576 249.811,119.576C240.643,119.576 234.479,113.671 234.427,105.021Z" style="fill:rgb(30,0,178);fill-rule:nonzero;"/>
        <path d="M272.967,102.638C272.967,102.638 272.967,76.222 272.967,76.222L283.429,76.222L283.429,103.001C283.429,106.575 284.673,109.476 288.713,109.476C292.753,109.476 293.996,106.575 293.996,103.001L293.996,76.222L304.459,76.222L304.459,102.638C304.459,112.946 298.451,119.576 288.713,119.576C278.975,119.576 272.967,112.894 272.967,102.638Z" style="fill:rgb(30,0,178);fill-rule:nonzero;"/>
        <path d="M314.716,76.222L326.578,76.222C336.73,76.222 341.754,80.003 341.754,87.876C341.754,91.554 340.149,94.299 337.818,95.801C341.548,97.355 343.723,100.929 343.723,105.228C343.723,113.671 338.336,118.903 326.734,118.903L314.716,118.903L314.716,76.222ZM326.785,93.004C330.049,93.004 332.017,91.968 332.017,89.119C332.017,86.011 330.1,85.027 326.785,85.027L324.506,85.027L324.506,93.004L326.785,93.004ZM326.423,109.424C330.877,109.424 333.156,108.388 333.156,105.021C333.156,101.706 330.877,100.463 326.785,100.463L324.506,100.463L324.506,109.424L326.423,109.424Z" style="fill:rgb(30,0,178);fill-rule:nonzero;"/>
        <path d="M351.442,102.638L351.442,76.222L361.905,76.222L361.905,103.001C361.905,106.575 363.149,109.476 367.189,109.476C371.229,109.476 372.472,106.575 372.472,103.001L372.472,76.222L382.935,76.222L382.935,102.638C382.935,112.946 376.926,119.576 367.189,119.576C357.45,119.576 351.442,112.894 351.442,102.638Z" style="fill:rgb(30,0,178);fill-rule:nonzero;"/>
        <path d="M412.15,118.903L408.576,110.253C407.592,110.408 406.504,110.46 405.365,110.46L403.604,110.46L403.604,118.955L393.192,118.955L393.192,76.222L403.862,76.222C417.951,76.222 423.183,84.458 423.183,93.315C423.183,98.339 421.474,103.156 417.744,106.368L424.219,118.903L412.15,118.903ZM405.675,100.308C410.493,100.308 412.979,97.303 412.979,93.315C412.979,89.275 410.441,86.374 405.675,86.374L403.604,86.374L403.604,100.308L405.675,100.308Z" style="fill:rgb(30,0,178);fill-rule:nonzero;"/>
        <path d="M432.093,76.222L443.955,76.222C454.107,76.222 459.131,80.003 459.131,87.876C459.131,91.554 457.526,94.299 455.195,95.801C458.925,97.355 461.1,100.929 461.1,105.228C461.1,113.671 455.713,118.903 444.11,118.903L432.093,118.903L432.093,76.222ZM444.162,93.004C447.425,93.004 449.394,91.968 449.394,89.119C449.394,86.011 447.477,85.027 444.162,85.027L441.883,85.027L441.883,93.004L444.162,93.004ZM443.8,109.424C448.254,109.424 450.533,108.388 450.533,105.021C450.533,101.706 448.254,100.463 444.162,100.463L441.883,100.463L441.883,109.424L443.8,109.424Z" style="fill:rgb(30,0,178);fill-rule:nonzero;"/>
        <path d="M249.345,141.795L235.619,141.795L235.619,132.109L264.418,132.109L248.931,165.001L264.315,165.001L264.315,174.687L233.91,174.687L249.345,141.795Z" style="fill:rgb(30,0,178);fill-rule:nonzero;"/>
        <path d="M272.811,132.109L297.156,132.109L297.156,141.899L283.222,141.899L283.222,149.254L295.964,149.254L295.964,157.024L283.222,157.024L283.222,164.793L297.156,164.793L297.156,174.687L272.811,174.687L272.811,132.109Z" style="fill:rgb(30,0,178);fill-rule:nonzero;"/>
        <path d="M325.749,174.687L322.175,166.037C321.191,166.192 320.103,166.244 318.963,166.244L317.202,166.244L317.202,174.738L306.791,174.738L306.791,132.006L317.461,132.006C331.55,132.006 336.781,140.242 336.781,149.099C336.781,154.123 335.072,158.94 331.343,162.152L337.817,174.687L325.749,174.687ZM319.274,156.092C324.091,156.092 326.577,153.088 326.577,149.099C326.577,145.059 324.04,142.158 319.274,142.158L317.202,142.158L317.202,156.092L319.274,156.092Z" style="fill:rgb(30,0,178);fill-rule:nonzero;"/>
        <path d="M366.358,175.464C353.461,175.464 344.189,165.156 344.189,153.294C344.189,141.485 353.461,131.177 366.358,131.177C379.204,131.177 388.476,141.485 388.476,153.294C388.476,165.156 379.204,175.464 366.358,175.464ZM366.358,141.64C359.573,141.64 354.653,146.924 354.653,153.294C354.653,159.665 359.573,165.001 366.358,165.001C373.092,165.001 378.013,159.665 378.013,153.294C378.013,146.924 373.092,141.64 366.358,141.64Z" style="fill:rgb(30,0,178);fill-rule:nonzero;"/>
    </g>
</svg>
