<?xml version="1.0" encoding="UTF-8" standalone="no"?>
<!DOCTYPE svg PUBLIC "-//W3C//DTD SVG 1.1//EN" "http://www.w3.org/Graphics/SVG/1.1/DTD/svg11.dtd">
<!-- Created with Vectornator (http://vectornator.io/) -->
<svg height="100%" stroke-miterlimit="10" style="fill-rule:nonzero;clip-rule:evenodd;stroke-linecap:round;stroke-linejoin:round;" version="1.1" viewBox="0 0 600 300" width="100%" xml:space="preserve" xmlns="http://www.w3.org/2000/svg" xmlns:vectornator="http://vectornator.io" xmlns:xlink="http://www.w3.org/1999/xlink">
<defs/>
<g id="Untitled" vectornator:layerName="Untitled">
<g opacity="1" vectornator:layerName="path">
<clipPath id="ClipPath">
<path d="M0 0L600 0L600 300L0 300L0 0Z"/>
</clipPath>
<g clip-path="url(#ClipPath)">
<path d="M276.046 111.068C272.644 111.147 269.859 108.381 269.914 104.979L269.148 75.1747C269.299 71.5587 272.466 68.8187 276.066 69.1877C279.416 69.5307 281.901 72.4527 281.697 75.8147C281.185 84.2737 282.105 95.6137 281.901 105.205" fill="#ffffff" fill-rule="nonzero" opacity="1" stroke="none" vectornator:layerName="path"/>
<path d="M276.046 111.068C272.644 111.147 269.859 108.381 269.914 104.979L269.148 75.1747C269.299 71.5587 272.466 68.8187 276.066 69.1877C279.416 69.5307 281.901 72.4527 281.697 75.8147C281.185 84.2737 282.105 95.6137 281.901 105.205" fill="none" opacity="1" stroke="#000000" stroke-linecap="butt" stroke-linejoin="miter" stroke-width="1" vectornator:layerName="path"/>
<path d="M299.826 91.7912L291.83 95.3522L293.802 99.7792L301.798 96.2182" fill="#ffffff" fill-rule="nonzero" opacity="1" stroke="none" vectornator:layerName="path"/>
<path d="M299.826 91.7912L291.83 95.3522L293.802 99.7792L301.798 96.2182" fill="none" opacity="1" stroke="#000000" stroke-linecap="butt" stroke-linejoin="miter" stroke-width="1" vectornator:layerName="path"/>
<path d="M279.18 99.3152L294.581 92.6932L297.941 99.9622C297.941 99.9622 281.665 111.625 275.171 111.069" fill="#ffffff" fill-rule="nonzero" opacity="1" stroke="none" vectornator:layerName="path"/>
<path d="M279.18 99.3152L294.581 92.6932L297.941 99.9622C297.941 99.9622 281.665 111.625 275.171 111.069" fill="none" opacity="1" stroke="#000000" stroke-linecap="butt" stroke-linejoin="miter" stroke-width="1" vectornator:layerName="path"/>
<path d="M261.131 62.2187L253.238 62.3317L245.554 62.2187L230.355 69.1707L232.234 139.908L253.238 139.908L274.451 139.908L274.665 69.0107L261.131 62.2187Z" fill="#ffffff" fill-rule="nonzero" opacity="1" stroke="none" vectornator:layerName="path"/>
<path d="M261.131 62.2187L253.238 62.3317L245.554 62.2187L230.355 69.1707L232.234 139.908L253.238 139.908L274.451 139.908L274.665 69.0107L261.131 62.2187Z" fill="none" opacity="1" stroke="#000000" stroke-linecap="butt" stroke-linejoin="miter" stroke-width="1" vectornator:layerName="path"/>
<path d="M256.448 72.9637L256.448 140.048" fill="#ffffff" fill-rule="nonzero" opacity="1" stroke="none" vectornator:layerName="path"/>
<path d="M256.448 72.9637L256.448 140.048" fill="none" opacity="1" stroke="#000000" stroke-linecap="butt" stroke-linejoin="miter" stroke-width="0.719" vectornator:layerName="path"/>
<path d="M254.921 79.2077C254.921 79.7027 254.52 80.1047 254.024 80.1047C253.529 80.1047 253.128 79.7027 253.128 79.2077C253.128 78.7127 253.529 78.3107 254.024 78.3107C254.52 78.3107 254.921 78.7127 254.921 79.2077" fill="#ffffff" fill-rule="nonzero" opacity="1" stroke="none" vectornator:layerName="path"/>
<path d="M254.921 79.2077C254.921 79.7027 254.52 80.1047 254.024 80.1047C253.529 80.1047 253.128 79.7027 253.128 79.2077C253.128 78.7127 253.529 78.3107 254.024 78.3107C254.52 78.3107 254.921 78.7127 254.921 79.2077Z" fill="none" opacity="1" stroke="#000000" stroke-linecap="butt" stroke-linejoin="miter" stroke-width="1" vectornator:layerName="path"/>
<path d="M254.921 89.8274C254.921 90.3224 254.52 90.7244 254.024 90.7244C253.529 90.7244 253.128 90.3224 253.128 89.8274C253.128 89.3324 253.529 88.9304 254.024 88.9304C254.52 88.9304 254.921 89.3324 254.921 89.8274" fill="#ffffff" fill-rule="nonzero" opacity="1" stroke="none" vectornator:layerName="path"/>
<path d="M254.921 89.8274C254.921 90.3224 254.52 90.7244 254.024 90.7244C253.529 90.7244 253.128 90.3224 253.128 89.8274C253.128 89.3324 253.529 88.9304 254.024 88.9304C254.52 88.9304 254.921 89.3324 254.921 89.8274Z" fill="none" opacity="1" stroke="#000000" stroke-linecap="butt" stroke-linejoin="miter" stroke-width="1" vectornator:layerName="path"/>
<path d="M254.921 100.447C254.921 100.942 254.52 101.344 254.024 101.344C253.529 101.344 253.128 100.942 253.128 100.447C253.128 99.952 253.529 99.55 254.024 99.55C254.52 99.55 254.921 99.952 254.921 100.447" fill="#ffffff" fill-rule="nonzero" opacity="1" stroke="none" vectornator:layerName="path"/>
<path d="M254.921 100.447C254.921 100.942 254.52 101.344 254.024 101.344C253.529 101.344 253.128 100.942 253.128 100.447C253.128 99.952 253.529 99.55 254.024 99.55C254.52 99.55 254.921 99.952 254.921 100.447Z" fill="none" opacity="1" stroke="#000000" stroke-linecap="butt" stroke-linejoin="miter" stroke-width="1" vectornator:layerName="path"/>
<path d="M254.921 111.067C254.921 111.562 254.52 111.964 254.024 111.964C253.529 111.964 253.128 111.562 253.128 111.067C253.128 110.572 253.529 110.17 254.024 110.17C254.52 110.17 254.921 110.572 254.921 111.067" fill="#ffffff" fill-rule="nonzero" opacity="1" stroke="none" vectornator:layerName="path"/>
<path d="M254.921 111.067C254.921 111.562 254.52 111.964 254.024 111.964C253.529 111.964 253.128 111.562 253.128 111.067C253.128 110.572 253.529 110.17 254.024 110.17C254.52 110.17 254.921 110.572 254.921 111.067Z" fill="none" opacity="1" stroke="#000000" stroke-linecap="butt" stroke-linejoin="miter" stroke-width="1" vectornator:layerName="path"/>
<path d="M254.921 121.686C254.921 122.181 254.52 122.583 254.024 122.583C253.529 122.583 253.128 122.181 253.128 121.686C253.128 121.191 253.529 120.789 254.024 120.789C254.52 120.789 254.921 121.191 254.921 121.686" fill="#ffffff" fill-rule="nonzero" opacity="1" stroke="none" vectornator:layerName="path"/>
<path d="M254.921 121.686C254.921 122.181 254.52 122.583 254.024 122.583C253.529 122.583 253.128 122.181 253.128 121.686C253.128 121.191 253.529 120.789 254.024 120.789C254.52 120.789 254.921 121.191 254.921 121.686Z" fill="none" opacity="1" stroke="#000000" stroke-linecap="butt" stroke-linejoin="miter" stroke-width="1" vectornator:layerName="path"/>
<path d="M274.585 116.563L274.585 86.2642" fill="#ffffff" fill-rule="nonzero" opacity="1" stroke="none" vectornator:layerName="path"/>
<path d="M274.585 116.563L274.585 86.2642" fill="none" opacity="1" stroke="#000000" stroke-linecap="butt" stroke-linejoin="miter" stroke-width="0.719" vectornator:layerName="path"/>
<path d="M231.701 152.723L230.346 206.051C230.184 210.87 234.046 214.864 238.868 214.864C243.232 214.864 246.892 211.568 247.348 207.227L255.335 153.219C255.988 147 248.484 142.54 242.231 142.54C236.549 142.54 231.891 147.045 231.701 152.723" fill="#ffffff" fill-rule="nonzero" opacity="1" stroke="none" vectornator:layerName="path"/>
<path d="M231.701 152.723L230.346 206.051C230.184 210.87 234.046 214.864 238.868 214.864C243.232 214.864 246.892 211.568 247.348 207.227L255.335 153.219C255.988 147 248.484 142.54 242.231 142.54C236.549 142.54 231.891 147.045 231.701 152.723Z" fill="none" opacity="1" stroke="#000000" stroke-linecap="butt" stroke-linejoin="miter" stroke-width="1" vectornator:layerName="path"/>
<path d="M276.204 152.723L278.517 206.051C278.679 210.87 274.817 214.864 269.995 214.864C265.631 214.864 261.971 211.568 261.515 207.227L255.196 154.175C254.543 147.956 259.42 142.54 265.674 142.54C271.355 142.54 276.014 147.045 276.204 152.723" fill="#ffffff" fill-rule="nonzero" opacity="1" stroke="none" vectornator:layerName="path"/>
<path d="M276.204 152.723L278.517 206.051C278.679 210.87 274.817 214.864 269.995 214.864C265.631 214.864 261.971 211.568 261.515 207.227L255.196 154.175C254.543 147.956 259.42 142.54 265.674 142.54C271.355 142.54 276.014 147.045 276.204 152.723Z" fill="none" opacity="1" stroke="#000000" stroke-linecap="butt" stroke-linejoin="miter" stroke-width="1" vectornator:layerName="path"/>
<path d="M231.805 152.998L232.233 139.908L274.294 139.908L276.281 152.998" fill="#ffffff" fill-rule="nonzero" opacity="1" stroke="none" vectornator:layerName="path"/>
<path d="M231.805 152.998L232.233 139.908L274.294 139.908L276.281 152.998" fill="none" opacity="1" stroke="#000000" stroke-linecap="butt" stroke-linejoin="miter" stroke-width="1" vectornator:layerName="path"/>
<path d="M229.762 276.453L230.83 258.887L239.055 258.925L237.752 276.46L229.762 276.453Z" fill="#ffffff" fill-rule="nonzero" opacity="1" stroke="none" vectornator:layerName="path"/>
<path d="M229.762 276.453L230.83 258.887L239.055 258.925L237.752 276.46L229.762 276.453Z" fill="none" opacity="1" stroke="#000000" stroke-linecap="butt" stroke-linejoin="miter" stroke-width="1" vectornator:layerName="path"/>
<path d="M238.405 276.352L229.039 276.352L222.778 281.48C221.253 282.563 220.335 284.408 220.335 286.385L220.335 287.486L241.376 287.363L241.376 284.57C241.376 283.537 241.125 282.522 240.647 281.629L238.405 276.352Z" fill="#ffffff" fill-rule="nonzero" opacity="1" stroke="none" vectornator:layerName="path"/>
<path d="M238.405 276.352L229.039 276.352L222.778 281.48C221.253 282.563 220.335 284.408 220.335 286.385L220.335 287.486L241.376 287.363L241.376 284.57C241.376 283.537 241.125 282.522 240.647 281.629L238.405 276.352Z" fill="none" opacity="1" stroke="#000000" stroke-linecap="butt" stroke-linejoin="miter" stroke-width="1" vectornator:layerName="path"/>
<path d="M219.903 290.236L241.82 290.12L241.808 287.266L219.891 287.381L219.903 290.236Z" fill="#ffffff" fill-rule="nonzero" opacity="1" stroke="none" vectornator:layerName="path"/>
<path d="M219.903 290.236L241.82 290.12L241.808 287.266L219.891 287.381L219.903 290.236" fill="none" opacity="1" stroke="#000000" stroke-linecap="butt" stroke-linejoin="miter" stroke-width="1" vectornator:layerName="path"/>
<path d="M247.332 207.523L240.551 269.3L228.531 269.3L230.375 206.325" fill="#ffffff" fill-rule="nonzero" opacity="1" stroke="none" vectornator:layerName="path"/>
<path d="M247.332 207.523L240.551 269.3L228.531 269.3L230.375 206.325" fill="none" opacity="1" stroke="#000000" stroke-linecap="butt" stroke-linejoin="miter" stroke-width="1" vectornator:layerName="path"/>
<path d="M278.547 276.453L277.479 258.887L269.254 258.925L270.306 276.49L278.547 276.453Z" fill="#ffffff" fill-rule="nonzero" opacity="1" stroke="none" vectornator:layerName="path"/>
<path d="M278.547 276.453L277.479 258.887L269.254 258.925L270.306 276.49L278.547 276.453Z" fill="none" opacity="1" stroke="#000000" stroke-linecap="butt" stroke-linejoin="miter" stroke-width="1" vectornator:layerName="path"/>
<path d="M279.176 276.45L289.449 282.044L295.231 283.174C297.889 283.693 299.886 285.901 300.137 288.597L300.254 289.858L269.088 290L269.027 276.496L279.176 276.45Z" fill="#ffffff" fill-rule="nonzero" opacity="1" stroke="none" vectornator:layerName="path"/>
<path d="M279.176 276.45L289.449 282.044L295.231 283.174C297.889 283.693 299.886 285.901 300.137 288.597L300.254 289.858L269.088 290L269.027 276.496L279.176 276.45Z" fill="none" opacity="1" stroke="#000000" stroke-linecap="butt" stroke-linejoin="miter" stroke-width="1" vectornator:layerName="path"/>
<path d="M268.963 290.209L300.38 290.067L300.368 287.293L268.95 287.435L268.963 290.209Z" fill="#ffffff" fill-rule="nonzero" opacity="1" stroke="none" vectornator:layerName="path"/>
<path d="M268.963 290.209L300.38 290.067L300.368 287.293L268.95 287.435L268.963 290.209" fill="none" opacity="1" stroke="#000000" stroke-linecap="butt" stroke-linejoin="miter" stroke-width="1" vectornator:layerName="path"/>
<path d="M261.531 207.523L268.312 269.3L280.332 269.3L278.488 206.325" fill="#ffffff" fill-rule="nonzero" opacity="1" stroke="none" vectornator:layerName="path"/>
<path d="M261.531 207.523L268.312 269.3L280.332 269.3L278.488 206.325" fill="none" opacity="1" stroke="#000000" stroke-linecap="butt" stroke-linejoin="miter" stroke-width="1" vectornator:layerName="path"/>
<path d="M246.597 60.5938L248.66 62.0218C249.764 62.7858 250.684 63.7728 251.358 64.9148L256.206 71.6558C256.288 71.6398 256.368 71.6188 256.449 71.5998L262.87 60.7408L262.87 45.9448L246.33 45.9448L246.33 60.4608C246.422 60.4978 246.514 60.5358 246.597 60.5938" fill="#ffffff" fill-rule="nonzero" opacity="1" stroke="none" vectornator:layerName="path"/>
<path d="M246.597 60.5938L248.66 62.0218C249.764 62.7858 250.684 63.7728 251.358 64.9148L256.206 71.6558C256.288 71.6398 256.368 71.6188 256.449 71.5998L262.87 60.7408L262.87 45.9448L246.33 45.9448L246.33 60.4608C246.422 60.4978 246.514 60.5358 246.597 60.5938Z" fill="none" opacity="1" stroke="#000000" stroke-linecap="butt" stroke-linejoin="miter" stroke-width="1" vectornator:layerName="path"/>
<path d="M256.32 71.8146L251.358 64.9146C250.684 63.7736 249.764 62.7856 248.66 62.0216L246.597 60.5936C246.16 60.2916 245.582 60.2636 245.117 60.5226L243.036 61.6826C242.556 61.9496 242.289 62.4716 242.36 63.0036L243.215 69.4436C243.3 70.0786 244.106 70.3356 244.563 69.8736L249.117 65.2656C249.37 65.0086 249.803 65.0426 250.011 65.3356L256.32 72.9606L256.32 71.8146Z" fill="#ffffff" fill-rule="nonzero" opacity="1" stroke="none" vectornator:layerName="path"/>
<path d="M256.32 71.8146L251.358 64.9146C250.684 63.7736 249.764 62.7856 248.66 62.0216L246.597 60.5936C246.16 60.2916 245.582 60.2636 245.117 60.5226L243.036 61.6826C242.556 61.9496 242.289 62.4716 242.36 63.0036L243.215 69.4436C243.3 70.0786 244.106 70.3356 244.563 69.8736L249.117 65.2656C249.37 65.0086 249.803 65.0426 250.011 65.3356L256.32 72.9606L256.32 71.8146Z" fill="none" opacity="1" stroke="#000000" stroke-linecap="butt" stroke-linejoin="miter" stroke-width="1" vectornator:layerName="path"/>
<path d="M256.32 71.818L262.87 60.741C263.088 60.432 263.532 60.136 263.912 60.396L266.448 61.682C266.84 61.95 267.058 62.471 267.001 63.004L267.26 69.443C267.191 70.079 266.532 70.336 266.158 69.873L262.832 65.289C262.625 65.033 262.271 65.066 262.101 65.359L256.32 72.964L256.32 71.818Z" fill="#ffffff" fill-rule="nonzero" opacity="1" stroke="none" vectornator:layerName="path"/>
<path d="M256.32 71.818L262.87 60.741C263.088 60.432 263.532 60.136 263.912 60.396L266.448 61.682C266.84 61.95 267.058 62.471 267.001 63.004L267.26 69.443C267.191 70.079 266.532 70.336 266.158 69.873L262.832 65.289C262.625 65.033 262.271 65.066 262.101 65.359L256.32 72.964L256.32 71.818Z" fill="none" opacity="1" stroke="#000000" stroke-linecap="butt" stroke-linejoin="miter" stroke-width="1" vectornator:layerName="path"/>
<path d="M266.895 39.5213L268.624 29.5913C268.843 28.3323 268.935 27.0483 268.865 25.7713C268.825 25.0323 268.753 24.3903 268.639 23.9673C267.977 21.5133 266.423 18.0503 260.872 15.4673C251.702 11.1993 246.873 20.2633 246.873 20.2633C244.401 19.9943 242.349 20.8633 241.172 23.2403C240.069 25.4673 241.149 29.6553 241.483 31.1133L243.493 40.3633L245.223 45.0143" fill="#ffffff" fill-rule="nonzero" opacity="1" stroke="none" vectornator:layerName="path"/>
<path d="M266.895 39.5213L268.624 29.5913C268.843 28.3323 268.935 27.0483 268.865 25.7713C268.825 25.0323 268.753 24.3903 268.639 23.9673C267.977 21.5133 266.423 18.0503 260.872 15.4673C251.702 11.1993 246.873 20.2633 246.873 20.2633C244.401 19.9943 242.349 20.8633 241.172 23.2403C240.069 25.4673 241.149 29.6553 241.483 31.1133L243.493 40.3633L245.223 45.0143" fill="none" opacity="1" stroke="#000000" stroke-linecap="butt" stroke-linejoin="miter" stroke-width="1" vectornator:layerName="path"/>
<path d="M265.35 37.49C265.35 37.49 266.468 35.712 268.774 36.587C271.079 37.461 270.036 43.061 266.578 43.774C266.578 43.774 265.338 44.045 264.366 43.196C264.366 43.196 265.216 39.06 265.35 37.49" fill="#ffffff" fill-rule="nonzero" opacity="1" stroke="none" vectornator:layerName="path"/>
<path d="M265.35 37.49C265.35 37.49 266.468 35.712 268.774 36.587C271.079 37.461 270.036 43.061 266.578 43.774C266.578 43.774 265.338 44.045 264.366 43.196C264.366 43.196 265.216 39.06 265.35 37.49Z" fill="none" opacity="1" stroke="#000000" stroke-linecap="butt" stroke-linejoin="miter" stroke-width="1" vectornator:layerName="path"/>
<path d="M243.795 37.4263C243.795 37.4263 242.43 35.6833 240.241 36.5863C237.961 37.5263 238.978 43.0603 242.436 43.7743C242.436 43.7743 243.676 44.0443 244.648 43.1963C244.648 43.1963 243.929 38.9963 243.795 37.4263" fill="#ffffff" fill-rule="nonzero" opacity="1" stroke="none" vectornator:layerName="path"/>
<path d="M243.795 37.4263C243.795 37.4263 242.43 35.6833 240.241 36.5863C237.961 37.5263 238.978 43.0603 242.436 43.7743C242.436 43.7743 243.676 44.0443 244.648 43.1963C244.648 43.1963 243.929 38.9963 243.795 37.4263Z" fill="none" opacity="1" stroke="#000000" stroke-linecap="butt" stroke-linejoin="miter" stroke-width="1" vectornator:layerName="path"/>
<path d="M266.897 28.1971C266.041 28.5261 264.763 28.7731 262.817 28.8111C256.188 28.9391 249.842 25.5701 248.435 23.7211C247.896 25.8751 247.815 28.5871 244.343 30.4731L244.648 38.1601L243.646 37.2981C243.927 40.2111 244.525 43.7931 245.801 46.3761C248.323 51.4841 251.471 53.1121 255.696 52.9861C259.92 52.8601 263.143 50.7421 265.091 46.8061C267.167 42.6141 267.498 35.5521 267.497 32.1771C267.497 32.1771 267.549 30.3901 266.897 28.1971" fill="#ffffff" fill-rule="nonzero" opacity="1" stroke="none" vectornator:layerName="path"/>
<path d="M266.897 28.1971C266.041 28.5261 264.763 28.7731 262.817 28.8111C256.188 28.9391 249.842 25.5701 248.435 23.7211C247.896 25.8751 247.815 28.5871 244.343 30.4731L244.648 38.1601L243.646 37.2981C243.927 40.2111 244.525 43.7931 245.801 46.3761C248.323 51.4841 251.471 53.1121 255.696 52.9861C259.92 52.8601 263.143 50.7421 265.091 46.8061C267.167 42.6141 267.498 35.5521 267.497 32.1771C267.497 32.1771 267.549 30.3901 266.897 28.1971Z" fill="none" opacity="1" stroke="#000000" stroke-linecap="butt" stroke-linejoin="miter" stroke-width="1" vectornator:layerName="path"/>
<path d="M367.914 162.055C363.304 162.05 359.641 165.926 359.906 170.528L362.681 218.817C362.84 222.567 365.927 225.525 369.68 225.525C373.548 225.525 376.684 222.389 376.684 218.521L375.917 169.942C375.848 165.569 372.287 162.06 367.914 162.055" fill="#ffffff" fill-rule="nonzero" opacity="1" stroke="none" vectornator:layerName="path"/>
<path d="M367.914 162.055C363.304 162.05 359.641 165.926 359.906 170.528L362.681 218.817C362.84 222.567 365.927 225.525 369.68 225.525C373.548 225.525 376.684 222.389 376.684 218.521L375.917 169.942C375.848 165.569 372.287 162.06 367.914 162.055Z" fill="none" opacity="1" stroke="#000000" stroke-linecap="round" stroke-linejoin="round" stroke-width="1" vectornator:layerName="path"/>
<path d="M362.792 219.339L367.097 272.845L376.885 272.845L376.617 218.753" fill="#ffffff" fill-rule="nonzero" opacity="1" stroke="none" vectornator:layerName="path"/>
<path d="M362.792 219.339L367.097 272.845L376.885 272.845L376.617 218.753" fill="none" opacity="1" stroke="#000000" stroke-linecap="round" stroke-linejoin="round" stroke-width="1" vectornator:layerName="path"/>
<path d="M367.053 272.844L367.82 282.422L376.842 282.422L376.842 272.844L367.053 272.844Z" fill="#ffffff" fill-rule="nonzero" opacity="1" stroke="none" vectornator:layerName="path"/>
<path d="M367.053 272.844L367.82 282.422L376.842 282.422L376.842 272.844L367.053 272.844Z" fill="none" opacity="1" stroke="#000000" stroke-linecap="round" stroke-linejoin="round" stroke-width="1" vectornator:layerName="path"/>
<path d="M377.789 281.185L377.906 288.652L349.805 288.652L349.805 288.434C349.805 286.714 350.794 285.148 352.347 284.408L366.116 278.914C366.611 278.678 367.248 278.688 367.625 279.087C369.405 280.965 371.359 284.024 376.791 280.705C377.185 280.464 377.701 280.732 377.789 281.185" fill="#ffffff" fill-rule="nonzero" opacity="1" stroke="none" vectornator:layerName="path"/>
<path d="M377.789 281.185L377.906 288.652L349.805 288.652L349.805 288.434C349.805 286.714 350.794 285.148 352.347 284.408L366.116 278.914C366.611 278.678 367.248 278.688 367.625 279.087C369.405 280.965 371.359 284.024 376.791 280.705C377.185 280.464 377.701 280.732 377.789 281.185Z" fill="none" opacity="1" stroke="#000000" stroke-linecap="round" stroke-linejoin="round" stroke-width="1" vectornator:layerName="path"/>
<path d="M349.805 290.611L377.906 290.611L377.906 288.652L349.805 288.652L349.805 290.611Z" fill="#ffffff" fill-rule="nonzero" opacity="1" stroke="none" vectornator:layerName="path"/>
<path d="M349.805 290.611L377.906 290.611L377.906 288.652L349.805 288.652L349.805 290.611Z" fill="none" opacity="1" stroke="#000000" stroke-linecap="round" stroke-linejoin="round" stroke-width="1" vectornator:layerName="path"/>
<path d="M391.114 162.037C395.73 162.032 399.395 165.917 399.121 170.525L396.252 218.817C396.093 222.567 393.007 225.525 389.254 225.525C385.385 225.525 382.249 222.389 382.249 218.52L383.111 169.907C383.189 165.542 386.748 162.042 391.114 162.037" fill="#ffffff" fill-rule="nonzero" opacity="1" stroke="none" vectornator:layerName="path"/>
<path d="M391.114 162.037C395.73 162.032 399.395 165.917 399.121 170.525L396.252 218.817C396.093 222.567 393.007 225.525 389.254 225.525C385.385 225.525 382.249 222.389 382.249 218.52L383.111 169.907C383.189 165.542 386.748 162.042 391.114 162.037Z" fill="none" opacity="1" stroke="#000000" stroke-linecap="round" stroke-linejoin="round" stroke-width="1" vectornator:layerName="path"/>
<path d="M396.141 219.339L391.837 272.845L382.048 272.845L382.316 218.753" fill="#ffffff" fill-rule="nonzero" opacity="1" stroke="none" vectornator:layerName="path"/>
<path d="M396.141 219.339L391.837 272.845L382.048 272.845L382.316 218.753" fill="none" opacity="1" stroke="#000000" stroke-linecap="round" stroke-linejoin="round" stroke-width="1" vectornator:layerName="path"/>
<path d="M391.793 272.844L391.026 282.422L382.004 282.422L382.004 272.844L391.793 272.844Z" fill="#ffffff" fill-rule="nonzero" opacity="1" stroke="none" vectornator:layerName="path"/>
<path d="M391.793 272.844L391.026 282.422L382.004 282.422L382.004 272.844L391.793 272.844Z" fill="none" opacity="1" stroke="#000000" stroke-linecap="round" stroke-linejoin="round" stroke-width="1" vectornator:layerName="path"/>
<path d="M383.985 279.088L390.151 279.088C390.67 279.088 391.175 279.263 391.582 279.584L397.468 283.555C398.848 284.498 399.679 286.105 399.679 287.828L399.679 288.787L379.792 288.679L379.792 286.247C379.792 285.347 380.019 284.463 380.451 283.684L381.874 280.46C382.242 279.626 383.07 279.088 383.985 279.088" fill="#ffffff" fill-rule="nonzero" opacity="1" stroke="none" vectornator:layerName="path"/>
<path d="M383.985 279.088L390.151 279.088C390.67 279.088 391.175 279.263 391.582 279.584L397.468 283.555C398.848 284.498 399.679 286.105 399.679 287.828L399.679 288.787L379.792 288.679L379.792 286.247C379.792 285.347 380.019 284.463 380.451 283.684L381.874 280.46C382.242 279.626 383.07 279.088 383.985 279.088Z" fill="none" opacity="1" stroke="#000000" stroke-linecap="round" stroke-linejoin="round" stroke-width="1" vectornator:layerName="path"/>
<path d="M379.792 290.611L399.679 290.611L399.679 288.652L379.792 288.652L379.792 290.611Z" fill="#ffffff" fill-rule="nonzero" opacity="1" stroke="none" vectornator:layerName="path"/>
<path d="M379.792 290.611L399.679 290.611L399.679 288.652L379.792 288.652L379.792 290.611Z" fill="none" opacity="1" stroke="#000000" stroke-linecap="round" stroke-linejoin="round" stroke-width="1" vectornator:layerName="path"/>
<path d="M356.256 145.175C356.453 121.752 366.317 118.203 366.317 118.203L393.595 118.203C393.595 118.203 402.551 121.752 402.748 145.175C402.945 168.598 403.513 196.99 403.513 196.99L355.491 196.99C355.491 196.99 356.059 168.598 356.256 145.175" fill="#ffffff" fill-rule="nonzero" opacity="1" stroke="none" vectornator:layerName="path"/>
<path d="M356.256 145.175C356.453 121.752 366.317 118.203 366.317 118.203L393.595 118.203C393.595 118.203 402.551 121.752 402.748 145.175C402.945 168.598 403.513 196.99 403.513 196.99L355.491 196.99C355.491 196.99 356.059 168.598 356.256 145.175Z" fill="none" opacity="1" stroke="#000000" stroke-linecap="round" stroke-linejoin="round" stroke-width="1" vectornator:layerName="path"/>
<path d="M351.272 124.366C351.557 116.57 352.746 102.774 356.969 83.8299L356.971 83.8309C357.51 81.2129 359.924 79.3449 362.656 79.5619C365.615 79.7969 367.823 82.3869 367.587 85.3449C367.557 85.7329 367.483 86.1069 367.376 86.4639L360.223 124.366" fill="#ffffff" fill-rule="nonzero" opacity="1" stroke="none" vectornator:layerName="path"/>
<path d="M351.272 124.366C351.557 116.57 352.746 102.774 356.969 83.8299L356.971 83.8309C357.51 81.2129 359.924 79.3449 362.656 79.5619C365.615 79.7969 367.823 82.3869 367.587 85.3449C367.557 85.7329 367.483 86.1069 367.376 86.4639L360.223 124.366" fill="none" opacity="1" stroke="#000000" stroke-linecap="round" stroke-linejoin="round" stroke-width="1" vectornator:layerName="path"/>
<path d="M399.786 123.459L360.414 123.459L360.414 119.03L368.473 119.03L399.786 119.03L399.786 123.459Z" fill="#ffffff" fill-rule="nonzero" opacity="1" stroke="none" vectornator:layerName="path"/>
<path d="M399.786 123.459L360.414 123.459L360.414 119.03L368.473 119.03L399.786 119.03L399.786 123.459Z" fill="none" opacity="1" stroke="#000000" stroke-linecap="round" stroke-linejoin="round" stroke-width="1" vectornator:layerName="path"/>
<path d="M410.032 124.366C409.747 116.57 408.558 102.774 404.335 83.8299L404.333 83.8309C403.794 81.2129 401.38 79.3449 398.648 79.5619C395.689 79.7969 393.481 82.3869 393.717 85.3449C393.747 85.7329 393.821 86.1069 393.928 86.4639L401.081 124.366" fill="#ffffff" fill-rule="nonzero" opacity="1" stroke="none" vectornator:layerName="path"/>
<path d="M410.032 124.366C409.747 116.57 408.558 102.774 404.335 83.8299L404.333 83.8309C403.794 81.2129 401.38 79.3449 398.648 79.5619C395.689 79.7969 393.481 82.3869 393.717 85.3449C393.747 85.7329 393.821 86.1069 393.928 86.4639L401.081 124.366" fill="none" opacity="1" stroke="#000000" stroke-linecap="round" stroke-linejoin="round" stroke-width="1" vectornator:layerName="path"/>
<path d="M386.875 72.983C386.875 72.983 399.757 77.279 403.131 80.343L393.596 118.203L366.296 118.203L359.086 79.679C359.086 79.679 363.5 74.991 374.566 72.832L386.875 72.983Z" fill="#000000" fill-rule="nonzero" opacity="1" stroke="none" vectornator:layerName="path"/>
<path d="M386.875 72.983C386.875 72.983 399.757 77.279 403.131 80.343L393.596 118.203L366.296 118.203L359.086 79.679C359.086 79.679 363.5 74.991 374.566 72.832L386.875 72.983Z" fill="none" opacity="1" stroke="#000000" stroke-linecap="round" stroke-linejoin="round" stroke-width="1" vectornator:layerName="path"/>
<path d="M385.45 66.3601L359.025 66.3601C358.845 60.7211 359.24 54.3181 362.86 50.8181C365.293 48.4671 366.328 41.8081 366.328 41.8081L366.345 41.8091C367.347 34.7941 373.26 30.1611 380.424 30.1611C387.589 30.1611 393.502 34.7941 394.504 41.8101L394.536 41.8091C394.536 41.8091 395.576 48.4671 398.008 50.8181C401.628 54.3181 402.928 60.7211 402.748 66.3601L385.45 66.3601Z" fill="#ffffff" fill-rule="nonzero" opacity="1" stroke="none" vectornator:layerName="path"/>
<path d="M385.45 66.3601L359.025 66.3601C358.845 60.7211 359.24 54.3181 362.86 50.8181C365.293 48.4671 366.328 41.8081 366.328 41.8081L366.345 41.8091C367.347 34.7941 373.26 30.1611 380.424 30.1611C387.589 30.1611 393.502 34.7941 394.504 41.8101L394.536 41.8091C394.536 41.8091 395.576 48.4671 398.008 50.8181C401.628 54.3181 402.928 60.7211 402.748 66.3601L385.45 66.3601" fill="none" opacity="1" stroke="#000000" stroke-linecap="round" stroke-linejoin="round" stroke-width="1" vectornator:layerName="path"/>
<path d="M380.721 78.7943L380.721 78.7943C384.12 78.7943 386.875 76.0393 386.875 72.6403L386.875 59.5413L374.567 59.5413L374.567 72.6403C374.567 76.0393 377.322 78.7943 380.721 78.7943" fill="#ffffff" fill-rule="nonzero" opacity="1" stroke="none" vectornator:layerName="path"/>
<path d="M380.721 78.7943L380.721 78.7943C384.12 78.7943 386.875 76.0393 386.875 72.6403L386.875 59.5413L374.567 59.5413L374.567 72.6403C374.567 76.0393 377.322 78.7943 380.721 78.7943Z" fill="none" opacity="1" stroke="#000000" stroke-linecap="round" stroke-linejoin="round" stroke-width="1" vectornator:layerName="path"/>
<path d="M393.076 48.6778C391.139 47.0968 389.738 49.2498 389.422 49.9518C389.655 51.7778 390.063 54.1148 389.663 56.2558L389.954 56.4088C392.266 58.1158 395.329 50.5168 393.076 48.6778" fill="#ffffff" fill-rule="nonzero" opacity="1" stroke="none" vectornator:layerName="path"/>
<path d="M393.076 48.6778C391.139 47.0968 389.738 49.2498 389.422 49.9518C389.655 51.7778 390.063 54.1148 389.663 56.2558L389.954 56.4088C392.266 58.1158 395.329 50.5168 393.076 48.6778Z" fill="none" opacity="1" stroke="#000000" stroke-linecap="round" stroke-linejoin="round" stroke-width="1" vectornator:layerName="path"/>
<path d="M368.666 51.7776L368.586 48.6536C367.995 48.0036 367.103 47.5576 365.936 48.5106C363.907 50.1666 366.945 56.6046 369.259 56.6296C368.858 54.8456 368.666 51.7776 368.666 51.7776" fill="#ffffff" fill-rule="nonzero" opacity="1" stroke="none" vectornator:layerName="path"/>
<path d="M368.666 51.7776L368.586 48.6536C367.995 48.0036 367.103 47.5576 365.936 48.5106C363.907 50.1666 366.945 56.6046 369.259 56.6296C368.858 54.8456 368.666 51.7776 368.666 51.7776Z" fill="none" opacity="1" stroke="#000000" stroke-linecap="round" stroke-linejoin="round" stroke-width="1" vectornator:layerName="path"/>
<path d="M389.656 51.778L389.038 46.936C388.063 45.669 386.977 43.559 386.784 40.288C384.496 42.18 377.165 43.781 368.46 43.741L368.666 51.778C368.666 51.778 368.872 54.932 369.281 56.732C369.942 59.65 371.804 61.689 374.436 63.331L374.915 63.63C377.699 65.366 381.296 65.407 384.123 63.733C386.973 62.045 388.97 59.82 389.584 56.689C390.025 54.442 389.656 51.778 389.656 51.778" fill="#ffffff" fill-rule="nonzero" opacity="1" stroke="none" vectornator:layerName="path"/>
<path d="M389.656 51.778L389.038 46.936C388.063 45.669 386.977 43.559 386.784 40.288C384.496 42.18 377.165 43.781 368.46 43.741L368.666 51.778C368.666 51.778 368.872 54.932 369.281 56.732C369.942 59.65 371.804 61.689 374.436 63.331L374.915 63.63C377.699 65.366 381.296 65.407 384.123 63.733C386.973 62.045 388.97 59.82 389.584 56.689C390.025 54.442 389.656 51.778 389.656 51.778Z" fill="none" opacity="1" stroke="#000000" stroke-linecap="round" stroke-linejoin="round" stroke-width="1" vectornator:layerName="path"/>
<path d="M351.957 93.2095C350.722 100.542 351.27 103.78 351.27 103.78L363.851 105.14L359.086 79.6795C359.086 79.6795 354.065 80.6925 351.957 93.2095" fill="#000000" fill-rule="nonzero" opacity="1" stroke="none" vectornator:layerName="path"/>
<path d="M351.957 93.2095C350.722 100.542 351.27 103.78 351.27 103.78L363.851 105.14L359.086 79.6795C359.086 79.6795 354.065 80.6925 351.957 93.2095Z" fill="none" opacity="1" stroke="#000000" stroke-linecap="round" stroke-linejoin="round" stroke-width="1" vectornator:layerName="path"/>
<path d="M388.676 119.03L371.523 119.03L371.523 116.542L388.676 116.542L388.676 119.03Z" fill="#ffffff" fill-rule="nonzero" opacity="1" stroke="none" vectornator:layerName="path"/>
<path d="M388.676 119.03L371.523 119.03L371.523 116.542L388.676 116.542L388.676 119.03Z" fill="none" opacity="1" stroke="#000000" stroke-linecap="round" stroke-linejoin="round" stroke-width="1" vectornator:layerName="path"/>
<path d="M356.779 125.5L356.779 125.494C356.783 125.495 356.786 125.497 356.79 125.498C365.339 127.418 369.508 126.883 372.762 126.963C376.185 127.046 381.658 124.351 381.174 123.051C380.69 121.751 378.206 122.596 376.439 123.431C374.671 124.265 371.463 123.387 368.572 122.635C365.689 121.884 366.481 121.125 366.481 121.125L369.02 120.205C369.959 119.865 370.425 118.891 369.973 118.13C369.633 117.541 368.939 117.372 368.271 117.497L358.253 120.678" fill="#ffffff" fill-rule="nonzero" opacity="1" stroke="none" vectornator:layerName="path"/>
<path d="M356.779 125.5L356.779 125.494C356.783 125.495 356.786 125.497 356.79 125.498C365.339 127.418 369.508 126.883 372.762 126.963C376.185 127.046 381.658 124.351 381.174 123.051C380.69 121.751 378.206 122.596 376.439 123.431C374.671 124.265 371.463 123.387 368.572 122.635C365.689 121.884 366.481 121.125 366.481 121.125L369.02 120.205C369.959 119.865 370.425 118.891 369.973 118.13C369.633 117.541 368.939 117.372 368.271 117.497L358.253 120.678" fill="none" opacity="1" stroke="#000000" stroke-linecap="round" stroke-linejoin="round" stroke-width="1" vectornator:layerName="path"/>
<path d="M356.323 120.301C352.417 120.301 351.478 122.628 351.34 123.404C350.893 125.913 352.597 128.621 355.144 128.639C359.086 128.668 359.994 125.477 359.994 125.477" fill="#ffffff" fill-rule="nonzero" opacity="1" stroke="none" vectornator:layerName="path"/>
<path d="M356.323 120.301C352.417 120.301 351.478 122.628 351.34 123.404C350.893 125.913 352.597 128.621 355.144 128.639C359.086 128.668 359.994 125.477 359.994 125.477" fill="none" opacity="1" stroke="#000000" stroke-linecap="round" stroke-linejoin="round" stroke-width="1" vectornator:layerName="path"/>
<path d="M409.056 93.2095C410.291 100.542 409.743 103.78 409.743 103.78L397.162 105.14L401.927 79.6795C401.927 79.6795 406.948 80.6925 409.056 93.2095" fill="#000000" fill-rule="nonzero" opacity="1" stroke="none" vectornator:layerName="path"/>
<path d="M409.056 93.2095C410.291 100.542 409.743 103.78 409.743 103.78L397.162 105.14L401.927 79.6795C401.927 79.6795 406.948 80.6925 409.056 93.2095Z" fill="none" opacity="1" stroke="#000000" stroke-linecap="round" stroke-linejoin="round" stroke-width="1" vectornator:layerName="path"/>
<path d="M404.525 125.5L404.525 125.494C404.521 125.495 404.518 125.497 404.514 125.498C395.965 127.418 391.796 126.883 388.542 126.963C385.119 127.046 379.646 124.351 380.13 123.051C380.614 121.751 383.098 122.596 384.865 123.431C386.633 124.265 389.841 123.387 392.732 122.635C395.615 121.884 394.823 121.125 394.823 121.125L392.284 120.205C391.345 119.865 390.879 118.891 391.331 118.13C391.671 117.541 392.365 117.372 393.033 117.497L403.051 120.678" fill="#ffffff" fill-rule="nonzero" opacity="1" stroke="none" vectornator:layerName="path"/>
<path d="M404.525 125.5L404.525 125.494C404.521 125.495 404.518 125.497 404.514 125.498C395.965 127.418 391.796 126.883 388.542 126.963C385.119 127.046 379.646 124.351 380.13 123.051C380.614 121.751 383.098 122.596 384.865 123.431C386.633 124.265 389.841 123.387 392.732 122.635C395.615 121.884 394.823 121.125 394.823 121.125L392.284 120.205C391.345 119.865 390.879 118.891 391.331 118.13C391.671 117.541 392.365 117.372 393.033 117.497L403.051 120.678" fill="none" opacity="1" stroke="#000000" stroke-linecap="round" stroke-linejoin="round" stroke-width="1" vectornator:layerName="path"/>
<path d="M404.981 120.301C408.887 120.301 409.826 122.628 409.964 123.404C410.411 125.913 408.707 128.621 406.16 128.639C402.218 128.668 401.31 125.477 401.31 125.477" fill="#ffffff" fill-rule="nonzero" opacity="1" stroke="none" vectornator:layerName="path"/>
<path d="M404.981 120.301C408.887 120.301 409.826 122.628 409.964 123.404C410.411 125.913 408.707 128.621 406.16 128.639C402.218 128.668 401.31 125.477 401.31 125.477" fill="none" opacity="1" stroke="#000000" stroke-linecap="round" stroke-linejoin="round" stroke-width="1" vectornator:layerName="path"/>
<path d="M369.655 91.1832C369.749 91.1682 369.844 91.2032 369.908 91.2922C369.928 91.3172 369.923 91.3522 369.898 91.3672C369.864 91.3922 369.824 91.3972 369.789 91.3972C369.655 91.4072 369.526 91.4172 369.397 91.4262C369.233 91.4412 369.083 91.3822 368.934 91.3172C368.885 91.2972 368.87 91.2482 368.86 91.1932C368.84 91.0992 368.835 90.9992 368.845 90.9052C368.855 90.7852 368.855 90.6662 368.86 90.5522C368.87 90.3832 368.875 90.2142 368.89 90.0452C368.915 89.7472 368.905 89.4542 368.919 89.1602C368.929 88.9422 368.944 88.7282 368.954 88.5142C368.969 88.3312 368.979 88.1522 368.964 87.9682C368.959 87.9082 368.994 87.8732 369.044 87.8982C369.168 87.9582 369.292 87.9232 369.416 87.9282C369.521 87.9332 369.63 87.9282 369.735 87.9332C369.824 87.9332 369.908 87.9532 369.993 87.9932C370.008 87.9982 370.028 88.0082 370.048 88.0222C370.067 88.0422 370.087 88.0672 370.077 88.0972C370.072 88.1372 370.038 88.1372 370.008 88.1422C369.943 88.1522 369.874 88.1572 369.809 88.1522C369.739 88.1472 369.675 88.1572 369.61 88.1772C369.541 88.2012 369.471 88.2112 369.397 88.1962C369.342 88.1912 369.332 88.2012 369.332 88.2612C369.332 88.3012 369.342 88.3412 369.342 88.3852C369.347 88.5002 369.352 88.6142 369.332 88.7232C369.307 88.8372 369.312 88.9522 369.307 89.0662C369.297 89.2602 369.282 89.4492 369.272 89.6432C369.272 89.6672 369.267 89.6872 369.272 89.7072C369.272 89.7372 369.292 89.7572 369.322 89.7522C369.352 89.7522 369.387 89.7422 369.421 89.7372C369.541 89.7272 369.655 89.7272 369.769 89.7722C369.799 89.7822 369.834 89.7972 369.849 89.8312C369.869 89.8612 369.854 89.9012 369.814 89.9112C369.744 89.9262 369.675 89.9412 369.605 89.9462C369.506 89.9562 369.416 89.9902 369.317 89.9902C369.287 89.9902 369.272 90.0052 369.267 90.0352C369.262 90.0552 369.257 90.0752 369.252 90.0952C369.243 90.2842 369.223 90.4672 369.198 90.6512C369.183 90.7902 369.203 90.9302 369.178 91.0692C369.178 91.0892 369.183 91.1082 369.188 91.1282C369.203 91.2032 369.213 91.2132 369.292 91.2082L369.352 91.2082C369.377 91.2032 369.397 91.2032 369.426 91.1982C369.496 91.1932 369.576 91.1982 369.655 91.1832" fill="#ffffff" fill-rule="nonzero" opacity="1" stroke="none" vectornator:layerName="path"/>
<path d="M371.449 91.1882C371.514 91.1932 371.573 91.1832 371.623 91.1382C371.658 91.1042 371.692 91.1042 371.727 91.1132C371.767 91.1232 371.792 91.1432 371.792 91.1832C371.792 91.2232 371.792 91.2672 371.807 91.3072C371.822 91.3422 371.802 91.3672 371.772 91.3772C371.717 91.3972 371.663 91.3972 371.608 91.3872C371.464 91.3622 371.325 91.3822 371.186 91.3972C371.121 91.4022 371.051 91.4022 370.987 91.4122C370.932 91.4172 370.873 91.4222 370.823 91.4362C370.723 91.4612 370.644 91.4362 370.554 91.3872C370.42 91.3122 370.376 91.1982 370.381 91.0492C370.391 90.8552 370.395 90.6562 370.415 90.4622C370.435 90.2692 370.435 90.0752 370.44 89.8762C370.445 89.6822 370.45 89.4882 370.45 89.2902C370.45 89.1462 370.44 89.0012 370.44 88.8572C370.445 88.6242 370.455 88.3902 370.46 88.1572L370.46 87.9682C370.46 87.9282 370.475 87.9132 370.515 87.9082C370.654 87.8982 370.793 88.0132 370.798 88.1522C370.808 88.3362 370.818 88.5192 370.823 88.6982C370.823 88.7582 370.808 88.8182 370.808 88.8772C370.803 89.2602 370.788 89.6382 370.788 90.0202C370.788 90.2142 370.783 90.4132 370.748 90.6072C370.719 90.7762 370.723 90.9452 370.723 91.1132C370.719 91.1732 370.733 91.1882 370.798 91.1882C370.878 91.1932 370.957 91.1932 371.022 91.1932C371.176 91.1732 371.31 91.1782 371.449 91.1882" fill="#ffffff" fill-rule="nonzero" opacity="1" stroke="none" vectornator:layerName="path"/>
<path d="M372.065 89.4886C372.085 89.1106 372.08 88.7386 372.115 88.3606C372.125 88.2666 372.135 88.1716 372.15 88.0776C372.155 88.0376 372.15 87.9976 372.145 87.9626C372.14 87.9086 372.164 87.8786 372.219 87.8786C372.388 87.8836 372.552 87.8436 372.721 87.8336C372.801 87.8286 372.88 87.8286 372.96 87.8286C373.049 87.8336 373.129 87.8786 373.208 87.9186C373.243 87.9386 373.278 87.9626 373.312 87.9876C373.337 88.0076 373.322 88.0526 373.292 88.0576C373.263 88.0626 373.233 88.0676 373.203 88.0626C373.014 88.0576 372.825 88.0926 372.641 88.1116C372.482 88.1316 372.482 88.1316 372.473 88.2906C372.443 88.6536 372.413 89.0216 372.413 89.3896C372.413 89.4436 372.398 89.5036 372.398 89.5636C372.393 89.6076 372.413 89.6326 372.453 89.6276C372.602 89.6076 372.726 89.6726 372.85 89.7316C372.885 89.7516 372.945 89.7566 372.93 89.8166C372.915 89.8666 372.86 89.8316 372.83 89.8516C372.82 89.8566 372.805 89.8566 372.791 89.8516C372.666 89.8166 372.552 89.8766 372.438 89.9056C372.398 89.9156 372.383 89.9456 372.378 89.9806C372.363 90.0696 372.373 90.1596 372.368 90.2436C372.363 90.4626 372.378 90.6866 372.358 90.9046C372.353 90.9646 372.358 91.0286 372.368 91.0936C372.373 91.1386 372.383 91.1486 372.433 91.1386C372.522 91.1236 372.612 91.1136 372.696 91.0886C372.771 91.0736 372.84 91.0936 372.91 91.0986C372.925 91.0986 372.94 91.1086 372.955 91.1136C372.994 91.1286 373.034 91.1486 373.029 91.1926C373.029 91.2426 372.974 91.2376 372.94 91.2476C372.925 91.2526 372.91 91.2476 372.89 91.2526C372.791 91.2626 372.691 91.2776 372.597 91.3226C372.562 91.3426 372.517 91.3526 372.477 91.3666C372.403 91.3866 372.328 91.3766 372.259 91.3426C372.214 91.3176 372.179 91.2826 372.125 91.2726C372.095 91.2626 372.085 91.2326 372.075 91.2026C372.04 91.1086 372.025 91.0146 372.03 90.9146C372.035 90.6966 372.045 90.4726 372.05 90.2486C372.05 90.2286 372.05 90.2146 372.055 90.1946L372.05 90.1946C372.055 89.9606 372.05 89.7226 372.065 89.4886" fill="#ffffff" fill-rule="nonzero" opacity="1" stroke="none" vectornator:layerName="path"/>
<path d="M374.306 88.1668C374.291 88.1268 374.266 88.1168 374.231 88.1418C374.167 88.1868 374.112 88.2368 374.092 88.3158C374.058 88.4448 374.013 88.5738 374.003 88.7088C373.993 88.8178 373.963 88.9268 373.943 89.0318C373.923 89.1008 373.913 89.1708 373.908 89.2448C373.904 89.2998 373.899 89.3548 373.879 89.4038C373.874 89.4338 373.864 89.4638 373.864 89.4938C373.859 89.6478 373.819 89.8018 373.819 89.9558C373.824 90.0548 373.804 90.1598 373.794 90.2588C373.769 90.4878 373.764 90.7108 373.839 90.9348C373.854 90.9798 373.859 91.0238 373.879 91.0688C373.904 91.1238 373.938 91.1338 373.988 91.0988C374.008 91.0838 374.028 91.0638 374.038 91.0438C374.112 90.9398 374.187 90.8408 374.256 90.7358C374.346 90.6018 374.43 90.4728 374.515 90.3438C374.525 90.3288 374.535 90.3138 374.544 90.3038C374.569 90.2838 374.599 90.2788 374.629 90.2888C374.654 90.2988 374.669 90.3238 374.669 90.3488C374.669 90.3828 374.669 90.4178 374.659 90.4528C374.619 90.6368 374.554 90.8158 374.45 90.9748C374.425 91.0088 374.405 91.0488 374.395 91.0888C374.381 91.1288 374.356 91.1638 374.336 91.1978C374.241 91.3468 374.067 91.3968 373.904 91.3368C373.899 91.3328 373.899 91.3328 373.894 91.3328C373.68 91.2728 373.576 91.1188 373.506 90.9298C373.456 90.8008 373.421 90.6668 373.416 90.5218C373.416 90.4078 373.416 90.2988 373.426 90.1848C373.436 90.1048 373.446 90.0258 373.436 89.9458C373.426 89.9008 373.441 89.8518 373.446 89.8068C373.466 89.6528 373.481 89.4988 373.501 89.3398C373.511 89.2698 373.501 89.2008 373.506 89.1308C373.516 89.0218 373.536 88.9118 373.561 88.8028C373.585 88.6788 373.625 88.5498 373.655 88.4248C373.68 88.3158 373.72 88.2118 373.769 88.1168C373.844 87.9828 373.953 87.8988 374.117 87.9038C374.172 87.9088 374.231 87.9138 374.291 87.9238C374.455 87.9478 374.564 88.0428 374.629 88.1968C374.669 88.2908 374.704 88.3908 374.694 88.4998C374.679 88.6088 374.614 88.6888 374.535 88.7478C374.46 88.8078 374.351 88.7528 374.336 88.6588C374.326 88.5938 374.321 88.5298 374.331 88.4698C374.356 88.3658 374.336 88.2658 374.306 88.1668" fill="#ffffff" fill-rule="nonzero" opacity="1" stroke="none" vectornator:layerName="path"/>
<path d="M375.449 90.229C375.454 90.189 375.459 90.15 375.454 90.11C375.429 89.931 375.454 89.752 375.469 89.573C375.499 89.151 375.534 88.728 375.568 88.306C375.573 88.261 375.578 88.216 375.583 88.177C375.583 88.142 375.568 88.127 375.538 88.122C375.469 88.117 375.409 88.132 375.345 88.142C375.26 88.157 375.181 88.152 375.101 88.102C375.037 88.057 375.002 87.998 374.982 87.923C374.967 87.883 374.982 87.864 375.037 87.864C375.111 87.859 375.191 87.849 375.27 87.834C375.374 87.814 375.484 87.809 375.593 87.804C375.772 87.804 375.956 87.809 376.135 87.804C376.219 87.804 376.294 87.824 376.358 87.888C376.393 87.933 376.443 87.963 376.483 88.003C376.522 88.042 376.503 88.092 376.448 88.097C376.413 88.097 376.378 88.092 376.339 88.092C376.209 88.097 376.08 88.097 375.946 88.097C375.896 88.097 375.891 88.107 375.911 88.162C375.926 88.216 375.936 88.271 375.936 88.331C375.931 88.584 375.936 88.838 375.906 89.091C375.866 89.449 375.827 89.812 375.782 90.169C375.777 90.214 375.777 90.259 375.777 90.304C375.787 90.537 375.767 90.776 375.757 91.009C375.747 91.114 375.727 91.218 375.673 91.307C375.643 91.362 375.633 91.427 375.618 91.486C375.608 91.521 375.583 91.531 375.548 91.516C375.474 91.486 375.439 91.427 375.434 91.342C375.434 91.213 375.429 91.089 375.429 90.96L375.429 90.845C375.434 90.636 375.414 90.433 375.449 90.229" fill="#ffffff" fill-rule="nonzero" opacity="1" stroke="none" vectornator:layerName="path"/>
<path d="M377.601 89.429L377.601 89.419C377.601 89.424 377.596 89.429 377.596 89.429C377.596 89.434 377.601 89.439 377.601 89.439L377.601 89.429ZM377.343 89.951C377.338 89.956 377.338 89.961 377.338 89.966L377.333 89.966C377.338 89.961 377.353 89.961 377.343 89.951M377.487 89.817C377.502 89.802 377.512 89.787 377.512 89.762C377.581 89.712 377.581 89.638 377.601 89.563C377.601 89.553 377.596 89.553 377.591 89.543C377.586 89.548 377.581 89.553 377.576 89.553C377.522 89.618 377.517 89.692 377.512 89.762C377.497 89.782 377.492 89.797 377.492 89.822C377.472 89.832 377.467 89.851 377.462 89.871C377.452 89.876 377.442 89.886 377.437 89.891C377.417 89.916 377.417 89.946 377.417 89.971C377.367 89.996 377.348 90.04 377.333 90.09C377.333 90.11 377.323 90.125 377.318 90.145L377.313 90.145C377.323 90.125 377.328 90.11 377.333 90.09C377.387 90.065 377.392 90.015 377.412 89.966C377.432 89.951 377.437 89.921 377.437 89.891C377.442 89.881 377.452 89.871 377.462 89.871C377.472 89.851 377.477 89.836 377.487 89.817M377.124 89.966C377.124 89.976 377.124 89.991 377.134 89.996C377.144 90.005 377.159 89.991 377.159 89.981C377.203 89.871 377.268 89.762 377.328 89.663C377.353 89.613 377.372 89.558 377.387 89.509C377.447 89.31 377.477 89.106 377.487 88.902C377.497 88.634 377.397 88.415 377.228 88.221C377.213 88.202 377.193 88.187 377.169 88.172C377.159 88.162 377.139 88.152 377.124 88.167C377.119 88.172 377.114 88.187 377.114 88.202C377.114 88.221 377.119 88.241 377.119 88.261C377.149 88.495 377.139 88.738 377.129 88.972C377.124 89.156 377.124 89.345 377.124 89.528L377.124 89.966ZM376.776 89.265C376.781 89.116 376.786 88.972 376.786 88.818C376.781 88.624 376.816 88.435 376.806 88.236L376.806 88.033L376.806 87.953C376.816 87.893 376.841 87.889 376.89 87.908C377.025 87.963 377.159 88.018 377.293 88.072C377.333 88.092 377.372 88.107 377.402 88.127C377.596 88.306 377.765 88.495 377.8 88.768C377.82 88.937 377.825 89.096 377.815 89.255C377.805 89.424 377.765 89.588 377.691 89.732C377.626 89.861 377.576 89.986 377.497 90.1C377.467 90.14 377.442 90.179 377.397 90.189C377.382 90.194 377.367 90.199 377.353 90.209C377.248 90.284 377.253 90.299 377.328 90.403C377.462 90.582 377.581 90.771 377.656 90.984C377.681 91.054 377.71 91.124 377.75 91.173C377.795 91.248 377.82 91.327 377.85 91.407C377.864 91.442 377.874 91.476 377.845 91.511C377.82 91.541 377.76 91.541 377.71 91.521C377.616 91.491 377.581 91.437 377.546 91.352C377.462 91.124 377.323 90.92 377.208 90.696C377.184 90.652 377.154 90.607 377.124 90.557C377.124 90.552 377.114 90.547 377.104 90.547C377.099 90.552 377.094 90.562 377.094 90.567C377.089 90.666 377.084 90.756 377.074 90.855C377.059 90.984 377.044 91.114 377.035 91.238C377.03 91.297 377.02 91.352 377.035 91.417C377.044 91.457 377.02 91.466 376.975 91.476C376.895 91.491 376.831 91.457 376.766 91.422C376.736 91.412 376.726 91.372 376.726 91.337L376.726 91.163C376.741 90.925 376.746 90.681 376.771 90.443C376.791 90.209 376.791 89.981 376.791 89.687C376.796 89.593 376.776 89.429 376.776 89.265" fill="#ffffff" fill-rule="nonzero" opacity="1" stroke="none" vectornator:layerName="path"/>
<path d="M378.545 89.4837C378.525 89.6477 378.515 89.8217 378.515 89.9907C378.51 90.4127 378.48 90.8307 378.475 91.2527C378.471 91.3477 378.441 91.3717 378.346 91.3617C378.217 91.3517 378.157 91.2877 378.147 91.1587C378.147 91.1087 378.147 91.0587 378.152 91.0097C378.177 90.7107 378.172 90.4127 378.182 90.1147C378.202 89.6827 378.222 89.2497 378.237 88.8177C378.237 88.7387 378.282 88.0107 378.282 87.9357C378.282 87.9107 378.277 87.8907 378.277 87.8707C378.282 87.8067 378.326 87.7667 378.391 87.7817C378.475 87.8067 378.55 87.8517 378.575 87.9407C378.59 87.9807 378.545 88.6787 378.55 88.7187C378.56 88.8177 378.57 88.9127 378.575 89.0117C378.555 89.1657 378.56 89.3247 378.545 89.4837" fill="#ffffff" fill-rule="nonzero" opacity="1" stroke="none" vectornator:layerName="path"/>
<path d="M378.942 89.6626C378.952 89.4386 378.977 89.2156 378.997 88.9966C379.026 88.6386 379.061 88.2816 379.026 87.9236C379.026 87.8936 379.036 87.8836 379.061 87.8786C379.111 87.8686 379.161 87.8636 379.21 87.8786C379.26 87.8936 379.31 87.9036 379.359 87.9136C379.379 87.9186 379.404 87.9236 379.419 87.9236C379.533 87.9036 379.648 87.9236 379.762 87.9186C379.851 87.9136 379.946 87.9236 380.015 88.0076C380.035 88.0376 380.075 88.0526 380.105 88.0726C380.13 88.0926 380.12 88.1416 380.09 88.1466C380.06 88.1516 380.03 88.1566 380 88.1516C379.886 88.1466 379.777 88.1416 379.663 88.1366C379.593 88.1366 379.523 88.1366 379.459 88.1416C379.389 88.1466 379.379 88.1616 379.374 88.2266C379.369 88.3406 379.369 88.4546 379.369 88.5696C379.374 88.6786 379.364 88.7876 379.354 88.8976C379.335 89.1206 379.32 89.3446 379.3 89.5686C379.295 89.6376 379.31 89.6476 379.374 89.6576C379.404 89.6676 379.434 89.6626 379.464 89.6576C379.504 89.6476 379.538 89.6626 379.573 89.6726C379.613 89.6826 379.628 89.7076 379.633 89.7466C379.643 89.8416 379.633 89.8566 379.533 89.8566C379.469 89.8566 379.399 89.8566 379.335 89.8716C379.295 89.8816 379.275 89.9016 379.275 89.9406C379.27 90.0306 379.26 90.1196 379.255 90.2046C379.24 90.4126 379.215 90.6166 379.22 90.8256C379.225 90.9946 379.22 91.1636 379.215 91.3326C379.215 91.4166 379.18 91.4416 379.096 91.4166C379.081 91.4166 379.066 91.4016 379.051 91.3966C379.007 91.3866 378.957 91.3816 378.932 91.3376C378.897 91.2876 378.887 91.2376 378.892 91.1836C378.897 91.0636 378.902 90.9446 378.907 90.8256C378.912 90.7556 378.907 90.6816 378.907 90.6116C378.902 90.2936 378.927 89.9806 378.942 89.6626" fill="#ffffff" fill-rule="nonzero" opacity="1" stroke="none" vectornator:layerName="path"/>
<path d="M380.708 89.9707L380.698 89.9707L380.703 89.9607L380.708 89.9707ZM380.693 90.3637C380.698 90.2487 380.718 90.1297 380.733 90.0157C380.738 89.9707 380.733 89.9357 380.718 89.8957C380.688 89.8017 380.668 89.6977 380.648 89.5977C380.549 89.1207 380.415 88.6587 380.261 88.2017C380.236 88.1367 380.211 88.0827 380.181 88.0277C380.166 88.0077 380.161 87.9877 380.151 87.9677C380.142 87.9337 380.122 87.8987 380.151 87.8737C380.181 87.8437 380.211 87.8687 380.246 87.8837C380.465 87.9827 380.46 87.9827 380.554 88.2167C380.663 88.4597 380.728 88.7187 380.797 88.9717C380.832 89.0957 380.872 89.2157 380.907 89.3447C380.912 89.3547 380.927 89.3747 380.932 89.3747C380.951 89.3747 380.956 89.3497 380.961 89.3347C380.991 89.2357 381.006 89.1357 381.036 89.0367C381.13 88.7087 381.22 88.3807 381.314 88.0477C381.319 88.0327 381.329 88.0177 381.329 87.9977C381.384 87.8737 381.394 87.8637 381.528 87.8637C381.573 87.8637 381.593 87.8887 381.583 87.9237C381.563 87.9927 381.538 88.0577 381.523 88.1217C381.493 88.2617 381.468 88.4007 381.434 88.5397C381.419 88.5937 381.404 88.6537 381.379 88.7087C381.329 88.8277 381.294 88.9567 381.25 89.0807C381.175 89.3047 381.14 89.5387 381.041 89.7567C381.026 89.7967 381.011 89.8417 381.026 89.8817C381.076 90.0007 381.041 90.1197 381.041 90.2387C381.031 90.5177 380.976 90.8007 380.981 91.0837C380.981 91.1337 380.986 91.1827 380.986 91.2377C380.991 91.3027 380.946 91.3467 380.872 91.3717C380.812 91.3917 380.763 91.3767 380.723 91.3277C380.683 91.2727 380.658 91.2077 380.668 91.1387C380.683 91.0537 380.673 90.9747 380.668 90.8797C380.653 90.7157 380.688 90.5417 380.693 90.3637" fill="#ffffff" fill-rule="nonzero" opacity="1" stroke="none" vectornator:layerName="path"/>
<path d="M368.527 95.3967C368.611 94.9567 368.726 94.5277 368.893 94.1087C368.998 93.8367 369.166 93.5857 369.343 93.3557C369.427 93.2507 369.532 93.1777 369.658 93.1247C369.93 93.0097 370.212 92.9997 370.495 93.0837C370.694 93.1357 370.84 93.2817 370.997 93.4177C371.008 93.4177 371.008 93.4287 371.018 93.4387C371.123 93.7737 371.228 94.1197 371.102 94.4757C371.018 94.6847 370.945 94.7167 370.767 94.5907C370.704 94.5487 370.652 94.5067 370.589 94.4647C370.39 94.3287 370.338 94.1407 370.348 93.9107C370.348 93.8477 370.369 93.7947 370.38 93.7327C370.39 93.6797 370.411 93.6167 370.348 93.5857C370.296 93.5547 370.254 93.6067 370.202 93.6277C370.139 93.6697 370.066 93.7217 370.055 93.8057C370.045 93.9107 369.982 93.9937 369.919 94.0567C369.72 94.2867 369.626 94.5697 369.553 94.8527C369.48 95.1037 369.406 95.3657 369.354 95.6267C369.26 96.1087 369.145 96.6007 369.124 97.0927C369.124 97.3337 369.04 97.5637 369.04 97.8047C369.04 97.9197 369.04 98.0247 369.05 98.1287C369.061 98.3277 369.092 98.5167 369.04 98.7147C369.029 98.7357 369.029 98.7677 369.029 98.7887C369.071 99.0817 369.061 99.3747 369.124 99.6677C369.187 99.9187 369.239 99.9397 369.469 99.8037C369.689 99.6677 369.856 99.4687 370.003 99.2597C370.181 98.9977 370.348 98.7357 370.526 98.4847C370.6 98.3697 370.673 98.3487 370.767 98.4007C370.861 98.4427 370.893 98.5377 370.861 98.6417C370.851 98.7047 370.82 98.7567 370.788 98.8197C370.767 98.8927 370.715 98.9667 370.704 99.0397C370.683 99.3437 370.505 99.5627 370.338 99.8037C370.223 99.9607 370.097 100.108 370.003 100.275C369.961 100.359 369.898 100.39 369.815 100.422C369.678 100.464 369.532 100.474 369.396 100.443C368.977 100.328 368.642 100.097 368.475 99.6677C368.422 99.5317 368.391 99.3847 368.36 99.2277C368.265 98.7777 368.265 98.3177 368.265 97.7937C368.255 97.0197 368.37 96.2027 368.527 95.3967" fill="#f9cd25" fill-rule="nonzero" opacity="1" stroke="none" vectornator:layerName="path"/>
<path d="M373.782 96.1609C373.761 95.9519 373.761 95.7419 373.751 95.5219C373.719 95.0829 373.698 94.6429 373.667 94.2029L373.667 94.1409C373.656 94.1089 373.656 94.0669 373.615 94.0569C373.573 94.0569 373.562 94.0989 373.552 94.1299C373.416 94.6329 373.259 95.1249 373.154 95.6269C373.06 96.0559 372.965 96.4959 372.871 96.9249C372.829 97.1449 372.777 97.3539 372.746 97.5739C372.725 97.6889 372.756 97.7309 372.861 97.7309C373.164 97.7209 373.468 97.6679 373.761 97.6059C373.824 97.5949 373.845 97.5529 373.845 97.4899L373.845 97.0399C373.824 96.7469 373.813 96.4539 373.782 96.1609M374.714 98.1389C374.724 98.3379 374.745 98.5269 374.766 98.7259C374.797 99.0189 374.797 99.3119 374.808 99.6049C374.808 99.7729 374.808 99.9399 374.85 100.108C374.86 100.181 374.871 100.244 374.871 100.317C374.871 100.442 374.818 100.505 374.693 100.505C374.274 100.516 374.127 100.411 374.065 100.024C374.033 99.7619 374.023 99.4899 374.002 99.2279C373.981 98.9459 373.96 98.6729 373.939 98.4009C373.929 98.2649 373.908 98.2439 373.772 98.2549C373.416 98.2759 373.06 98.2959 372.704 98.3169C372.62 98.3169 372.578 98.3699 372.568 98.4429C372.515 98.7149 372.453 98.9869 372.411 99.2599C372.348 99.6259 372.296 99.9919 372.264 100.369C372.243 100.547 372.138 100.631 371.981 100.673C371.835 100.715 371.667 100.662 371.573 100.537C371.552 100.505 371.563 100.474 371.573 100.442C371.657 99.9089 371.73 99.3639 371.824 98.8299C371.887 98.4639 371.981 98.1079 372.055 97.7419C372.149 97.2919 372.254 96.8409 372.337 96.3809C372.494 95.5849 372.672 94.7999 372.913 94.0249C372.976 93.8469 373.049 93.6799 373.112 93.5019C373.143 93.4079 373.206 93.3349 373.269 93.2609C373.332 93.1779 373.405 93.1149 373.52 93.1569C373.583 93.1879 373.646 93.1569 373.698 93.1249C373.782 93.0829 373.866 93.1039 373.95 93.1459C374.18 93.2509 374.347 93.4079 374.421 93.6589C374.525 94.0459 374.557 94.4439 374.588 94.8419C374.64 95.4699 374.661 96.0979 374.651 96.6629C374.682 97.1969 374.703 97.6679 374.714 98.1389" fill="#f9cd25" fill-rule="nonzero" opacity="1" stroke="none" vectornator:layerName="path"/>
<path d="M378.116 97.1344L378.116 96.9674C378.116 96.9564 378.106 96.9464 378.106 96.9254C378.095 96.9464 378.085 96.9564 378.085 96.9774L378.085 97.2394C378.085 97.2604 378.095 97.2704 378.106 97.2814C378.116 97.2704 378.116 97.2494 378.126 97.2394L378.126 97.1344L378.116 97.1344ZM377.969 94.5384C377.969 94.7894 377.969 95.0404 377.98 95.2924C377.98 95.3864 377.949 95.4914 378.011 95.5744C378.106 95.4914 378.053 95.3754 378.053 95.2814C378.064 94.8834 378.001 94.4864 378.053 94.0774C378.074 93.9204 378.053 93.7634 378.053 93.5964C378.053 93.5854 378.043 93.5644 378.032 93.5544C377.99 93.5434 377.98 93.5754 377.98 93.6064L377.98 94.5384L377.969 94.5384ZM377.928 98.3904C377.928 98.4324 377.917 98.4744 377.959 98.4844C378.001 98.4954 378.011 98.4434 378.011 98.4114C378.011 98.2864 378.043 98.1704 378.085 98.0554C378.106 98.0034 378.106 97.9304 378.106 97.8674C378.106 97.8464 378.074 97.8254 378.053 97.8354C377.99 97.8774 377.917 97.8984 377.928 97.9924L377.928 98.2024L377.928 98.3904ZM378.294 96.7574C378.284 96.9464 378.273 97.1444 378.252 97.3434C378.231 97.4694 378.231 97.6164 378.242 97.7414C378.263 98.3274 378.231 98.9144 378.168 99.4894C378.126 99.7824 378.011 100.055 377.886 100.327C377.854 100.39 377.802 100.432 377.739 100.432C377.54 100.432 377.341 100.421 377.205 100.233C377.142 100.138 377.08 100.034 377.038 99.9294C376.902 99.5634 376.797 99.1754 376.724 98.7884C376.598 98.0974 376.546 97.3854 376.462 96.6844C376.399 96.1924 376.336 95.7104 376.242 95.2184C376.242 95.1974 376.232 95.1764 376.221 95.1454C376.179 95.1664 376.19 95.2084 376.19 95.2294C376.127 95.6894 376.137 96.1504 376.137 96.6004C376.127 96.7574 376.127 96.9044 376.106 97.0614C376.085 97.1344 376.075 97.2184 376.085 97.3014C376.096 97.6894 376.022 98.0664 375.991 98.4534C375.96 99.0394 375.865 99.6254 375.876 100.222C375.876 100.452 375.803 100.505 375.572 100.442C375.468 100.411 375.363 100.348 375.258 100.295C375.195 100.254 375.143 100.191 375.153 100.117C375.185 99.9084 375.153 99.7094 375.164 99.5004C375.164 99.2594 375.206 99.0184 375.237 98.7784C375.29 98.4014 375.331 98.0134 375.3 97.6364C375.3 97.6164 375.29 97.5954 375.3 97.5744C375.363 97.3544 375.29 97.1134 375.363 96.8934C375.373 96.8414 375.373 96.7894 375.373 96.7364C375.384 96.2134 375.426 95.7004 375.457 95.1764C375.478 94.7054 375.468 94.2244 375.499 93.7534C375.509 93.6064 375.488 93.4494 375.468 93.3034C375.447 93.1464 375.488 93.0934 375.645 93.0724C375.687 93.0624 375.719 93.0624 375.75 93.0514C376.033 93.0104 376.033 93.0104 376.158 93.2614C376.169 93.2824 376.179 93.3134 376.2 93.3344C376.514 93.6804 376.619 94.1194 376.713 94.5594C376.818 95.0514 376.891 95.5534 376.975 96.0564C377.059 96.6214 377.122 97.1764 377.174 97.7414C377.216 98.0874 377.279 98.4324 377.341 98.7784C377.383 98.9554 377.373 99.1544 377.446 99.3324C377.467 99.3644 377.477 99.4164 377.488 99.4584C377.498 99.4584 377.509 99.4684 377.509 99.4684C377.53 99.4684 377.551 99.4584 377.551 99.4484C377.593 99.3324 377.582 99.2174 377.593 99.1024C377.614 98.4324 377.634 97.7624 377.666 97.0824C377.687 96.5484 377.718 96.0144 377.739 95.4804C377.75 95.1974 377.718 94.9254 377.718 94.6434C377.718 94.3294 377.729 94.0144 377.739 93.7004C377.739 93.6274 377.75 93.5434 377.718 93.4704C377.645 93.3344 377.729 93.2504 377.792 93.1564C377.833 93.1044 377.886 93.1144 377.928 93.1874C377.959 93.2404 377.98 93.2504 378.032 93.2194C378.064 93.2084 378.095 93.1874 378.126 93.1674C378.242 93.1254 378.273 93.1564 378.294 93.2924C378.357 93.6484 378.346 94.0044 378.346 94.3604L378.346 94.8734C378.378 95.5014 378.325 96.1294 378.294 96.7574" fill="#f9cd25" fill-rule="nonzero" opacity="1" stroke="none" vectornator:layerName="path"/>
<path d="M379.613 97.0716C379.613 97.1236 379.613 97.1866 379.665 97.2076C379.718 97.2286 379.749 97.1866 379.78 97.1656C380.042 96.9986 380.21 96.7576 380.335 96.4956C380.576 96.0036 380.744 95.4906 380.817 94.9466C380.859 94.5696 380.785 94.2246 380.628 93.8896C380.566 93.7636 380.482 93.6906 380.346 93.6906C380.231 93.6796 380.115 93.6796 379.99 93.6796C379.864 93.6796 379.833 93.7006 379.833 93.8366C379.833 94.0986 379.78 94.3496 379.77 94.6006C379.749 94.9886 379.749 95.3656 379.676 95.7426C379.623 96.0146 379.623 96.2866 379.613 96.5586L379.613 97.0716ZM379.466 100.035C379.466 100.108 379.519 100.129 379.582 100.108C379.718 100.076 379.812 99.9926 379.906 99.8976C380.074 99.7306 380.199 99.5316 380.314 99.3326C380.43 99.1336 380.503 98.9136 380.524 98.6836C380.545 98.4216 380.555 98.1706 380.461 97.9196C380.43 97.8146 380.367 97.7516 380.252 97.7416C380.147 97.7316 380.042 97.7206 379.938 97.7516C379.822 97.7836 379.728 97.7726 379.634 97.6996C379.582 97.6476 379.571 97.6686 379.571 97.7316C379.529 98.3176 379.456 98.9136 379.466 99.5006L379.466 100.035ZM378.901 96.9666C378.922 96.6526 378.901 96.3286 378.933 96.0036C378.964 95.5956 378.953 95.1876 379.006 94.7786C379.016 94.6846 379.016 94.5906 379.016 94.4856C379.037 94.0776 379.058 93.6796 379.079 93.2716C379.079 93.1356 379.142 93.0936 379.268 93.1146C379.32 93.1146 379.372 93.1246 379.425 93.1456C379.529 93.1776 379.634 93.1986 379.739 93.1876C379.99 93.1666 380.21 93.2406 380.44 93.3236C380.649 93.4076 380.838 93.5226 381.016 93.6486C381.152 93.7326 381.246 93.8366 381.319 93.9726C381.466 94.2346 381.623 94.4856 381.633 94.7896C381.644 95.2916 381.602 95.7946 381.382 96.2446C381.194 96.6316 380.963 96.9876 380.67 97.3016C380.639 97.3336 380.607 97.3646 380.576 97.3966C380.534 97.4376 380.545 97.4796 380.587 97.5116C380.66 97.5426 380.733 97.5736 380.806 97.6156C380.984 97.6996 381.089 97.8356 381.173 98.0136C381.319 98.3176 381.33 98.6206 381.236 98.9456C381.225 98.9766 381.225 99.0086 381.215 99.0506C381.11 99.5736 380.796 99.9506 380.377 100.265C380.189 100.401 380 100.537 379.77 100.589C379.634 100.631 379.508 100.621 379.383 100.537C379.226 100.443 379.048 100.39 378.891 100.286C378.786 100.213 378.734 100.139 378.744 100.003C378.765 99.4796 378.807 98.9556 378.849 98.4326C378.87 98.1916 378.88 97.9506 378.891 97.7726C378.859 97.4586 378.88 97.2186 378.901 96.9666" fill="#f9cd25" fill-rule="nonzero" opacity="1" stroke="none" vectornator:layerName="path"/>
<path d="M382.157 96.4226C382.199 95.6266 382.188 94.8416 382.262 94.0466C382.283 93.8476 382.304 93.6486 382.335 93.4496C382.345 93.3656 382.335 93.2816 382.325 93.2086C382.314 93.0936 382.366 93.0306 382.482 93.0306C382.837 93.0416 383.183 92.9576 383.539 92.9366C383.706 92.9266 383.874 92.9266 384.041 92.9266C384.23 92.9366 384.397 93.0306 384.565 93.1146C384.638 93.1566 384.711 93.2086 384.785 93.2616C384.837 93.3026 384.805 93.3976 384.743 93.4076C384.68 93.4186 384.617 93.4286 384.554 93.4186C384.156 93.4076 383.759 93.4806 383.371 93.5226C383.036 93.5646 383.036 93.5646 383.015 93.8996C382.953 94.6636 382.89 95.4386 382.89 96.2136C382.89 96.3286 382.858 96.4536 382.858 96.5796C382.848 96.6736 382.89 96.7266 382.974 96.7156C383.288 96.6736 383.549 96.8096 383.811 96.9356C383.884 96.9776 384.01 96.9876 383.979 97.1136C383.947 97.2186 383.832 97.1446 383.769 97.1866C383.748 97.1976 383.717 97.1976 383.685 97.1866C383.424 97.1136 383.183 97.2396 382.942 97.3016C382.858 97.3226 382.827 97.3856 382.817 97.4586C382.785 97.6476 382.806 97.8356 382.796 98.0136C382.785 98.4746 382.817 98.9456 382.775 99.4056C382.764 99.5316 382.775 99.6676 382.796 99.8036C382.806 99.8976 382.827 99.9186 382.932 99.8976C383.12 99.8666 383.309 99.8456 383.486 99.7936C383.644 99.7616 383.79 99.8036 383.937 99.8146C383.968 99.8146 383.999 99.8356 384.031 99.8456C384.115 99.8776 384.198 99.9186 384.188 100.014C384.188 100.118 384.073 100.108 383.999 100.129C383.968 100.139 383.937 100.129 383.895 100.139C383.685 100.16 383.476 100.192 383.277 100.286C383.204 100.328 383.11 100.349 383.026 100.38C382.869 100.422 382.712 100.401 382.565 100.328C382.471 100.275 382.398 100.202 382.283 100.181C382.22 100.16 382.199 100.097 382.178 100.035C382.105 99.8356 382.073 99.6366 382.084 99.4266C382.094 98.9666 382.115 98.4956 382.126 98.0246C382.126 97.9826 382.126 97.9506 382.136 97.9086L382.126 97.9086C382.136 97.4166 382.126 96.9146 382.157 96.4226" fill="#f9cd25" fill-rule="nonzero" opacity="1" stroke="none" vectornator:layerName="path"/>
<path d="M386.638 96.2969L386.638 96.2759C386.638 96.2869 386.628 96.2969 386.628 96.2969C386.628 96.3069 386.638 96.3179 386.638 96.3179L386.638 96.2969ZM386.094 97.3959C386.083 97.4069 386.083 97.4169 386.083 97.4279L386.073 97.4279C386.083 97.4169 386.115 97.4169 386.094 97.3959M386.397 97.1139C386.429 97.0819 386.45 97.0509 386.45 96.9979C386.596 96.8939 386.596 96.7369 386.638 96.5799C386.638 96.5589 386.628 96.5589 386.617 96.5379C386.607 96.5479 386.596 96.5589 386.586 96.5589C386.471 96.6949 386.46 96.8519 386.45 96.9979C386.418 97.0399 386.408 97.0719 386.408 97.1239C386.366 97.1449 386.355 97.1869 386.345 97.2289C386.324 97.2389 386.303 97.2599 386.293 97.2709C386.251 97.3229 386.251 97.3859 386.251 97.4379C386.146 97.4899 386.104 97.5849 386.073 97.6889C386.073 97.7309 386.052 97.7629 386.041 97.8039L386.031 97.8039C386.052 97.7629 386.062 97.7309 386.073 97.6889C386.188 97.6369 386.198 97.5319 386.24 97.4279C386.282 97.3959 386.293 97.3329 386.293 97.2709C386.303 97.2499 386.324 97.2289 386.345 97.2289C386.366 97.1869 386.376 97.1549 386.397 97.1139M385.633 97.4279C385.633 97.4489 385.633 97.4799 385.654 97.4899C385.675 97.5109 385.706 97.4799 385.706 97.4589C385.801 97.2289 385.937 96.9979 386.062 96.7889C386.115 96.6839 386.156 96.5689 386.188 96.4639C386.313 96.0459 386.376 95.6169 386.397 95.1869C386.418 94.6219 386.209 94.1619 385.853 93.7529C385.821 93.7109 385.78 93.6799 385.727 93.6489C385.706 93.6279 385.664 93.6069 385.633 93.6379C385.623 93.6489 385.612 93.6799 385.612 93.7109C385.612 93.7529 385.623 93.7949 385.623 93.8369C385.685 94.3289 385.664 94.8419 385.644 95.3339C385.633 95.7209 385.633 96.1189 385.633 96.5059L385.633 97.4279ZM384.9 95.9519C384.911 95.6369 384.921 95.3339 384.921 95.0089C384.911 94.6009 384.984 94.2029 384.963 93.7849L384.963 93.3549L384.963 93.1879C384.984 93.0619 385.036 93.0519 385.141 93.0939C385.424 93.2089 385.706 93.3239 385.989 93.4389C386.073 93.4809 386.156 93.5119 386.219 93.5539C386.628 93.9309 386.983 94.3289 387.057 94.9049C387.099 95.2609 387.109 95.5959 387.088 95.9309C387.067 96.2869 386.983 96.6319 386.826 96.9359C386.69 97.2079 386.586 97.4689 386.418 97.7099C386.355 97.7939 386.303 97.8779 386.209 97.8989C386.177 97.9089 386.146 97.9199 386.115 97.9409C385.895 98.0979 385.905 98.1289 386.062 98.3489C386.345 98.7259 386.596 99.1229 386.753 99.5739C386.805 99.7199 386.868 99.8669 386.952 99.9709C387.046 100.128 387.099 100.296 387.161 100.463C387.193 100.537 387.214 100.61 387.151 100.683C387.099 100.746 386.973 100.746 386.868 100.704C386.669 100.641 386.596 100.526 386.523 100.348C386.345 99.8669 386.052 99.4379 385.811 98.9659C385.759 98.8719 385.696 98.7779 385.633 98.6729C385.633 98.6629 385.612 98.6519 385.591 98.6519C385.581 98.6629 385.57 98.6839 385.57 98.6939C385.56 98.9039 385.549 99.0919 385.528 99.3009C385.497 99.5739 385.466 99.8459 385.445 100.107C385.434 100.233 385.413 100.348 385.445 100.484C385.466 100.568 385.413 100.589 385.319 100.61C385.151 100.641 385.015 100.568 384.879 100.495C384.816 100.474 384.796 100.39 384.796 100.317L384.796 99.9499C384.827 99.4479 384.837 98.9349 384.89 98.4329C384.932 97.9409 384.932 97.4589 384.932 96.8409C384.942 96.6419 384.9 96.2969 384.9 95.9519" fill="#f9cd25" fill-rule="nonzero" opacity="1" stroke="none" vectornator:layerName="path"/>
<path d="M389.893 96.2969L389.893 96.2759C389.893 96.2869 389.883 96.2969 389.883 96.2969C389.883 96.3069 389.893 96.3179 389.893 96.3179L389.893 96.2969ZM389.349 97.3959C389.338 97.4069 389.338 97.4169 389.338 97.4279L389.328 97.4279C389.338 97.4169 389.37 97.4169 389.349 97.3959M389.652 97.1139C389.684 97.0819 389.705 97.0509 389.705 96.9979C389.851 96.8939 389.851 96.7369 389.893 96.5799C389.893 96.5589 389.883 96.5589 389.872 96.5379C389.862 96.5479 389.851 96.5589 389.841 96.5589C389.726 96.6949 389.715 96.8519 389.705 96.9979C389.673 97.0399 389.663 97.0719 389.663 97.1239C389.621 97.1449 389.61 97.1869 389.6 97.2289C389.579 97.2389 389.558 97.2599 389.548 97.2709C389.506 97.3229 389.506 97.3859 389.506 97.4379C389.401 97.4899 389.359 97.5849 389.328 97.6889C389.328 97.7309 389.307 97.7629 389.296 97.8039L389.286 97.8039C389.307 97.7629 389.317 97.7309 389.328 97.6889C389.443 97.6369 389.453 97.5319 389.495 97.4279C389.537 97.3959 389.548 97.3329 389.548 97.2709C389.558 97.2499 389.579 97.2289 389.6 97.2289C389.621 97.1869 389.631 97.1549 389.652 97.1139M388.888 97.4279C388.888 97.4489 388.888 97.4799 388.909 97.4899C388.93 97.5109 388.961 97.4799 388.961 97.4589C389.056 97.2289 389.192 96.9979 389.317 96.7889C389.37 96.6839 389.411 96.5689 389.443 96.4639C389.568 96.0459 389.631 95.6169 389.652 95.1869C389.673 94.6219 389.464 94.1619 389.108 93.7529C389.076 93.7109 389.035 93.6799 388.982 93.6489C388.961 93.6279 388.919 93.6069 388.888 93.6379C388.878 93.6489 388.867 93.6799 388.867 93.7109C388.867 93.7529 388.878 93.7949 388.878 93.8369C388.94 94.3289 388.919 94.8419 388.899 95.3339C388.888 95.7209 388.888 96.1189 388.888 96.5059L388.888 97.4279ZM388.155 95.9519C388.166 95.6369 388.176 95.3339 388.176 95.0089C388.166 94.6009 388.239 94.2029 388.218 93.7849L388.218 93.3549L388.218 93.1879C388.239 93.0619 388.291 93.0519 388.396 93.0939C388.679 93.2089 388.961 93.3239 389.244 93.4389C389.328 93.4809 389.411 93.5119 389.474 93.5539C389.883 93.9309 390.238 94.3289 390.312 94.9049C390.354 95.2609 390.364 95.5959 390.343 95.9309C390.322 96.2869 390.238 96.6319 390.081 96.9359C389.945 97.2079 389.841 97.4689 389.673 97.7099C389.61 97.7939 389.558 97.8779 389.464 97.8989C389.432 97.9089 389.401 97.9199 389.37 97.9409C389.15 98.0979 389.16 98.1289 389.317 98.3489C389.6 98.7259 389.851 99.1229 390.008 99.5739C390.061 99.7199 390.123 99.8669 390.207 99.9709C390.301 100.128 390.354 100.296 390.416 100.463C390.448 100.537 390.469 100.61 390.406 100.683C390.354 100.746 390.228 100.746 390.123 100.704C389.924 100.641 389.851 100.526 389.778 100.348C389.6 99.8669 389.307 99.4379 389.066 98.9659C389.014 98.8719 388.951 98.7779 388.888 98.6729C388.888 98.6629 388.867 98.6519 388.846 98.6519C388.836 98.6629 388.825 98.6839 388.825 98.6939C388.815 98.9039 388.804 99.0919 388.783 99.3009C388.752 99.5739 388.721 99.8459 388.7 100.107C388.689 100.233 388.668 100.348 388.7 100.484C388.721 100.568 388.668 100.589 388.574 100.61C388.406 100.641 388.27 100.568 388.134 100.495C388.072 100.474 388.051 100.39 388.051 100.317L388.051 99.9499C388.082 99.4479 388.092 98.9349 388.145 98.4329C388.187 97.9409 388.187 97.4589 388.187 96.8409C388.197 96.6419 388.155 96.2969 388.155 95.9519" fill="#f9cd25" fill-rule="nonzero" opacity="1" stroke="none" vectornator:layerName="path"/>
<path d="M393.055 96.1609C393.034 95.9519 393.034 95.7419 393.024 95.5219C392.992 95.0829 392.971 94.6429 392.94 94.2029L392.94 94.1409C392.929 94.1089 392.929 94.0669 392.888 94.0569C392.846 94.0569 392.835 94.0989 392.825 94.1299C392.689 94.6329 392.532 95.1249 392.427 95.6269C392.333 96.0559 392.238 96.4959 392.144 96.9249C392.102 97.1449 392.05 97.3539 392.019 97.5739C391.998 97.6889 392.029 97.7309 392.134 97.7309C392.437 97.7209 392.741 97.6679 393.034 97.6059C393.097 97.5949 393.118 97.5529 393.118 97.4899L393.118 97.0399C393.097 96.7469 393.086 96.4539 393.055 96.1609M393.987 98.1389C393.997 98.3379 394.018 98.5269 394.039 98.7259C394.07 99.0189 394.07 99.3119 394.081 99.6049C394.081 99.7729 394.081 99.9399 394.123 100.108C394.133 100.181 394.144 100.244 394.144 100.317C394.144 100.442 394.091 100.505 393.966 100.505C393.547 100.516 393.4 100.411 393.338 100.024C393.306 99.7619 393.296 99.4899 393.275 99.2279C393.254 98.9459 393.233 98.6729 393.212 98.4009C393.202 98.2649 393.181 98.2439 393.045 98.2549C392.689 98.2759 392.333 98.2959 391.977 98.3169C391.893 98.3169 391.851 98.3699 391.841 98.4429C391.788 98.7149 391.726 98.9869 391.684 99.2599C391.621 99.6259 391.568 99.9919 391.537 100.369C391.516 100.547 391.411 100.631 391.254 100.673C391.108 100.715 390.94 100.662 390.846 100.537C390.825 100.505 390.836 100.474 390.846 100.442C390.93 99.9089 391.003 99.3639 391.097 98.8299C391.16 98.4639 391.254 98.1079 391.328 97.7419C391.422 97.2919 391.527 96.8409 391.61 96.3809C391.767 95.5849 391.945 94.7999 392.186 94.0249C392.249 93.8469 392.322 93.6799 392.385 93.5019C392.416 93.4079 392.479 93.3349 392.542 93.2609C392.605 93.1779 392.678 93.1149 392.793 93.1569C392.856 93.1879 392.919 93.1569 392.971 93.1249C393.055 93.0829 393.139 93.1039 393.222 93.1459C393.453 93.2509 393.62 93.4079 393.694 93.6589C393.798 94.0459 393.83 94.4439 393.861 94.8419C393.913 95.4699 393.934 96.0979 393.924 96.6629C393.955 97.1969 393.976 97.6679 393.987 98.1389" fill="#f9cd25" fill-rule="nonzero" opacity="1" stroke="none" vectornator:layerName="path"/>
<path d="M259.459 46.2191C259.459 46.2191 255.298 46.1221 253.794 44.2881C252.289 42.4541 255.805 51.3951 259.459 46.2191" fill="#000000" fill-rule="nonzero" opacity="1" stroke="none" vectornator:layerName="path"/>
<path d="M259.459 46.2191C259.459 46.2191 255.298 46.1221 253.794 44.2881C252.289 42.4541 255.805 51.3951 259.459 46.2191Z" fill="none" opacity="1" stroke="#000000" stroke-linecap="butt" stroke-linejoin="miter" stroke-width="1" vectornator:layerName="path"/>
<path d="M377.296 60.6762C377.296 60.6762 381.204 61.5442 382.708 59.7112" fill="none" opacity="1" stroke="#000000" stroke-linecap="butt" stroke-linejoin="miter" stroke-width="1" vectornator:layerName="path"/>
<path d="M256.763 107.735L256.569 109.195L255.976 109.195C254.403 109.195 250.159 111.428 250.159 112.73L250.159 116.056C250.159 117.359 254.215 118.676 255.915 119.146L261.52 120.523C263.257 121.129 265.133 121.26 266.924 120.84C268.879 120.381 270.774 119.569 270.774 118.466L270.774 108.848C270.774 107.064 266.5 104.897 264.344 104.897L260.878 104.897C258.859 104.897 257.128 106.091 256.763 107.735" fill="#ffffff" fill-rule="nonzero" opacity="1" stroke="none" vectornator:layerName="path"/>
<path d="M256.763 107.735L256.569 109.195L255.976 109.195C254.403 109.195 250.159 111.428 250.159 112.73L250.159 116.056C250.159 117.359 254.215 118.676 255.915 119.146L261.52 120.523C263.257 121.129 265.133 121.26 266.924 120.84C268.879 120.381 270.774 119.569 270.774 118.466L270.774 108.848C270.774 107.064 266.5 104.897 264.344 104.897L260.878 104.897C258.859 104.897 257.128 106.091 256.763 107.735Z" fill="none" opacity="1" stroke="#000000" stroke-linecap="butt" stroke-linejoin="miter" stroke-width="1" vectornator:layerName="path"/>
<path d="M271.323 102.975L257.885 102.756L257.892 102.343C257.904 101.592 258.523 100.993 259.274 101.005L269.991 101.18C270.743 101.193 271.342 101.812 271.33 102.563L271.323 102.975Z" fill="#ffffff" fill-rule="nonzero" opacity="1" stroke="none" vectornator:layerName="path"/>
<path d="M271.323 102.975L257.885 102.756L257.892 102.343C257.904 101.592 258.523 100.993 259.274 101.005L269.991 101.18C270.743 101.193 271.342 101.812 271.33 102.563L271.323 102.975Z" fill="none" opacity="1" stroke="#000000" stroke-linecap="butt" stroke-linejoin="miter" stroke-width="1" vectornator:layerName="path"/>
<path d="M269.676 101.175L259.59 101.01L259.6 100.416C259.61 99.7653 260.147 99.2463 260.797 99.2573L268.526 99.3833C269.177 99.3943 269.696 99.9303 269.686 100.581L269.676 101.175Z" fill="#ffffff" fill-rule="nonzero" opacity="1" stroke="none" vectornator:layerName="path"/>
<path d="M269.676 101.175L259.59 101.01L259.6 100.416C259.61 99.7653 260.147 99.2463 260.797 99.2573L268.526 99.3833C269.177 99.3943 269.696 99.9303 269.686 100.581L269.676 101.175Z" fill="none" opacity="1" stroke="#000000" stroke-linecap="butt" stroke-linejoin="miter" stroke-width="1" vectornator:layerName="path"/>
<path d="M265.509 109.974C266.125 110.09 266.76 110.064 267.365 109.896L269.604 109.276L270.485 102.853L258.727 102.661L259.451 108.83L265.509 109.974Z" fill="#ffffff" fill-rule="nonzero" opacity="1" stroke="none" vectornator:layerName="path"/>
<path d="M265.509 109.974C266.125 110.09 266.76 110.064 267.365 109.896L269.604 109.276L270.485 102.853L258.727 102.661L259.451 108.83L265.509 109.974Z" fill="none" opacity="1" stroke="#000000" stroke-linecap="butt" stroke-linejoin="miter" stroke-width="1" vectornator:layerName="path"/>
<path d="M223.816 75.4898C222.477 85.2278 218.655 107.037 216.709 117.992C216.058 121.655 218.406 125.178 222.036 125.99C225.888 126.852 229.684 124.339 230.394 120.457L238.235 77.6118C238.884 73.4648 235.904 69.6288 231.727 69.2308L231.726 69.2308C227.837 68.8598 224.348 71.6198 223.816 75.4898" fill="#ffffff" fill-rule="nonzero" opacity="1" stroke="none" vectornator:layerName="path"/>
<path d="M223.816 75.4898C222.477 85.2278 218.655 107.037 216.709 117.992C216.058 121.655 218.406 125.178 222.036 125.99C225.888 126.852 229.684 124.339 230.394 120.457L238.235 77.6118C238.884 73.4648 235.904 69.6288 231.727 69.2308L231.726 69.2308C227.837 68.8598 224.348 71.6198 223.816 75.4898Z" fill="none" opacity="1" stroke="#000000" stroke-linecap="butt" stroke-linejoin="miter" stroke-width="1" vectornator:layerName="path"/>
<path d="M224.069 126.198L254.618 118.463L253.878 109.219L227.694 112.048" fill="#ffffff" fill-rule="nonzero" opacity="1" stroke="none" vectornator:layerName="path"/>
<path d="M224.069 126.198L254.618 118.463L253.878 109.219L227.694 112.048" fill="none" opacity="1" stroke="#000000" stroke-linecap="butt" stroke-linejoin="miter" stroke-width="1" vectornator:layerName="path"/>
<path d="M300.799 96.575L300.797 96.57C300.801 96.569 300.805 96.57 300.809 96.569C309.501 95.469 313.24 93.549 316.327 92.518C319.575 91.432 323.806 87.037 322.909 85.979C322.012 84.922 319.963 86.561 318.585 87.946C317.206 89.332 313.89 89.597 310.916 89.872C307.949 90.146 308.436 89.163 308.436 89.163L310.511 87.435C311.279 86.796 311.385 85.721 310.702 85.158C310.182 84.72 309.472 84.797 308.886 85.142L297.941 92.693" fill="#ffffff" fill-rule="nonzero" opacity="1" stroke="none" vectornator:layerName="path"/>
<path d="M300.799 96.575L300.797 96.57C300.801 96.569 300.805 96.57 300.809 96.569C309.501 95.469 313.24 93.549 316.327 92.518C319.575 91.432 323.806 87.037 322.909 85.979C322.012 84.922 319.963 86.561 318.585 87.946C317.206 89.332 313.89 89.597 310.916 89.872C307.949 90.146 308.436 89.163 308.436 89.163L310.511 87.435C311.279 86.796 311.385 85.721 310.702 85.158C310.182 84.72 309.472 84.797 308.886 85.142L297.941 92.693" fill="none" opacity="1" stroke="#000000" stroke-linecap="round" stroke-linejoin="round" stroke-width="1" vectornator:layerName="path"/>
</g>
</g>
</g>
</svg>
