<?xml version="1.0" encoding="UTF-8"?><svg id="Layer_1" xmlns="http://www.w3.org/2000/svg" viewBox="0 0 250 125"><g><path d="M79.11,34.98c.76-.12,1.52,.16,2.04,.88,.16,.2,.12,.48-.08,.6-.28,.2-.6,.24-.88,.24-1.08,.08-2.12,.16-3.15,.24-1.32,.12-2.52-.36-3.71-.88-.4-.16-.52-.56-.6-1-.16-.76-.2-1.56-.12-2.32,.08-.96,.08-1.92,.12-2.83,.08-1.36,.12-2.72,.24-4.07,.2-2.4,.12-4.75,.24-7.11,.08-1.76,.2-3.47,.28-5.19,.12-1.48,.2-2.92,.08-4.39-.04-.48,.24-.76,.64-.56,1,.48,2,.2,3,.24,.84,.04,1.72,0,2.56,.04,.72,0,1.4,.16,2.08,.48,.12,.04,.28,.12,.44,.24,.16,.16,.32,.36,.24,.6-.04,.32-.32,.32-.56,.36-.52,.08-1.08,.12-1.6,.08-.56-.04-1.08,.04-1.6,.2-.56,.2-1.12,.28-1.72,.16-.44-.04-.52,.04-.52,.52,0,.32,.08,.64,.08,1,.04,.92,.08,1.84-.08,2.72-.2,.92-.16,1.84-.2,2.76-.08,1.56-.2,3.08-.28,4.63,0,.2-.04,.36,0,.52,0,.24,.16,.4,.4,.36,.24,0,.52-.08,.8-.12,.96-.08,1.88-.08,2.8,.28,.24,.08,.52,.2,.64,.48,.16,.24,.04,.56-.28,.64-.56,.12-1.12,.24-1.68,.28-.8,.08-1.52,.36-2.32,.36-.24,0-.36,.12-.4,.36-.04,.16-.08,.32-.12,.48-.08,1.52-.24,3-.44,4.47-.12,1.12,.04,2.24-.16,3.35,0,.16,.04,.32,.08,.48,.12,.6,.2,.68,.84,.64h.48c.2-.04,.36-.04,.6-.08,.56-.04,1.2,0,1.84-.12Z"/><path d="M93.52,35.02c.52,.04,1-.04,1.4-.4,.28-.28,.56-.28,.84-.2,.32,.08,.52,.24,.52,.56s0,.68,.12,1c.12,.28-.04,.48-.28,.56-.44,.16-.88,.16-1.32,.08-1.16-.2-2.28-.04-3.39,.08-.52,.04-1.08,.04-1.6,.12-.44,.04-.92,.08-1.32,.2-.8,.2-1.44,0-2.16-.4-1.08-.6-1.44-1.52-1.4-2.72,.08-1.56,.12-3.15,.28-4.71,.16-1.56,.16-3.11,.2-4.71,.04-1.56,.08-3.11,.08-4.71,0-1.16-.08-2.32-.08-3.47,.04-1.88,.12-3.75,.16-5.63v-1.52c0-.32,.12-.44,.44-.48,1.12-.08,2.24,.84,2.28,1.96,.08,1.48,.16,2.95,.2,4.39,0,.48-.12,.96-.12,1.44-.04,3.07-.16,6.11-.16,9.18,0,1.56-.04,3.15-.32,4.71-.24,1.36-.2,2.72-.2,4.07-.04,.48,.08,.6,.6,.6,.64,.04,1.28,.04,1.8,.04,1.24-.16,2.32-.12,3.43-.04Z"/><path d="M98.48,21.36c.16-3.04,.12-6.03,.4-9.06,.08-.76,.16-1.52,.28-2.28,.04-.32,0-.64-.04-.92-.04-.44,.16-.68,.6-.68,1.36,.04,2.68-.28,4.03-.36,.64-.04,1.28-.04,1.92-.04,.72,.04,1.36,.4,2,.72,.28,.16,.56,.36,.84,.56,.2,.16,.08,.52-.16,.56-.24,.04-.48,.08-.72,.04-1.52-.04-3.03,.24-4.51,.4q-1.28,.16-1.36,1.44c-.24,2.92-.48,5.87-.48,8.82,0,.44-.12,.92-.12,1.4-.04,.36,.12,.56,.44,.52,1.2-.16,2.2,.36,3.19,.84,.28,.16,.76,.2,.64,.68-.12,.4-.56,.12-.8,.28-.08,.04-.2,.04-.32,0-1-.28-1.92,.2-2.84,.44-.32,.08-.44,.32-.48,.6-.12,.72-.04,1.44-.08,2.12-.04,1.76,.08,3.55-.08,5.31-.04,.48,0,1,.08,1.52,.04,.36,.12,.44,.52,.36,.72-.12,1.44-.2,2.12-.4,.6-.12,1.16,.04,1.72,.08,.12,0,.24,.08,.36,.12,.32,.12,.64,.28,.6,.64,0,.4-.44,.36-.72,.44-.12,.04-.24,0-.4,.04-.8,.08-1.6,.2-2.36,.56-.28,.16-.64,.24-.96,.36-.6,.16-1.2,.08-1.76-.2-.36-.2-.64-.48-1.08-.56-.24-.08-.32-.32-.4-.56-.28-.76-.4-1.52-.36-2.32,.04-1.76,.12-3.55,.16-5.35,0-.16,0-.28,.04-.44h-.04c.04-1.88,0-3.79,.12-5.67Z"/><path d="M116.48,10.74c-.12-.32-.32-.4-.6-.2-.52,.36-.96,.76-1.12,1.4-.28,1.04-.64,2.08-.72,3.15-.08,.88-.32,1.76-.48,2.6-.16,.56-.24,1.12-.28,1.72-.04,.44-.08,.88-.24,1.28-.04,.24-.12,.48-.12,.72-.04,1.24-.36,2.48-.36,3.71,.04,.8-.12,1.64-.2,2.44-.2,1.84-.24,3.63,.36,5.43,.12,.36,.16,.72,.32,1.08,.2,.44,.48,.52,.88,.24,.16-.12,.32-.28,.4-.44,.6-.84,1.2-1.64,1.76-2.48,.72-1.08,1.4-2.12,2.08-3.15,.08-.12,.16-.24,.24-.32,.2-.16,.44-.2,.68-.12,.2,.08,.32,.28,.32,.48,0,.28,0,.56-.08,.84-.32,1.48-.84,2.92-1.68,4.19-.2,.28-.36,.6-.44,.92-.12,.32-.32,.6-.48,.88-.76,1.2-2.16,1.6-3.47,1.12t-.08-.04c-1.72-.48-2.56-1.72-3.11-3.23-.4-1.04-.68-2.12-.72-3.27,0-.92,0-1.8,.08-2.72,.08-.64,.16-1.28,.08-1.92-.08-.36,.04-.76,.08-1.12,.16-1.24,.28-2.48,.44-3.75,.08-.56,0-1.12,.04-1.68,.08-.88,.24-1.76,.44-2.64,.2-1,.52-2.04,.76-3.03,.2-.88,.52-1.72,.92-2.48,.6-1.08,1.48-1.76,2.8-1.72,.44,.04,.92,.08,1.4,.16,1.32,.2,2.2,.96,2.72,2.2,.32,.76,.6,1.56,.52,2.44-.12,.88-.64,1.52-1.28,2-.6,.48-1.48,.04-1.6-.72-.08-.52-.12-1.04-.04-1.52,.2-.84,.04-1.64-.2-2.44Z"/><path d="M125.67,27.31c.04-.32,.08-.64,.04-.96-.2-1.44,0-2.88,.12-4.31,.24-3.39,.52-6.79,.8-10.18,.04-.36,.08-.72,.12-1.04,0-.28-.12-.4-.36-.44-.56-.04-1.04,.08-1.56,.16-.68,.12-1.32,.08-1.96-.32-.52-.36-.8-.84-.96-1.44-.12-.32,0-.48,.44-.48,.6-.04,1.24-.12,1.88-.24,.84-.16,1.72-.2,2.6-.24,1.44,0,2.92,.04,4.35,0,.68,0,1.28,.16,1.8,.68,.28,.36,.68,.6,1,.92,.32,.32,.16,.72-.28,.76-.28,0-.56-.04-.88-.04-1.04,.04-2.08,.04-3.15,.04-.4,0-.44,.08-.28,.52,.12,.44,.2,.88,.2,1.36-.04,2.04,0,4.07-.24,6.11-.32,2.88-.64,5.79-1,8.67-.04,.36-.04,.72-.04,1.08,.08,1.88-.08,3.79-.16,5.67-.08,.84-.24,1.68-.68,2.4-.24,.44-.32,.96-.44,1.44-.08,.28-.28,.36-.56,.24-.6-.24-.88-.72-.92-1.4,0-1.04-.04-2.04-.04-3.07v-.92c.04-1.68-.12-3.31,.16-4.95Z"/><path d="M136.33,19.56c.04-1.2,.08-2.36,.08-3.59-.04-1.56,.24-3.07,.16-4.67v-2.28c.08-.48,.28-.52,.68-.36,1.08,.44,2.16,.88,3.23,1.32,.32,.16,.64,.28,.88,.44,1.56,1.44,2.92,2.96,3.19,5.15,.16,1.36,.2,2.64,.12,3.91-.08,1.36-.4,2.68-1,3.83-.52,1.04-.92,2.04-1.56,2.96-.24,.32-.44,.64-.8,.72-.12,.04-.24,.08-.36,.16-.84,.6-.8,.72-.2,1.56,1.08,1.44,2.04,2.95,2.64,4.67,.2,.56,.44,1.12,.76,1.52,.36,.6,.56,1.24,.8,1.88,.12,.28,.2,.56-.04,.84-.2,.24-.68,.24-1.08,.08-.76-.24-1.04-.68-1.32-1.36-.68-1.84-1.8-3.47-2.72-5.27-.2-.36-.44-.72-.68-1.12,0-.04-.08-.08-.16-.08-.04,.04-.08,.12-.08,.16-.04,.8-.08,1.52-.16,2.32-.12,1.04-.24,2.08-.32,3.07-.04,.48-.12,.92,0,1.44,.08,.32-.12,.4-.48,.48-.64,.12-1.16-.16-1.68-.44-.24-.08-.32-.4-.32-.68v-1.4c.12-1.92,.16-3.87,.36-5.79,.16-1.88,.16-3.71,.16-6.07,.04-.76-.12-2.08-.12-3.39Zm2.8,5.63c0,.08,0,.2,.08,.24,.08,.08,.2-.04,.2-.12,.36-.88,.88-1.76,1.36-2.56,.2-.4,.36-.84,.48-1.24,.48-1.6,.72-3.23,.8-4.87,.08-2.16-.72-3.91-2.08-5.47-.12-.16-.28-.28-.48-.4-.08-.08-.24-.16-.36-.04-.04,.04-.08,.16-.08,.28,0,.16,.04,.32,.04,.48,.24,1.88,.16,3.83,.08,5.71-.04,1.48-.04,2.99-.04,4.47v3.51Zm2.92-1.2c.12-.12,.2-.24,.2-.44,.56-.4,.56-1,.72-1.6,0-.08-.04-.08-.08-.16-.04,.04-.08,.08-.12,.08-.44,.52-.48,1.12-.52,1.68-.12,.16-.16,.28-.16,.48-.16,.08-.2,.24-.24,.4-.08,.04-.16,.12-.2,.16-.16,.2-.16,.44-.16,.64-.4,.2-.56,.56-.68,.96,0,.16-.08,.28-.12,.44h-.04c.08-.16,.12-.28,.16-.44,.44-.2,.48-.6,.64-1,.16-.12,.2-.36,.2-.6,.04-.08,.12-.16,.2-.16,.08-.16,.12-.28,.2-.44Zm-1.16,1.08s-.04,.08-.04,.12h-.04s.16-.04,.08-.12Zm2.08-4.19v-.08s-.04,.08-.04,.08c0,.04,.04,.08,.04,.08v-.08Z"/><path d="M150.54,21.32c-.16,1.32-.24,2.72-.24,4.07-.04,3.39-.28,6.75-.32,10.14-.04,.76-.28,.96-1.04,.88-1.04-.08-1.52-.6-1.6-1.64,0-.4,0-.8,.04-1.2,.2-2.4,.16-4.79,.24-7.19,.16-3.47,.32-6.95,.44-10.42,0-.64,.36-6.49,.36-7.09,0-.2-.04-.36-.04-.52,.04-.52,.4-.84,.92-.72,.68,.2,1.28,.56,1.48,1.28,.12,.32-.24,5.93-.2,6.25,.08,.8,.16,1.56,.2,2.36-.16,1.24-.12,2.52-.24,3.79Z"/><path d="M153.74,22.76c.08-1.8,.28-3.59,.44-5.35,.24-2.88,.52-5.75,.24-8.62,0-.24,.08-.32,.28-.36,.4-.08,.8-.12,1.2,0,.4,.12,.8,.2,1.2,.28,.16,.04,.36,.08,.48,.08,.92-.16,1.84,0,2.76-.04,.72-.04,1.48,.04,2.04,.72,.16,.24,.48,.36,.72,.52,.2,.16,.12,.56-.12,.6-.24,.04-.48,.08-.72,.04-.92-.04-1.8-.08-2.72-.12-.56,0-1.12,0-1.64,.04-.56,.04-.64,.16-.68,.68-.04,.92-.04,1.84-.04,2.76,.04,.88-.04,1.76-.12,2.64-.16,1.8-.28,3.59-.44,5.39-.04,.56,.08,.64,.6,.72,.24,.08,.48,.04,.72,0,.32-.08,.6,.04,.88,.12,.32,.08,.44,.28,.48,.6,.08,.76,0,.88-.8,.88-.52,0-1.08,0-1.6,.12-.32,.08-.48,.24-.48,.56-.04,.72-.12,1.44-.16,2.12-.12,1.68-.32,3.31-.28,4.99,.04,1.36,0,2.72-.04,4.07,0,.68-.28,.88-.96,.68-.12,0-.24-.12-.36-.16-.36-.08-.76-.12-.96-.48-.28-.4-.36-.8-.32-1.24,.04-.96,.08-1.92,.12-2.88,.04-.56,0-1.16,0-1.72-.04-2.56,.16-5.07,.28-7.63Z"/><path d="M169.11,28.39c.04-.92,.2-1.88,.32-2.79,.04-.36,0-.64-.12-.96-.24-.76-.4-1.6-.56-2.4-.8-3.83-1.88-7.55-3.11-11.22-.2-.52-.4-.96-.64-1.4-.12-.16-.16-.32-.24-.48-.08-.28-.24-.56,0-.76,.24-.24,.48-.04,.76,.08,1.76,.8,1.72,.8,2.48,2.68,.88,1.96,1.4,4.03,1.96,6.07,.28,1,.6,1.96,.88,2.99,.04,.08,.16,.24,.2,.24,.16,0,.2-.2,.24-.32,.24-.8,.36-1.6,.6-2.4,.76-2.64,1.48-5.27,2.24-7.95,.04-.12,.12-.24,.12-.4,.44-1,.52-1.08,1.6-1.08,.36,0,.52,.2,.44,.48-.16,.56-.36,1.08-.48,1.6-.24,1.12-.44,2.24-.72,3.35-.12,.44-.24,.92-.44,1.36-.4,.96-.68,2-1.04,3-.6,1.8-.88,3.67-1.68,5.43-.12,.32-.24,.68-.12,1,.4,.96,.12,1.92,.12,2.88-.08,2.24-.52,4.51-.48,6.79,0,.4,.04,.8,.04,1.24,.04,.52-.32,.88-.92,1.08-.48,.16-.88,.04-1.2-.36-.32-.44-.52-.96-.44-1.52,.12-.68,.04-1.32,0-2.08-.12-1.32,.16-2.72,.2-4.15Zm.12-3.15h-.08l.04-.08,.04,.08Z"/></g><g><path d="M9.37,69.09c.76-4,1.81-7.91,3.33-11.72,.95-2.48,2.48-4.76,4.1-6.86,.76-.95,1.71-1.62,2.86-2.1,2.48-1.05,5.05-1.14,7.62-.38,1.81,.48,3.14,1.81,4.57,3.05,.1,0,.1,.1,.19,.19,.95,3.05,1.91,6.19,.76,9.43-.76,1.91-1.43,2.19-3.05,1.05-.57-.38-1.05-.76-1.62-1.14-1.81-1.24-2.29-2.95-2.19-5.05,0-.57,.19-1.05,.29-1.62,.1-.48,.29-1.05-.29-1.33-.48-.29-.86,.19-1.33,.38-.57,.38-1.24,.86-1.33,1.62-.1,.95-.67,1.71-1.24,2.29-1.81,2.1-2.67,4.67-3.33,7.24-.67,2.29-1.33,4.67-1.81,7.05-.86,4.38-1.9,8.86-2.1,13.33,0,2.19-.76,4.29-.76,6.48,0,1.05,0,2,.1,2.95,.1,1.81,.38,3.52-.1,5.33-.1,.19-.1,.48-.1,.67,.38,2.67,.29,5.33,.86,8,.57,2.29,1.05,2.48,3.14,1.24,2-1.24,3.52-3.05,4.86-4.95,1.62-2.38,3.14-4.76,4.76-7.05,.67-1.05,1.33-1.24,2.19-.76,.86,.38,1.14,1.24,.86,2.19-.1,.57-.38,1.05-.67,1.62-.19,.67-.67,1.33-.76,2-.19,2.76-1.81,4.76-3.33,6.95-1.05,1.43-2.19,2.76-3.05,4.29-.38,.76-.95,1.05-1.71,1.33-1.24,.38-2.57,.48-3.81,.19-3.81-1.05-6.86-3.14-8.38-7.05-.48-1.24-.76-2.57-1.05-4-.86-4.1-.86-8.29-.86-13.05-.1-7.05,.95-14.48,2.38-21.81Z"/><path d="M65.66,94.04c.1,1.81,.29,3.52,.48,5.33,.29,2.67,.29,5.33,.38,8,0,1.52,0,3.05,.38,4.57,.1,.67,.19,1.24,.19,1.9,0,1.14-.48,1.71-1.62,1.71-3.81,.1-5.14-.86-5.71-4.38-.29-2.38-.38-4.86-.57-7.24-.19-2.57-.38-5.05-.57-7.52-.1-1.24-.29-1.43-1.52-1.33l-9.71,.57c-.76,0-1.14,.48-1.24,1.14-.48,2.48-1.05,4.95-1.43,7.43-.57,3.33-1.05,6.67-1.33,10.1-.19,1.62-1.14,2.38-2.57,2.76-1.33,.38-2.86-.1-3.71-1.24-.19-.29-.1-.57,0-.86,.76-4.86,1.43-9.81,2.29-14.67,.57-3.33,1.43-6.57,2.1-9.91,.86-4.1,1.81-8.19,2.57-12.38,1.43-7.24,3.05-14.38,5.24-21.43,.57-1.62,1.24-3.14,1.81-4.76,.29-.86,.86-1.52,1.43-2.19,.57-.76,1.24-1.33,2.29-.95,.57,.29,1.14,0,1.62-.29,.76-.38,1.52-.19,2.29,.19,2.1,.95,3.62,2.38,4.29,4.67,.95,3.52,1.24,7.14,1.52,10.76,.48,5.71,.67,11.43,.57,16.57,.29,4.86,.48,9.14,.57,13.43Zm-8.48-18c-.19-1.91-.19-3.81-.29-5.81-.29-4-.48-8-.76-12v-.57c-.1-.29-.1-.67-.48-.76-.38,0-.48,.38-.57,.67-1.24,4.57-2.67,9.05-3.62,13.62-.86,3.91-1.71,7.91-2.57,11.81-.38,2-.86,3.91-1.14,5.91-.19,1.05,.1,1.43,1.05,1.43,2.76-.1,5.52-.57,8.19-1.14,.57-.1,.76-.48,.76-1.05v-4.1c-.19-2.67-.29-5.33-.57-8Z"/><path d="M98.24,81.47c-.1,1.71-.19,3.52-.38,5.33-.19,1.14-.19,2.48-.1,3.62,.19,5.33-.1,10.67-.67,15.91-.38,2.67-1.43,5.14-2.57,7.62-.29,.57-.76,.95-1.33,.95-1.81,0-3.62-.1-4.86-1.81-.57-.86-1.14-1.81-1.52-2.76-1.24-3.33-2.19-6.86-2.86-10.38-1.14-6.29-1.62-12.76-2.38-19.14-.57-4.48-1.14-8.86-2-13.33,0-.19-.1-.38-.19-.67-.38,.19-.29,.57-.29,.76-.57,4.19-.48,8.38-.48,12.48-.1,1.43-.1,2.76-.29,4.19-.19,.67-.29,1.43-.19,2.19,.1,3.52-.57,6.95-.86,10.48-.29,5.33-1.14,10.67-1.05,16.1,0,2.1-.67,2.57-2.76,2-.95-.29-1.9-.86-2.86-1.33-.57-.38-1.05-.95-.95-1.62,.29-1.9,0-3.71,.1-5.62,0-2.19,.38-4.38,.67-6.57,.48-3.43,.86-6.95,.57-10.38,0-.19-.1-.38,0-.57,.57-2-.1-4.19,.57-6.19,.1-.48,.1-.95,.1-1.43,.1-4.76,.48-9.43,.76-14.19,.19-4.29,.1-8.67,.38-12.95,.1-1.33-.1-2.76-.29-4.1-.19-1.43,.19-1.9,1.62-2.1,.38-.1,.67-.1,.95-.19q2.57-.38,3.71,1.9c.1,.19,.19,.48,.38,.67,2.86,3.14,3.81,7.14,4.67,11.14,.95,4.48,1.62,9.05,2.38,13.62,.76,5.14,1.33,10.19,1.81,15.33,.38,3.14,.95,6.29,1.52,9.43,.38,1.62,.29,3.43,.95,5.05,.19,.29,.29,.76,.38,1.14,.1,0,.19,.1,.19,.1,.19,0,.38-.1,.38-.19,.38-1.05,.29-2.1,.38-3.14,.19-6.1,.38-12.19,.67-18.38,.19-4.86,.48-9.71,.67-14.57,.1-2.57-.19-5.05-.19-7.62,0-2.86,.1-5.71,.19-8.57,0-.67,.1-1.43-.19-2.1-.67-1.24,.1-2,.67-2.86,.38-.48,.86-.38,1.24,.29,.29,.48,.48,.57,.95,.29,.29-.1,.57-.29,.86-.48,1.05-.38,1.33-.1,1.52,1.14,.57,3.24,.48,6.48,.48,9.72v4.67c.29,5.71-.19,11.43-.48,17.14Zm-3.33,14.86c0,.38-.1,.76,.29,.86,.38,.1,.48-.38,.48-.67,0-1.14,.29-2.19,.67-3.24,.19-.48,.19-1.14,.19-1.71,0-.19-.29-.38-.48-.29-.57,.38-1.24,.57-1.14,1.43v3.62Zm.38-35.05c0,2.29,0,4.57,.1,6.86,0,.86-.29,1.81,.29,2.57,.86-.76,.38-1.81,.38-2.67,.1-3.62-.48-7.24,0-10.95,.19-1.43,0-2.86,0-4.38,0-.1-.1-.29-.19-.38-.38-.1-.48,.19-.48,.48v8.48h-.1Zm1.33,23.62v-1.52c0-.1-.1-.19-.1-.38-.1,.19-.19,.29-.19,.48v2.38c0,.19,.1,.29,.19,.38,.1-.1,.1-.29,.19-.38v-.95h-.1Z"/><path d="M103.76,83.38c.19-2.86,0-5.81,.29-8.76,.29-3.71,.19-7.43,.67-11.14,.1-.86,.1-1.71,.1-2.67,.19-3.71,.38-7.33,.57-11.05,0-1.24,.57-1.62,1.71-1.43,.48,0,.95,.1,1.43,.29,.95,.29,1.9,.48,2.86,.38,2.29-.19,4.29,.48,6.38,1.24,1.9,.76,3.62,1.81,5.24,2.95,1.24,.76,2.1,1.71,2.76,2.95,1.33,2.38,2.76,4.67,2.86,7.43,.1,4.57-.29,9.14-2.29,13.24-1.71,3.52-3.81,6.76-6.48,9.62-.29,.29-.57,.57-.86,.86-.38,.38-.29,.76,.1,1.05,.67,.29,1.33,.57,2,.95,1.62,.76,2.57,2,3.33,3.62,1.33,2.76,1.43,5.52,.57,8.48-.1,.29-.1,.57-.19,.95-.95,4.76-3.81,8.19-7.62,11.05-1.71,1.24-3.43,2.48-5.52,2.95-1.24,.38-2.38,.29-3.52-.48-1.43-.86-3.05-1.33-4.48-2.29-.95-.67-1.43-1.33-1.33-2.57,.19-4.76,.57-9.52,.95-14.29,.19-2.19,.29-4.38,.38-6-.29-2.86-.1-5.05,.1-7.33Zm5.14,27.91c0,.67,.48,.86,1.05,.67,1.24-.29,2.1-1.05,2.95-1.9,1.52-1.52,2.67-3.33,3.71-5.14,1.05-1.81,1.71-3.81,1.91-5.9,.19-2.38,.29-4.67-.57-6.95-.29-.95-.86-1.52-1.9-1.62-.95-.1-1.9-.19-2.86,.1-1.05,.29-1.9,.19-2.76-.48-.48-.48-.57-.29-.57,.29-.38,5.33-1.05,10.76-.95,16.1v4.86Zm1.33-26.95c0,.48,0,1.05,.48,1.24,.48,.19,.76-.19,1.05-.38,2.38-1.52,3.91-3.71,5.05-6.1,2.19-4.48,3.71-9.14,4.38-14.1,.38-3.43-.29-6.57-1.71-9.62-.57-1.14-1.33-1.81-2.57-1.81-1.05-.1-2.1-.1-3.24-.1s-1.43,.19-1.43,1.43c0,2.38-.48,4.67-.57,6.95-.19,3.52-.19,6.95-.86,10.38-.48,2.48-.48,4.95-.57,7.43v4.67Z"/><path d="M133.39,78.42c.38-7.24,.29-14.38,.95-21.62,.19-1.81,.38-3.62,.67-5.43,.1-.76,0-1.52-.1-2.19-.1-1.05,.38-1.62,1.43-1.62,3.24,.1,6.38-.67,9.62-.86,1.52-.1,3.05-.1,4.57-.1,1.71,.1,3.24,.95,4.76,1.71,.67,.38,1.33,.86,2,1.33,.48,.38,.19,1.24-.38,1.33s-1.14,.19-1.71,.1c-3.62-.1-7.24,.57-10.76,.95q-3.05,.38-3.24,3.43c-.57,6.95-1.14,14-1.14,21.05,0,1.05-.29,2.19-.29,3.33-.1,.86,.29,1.33,1.05,1.24,2.86-.38,5.24,.86,7.62,2,.67,.38,1.81,.48,1.52,1.62-.29,.95-1.33,.29-1.9,.67-.19,.1-.48,.1-.76,0-2.38-.67-4.57,.48-6.76,1.05-.76,.19-1.05,.76-1.14,1.43-.29,1.71-.1,3.43-.19,5.05-.1,4.19,.19,8.48-.19,12.67-.1,1.14,0,2.38,.19,3.62,.1,.86,.29,1.05,1.24,.86,1.71-.29,3.43-.48,5.05-.95,1.43-.29,2.76,.1,4.1,.19,.29,0,.57,.19,.86,.29,.76,.29,1.52,.67,1.43,1.52,0,.95-1.05,.86-1.71,1.05-.29,.1-.57,0-.95,.1-1.9,.19-3.81,.48-5.62,1.33-.67,.38-1.52,.57-2.29,.86-1.43,.38-2.86,.19-4.19-.48-.86-.48-1.52-1.14-2.57-1.33-.57-.19-.76-.76-.95-1.33-.67-1.81-.95-3.62-.86-5.52,.1-4.19,.29-8.48,.38-12.76,0-.38,0-.67,.1-1.05h-.1c.1-4.48,0-9.05,.29-13.52Z"/><path d="M158.34,74.14c.1-2.86,.19-5.62,.19-8.57-.1-3.71,.57-7.33,.38-11.14v-5.43c.19-1.14,.67-1.24,1.62-.86,2.57,1.05,5.14,2.1,7.71,3.14,.76,.38,1.52,.67,2.1,1.05,3.71,3.43,6.95,7.05,7.62,12.29,.38,3.24,.48,6.29,.29,9.33-.19,3.24-.95,6.38-2.38,9.14-1.24,2.48-2.19,4.86-3.71,7.05-.57,.76-1.05,1.52-1.91,1.71-.29,.1-.57,.19-.86,.38-2,1.43-1.9,1.71-.48,3.71,2.57,3.43,4.86,7.05,6.29,11.14,.48,1.33,1.05,2.67,1.81,3.62,.86,1.43,1.33,2.95,1.9,4.48,.29,.67,.48,1.33-.1,2-.48,.57-1.62,.57-2.57,.19-1.81-.57-2.48-1.62-3.14-3.24-1.62-4.38-4.29-8.29-6.48-12.57-.48-.86-1.05-1.71-1.62-2.67,0-.1-.19-.19-.38-.19-.1,.1-.19,.29-.19,.38-.1,1.9-.19,3.62-.38,5.52-.29,2.48-.57,4.95-.76,7.33-.1,1.14-.29,2.19,0,3.43,.19,.76-.29,.95-1.14,1.14-1.52,.29-2.76-.38-4-1.05-.57-.19-.76-.95-.76-1.62v-3.33c.29-4.57,.38-9.24,.86-13.81,.38-4.48,.38-8.86,.38-14.48,.1-1.81-.29-4.95-.29-8.1Zm6.67,13.43c0,.19,0,.48,.19,.57,.19,.19,.48-.1,.48-.29,.86-2.1,2.1-4.19,3.24-6.1,.48-.95,.86-2,1.14-2.95,1.14-3.81,1.71-7.71,1.91-11.62,.19-5.14-1.71-9.33-4.95-13.05-.29-.38-.67-.67-1.14-.95-.19-.19-.57-.38-.86-.1-.1,.1-.19,.38-.19,.67,0,.38,.1,.76,.1,1.14,.57,4.48,.38,9.14,.19,13.62-.1,3.52-.1,7.14-.1,10.67v8.38Zm6.95-2.86c.29-.29,.48-.57,.48-1.05,1.33-.95,1.33-2.38,1.71-3.81,0-.19-.1-.19-.19-.38-.1,.1-.19,.19-.29,.19-1.05,1.24-1.14,2.67-1.24,4-.29,.38-.38,.67-.38,1.14-.38,.19-.48,.57-.57,.95-.19,.1-.38,.29-.48,.38-.38,.48-.38,1.05-.38,1.52-.95,.48-1.33,1.33-1.62,2.29,0,.38-.19,.67-.29,1.05h-.1c.19-.38,.29-.67,.38-1.05,1.05-.48,1.14-1.43,1.52-2.38,.38-.29,.48-.86,.48-1.43,.1-.19,.29-.38,.48-.38,.19-.38,.29-.67,.48-1.05Zm-2.76,2.57c-.1,.1-.1,.19-.1,.29h-.1c.1-.1,.38-.1,.19-.29Zm4.95-10v-.19c0,.1-.1,.19-.1,.19,0,.1,.1,.19,.1,.19v-.19Z"/><path d="M187.96,74.14c.1-2.86,.19-5.62,.19-8.57-.1-3.71,.57-7.33,.38-11.14v-5.43c.19-1.14,.67-1.24,1.62-.86,2.57,1.05,5.14,2.1,7.71,3.14,.76,.38,1.52,.67,2.1,1.05,3.71,3.43,6.95,7.05,7.62,12.29,.38,3.24,.48,6.29,.29,9.33-.19,3.24-.95,6.38-2.38,9.14-1.24,2.48-2.19,4.86-3.71,7.05-.57,.76-1.05,1.52-1.91,1.71-.29,.1-.57,.19-.86,.38-2,1.43-1.9,1.71-.48,3.71,2.57,3.43,4.86,7.05,6.29,11.14,.48,1.33,1.05,2.67,1.81,3.62,.86,1.43,1.33,2.95,1.9,4.48,.29,.67,.48,1.33-.1,2-.48,.57-1.62,.57-2.57,.19-1.81-.57-2.48-1.62-3.14-3.24-1.62-4.38-4.29-8.29-6.48-12.57-.48-.86-1.05-1.71-1.62-2.67,0-.1-.19-.19-.38-.19-.1,.1-.19,.29-.19,.38-.1,1.9-.19,3.62-.38,5.52-.29,2.48-.57,4.95-.76,7.33-.1,1.14-.29,2.19,0,3.43,.19,.76-.29,.95-1.14,1.14-1.52,.29-2.76-.38-4-1.05-.57-.19-.76-.95-.76-1.62v-3.33c.29-4.57,.38-9.24,.86-13.81,.38-4.48,.38-8.86,.38-14.48,.1-1.81-.29-4.95-.29-8.1Zm6.67,13.43c0,.19,0,.48,.19,.57,.19,.19,.48-.1,.48-.29,.86-2.1,2.1-4.19,3.24-6.1,.48-.95,.86-2,1.14-2.95,1.14-3.81,1.71-7.71,1.91-11.62,.19-5.14-1.71-9.33-4.95-13.05-.29-.38-.67-.67-1.14-.95-.19-.19-.57-.38-.86-.1-.1,.1-.19,.38-.19,.67,0,.38,.1,.76,.1,1.14,.57,4.48,.38,9.14,.19,13.62-.1,3.52-.1,7.14-.1,10.67v8.38Zm6.95-2.86c.29-.29,.48-.57,.48-1.05,1.33-.95,1.33-2.38,1.71-3.81,0-.19-.1-.19-.19-.38-.1,.1-.19,.19-.29,.19-1.05,1.24-1.14,2.67-1.24,4-.29,.38-.38,.67-.38,1.14-.38,.19-.48,.57-.57,.95-.19,.1-.38,.29-.48,.38-.38,.48-.38,1.05-.38,1.52-.95,.48-1.33,1.33-1.62,2.29,0,.38-.19,.67-.29,1.05h-.1c.19-.38,.29-.67,.38-1.05,1.05-.48,1.14-1.43,1.52-2.38,.38-.29,.48-.86,.48-1.43,.1-.19,.29-.38,.48-.38,.19-.38,.29-.67,.48-1.05Zm-2.76,2.57c-.1,.1-.1,.19-.1,.29h-.1c.1-.1,.38-.1,.19-.29Zm4.95-10v-.19c0,.1-.1,.19-.1,.19,0,.1,.1,.19,.1,.19v-.19Z"/><path d="M241.01,94.04c.1,1.81,.29,3.52,.48,5.33,.29,2.67,.29,5.33,.38,8,0,1.52,0,3.05,.38,4.57,.1,.67,.19,1.24,.19,1.9,0,1.14-.48,1.71-1.62,1.71-3.81,.1-5.14-.86-5.71-4.38-.29-2.38-.38-4.86-.57-7.24-.19-2.57-.38-5.05-.57-7.52-.1-1.24-.29-1.43-1.52-1.33l-9.71,.57c-.76,0-1.14,.48-1.24,1.14-.48,2.48-1.05,4.95-1.43,7.43-.57,3.33-1.05,6.67-1.33,10.1-.19,1.62-1.14,2.38-2.57,2.76-1.33,.38-2.86-.1-3.71-1.24-.19-.29-.1-.57,0-.86,.76-4.86,1.43-9.81,2.29-14.67,.57-3.33,1.43-6.57,2.1-9.91,.86-4.1,1.81-8.19,2.57-12.38,1.43-7.24,3.05-14.38,5.24-21.43,.57-1.62,1.24-3.14,1.81-4.76,.29-.86,.86-1.52,1.43-2.19,.57-.76,1.24-1.33,2.29-.95,.57,.29,1.14,0,1.62-.29,.76-.38,1.52-.19,2.29,.19,2.1,.95,3.62,2.38,4.29,4.67,.95,3.52,1.24,7.14,1.52,10.76,.48,5.71,.67,11.43,.57,16.57,.29,4.86,.48,9.14,.57,13.43Zm-8.48-18c-.19-1.91-.19-3.81-.29-5.81-.29-4-.48-8-.76-12v-.57c-.1-.29-.1-.67-.48-.76-.38,0-.48,.38-.57,.67-1.24,4.57-2.67,9.05-3.62,13.62-.86,3.91-1.71,7.91-2.57,11.81-.38,2-.86,3.91-1.14,5.91-.19,1.05,.1,1.43,1.05,1.43,2.76-.1,5.52-.57,8.19-1.14,.57-.1,.76-.48,.76-1.05v-4.1c-.19-2.67-.29-5.33-.57-8Z"/></g></svg>