<?xml version="1.0" encoding="UTF-8" standalone="no"?>
<!DOCTYPE svg PUBLIC "-//W3C//DTD SVG 1.1//EN" "http://www.w3.org/Graphics/SVG/1.1/DTD/svg11.dtd">
<svg width="100%" height="100%" viewBox="0 0 720 540" version="1.1" xmlns="http://www.w3.org/2000/svg" xmlns:xlink="http://www.w3.org/1999/xlink" xml:space="preserve" xmlns:serif="http://www.serif.com/" style="fill-rule:evenodd;clip-rule:evenodd;stroke-linecap:round;stroke-linejoin:round;">
    <g>
        <path d="M551.559,421.484C551.559,421.484 535.154,403.088 534.71,384.466C534.267,365.843 539.558,348.108 539.558,348.108C539.558,348.108 540.918,380.919 551.559,388.013C562.2,395.107 552.388,330.816 546.874,322.835C541.361,314.854 559.737,332.146 560.525,350.325C561.314,368.504 575.502,301.658 565.747,293.624C565.747,293.624 582.596,303.326 579.049,337.467C575.502,371.608 596.341,340.284 595.011,332.003C593.681,323.722 600.897,351.655 595.072,365.4C589.247,379.145 592.351,391.56 592.351,391.56C592.351,391.56 606.982,378.258 604.766,360.966C602.549,343.674 617.194,384.022 604.994,402.201C604.994,402.201 586.202,391.427 573.864,398.635C554.355,410.032 551.559,421.484 551.559,421.484Z" style="fill:rgb(255,205,12);fill-rule:nonzero;"/>
        <path d="M504.356,489.171C504.356,489.171 496.485,474.771 496.042,463.243C496.042,463.243 502.865,477.033 507.016,474.882C507.016,474.882 496.707,455.964 504.245,430.211C504.245,430.211 511.893,454.351 515.884,457.467C515.884,457.467 515.44,448.206 521.204,445.97C521.204,445.97 523.542,460.546 527.002,463.526C533.999,469.553 533.874,473.622 533.874,473.622C533.874,473.622 530.44,469.668 520.452,470.729C510.464,471.79 504.356,489.171 504.356,489.171Z" style="fill:rgb(255,205,12);fill-rule:nonzero;"/>
        <path d="M633.943,467.668C633.943,467.668 628.633,464.056 629.52,448.537C630.407,433.018 626.638,428.363 626.638,428.363L637.944,447.653C640.826,429.915 633.954,404.863 633.954,404.863C633.954,404.863 645.131,418.013 646.24,427.546C646.24,427.546 651.689,419.939 651.024,414.174C651.024,414.174 656.567,421.712 655.902,432.575C655.237,443.438 659.763,446.168 659.763,446.168C659.763,446.168 666.192,444.616 668.095,433.825C668.095,433.825 672.766,441.734 668.631,451.71C668.631,451.71 661.447,447.124 652.925,448.059C641.924,449.267 633.943,467.668 633.943,467.668Z" style="fill:rgb(255,205,12);fill-rule:nonzero;"/>
    </g>
    <path d="M378.746,132.18C378.746,132.18 377.319,129.531 373.122,124.147C368.926,118.764 367.36,120.951 364.943,117.509C354.916,103.237 348.071,101.237 348.071,101.237C345.725,101.043 343.368,101.077 341.018,101.319L340.266,101.237C322.616,70.728 288.963,50.113 250.349,50.113C230.919,50.113 212.745,55.333 197.233,64.406L197.233,64.403L128.206,64.403C128.206,64.403 106.324,46.985 99.296,42.82C85.517,34.653 81.405,39.622 81.405,39.622L79.467,38.479L69.502,32.601C69.502,32.601 54.91,24.862 44.337,36.927L44.337,36.923C40.852,37.178 37.475,38.318 34.51,40.204L34.5,40.204L24.98,39.624C24.98,39.624 24.51,43.034 29.13,45.014C27.761,46.723 26.622,48.672 25.772,50.82L10.231,44.692C10.231,44.692 8.684,58.881 25.168,65.388C25.168,65.388 25.83,67.384 26.457,68.66L21.981,67.329C21.981,67.329 20.008,79.544 36.844,83.653C38.869,88.969 43.244,93.321 49.119,95.06L97.202,109.292L92.833,109.526C92.833,109.526 93.771,116.83 104.079,116.331L104.079,116.336C106.134,119.03 109.368,120.775 113.018,120.775L113.381,120.775C138.628,154.815 161.391,146.313 161.391,146.313L166.408,145.075C174.816,131.315 174.595,117.454 174.595,117.454L174.595,117.454C174.595,100.552 188.297,86.85 205.199,86.85L263.012,86.85C279.914,86.85 293.616,100.552 293.616,117.454L293.616,117.454C293.616,117.454 292.883,154.127 295.732,163.848C299.433,176.474 311.448,185.596 311.938,197.102C313.196,197.212 314.471,197.269 315.758,197.269C333.621,197.269 348.949,186.412 355.502,170.937L355.811,170.188C374.369,208.778 388.253,202.875 388.253,202.875C397.12,192.754 404.689,175.504 404.689,160.992L378.746,132.18ZM338.427,173.082C335.822,173.085 331.224,171.82 330.863,169.044C330.502,166.268 333.882,163.922 335.822,163.848C337.762,163.774 342.266,165.432 342.508,168.427C342.75,171.422 341.032,173.08 338.427,173.082Z" style="fill:rgb(30,0,178);fill-rule:nonzero;"/>
    <path d="M6.889,522.533L152.201,522.533C178.104,522.533 257.275,478.669 284.339,399.021C305.954,335.412 321.022,260.971 324.578,238.147C327.654,218.403 334.126,204.83 343.816,197.807C350.087,193.261 357.657,191.55 365.711,192.868C369.154,193.43 374.199,195.725 390.579,215.964C398.743,226.051 405.818,235.806 406.115,236.216L396.396,243.255C390.393,234.968 383.494,226.102 376.664,218.327L376.463,215.477C374.372,213.48 369.937,209.727 369.937,209.727C366.662,206.427 364.307,204.94 363.772,204.711L363.777,204.71C358.816,203.901 354.588,204.82 350.858,207.523C343.952,212.529 338.964,223.757 336.435,239.994C332.679,264.101 317.781,337.902 295.701,402.883C266.018,490.239 184.56,534.533 152.201,534.533L6.889,534.533" style="fill:white;fill-rule:nonzero;"/>
    <path d="M414.656,257.419L407.108,239.286L404.238,235.322L389.181,246.227L392.052,250.191L406.927,263.017L409.258,266.235L416.987,260.638L414.656,257.419Z" style="fill:white;fill-rule:nonzero;"/>
    <path d="M341.03,172.101C341.03,172.101 338.425,169.161 336.485,169.771C334.545,170.381 335.432,174.865 337.427,175.145C339.422,175.424 341.695,173.711 341.03,172.101Z" style="fill:rgb(35,31,32);fill-rule:nonzero;"/>
    <g>
        <g>
            <path d="M116.371,77.871L58.841,60.899C48.838,57.939 38.33,63.647 35.369,73.65" style="fill:none;fill-rule:nonzero;stroke:rgb(35,31,32);stroke-width:2px;"/>
            <path d="M58.841,60.899C48.838,57.939 38.33,63.647 35.369,73.65" style="fill:none;fill-rule:nonzero;stroke:rgb(35,31,32);stroke-width:2px;"/>
            <path d="M35.844,85.716C37.869,91.031 42.244,95.383 48.119,97.122L96.202,111.354" style="fill:none;fill-rule:nonzero;stroke:rgb(35,31,32);stroke-width:2px;"/>
            <path d="M35.369,73.65L20.981,69.392C20.981,69.392 21.715,82.398 38.551,86.508" style="fill:none;fill-rule:nonzero;stroke:rgb(35,31,32);stroke-width:2px;"/>
            <path d="M38.207,74.749C38.207,74.749 42.465,77.939 40.175,83.991" style="fill:none;fill-rule:nonzero;stroke:rgb(35,31,32);stroke-width:2px;"/>
        </g>
        <g>
            <path d="M114.473,64.798L52.319,40.357C41.514,36.096 29.181,41.704 24.773,52.883" style="fill:none;fill-rule:nonzero;stroke:rgb(35,31,32);stroke-width:2px;"/>
            <path d="M52.319,40.357C41.514,36.096 29.181,41.704 24.773,52.883" style="fill:none;fill-rule:nonzero;stroke:rgb(35,31,32);stroke-width:2px;"/>
            <path d="M23.96,66.721C24.328,68.106 24.83,69.446 25.457,70.722" style="fill:none;fill-rule:nonzero;stroke:rgb(35,31,32);stroke-width:2px;"/>
            <path d="M24.773,52.883L9.231,46.754C9.231,46.754 8.602,61.691 26.886,67.863" style="fill:none;fill-rule:nonzero;stroke:rgb(35,31,32);stroke-width:2px;"/>
            <path d="M27.81,54.387C27.81,54.387 32.196,58.408 28.974,65.128" style="fill:none;fill-rule:nonzero;stroke:rgb(35,31,32);stroke-width:2px;"/>
        </g>
        <path d="M362.933,193.069C366.376,193.631 371.421,195.926 387.801,216.165C395.965,226.252 403.04,236.007 403.337,236.417L393.618,243.457C387.615,235.169 380.716,226.303 374.692,219.14" style="fill:none;fill-rule:nonzero;stroke:rgb(35,31,32);stroke-width:2px;"/>
        <g>
            <path d="M593.489,72.616C591.654,62.019 582.459,53.959 571.381,53.959C562.583,53.959 554.97,59.045 551.289,66.447C549.312,65.875 547.224,65.562 545.064,65.562C538.145,65.562 531.961,68.706 527.844,73.649C525.704,72.97 523.43,72.601 521.067,72.601C508.671,72.601 498.621,82.694 498.621,95.143C498.621,107.494 508.515,117.522 520.779,117.678L520.779,117.685L592.883,117.685C605.28,117.685 615.33,107.592 615.33,95.143C615.33,82.899 605.605,72.94 593.489,72.616Z" style="fill:none;fill-rule:nonzero;stroke:rgb(35,31,32);stroke-width:2px;"/>
            <path d="M520.779,117.678L463.956,117.678" style="fill:none;fill-rule:nonzero;stroke:rgb(35,31,32);stroke-width:2px;"/>
            <path d="M451.411,116.975L431.395,116.975" style="fill:none;fill-rule:nonzero;stroke:rgb(35,31,32);stroke-width:2px;"/>
            <path d="M622.694,133.879L479.213,133.879" style="fill:none;fill-rule:nonzero;stroke:rgb(35,31,32);stroke-width:2px;"/>
            <path d="M643.015,116.975L672.539,116.975" style="fill:none;fill-rule:nonzero;stroke:rgb(35,31,32);stroke-width:2px;"/>
        </g>
        <path d="M435.156,13.604C430.022,13.604 425.576,17.426 424.815,22.495L424.661,23.52L423.625,23.566C417.934,23.817 413.476,28.478 413.476,34.179C413.476,40.037 418.242,44.804 424.101,44.804L450.248,44.804C456.107,44.804 460.873,40.037 460.873,34.179C460.873,28.32 456.107,23.554 450.248,23.554C449.203,23.554 448.168,23.707 447.17,24.008L445.715,24.448L445.553,22.936C444.984,17.616 440.514,13.604 435.156,13.604Z" style="fill:none;fill-rule:nonzero;stroke:rgb(35,31,32);stroke-width:2px;"/>
        <path d="M650.709,163.974C650.709,163.974 650.547,165.486 650.547,165.486L649.092,165.046C648.095,164.745 647.059,164.592 646.014,164.592C640.155,164.592 635.389,169.358 635.389,175.217C635.389,181.076 640.155,185.842 646.014,185.842L672.162,185.842C678.02,185.842 682.787,181.076 682.787,175.217C682.787,169.517 678.329,164.855 672.637,164.604L671.601,164.558L671.447,163.533C670.686,158.464 666.24,154.642 661.106,154.642C655.748,154.642 651.279,158.654 650.709,163.974Z" style="fill:none;fill-rule:nonzero;stroke:rgb(35,31,32);stroke-width:2px;"/>
        <g>
            <g>
                <g transform="matrix(0.809896,-0.586574,0.586574,0.809896,-65.7388,280.673)">
                    <rect x="390.849" y="239.31" width="18.591" height="4.894" style="fill:none;stroke:rgb(35,31,32);stroke-width:2px;"/>
                </g>
                <path d="M416.656,256.42L408.927,262.017L394.052,249.191L409.108,238.286L416.656,256.42Z" style="fill:none;fill-rule:nonzero;stroke:rgb(35,31,32);stroke-width:2px;"/>
                <g transform="matrix(0.809896,-0.586574,0.586574,0.809896,-74.2995,292.401)">
                    <rect x="409.186" y="258.84" width="9.542" height="3.974" style="fill:none;stroke:rgb(35,31,32);stroke-width:2px;"/>
                </g>
            </g>
            <path d="M425.611,262.691L513.994,311.343" style="fill:none;fill-rule:nonzero;stroke:rgb(35,31,32);stroke-width:2px;"/>
            <path d="M412.345,272.411L446.55,349.205" style="fill:none;fill-rule:nonzero;stroke:rgb(35,31,32);stroke-width:2px;"/>
            <path d="M494.134,320.362L506.891,331.114" style="fill:none;fill-rule:nonzero;stroke:rgb(35,31,32);stroke-width:2px;"/>
            <g>
                <path d="M452.73,329.78L454.992,333.853" style="fill:none;fill-rule:nonzero;stroke:rgb(35,31,32);stroke-width:2px;"/>
                <path d="M458.236,339.692L464.182,350.395" style="fill:none;fill-rule:nonzero;stroke:rgb(35,31,32);stroke-width:2px;"/>
                <path d="M467.314,356.034L475.202,370.232" style="fill:none;fill-rule:nonzero;stroke:rgb(35,31,32);stroke-width:2px;"/>
            </g>
            <g>
                <path d="M474.476,320.477L482.088,329.739" style="fill:none;fill-rule:nonzero;stroke:rgb(35,31,32);stroke-width:2px;"/>
                <path d="M484.622,332.823L487.709,336.579" style="fill:none;fill-rule:nonzero;stroke:rgb(35,31,32);stroke-width:2px;"/>
                <path d="M490.114,339.505L494.047,344.291" style="fill:none;fill-rule:nonzero;stroke:rgb(35,31,32);stroke-width:2px;"/>
            </g>
        </g>
        <path d="M554.559,419.484C554.559,419.484 538.154,401.088 537.71,382.466C537.267,363.843 542.558,346.108 542.558,346.108C542.558,346.108 543.918,378.919 554.559,386.013C565.2,393.107 555.388,328.816 549.874,320.835C544.361,312.854 562.737,330.146 563.525,348.325C564.314,366.504 578.502,299.658 568.747,291.624C568.747,291.624 585.596,301.326 582.049,335.467C578.502,369.608 599.341,338.284 598.011,330.003C596.681,321.722 603.897,349.655 598.072,363.4C592.247,377.145 595.351,389.56 595.351,389.56C595.351,389.56 609.982,376.258 607.766,358.966C605.549,341.674 620.194,382.022 607.994,400.201" style="fill:none;fill-rule:nonzero;stroke:rgb(35,31,32);stroke-width:2px;"/>
        <path d="M507.356,487.171C507.356,487.171 499.485,472.771 499.042,461.243C499.042,461.243 505.865,475.033 510.016,472.882C510.016,472.882 499.707,453.964 507.245,428.211C507.245,428.211 514.893,452.351 518.884,455.467C518.884,455.467 518.44,446.206 524.204,443.97C524.204,443.97 526.542,458.546 530.002,461.526C536.999,467.553 537.684,474.988 537.684,474.988" style="fill:none;fill-rule:nonzero;stroke:rgb(35,31,32);stroke-width:2px;"/>
        <path d="M634.386,464.743C634.386,464.743 631.633,464.056 632.52,448.537C633.407,433.018 629.638,428.363 629.638,428.363L640.944,447.653C643.826,429.915 636.954,404.863 636.954,404.863C636.954,404.863 648.131,418.013 649.24,427.546C649.24,427.546 654.689,419.939 654.024,414.174C654.024,414.174 659.567,421.712 658.902,432.575C658.237,443.438 662.763,446.168 662.763,446.168C662.763,446.168 669.192,444.616 671.095,433.825C671.095,433.825 675.766,441.734 671.631,451.71" style="fill:none;fill-rule:nonzero;stroke:rgb(35,31,32);stroke-width:2px;"/>
        <path d="M355.96,169.019C350.497,186.58 334.117,199.331 314.758,199.331C313.471,199.331 312.196,199.275 310.938,199.164" style="fill:none;fill-rule:nonzero;stroke:rgb(35,31,32);stroke-width:2px;"/>
        <path d="M378.744,156.19C378.744,156.19 389.135,165.055 393.376,179.8" style="fill:none;fill-rule:nonzero;stroke:rgb(35,31,32);stroke-width:2px;"/>
        <path d="M354.811,172.25C373.369,210.84 387.253,204.937 387.253,204.937C396.12,194.817 403.689,177.567 403.689,163.054L377.746,134.242C377.746,134.242 376.319,131.593 372.122,126.21C367.926,120.826 366.36,123.013 363.943,119.572C353.916,105.3 347.071,103.3 347.071,103.3C324.569,101.434 301.021,120.64 292.616,141.992" style="fill:none;fill-rule:nonzero;stroke:rgb(35,31,32);stroke-width:2px;"/>
        <path d="M322.805,232.706L283.415,246.638C272.752,250.262 261.288,252.232 249.349,252.232C222.538,252.232 198.119,242.294 179.788,226.005" style="fill:none;fill-rule:nonzero;stroke:rgb(35,31,32);stroke-width:2px;"/>
        <path d="M360.525,219.365L336.3,227.933" style="fill:none;fill-rule:nonzero;stroke:rgb(35,31,32);stroke-width:2px;"/>
        <g>
            <path d="M322.08,175.917C321.031,173.652 320.42,171.026 320.42,168.217C320.42,159.737 325.893,152.863 332.643,152.863C338.942,152.863 344.125,158.85 344.79,166.541C344.839,165.919 344.866,165.289 344.866,164.65C344.866,154.201 338.123,145.73 329.804,145.73C321.486,145.73 314.742,154.201 314.742,164.65C314.742,168.877 315.859,172.767 317.724,175.917" style="fill:none;fill-rule:nonzero;stroke:rgb(35,31,32);stroke-width:2px;"/>
            <path d="M334.822,165.91C336.762,165.836 341.266,167.494 341.508,170.489C341.75,173.484 340.032,175.142 337.427,175.145C334.822,175.147 330.224,173.882 329.863,171.106C329.502,168.33 332.882,165.984 334.822,165.91Z" style="fill:none;fill-rule:nonzero;stroke:rgb(35,31,32);stroke-width:2px;"/>
            <path d="M341.03,172.101C341.03,172.101 338.425,169.161 336.485,169.771C334.545,170.381 335.432,174.865 337.427,175.145C339.422,175.424 341.695,173.711 341.03,172.101Z" style="fill:none;fill-rule:nonzero;stroke:rgb(35,31,32);stroke-width:2px;"/>
        </g>
        <path d="M160.391,148.375C160.391,148.375 137.628,156.878 112.381,122.838L148.323,172.032" style="fill:none;fill-rule:nonzero;stroke:rgb(35,31,32);stroke-width:2px;"/>
        <path d="M173.595,119.516L173.595,119.516C173.595,102.614 187.297,88.913 204.199,88.913L262.012,88.913C278.914,88.913 292.616,102.614 292.616,119.516L292.616,119.516" style="fill:none;fill-rule:nonzero;stroke:rgb(35,31,32);stroke-width:2px;"/>
        <path d="M292.616,119.516C292.616,119.516 291.883,156.19 294.732,165.91C298.433,178.537 310.448,187.658 310.938,199.164C312.265,230.346 293.643,233.785 293.643,233.785C293.643,233.785 292.312,239.937 287.075,239.937C281.921,239.937 280.423,234.438 280.423,234.438C280.423,234.438 270.192,228.196 267.701,219.601" style="fill:none;fill-rule:nonzero;stroke:rgb(35,31,32);stroke-width:2px;"/>
        <path d="M291.883,232.316C291.883,232.316 286.834,228.656 281.979,232.316" style="fill:none;fill-rule:nonzero;stroke:rgb(35,31,32);stroke-width:2px;"/>
        <path d="M259.072,222.337C259.072,222.337 254.024,218.676 249.169,222.337" style="fill:none;fill-rule:nonzero;stroke:rgb(35,31,32);stroke-width:2px;"/>
        <path d="M220.558,237.095C220.558,237.095 216.595,234.222 212.783,237.095" style="fill:none;fill-rule:nonzero;stroke:rgb(35,31,32);stroke-width:2px;"/>
        <path d="M235.78,127.594C235.78,127.594 235.689,169.459 236.667,176.181C240.436,202.082 238.167,218.297 231.271,229.016C228.832,232.806 221.814,239.119 221.814,239.119C221.814,239.119 221.233,243.929 217.602,243.929C213.97,243.929 211.476,239.119 211.476,239.119C211.476,239.119 206.685,236.717 201.502,226.005C196.319,215.293 195.756,204.168 206.295,176.181C211.031,163.607 212.363,127.594 212.363,127.594" style="fill:none;fill-rule:nonzero;stroke:rgb(35,31,32);stroke-width:2px;"/>
        <path d="M270.201,127.594C270.201,127.594 274.11,158.966 277.004,174.095C279.898,189.225 282.321,207.899 272.607,215.414C262.893,222.929 260.747,224.582 260.747,224.582C260.747,224.582 258.446,230.346 253.875,230.346C249.304,230.346 246.861,223.116 246.861,223.116C246.861,223.116 237.941,216.777 237.217,213.324" style="fill:none;fill-rule:nonzero;stroke:rgb(35,31,32);stroke-width:2px;"/>
        <path d="M243.899,148.985L238.143,189.534" style="fill:none;fill-rule:nonzero;stroke:rgb(35,31,32);stroke-width:2px;"/>
        <path d="M199.423,130.362C199.423,130.362 182.613,189.42 183.96,200.967C185.308,212.515 187.229,220.421 199.423,222.337" style="fill:none;fill-rule:nonzero;stroke:rgb(35,31,32);stroke-width:2px;"/>
        <path d="M173.595,119.516C173.595,119.516 173.823,133.578 165.23,147.435C156.636,161.291 128.037,190.031 142.38,221.257C146.431,230.076 154.505,233.429 154.505,233.429C154.505,233.429 156.245,237.776 160.32,237.665C164.395,237.554 166.971,233.672 166.971,233.672C166.971,233.672 181.283,227.112 188.357,216.371" style="fill:none;fill-rule:nonzero;stroke:rgb(35,31,32);stroke-width:2px;"/>
        <path d="M124.184,100.34L112.018,100.34C105.805,100.34 100.769,105.376 100.769,111.589" style="fill:none;fill-rule:nonzero;stroke:rgb(35,31,32);stroke-width:2px;"/>
        <path d="M103.079,118.399C105.134,121.092 108.368,122.838 112.018,122.838L144.111,122.838" style="fill:none;fill-rule:nonzero;stroke:rgb(35,31,32);stroke-width:2px;"/>
        <path d="M100.769,111.589L91.833,111.589C91.833,111.589 94.451,118.892 104.759,118.393" style="fill:none;fill-rule:nonzero;stroke:rgb(35,31,32);stroke-width:2px;"/>
        <path d="M103.079,112.658C103.079,112.658 104.943,113.349 104.765,115.76" style="fill:none;fill-rule:nonzero;stroke:rgb(35,31,32);stroke-width:2px;"/>
        <g>
            <path d="M124.184,100.34L112.018,100.34C105.805,100.34 100.769,105.376 100.769,111.589" style="fill:none;fill-rule:nonzero;stroke:rgb(35,31,32);stroke-width:2px;"/>
            <path d="M103.079,118.399C105.134,121.092 108.368,122.838 112.018,122.838L144.111,122.838" style="fill:none;fill-rule:nonzero;stroke:rgb(35,31,32);stroke-width:2px;"/>
            <path d="M100.769,111.589L91.833,111.589C91.833,111.589 94.451,118.892 104.759,118.393" style="fill:none;fill-rule:nonzero;stroke:rgb(35,31,32);stroke-width:2px;"/>
            <path d="M103.079,112.658C103.079,112.658 104.943,113.349 104.765,115.76" style="fill:none;fill-rule:nonzero;stroke:rgb(35,31,32);stroke-width:2px;"/>
        </g>
        <g>
            <path d="M88.187,104.53C90.242,107.223 93.476,108.969 97.125,108.969L101.081,108.969" style="fill:none;fill-rule:nonzero;stroke:rgb(35,31,32);stroke-width:2px;"/>
            <path d="M85.876,97.72L76.94,97.72C76.94,97.72 79.558,105.024 89.867,104.525" style="fill:none;fill-rule:nonzero;stroke:rgb(35,31,32);stroke-width:2px;"/>
            <path d="M88.187,98.789C88.187,98.789 90.051,99.481 89.872,101.892" style="fill:none;fill-rule:nonzero;stroke:rgb(35,31,32);stroke-width:2px;"/>
            <path d="M143.746,97.72C119.987,83.809 97.125,86.471 97.125,86.471C90.912,86.471 85.876,91.508 85.876,97.72" style="fill:none;fill-rule:nonzero;stroke:rgb(35,31,32);stroke-width:2px;"/>
        </g>
        <g>
            <path d="M33.507,42.262L23.978,41.685C23.978,41.685 23.506,45.097 28.135,47.078" style="fill:none;fill-rule:nonzero;stroke:rgb(35,31,32);stroke-width:2px;"/>
            <path d="M121.042,65.655L68.502,34.663C68.502,34.663 53.91,26.925 43.337,38.989" style="fill:none;fill-rule:nonzero;stroke:rgb(35,31,32);stroke-width:2px;"/>
        </g>
        <path d="M80.405,41.685C80.405,41.685 84.517,36.716 98.296,44.882C105.324,49.048 127.206,66.465 127.206,66.465L196.233,66.465L196.233,66.469C211.745,57.395 229.919,52.175 249.349,52.175C287.963,52.175 321.616,72.79 339.266,103.3" style="fill:none;fill-rule:nonzero;stroke:rgb(35,31,32);stroke-width:2px;"/>
        <path d="M165.067,232.141C165.067,232.141 161.103,229.268 157.292,232.141" style="fill:none;fill-rule:nonzero;stroke:rgb(35,31,32);stroke-width:2px;"/>
        <path d="M351.535,193.292L344.618,187.326" style="fill:none;fill-rule:nonzero;stroke:rgb(35,31,32);stroke-width:2px;"/>
        <path d="M4.11,519.734L149.423,519.734C175.326,519.734 254.497,475.87 281.561,396.223C303.175,332.613 318.244,261.172 321.799,238.349C324.875,218.604 331.348,205.031 341.038,198.008C347.309,193.462 354.878,191.751 362.933,193.069" style="fill:none;fill-rule:nonzero;stroke:rgb(35,31,32);stroke-width:2px;"/>
        <path d="M352.133,205.564C354.958,210.445 356.839,216.905 361.475,220.099C367.472,224.23 378.247,219.673 374.491,216.29C371.594,213.682 367.159,209.928 367.159,209.928C363.883,206.628 361.529,205.141 360.994,204.912L360.999,204.912C356.038,204.103 351.81,205.021 348.08,207.724C341.173,212.73 336.186,223.958 333.657,240.195C329.901,264.302 315.003,335.103 292.923,400.084C263.239,487.44 181.781,531.734 149.423,531.734L4.11,531.734" style="fill:none;fill-rule:nonzero;stroke:rgb(35,31,32);stroke-width:2px;"/>
        <path d="M340.483,190.823C340.483,190.823 341.264,193.639 345.607,195.304" style="fill:none;fill-rule:nonzero;stroke:rgb(35,31,32);stroke-width:2px;"/>
    </g>
    <g id="Layer1">
        <g transform="matrix(1.53743,0,0,1.53743,-147.642,-163.208)">
            <g transform="matrix(72,0,0,72,479.224,412.189)">
            </g>
            <text x="451.504px" y="412.189px" style="font-family:'SignPainter-HouseScript', 'SignPainter';font-size:72px;fill:rgb(255,23,0);fill-opacity:0.09;stroke:rgb(255,62,0);stroke-width:0.98px;stroke-miterlimit:2;">?</text>
        </g>
        <g transform="matrix(0.951659,0,0,0.951659,202.066,104.475)">
            <g transform="matrix(72,0,0,72,479.224,412.189)">
            </g>
            <text x="451.504px" y="412.189px" style="font-family:'SignPainter-HouseScript', 'SignPainter';font-size:72px;fill:rgb(255,23,0);fill-opacity:0.09;stroke:rgb(255,62,0);stroke-width:1.58px;stroke-miterlimit:2;">?</text>
        </g>
        <g transform="matrix(1.53743,0,0,1.53743,-129.362,-121.66)">
            <g transform="matrix(72,0,0,72,479.224,412.189)">
            </g>
            <g transform="matrix(72,0,0,72,497.642,412.189)">
            </g>
            <text x="451.504px" y="412.189px" style="font-family:'SignPainter-HouseScript', 'SignPainter';font-size:72px;fill:rgb(255,23,0);fill-opacity:0.09;stroke:rgb(255,62,0);stroke-width:0.98px;stroke-miterlimit:2;">?</text>
            <g transform="matrix(0.622937,0,0,0.622937,195.291,154.51)">
                <g transform="matrix(72,0,0,72,479.224,412.189)">
                </g>
                <text x="451.504px" y="412.189px" style="font-family:'SignPainter-HouseScript', 'SignPainter';font-size:72px;fill:rgb(255,23,0);fill-opacity:0.09;stroke:rgb(255,62,0);stroke-width:1.57px;stroke-miterlimit:2;">?</text>
            </g>
        </g>
        <g transform="matrix(0.957724,0,0,0.957724,68.0932,123.787)">
            <g transform="matrix(72,0,0,72,479.224,412.189)">
            </g>
            <text x="451.504px" y="412.189px" style="font-family:'SignPainter-HouseScript', 'SignPainter';font-size:72px;fill:rgb(255,23,0);fill-opacity:0.09;stroke:rgb(255,62,0);stroke-width:1.57px;stroke-miterlimit:2;">?</text>
        </g>
        <g transform="matrix(0.957724,0,0,0.957724,103.51,128.859)">
            <g transform="matrix(72,0,0,72,479.224,412.189)">
            </g>
            <text x="451.504px" y="412.189px" style="font-family:'SignPainter-HouseScript', 'SignPainter';font-size:72px;fill:rgb(255,23,0);fill-opacity:0.09;stroke:rgb(255,62,0);stroke-width:1.57px;stroke-miterlimit:2;">?</text>
        </g>
    </g>
</svg>
