<?xml version="1.0" encoding="UTF-8"?><svg id="Layer_2" xmlns="http://www.w3.org/2000/svg" viewBox="0 0 1920 1440"><defs><style>.cls-1{stroke-width:6px;}.cls-1,.cls-2,.cls-3,.cls-4,.cls-5{fill:none;}.cls-1,.cls-2,.cls-4{stroke:#000;}.cls-1,.cls-4{stroke-miterlimit:10;}.cls-6{fill:#f9cd25;}.cls-7{fill:#fff;}.cls-8{fill:#fdeba8;}.cls-9{fill:#1e00b2;}.cls-2,.cls-3,.cls-4,.cls-5{stroke-width:2px;}.cls-2,.cls-3,.cls-5{stroke-linecap:round;stroke-linejoin:round;}.cls-3,.cls-5{stroke:#231f20;}.cls-5{stroke-dasharray:0 12;}</style></defs><g><path class="cls-3" d="M1228.63,1022.84c-.88-5.06-5.26-8.9-10.55-8.9-4.2,0-7.83,2.43-9.58,5.96-.94-.27-1.94-.42-2.97-.42-3.3,0-6.25,1.5-8.21,3.86-1.02-.32-2.11-.5-3.23-.5-5.91,0-10.71,4.81-10.71,10.75s4.72,10.68,10.57,10.75h0s34.4,0,34.4,0c5.91,0,10.71-4.81,10.71-10.75s-4.64-10.59-10.42-10.75Z"/><line class="cls-3" x1="1193.94" y1="1044.34" x2="1166.84" y2="1044.34"/><line class="cls-3" x1="1160.85" y1="1044" x2="1151.3" y2="1044"/><line class="cls-3" x1="1242.56" y1="1052.07" x2="1174.11" y2="1052.07"/><line class="cls-3" x1="1252.25" y1="1044" x2="1266.34" y2="1044"/></g><g><rect class="cls-8" x="470.14" y="1213.86" width="172.99" height="30.65"/><g><rect class="cls-6" x="543.84" y="1226.83" width="6.11" height="16.68"/><rect class="cls-6" x="528.44" y="1219.62" width="4.51" height="23.89"/><rect class="cls-6" x="520.47" y="1219.62" width="4.51" height="23.89"/><rect class="cls-6" x="512.5" y="1219.62" width="4.51" height="23.89"/><rect class="cls-6" x="500.7" y="1226.83" width="4.51" height="16.68"/><rect class="cls-6" x="500.7" y="1218.72" width="4.51" height="8.11"/><rect class="cls-6" x="492.6" y="1226.83" width="4.51" height="16.68"/><rect class="cls-6" x="492.6" y="1218.72" width="4.51" height="8.11"/><rect class="cls-6" x="484.5" y="1226.83" width="4.51" height="16.68"/><rect class="cls-6" x="484.5" y="1218.72" width="4.51" height="8.11"/><rect class="cls-6" x="476.4" y="1226.83" width="4.51" height="16.68"/><rect class="cls-6" x="476.4" y="1218.72" width="4.51" height="8.11"/><rect class="cls-6" x="449.3" y="1212.86" width="14.74" height="30.65"/><rect class="cls-6" x="255.44" y="1216.92" width="5.58" height="11.27"/><rect class="cls-6" x="321.17" y="1201.67" width="5.58" height="15.25"/><rect class="cls-6" x="388.49" y="1193.03" width="5.58" height="10.78"/><rect class="cls-6" x="564.02" y="1226.83" width="6.11" height="16.68"/><g><polygon class="cls-6" points="554.19 1226.83 554.19 1243.51 556.98 1243.51 559.77 1243.51 559.77 1226.83 556.98 1226.83 554.19 1226.83"/><polygon class="cls-6" points="556.98 1218.72 554.19 1218.72 554.19 1226.83 556.98 1226.83 559.77 1226.83 559.77 1218.72 556.98 1218.72"/></g><rect class="cls-6" x="581.02" y="1219.62" width="4.51" height="23.89"/><rect class="cls-6" x="588.98" y="1219.62" width="4.51" height="23.89"/><rect class="cls-6" x="596.95" y="1219.62" width="4.51" height="23.89"/><rect class="cls-6" x="608.53" y="1226.83" width="4.51" height="16.68"/><rect class="cls-6" x="608.53" y="1218.72" width="4.51" height="8.11"/><rect class="cls-6" x="616.63" y="1226.83" width="4.51" height="16.68"/><rect class="cls-6" x="616.63" y="1218.72" width="4.51" height="8.11"/><rect class="cls-6" x="624.73" y="1226.83" width="4.51" height="16.68"/><rect class="cls-6" x="624.73" y="1218.72" width="4.51" height="8.11"/><rect class="cls-6" x="632.83" y="1226.83" width="4.51" height="16.68"/><rect class="cls-6" x="632.83" y="1218.72" width="4.51" height="8.11"/><rect class="cls-6" x="649.93" y="1212.86" width="14.74" height="30.65"/><rect class="cls-6" x="852.95" y="1216.92" width="5.58" height="11.27"/><rect class="cls-6" x="787.22" y="1201.67" width="5.58" height="15.25"/><rect class="cls-6" x="719.9" y="1193.03" width="5.58" height="10.78"/><rect class="cls-6" x="654.51" y="1178.16" width="5.58" height="15.45"/><polygon class="cls-6" points="490.19 1166.99 548.36 1093.53 548.36 1035.84 545.31 1030.43 549.94 1030.43 552.2 1035.84 552.2 1096.23 501.88 1166.99 490.19 1166.99"/><g><path class="cls-8" d="M867.29,1226.03v-11.27h-66.12v-13.52h-66.52v-10.37h-68.12v-11.72h-42.75v-12.17h-11.68v22.49c6.33,.03,11.26,.04,13.28,.04,8.5,0,18.06,11.27,104.5,24.34,71.16,10.76,139.88,34.04,161.96,41.93l11.32,2.68v-32.45h-35.85Z"/><path class="cls-8" d="M384.1,1213.86c86.44-13.07,96-24.34,104.5-24.34,2.02,0,6.95-.02,13.28-.04v-22.49h-11.68v12.17h-42.75v11.72h-68.12v10.37h-66.52v13.52h-66.12v11.27h-35.85v32.45l11.32-2.68c22.07-7.89,90.79-31.17,161.96-41.93Z"/></g><polygon class="cls-6" points="623.77 1166.99 565.6 1093.53 565.6 1035.84 568.65 1030.43 564.02 1030.43 561.76 1035.84 561.76 1096.23 612.09 1166.99 623.77 1166.99"/><rect class="cls-6" x="548.36" y="1084.06" width="17.24" height="3.61"/><path class="cls-9" d="M594.07,998.09c-12.43-6.06-24.86,6.06-37.29,0v-21.63c12.43,6.06,24.86-6.06,37.29,0v21.63Z"/></g><g><polyline class="cls-2" points="499.88 1187.48 499.88 1184.33 499.88 1164.99 488.19 1164.99 488.19 1177.16 445.44 1177.16 445.44 1188.88 377.32 1188.88 377.32 1199.24 310.8 1199.24 310.8 1212.76 244.68 1212.76 244.68 1224.03 208.83 1224.03 208.83 1256.48"/><polygon class="cls-2" points="478.63 1211.86 475.98 1208.41 492.71 1200.75 501.47 1211.86 478.63 1211.86"/><rect class="cls-2" x="451.88" y="1177.16" width="5.58" height="15.45"/><polygon class="cls-2" points="488.19 1164.99 546.36 1091.53 546.36 1033.84 543.31 1028.43 547.94 1028.43 550.2 1033.84 550.2 1094.23 499.88 1164.99 488.19 1164.99"/><polygon class="cls-2" points="527.76 1187.36 527.76 1181.06 547.94 1181.06 554.98 1172.34 554.98 1187.22 527.76 1187.36"/><polyline class="cls-2" points="610.09 1187.48 610.09 1184.33 610.09 1164.99 621.77 1164.99 621.77 1177.16 664.53 1177.16 664.53 1188.88 732.64 1188.88 732.64 1199.24 799.16 1199.24 799.16 1212.76 865.29 1212.76 865.29 1224.03 901.14 1224.03 901.14 1256.48"/><path class="cls-2" d="M897.16,1256.48s-82.85-31.55-169.29-44.62c-86.44-13.07-96-24.34-104.5-24.34s-68.38-.3-68.38-.3c0,0-59.88,.3-68.38,.3s-18.06,11.27-104.5,24.34c-86.44,13.07-169.29,44.62-169.29,44.62"/><polyline class="cls-2" points="782.43 1256.48 622.7 1195.19 554.98 1195.19 487.26 1195.19 327.53 1256.48"/><rect class="cls-2" x="468.14" y="1211.86" width="172.99" height="30.65"/><polygon class="cls-2" points="631.33 1211.86 633.99 1208.41 617.26 1200.75 608.49 1211.86 631.33 1211.86"/><polygon class="cls-2" points="554.98 1200.75 492.71 1200.75 501.47 1211.86 554.98 1211.86 608.49 1211.86 617.26 1200.75 554.98 1200.75"/><polygon class="cls-2" points="621.77 1164.99 563.6 1091.53 563.6 1033.84 566.65 1028.43 562.02 1028.43 559.76 1033.84 559.76 1094.23 610.09 1164.99 621.77 1164.99"/><rect class="cls-2" x="546.36" y="1082.06" width="17.24" height="3.61"/><polygon class="cls-2" points="582.2 1187.36 582.2 1181.06 562.02 1181.06 554.98 1172.34 554.98 1187.22 582.2 1187.36"/><polygon class="cls-2" points="554.98 1179.86 547.94 1187.22 554.98 1187.22 562.02 1187.22 554.98 1179.86"/><polyline class="cls-2" points="327.53 1256.48 447.3 1242.51 662.67 1242.51 782.43 1256.48"/><line class="cls-2" x1="554.98" y1="970.38" x2="554.98" y2="1082.06"/><g><rect class="cls-2" x="541.84" y="1225.83" width="6.11" height="16.68"/><rect class="cls-2" x="526.44" y="1218.62" width="4.51" height="23.89"/><rect class="cls-2" x="518.47" y="1218.62" width="4.51" height="23.89"/><rect class="cls-2" x="510.5" y="1218.62" width="4.51" height="23.89"/><rect class="cls-2" x="498.7" y="1225.83" width="4.51" height="16.68"/><rect class="cls-2" x="498.7" y="1217.72" width="4.51" height="8.11"/><rect class="cls-2" x="490.6" y="1225.83" width="4.51" height="16.68"/><rect class="cls-2" x="490.6" y="1217.72" width="4.51" height="8.11"/><rect class="cls-2" x="482.5" y="1225.83" width="4.51" height="16.68"/><rect class="cls-2" x="482.5" y="1217.72" width="4.51" height="8.11"/><rect class="cls-2" x="474.4" y="1225.83" width="4.51" height="16.68"/><rect class="cls-2" x="474.4" y="1217.72" width="4.51" height="8.11"/><rect class="cls-2" x="447.3" y="1211.86" width="14.74" height="30.65"/><rect class="cls-2" x="253.44" y="1215.92" width="5.58" height="11.27"/><rect class="cls-2" x="319.17" y="1200.67" width="5.58" height="15.25"/><rect class="cls-2" x="386.49" y="1192.03" width="5.58" height="10.78"/><rect class="cls-2" x="562.02" y="1225.83" width="6.11" height="16.68"/><g><polygon class="cls-2" points="552.19 1225.83 552.19 1242.51 554.98 1242.51 557.77 1242.51 557.77 1225.83 554.98 1225.83 552.19 1225.83"/><polygon class="cls-2" points="554.98 1217.72 552.19 1217.72 552.19 1225.83 554.98 1225.83 557.77 1225.83 557.77 1217.72 554.98 1217.72"/></g><rect class="cls-2" x="579.02" y="1218.62" width="4.51" height="23.89"/><rect class="cls-2" x="586.98" y="1218.62" width="4.51" height="23.89"/><rect class="cls-2" x="594.95" y="1218.62" width="4.51" height="23.89"/><rect class="cls-2" x="606.53" y="1225.83" width="4.51" height="16.68"/><rect class="cls-2" x="606.53" y="1217.72" width="4.51" height="8.11"/><rect class="cls-2" x="614.63" y="1225.83" width="4.51" height="16.68"/><rect class="cls-2" x="614.63" y="1217.72" width="4.51" height="8.11"/><rect class="cls-2" x="622.73" y="1225.83" width="4.51" height="16.68"/><rect class="cls-2" x="622.73" y="1217.72" width="4.51" height="8.11"/><rect class="cls-2" x="630.83" y="1225.83" width="4.51" height="16.68"/><rect class="cls-2" x="630.83" y="1217.72" width="4.51" height="8.11"/><rect class="cls-2" x="647.93" y="1211.86" width="14.74" height="30.65"/><rect class="cls-2" x="850.95" y="1215.92" width="5.58" height="11.27"/><rect class="cls-2" x="785.22" y="1200.67" width="5.58" height="15.25"/><rect class="cls-2" x="717.9" y="1192.03" width="5.58" height="10.78"/><rect class="cls-2" x="652.51" y="1177.16" width="5.58" height="15.45"/><g><path class="cls-2" d="M589.64,997.04c-11.55-6.06-23.1,6.06-34.66,0v-21.63c11.55,6.06,23.1-6.06,34.66,0v21.63Z"/><path class="cls-2" d="M564.82,992.66c-.35,.06-.71,.11-1.06,.15-.01,.4-.03,.8-.04,1.21-.23-.29-.46-.58-.7-.87-.29,.25-.57,.49-.86,.73,.07-.39,.13-.79,.2-1.18-.34-.1-.69-.22-1.03-.34,.31-.17,.63-.35,.94-.54-.14-.37-.28-.74-.42-1.11,.33,.17,.65,.33,.98,.48,.17-.36,.33-.72,.5-1.08,.09,.38,.18,.77,.28,1.15,.35-.1,.7-.2,1.05-.31-.21,.35-.42,.69-.63,1.03,.27,.24,.54,.48,.81,.71Z"/><path class="cls-2" d="M577.17,982.19c-.35,.09-.71,.18-1.06,.27-.01,.4-.03,.81-.04,1.21-.23-.25-.46-.5-.7-.75-.29,.31-.57,.61-.86,.92,.07-.41,.13-.82,.2-1.23-.34-.02-.69-.04-1.03-.05,.31-.27,.63-.54,.94-.8-.14-.33-.28-.67-.42-1,.33,.08,.65,.16,.98,.24,.17-.39,.33-.79,.5-1.18,.09,.37,.18,.73,.28,1.1,.35-.15,.7-.3,1.05-.45-.21,.37-.42,.74-.63,1.1,.27,.2,.54,.41,.81,.62Z"/><path class="cls-2" d="M581.82,978.88c-.35,.02-.71,.06-1.06,.1-.01,.4-.03,.8-.04,1.21-.23-.29-.46-.57-.7-.85-.29,.27-.57,.54-.86,.82,.07-.4,.13-.81,.2-1.21-.34-.06-.69-.11-1.03-.16,.31-.24,.63-.48,.94-.71-.14-.35-.28-.7-.42-1.05,.33,.11,.65,.23,.98,.35,.17-.37,.33-.75,.5-1.12,.09,.38,.18,.76,.28,1.14,.35-.1,.7-.2,1.05-.28-.21,.33-.42,.66-.63,1,.27,.25,.54,.5,.81,.75Z"/><path class="cls-2" d="M585.57,982.18c-.35-.05-.71-.1-1.06-.13-.01,.4-.03,.8-.04,1.2-.23-.33-.46-.66-.7-.98-.29,.22-.57,.44-.86,.66,.07-.39,.13-.78,.2-1.18-.34-.12-.69-.23-1.03-.33,.31-.19,.63-.38,.94-.55-.14-.37-.28-.75-.42-1.12,.33,.16,.65,.34,.98,.52,.17-.34,.33-.68,.5-1.02,.09,.4,.18,.79,.28,1.19,.35-.03,.7-.05,1.05-.06-.21,.28-.42,.57-.63,.87,.27,.3,.54,.61,.81,.93Z"/><path class="cls-2" d="M580.07,984.68c-.24,.04-.47,.07-.71,.12,0,.27-.02,.54-.03,.81-.15-.18-.31-.36-.47-.54-.19,.19-.38,.38-.57,.57,.04-.27,.09-.54,.13-.81-.23-.03-.46-.06-.69-.09,.21-.16,.42-.33,.63-.49-.09-.23-.19-.46-.28-.69,.22,.07,.43,.14,.65,.21,.11-.25,.22-.51,.33-.76,.06,.25,.12,.5,.19,.75,.23-.08,.47-.16,.7-.23-.14,.23-.28,.46-.42,.7,.18,.15,.36,.31,.54,.46Z"/><path class="cls-2" d="M583.4,990.09c-.39,0-.77,0-1.16,.02-.02,.44-.03,.87-.05,1.31-.25-.33-.51-.66-.76-.98-.31,.27-.62,.55-.94,.84,.07-.44,.14-.87,.21-1.31-.37-.09-.75-.16-1.12-.23,.34-.25,.68-.49,1.03-.72-.15-.39-.31-.78-.46-1.16,.35,.14,.71,.29,1.06,.44,.18-.4,.36-.79,.55-1.18,.1,.42,.2,.84,.3,1.26,.38-.08,.76-.16,1.14-.22-.23,.34-.46,.69-.69,1.04,.29,.29,.59,.59,.88,.89Z"/><polyline class="cls-2" points="554.98 985.63 562.85 981.7 569.72 976.27"/><polyline class="cls-2" points="554.98 975.41 562.85 981.7 569.72 985.63"/><polyline class="cls-2" points="554.98 980.52 562.85 981.7 570.71 980.52"/><line class="cls-2" x1="562.85" y1="977.17" x2="562.85" y2="986.22"/></g></g></g></g><path class="cls-2" d="M1949.38,1168.45c-272.99,0-207.99-58.84-541.76-58.84-207.11,0-309.28,29.64-504.48,148.87,0,0-632.25-4.68-908.96,3.14"/><g><path class="cls-9" d="M1395.87,1067.63c0,2.44-1.98,4.42-4.42,4.42s-4.42-1.98-4.42-4.42,1.98-4.42,4.42-4.42,4.42,1.98,4.42,4.42Z"/><path class="cls-9" d="M1419.74,1075.07c0,2.62-2.13,4.75-4.75,4.75s-4.75-2.13-4.75-4.75,2.13-4.75,4.75-4.75,4.75,2.13,4.75,4.75Z"/><path class="cls-9" d="M1429.16,1070.73c0,2.39-1.94,4.33-4.33,4.33s-4.33-1.94-4.33-4.33,1.94-4.33,4.33-4.33,4.33,1.94,4.33,4.33Z"/><path class="cls-9" d="M1401.21,1077.44c0,1.71-1.39,3.1-3.1,3.1s-3.1-1.39-3.1-3.1,1.39-3.1,3.1-3.1,3.1,1.39,3.1,3.1Z"/><g><polyline class="cls-8" points="1397.35 1083.59 1396.76 1109.61 1400.74 1109.61 1407.62 1109.61 1411.59 1109.61 1411.01 1083.59"/><polygon class="cls-8" points="1407.89 945.12 1407.19 913.78 1401.17 913.78 1400.46 945.12 1407.89 945.12"/><polygon class="cls-8" points="1408.06 952.77 1407.97 948.75 1400.38 948.75 1400.29 952.77 1408.06 952.77"/><polygon class="cls-8" points="1409.03 995.75 1408.15 956.41 1400.21 956.41 1399.32 995.75 1409.03 995.75"/><polygon class="cls-8" points="1409.26 1006.1 1409.11 999.39 1399.24 999.39 1399.09 1006.1 1409.26 1006.1"/><polygon class="cls-8" points="1409.58 1020.37 1409.35 1009.74 1399.01 1009.74 1398.77 1020.37 1409.58 1020.37"/><polygon class="cls-8" points="1410.48 1060.09 1410.24 1049.59 1398.11 1049.59 1397.88 1060.09 1410.48 1060.09"/></g><rect class="cls-6" x="1395.85" y="997.75" width="22.66" height="3.64"/><rect class="cls-6" x="1393.05" y="1008.1" width="28.25" height="3.64"/><path class="cls-6" d="M1407.18,1045.6h-20.64s8.49,2.42,14.58,5.99h12.13c6.09-3.58,14.58-5.99,14.58-5.99h-20.64Z"/><g><polygon class="cls-6" points="1429.1 1033 1385.25 1033 1385.65 1036.92 1428.7 1036.92 1429.1 1033"/><polygon class="cls-6" points="1429.42 1029.92 1384.94 1029.92 1385.25 1033 1429.1 1033 1429.42 1029.92"/><polygon class="cls-6" points="1428.7 1036.92 1385.65 1036.92 1385.96 1039.99 1428.39 1039.99 1428.7 1036.92"/><polygon class="cls-6" points="1385.96 1039.99 1386.22 1042.52 1428.13 1042.52 1428.39 1039.99 1385.96 1039.99"/><polygon class="cls-6" points="1386.53 1045.6 1427.82 1045.6 1428.13 1042.52 1386.22 1042.52 1386.53 1045.6"/></g></g><g><g><polygon class="cls-2" points="1401.59 894.9 1406.76 894.9 1406.51 883.57 1401.85 883.57 1401.59 894.9"/><polygon class="cls-2" points="1401.85 883.57 1406.51 883.57 1406.25 872.24 1402.1 872.24 1401.85 883.57"/><polygon class="cls-2" points="1402.1 872.24 1406.25 872.24 1406 860.91 1402.36 860.91 1402.1 872.24"/><polygon class="cls-2" points="1401.25 910.15 1402.82 910.15 1405.54 910.15 1407.11 910.15 1406.76 894.9 1401.59 894.9 1401.25 910.15"/><polygon class="cls-2" points="1403.12 826.92 1402.87 838.25 1405.49 838.25 1405.23 826.92 1403.12 826.92"/><polygon class="cls-2" points="1404.98 815.59 1403.38 815.59 1403.12 826.92 1405.23 826.92 1404.98 815.59"/><polygon class="cls-2" points="1402.61 849.58 1405.74 849.58 1405.49 838.25 1402.87 838.25 1402.61 849.58"/><polygon class="cls-2" points="1404.82 808.32 1404.47 808.32 1403.88 808.32 1403.54 808.32 1403.38 815.59 1404.98 815.59 1404.82 808.32"/><polygon class="cls-2" points="1402.36 860.91 1406 860.91 1405.74 849.58 1402.61 849.58 1402.36 860.91"/><polyline class="cls-2" points="1397.35 1083.59 1396.76 1109.61 1400.74 1109.61 1407.62 1109.61 1411.59 1109.61 1411.01 1083.59"/><line class="cls-2" x1="1398.11" y1="1049.59" x2="1397.88" y2="1060.09"/><line class="cls-2" x1="1399.01" y1="1009.74" x2="1398.77" y2="1020.37"/><line class="cls-2" x1="1399.24" y1="999.39" x2="1399.09" y2="1006.1"/><line class="cls-2" x1="1400.21" y1="956.41" x2="1399.32" y2="995.75"/><line class="cls-2" x1="1400.38" y1="948.75" x2="1400.29" y2="952.77"/><line class="cls-2" x1="1401.17" y1="913.78" x2="1400.46" y2="945.12"/><polyline class="cls-2" points="1407.11 910.15 1405.54 910.15 1402.82 910.15 1401.25 910.15"/><line class="cls-2" x1="1407.89" y1="945.12" x2="1407.19" y2="913.78"/><line class="cls-2" x1="1408.06" y1="952.77" x2="1407.97" y2="948.75"/><line class="cls-2" x1="1409.03" y1="995.75" x2="1408.15" y2="956.41"/><line class="cls-2" x1="1409.26" y1="1006.1" x2="1409.11" y2="999.39"/><line class="cls-2" x1="1409.58" y1="1020.37" x2="1409.35" y2="1009.74"/><line class="cls-2" x1="1410.48" y1="1060.09" x2="1410.24" y2="1049.59"/></g><rect class="cls-2" x="1396.76" y="910.15" width="14.83" height="3.64"/><rect class="cls-2" x="1396.76" y="945.12" width="14.83" height="3.64"/><rect class="cls-2" x="1396.76" y="952.77" width="14.83" height="3.64"/><rect class="cls-2" x="1392.85" y="995.75" width="22.66" height="3.64"/><rect class="cls-2" x="1390.05" y="1006.1" width="28.25" height="3.64"/><rect class="cls-2" x="1390.05" y="1020.37" width="28.25" height="3.64"/><rect class="cls-2" x="1390.05" y="1024.03" width="28.25" height="3.86"/><rect class="cls-2" x="1378.02" y="1060.09" width="52.31" height="4.2"/><rect class="cls-2" x="1378.02" y="1079.4" width="52.31" height="4.2"/><rect class="cls-2" x="1381.38" y="1064.29" width="45.6" height="15.11"/><path class="cls-2" d="M1404.18,1043.6h-20.64s8.49,2.42,14.58,5.99h12.13c6.09-3.58,14.58-5.99,14.58-5.99h-20.64Z"/><g><polygon class="cls-2" points="1426.1 1031 1382.25 1031 1382.65 1034.92 1425.7 1034.92 1426.1 1031"/><polygon class="cls-2" points="1426.42 1027.92 1381.94 1027.92 1382.25 1031 1426.1 1031 1426.42 1027.92"/><polygon class="cls-2" points="1425.7 1034.92 1382.65 1034.92 1382.96 1037.99 1425.39 1037.99 1425.7 1034.92"/><polygon class="cls-2" points="1382.96 1037.99 1383.22 1040.52 1425.13 1040.52 1425.39 1037.99 1382.96 1037.99"/><polygon class="cls-2" points="1383.53 1043.6 1424.82 1043.6 1425.13 1040.52 1383.22 1040.52 1383.53 1043.6"/></g><line class="cls-2" x1="1408.69" y1="1074.36" x2="1399.19" y2="1074.36"/><polyline class="cls-2" points="1426.98 1069.33 1426.98 1074.36 1416.58 1074.36"/><line class="cls-2" x1="1393.05" y1="1069.33" x2="1419.58" y2="1069.33"/><polyline class="cls-2" points="1395.11 1074.36 1381.94 1074.36 1381.94 1069.33 1385.91 1069.33"/><path class="cls-2" d="M1393.27,1068.07c0,2.09-1.69,3.78-3.78,3.78s-3.78-1.69-3.78-3.78,1.69-3.78,3.78-3.78,3.78,1.69,3.78,3.78Z"/><path class="cls-2" d="M1416.67,1073.38c0,2.24-1.82,4.05-4.05,4.05s-4.05-1.81-4.05-4.05,1.82-4.05,4.05-4.05,4.05,1.82,4.05,4.05Z"/><path class="cls-2" d="M1426.98,1069.25c0,2.04-1.66,3.7-3.7,3.7s-3.7-1.66-3.7-3.7,1.66-3.7,3.7-3.7,3.7,1.66,3.7,3.7Z"/><path class="cls-2" d="M1399.79,1076.03c0,1.46-1.18,2.64-2.64,2.64s-2.64-1.18-2.64-2.64,1.18-2.64,2.64-2.64,2.64,1.18,2.64,2.64Z"/></g><g><line class="cls-5" x1="1323.19" y1="1350.47" x2="1647.8" y2="1350.47"/><line class="cls-3" x1="1569" y1="1382.73" x2="639.21" y2="1382.73"/><line class="cls-3" x1="1569" y1="1318.22" x2="639.21" y2="1318.22"/><line class="cls-5" x1="564.04" y1="1347.51" x2="938.65" y2="1347.51"/></g><g><path class="cls-8" d="M1248.07,1272.7l24.7-16.41s.08-.03,.1-.03,.06,0,.1,.03l24.7,16.41h27.13l-8.78-29.15h-90.09l-8.78,29.15h30.92Z"/><path class="cls-9" d="M1350.74,1231.29l44.31-29.25s.07-.03,.1-.03,.06,0,.1,.03l44.31,29.25h-7.87l-36.45-24.06s-.06-.02-.08-.02-.05,0-.08,.02l-36.45,24.06h-7.87Z"/><polyline class="cls-8" points="1118.35 1200.93 1066.15 1200.93 1040.44 1230.71 1080.72 1230.71"/><path class="cls-9" d="M1170.51,1227.1l-45.51-30.04s-.03-.02-.05-.02-.04,0-.05,.02l-45.51,30.04h8.95s36.57-24.14,36.57-24.14c.01,0,.03-.01,.04-.01s.03,0,.04,.01l36.57,24.14h8.95Z"/><rect class="cls-6" x="1135.57" y="1250.36" width="12.69" height="10.97"/><rect class="cls-6" x="1230.24" y="1281.83" width="11.72" height="17.47" rx=".14" ry=".14"/><rect class="cls-6" x="1301.5" y="1281.83" width="11.72" height="17.47" rx=".14" ry=".14"/><rect class="cls-6" x="1372" y="1239.26" width="11.79" height="11.79" rx=".15" ry=".15"/><rect class="cls-6" x="1398.31" y="1282.35" width="20.35" height="15.32" rx=".15" ry=".15"/><rect class="cls-6" x="1406.75" y="1239.26" width="11.79" height="11.79" rx=".15" ry=".15"/><rect class="cls-6" x="1135.57" y="1240.12" width="12.69" height="10.25"/><rect class="cls-6" x="1118.47" y="1250.36" width="12.69" height="10.97"/><rect class="cls-6" x="1118.47" y="1240.12" width="12.69" height="10.25"/><rect class="cls-6" x="1101.79" y="1250.36" width="12.69" height="10.97"/><rect class="cls-6" x="1101.79" y="1240.12" width="12.69" height="10.25"/><rect class="cls-6" x="1135.57" y="1283.26" width="12.69" height="10.97"/><rect class="cls-6" x="1135.57" y="1273.01" width="12.69" height="10.25"/><rect class="cls-6" x="1118.47" y="1283.26" width="12.69" height="10.97"/><rect class="cls-6" x="1118.47" y="1273.01" width="12.69" height="10.25"/><rect class="cls-6" x="1101.52" y="1283.26" width="12.69" height="10.97"/><rect class="cls-6" x="1101.52" y="1273.01" width="12.69" height="10.25"/><rect class="cls-6" x="1067.26" y="1242.78" width="15.46" height="11.23"/><rect class="cls-6" x="1051.95" y="1242.78" width="15.31" height="11.23"/><rect class="cls-6" x="1051.95" y="1240.12" width="30.78" height="2.66"/><path class="cls-9" d="M1238.28,1275.88l32.49-21.59s.08-.03,.1-.03,.06,0,.1,.03l32.49,21.59h-6.52l-25.99-17.27s-.06-.02-.08-.02-.05,0-.08,.02l-25.99,17.27h-6.52Z"/><polygon class="cls-8" points="1357.04 1274.7 1435.38 1274.7 1430.4 1261.44 1362.01 1261.44 1357.04 1274.7"/></g><g><g><g><polyline class="cls-2" points="1296.73 1270.7 1322.79 1270.7 1314.01 1241.55 1223.92 1241.55 1215.14 1270.7 1241 1270.7"/><rect class="cls-2" x="1227.24" y="1279.83" width="11.72" height="17.47" rx=".15" ry=".15"/><rect class="cls-2" x="1298.5" y="1279.83" width="11.72" height="17.47" rx=".14" ry=".14"/><path class="cls-2" d="M1236.28,1273.88l32.49-21.59s.08-.03,.1-.03,.06,0,.1,.03l32.49,21.59h-6.52l-25.99-17.27s-.06-.02-.08-.02-.05,0-.08,.02l-25.99,17.27h-6.52Z"/><polyline class="cls-2" points="1290.27 1270.7 1290.27 1312.41 1247.32 1312.41 1247.32 1270.7"/><polyline class="cls-2" points="1318.75 1270.7 1318.75 1312.41 1219.18 1312.41 1219.18 1270.7"/><g><path class="cls-2" d="M1268.97,1265.03c-3.43,0-6.22,2.81-6.22,6.26s2.79,6.26,6.22,6.26,6.22-2.81,6.22-6.26-2.79-6.26-6.22-6.26Z"/><line class="cls-2" x1="1268.97" y1="1265.03" x2="1268.97" y2="1277.47"/><line class="cls-2" x1="1275.14" y1="1271.25" x2="1262.79" y2="1271.25"/></g><polyline class="cls-2" points="1260.89 1312.41 1260.89 1286.11 1276.7 1286.11 1276.7 1312.41"/></g><g><polygon class="cls-2" points="1218.71 1289.53 1196.2 1274.57 1173.68 1289.53 1175.59 1289.53 1196.2 1275.84 1216.8 1289.53 1218.71 1289.53"/><polyline class="cls-2" points="1215.14 1288.18 1215.14 1312.41 1177.21 1312.41 1177.21 1288.18"/><line class="cls-2" x1="1183.53" y1="1295.59" x2="1208.82" y2="1295.59"/><line class="cls-2" x1="1183.53" y1="1298.39" x2="1208.82" y2="1298.39"/><line class="cls-2" x1="1183.53" y1="1301.2" x2="1208.82" y2="1301.2"/><line class="cls-2" x1="1183.53" y1="1304" x2="1208.82" y2="1304"/><line class="cls-2" x1="1183.53" y1="1306.8" x2="1208.82" y2="1306.8"/><line class="cls-2" x1="1183.53" y1="1309.61" x2="1208.82" y2="1309.61"/><polyline class="cls-2" points="1183.53 1312.41 1183.53 1292.79 1208.82 1292.79 1208.82 1312.41"/><g><path class="cls-2" d="M1196.27,1282.56c-1.52,0-2.76,1.25-2.76,2.78s1.24,2.78,2.76,2.78,2.76-1.25,2.76-2.78-1.24-2.78-2.76-2.78Z"/><line class="cls-2" x1="1196.27" y1="1282.56" x2="1196.27" y2="1288.08"/><line class="cls-2" x1="1199.02" y1="1285.32" x2="1193.53" y2="1285.32"/></g></g><g><rect class="cls-2" x="1318.75" y="1291.47" width="22.35" height="21.04"/><line class="cls-2" x1="1321.95" y1="1312.52" x2="1321.95" y2="1291.46"/><line class="cls-2" x1="1325.14" y1="1312.52" x2="1325.14" y2="1291.46"/><line class="cls-2" x1="1328.33" y1="1312.52" x2="1328.33" y2="1291.46"/><line class="cls-2" x1="1331.52" y1="1312.52" x2="1331.52" y2="1291.46"/><line class="cls-2" x1="1334.72" y1="1312.52" x2="1334.72" y2="1291.46"/><line class="cls-2" x1="1337.91" y1="1312.52" x2="1337.91" y2="1291.46"/></g></g><g><path class="cls-2" d="M1427.29,1227.79v30.32c0,.08-.07,.15-.15,.15h-68.26c-.08,0-.15-.06-.15-.15v-30.14"/><rect class="cls-2" x="1370" y="1236.26" width="11.79" height="11.79" rx=".15" ry=".15"/><line class="cls-2" x1="1369.93" y1="1239.16" x2="1381.85" y2="1239.16"/><rect class="cls-2" x="1396.31" y="1279.35" width="20.35" height="15.32" rx=".15" ry=".15"/><path class="cls-2" d="M1374.54,1212.05c-.08,0-.15-.07-.15-.15v-7.69h-9.33v14.04c0,.08-.07,.15-.15,.15"/><path class="cls-2" d="M1365.3,1204.21c-1.15,0-2.08-.93-2.08-2.08s.93-2.12,2.08-2.12h8.66c1.15,0,2.08,.93,2.08,2.08s-.93,2.12-2.08,2.12h-8.66Z"/><path class="cls-2" d="M1348.74,1229.29l44.31-29.25s.07-.03,.1-.03,.06,0,.1,.03l44.31,29.25h-7.87l-36.45-24.06s-.06-.02-.08-.02-.05,0-.08,.02l-36.45,24.06h-7.87Z"/><polyline class="cls-2" points="1427.29 1271.51 1427.29 1312.41 1358.75 1312.41 1358.75 1271.51"/><polygon class="cls-2" points="1353.85 1271.51 1432.19 1271.51 1427.21 1258.25 1358.82 1258.25 1353.85 1271.51"/><g><path class="cls-2" d="M1393.01,1215.12c-3.45,0-6.26,2.81-6.26,6.26s2.81,6.26,6.26,6.26,6.26-2.81,6.26-6.26-2.81-6.26-6.26-6.26Z"/><line class="cls-2" x1="1393.01" y1="1215.12" x2="1393.01" y2="1227.56"/><line class="cls-2" x1="1399.23" y1="1221.34" x2="1386.8" y2="1221.34"/></g><polyline class="cls-2" points="1370.39 1312.41 1370.39 1285.05 1385.87 1285.05 1385.87 1312.41"/><line class="cls-2" x1="1396.31" y1="1282.49" x2="1416.66" y2="1282.49"/><line class="cls-2" x1="1404.69" y1="1239.16" x2="1416.6" y2="1239.16"/><rect class="cls-2" x="1404.75" y="1236.26" width="11.79" height="11.79" rx=".15" ry=".15"/></g><g><polygon class="cls-2" points="1088.92 1223.4 1088.92 1312.72 1157.26 1312.72 1157.26 1223.57 1122.96 1200.93 1088.92 1223.4"/><polyline class="cls-2" points="1117.11 1198.86 1064.9 1198.86 1039.2 1228.65 1088.92 1228.65"/><path class="cls-2" d="M1168.51,1225.1l-45.51-30.04s-.03-.02-.05-.02-.04,0-.05,.02l-45.51,30.04h8.95s36.57-24.14,36.57-24.14c.01,0,.03-.01,.04-.01s.03,0,.04,.01l36.57,24.14h8.95Z"/><rect class="cls-2" x="1133.57" y="1247.36" width="12.69" height="10.97"/><rect class="cls-2" x="1133.57" y="1237.12" width="12.69" height="10.25"/><rect class="cls-2" x="1116.47" y="1247.36" width="12.69" height="10.97"/><rect class="cls-2" x="1116.47" y="1237.12" width="12.69" height="10.25"/><rect class="cls-2" x="1099.79" y="1247.36" width="12.69" height="10.97"/><rect class="cls-2" x="1099.79" y="1237.12" width="12.69" height="10.25"/><rect class="cls-2" x="1133.57" y="1280.26" width="12.69" height="10.97"/><rect class="cls-2" x="1133.57" y="1270.01" width="12.69" height="10.25"/><rect class="cls-2" x="1116.47" y="1280.26" width="12.69" height="10.97"/><rect class="cls-2" x="1116.47" y="1270.01" width="12.69" height="10.25"/><rect class="cls-2" x="1099.52" y="1280.26" width="12.69" height="10.97"/><rect class="cls-2" x="1099.52" y="1270.01" width="12.69" height="10.25"/><rect class="cls-2" x="1065.26" y="1239.78" width="15.46" height="11.23"/><rect class="cls-2" x="1049.95" y="1239.78" width="15.31" height="11.23"/><rect class="cls-2" x="1049.95" y="1237.12" width="30.78" height="2.66"/><polygon class="cls-2" points="1075.6 1312.72 1088.92 1312.72 1088.92 1228.65 1041.47 1228.65 1041.47 1312.72 1054.59 1312.72 1075.6 1312.72"/><rect class="cls-2" x="1054.69" y="1278.21" width="20.65" height="34.51"/><line class="cls-2" x1="1123.17" y1="1210.49" x2="1123.17" y2="1223.37"/><line class="cls-2" x1="1129.6" y1="1216.93" x2="1116.73" y2="1216.93"/><circle class="cls-2" cx="1123.17" cy="1216.93" r="6.44"/></g></g><g><g><path class="cls-3" d="M1690.55,1246.59c0,20.84-11.65,37.73-26.03,37.73s-26.03-16.89-26.03-37.73,11.65-37.73,26.03-37.73,26.03,16.89,26.03,37.73Z"/><line class="cls-3" x1="1664.52" y1="1255.17" x2="1664.52" y2="1313.48"/></g><g><path class="cls-3" d="M1623.99,1222.26c0,28.42-15.89,51.46-35.5,51.46s-35.5-23.04-35.5-51.46,15.89-51.46,35.5-51.46,35.5,23.04,35.5,51.46Z"/><line class="cls-3" x1="1588.49" y1="1207.23" x2="1588.49" y2="1313.48"/><line class="cls-3" x1="1588.49" y1="1246.53" x2="1568.78" y2="1223.79"/><line class="cls-3" x1="1576.03" y1="1232.15" x2="1578.15" y2="1213.78"/><line class="cls-3" x1="1588.49" y1="1260.85" x2="1607.37" y2="1238.29"/><line class="cls-3" x1="1600.48" y1="1246.53" x2="1599.22" y2="1233.95"/></g></g><g><path class="cls-3" d="M1275.65,825.59v14.35m0-91.69v15.14m-31.49,30.7h-14.35m91.69,0h-15.14m-8.44,22.27l10.15,10.15m-64.83-64.83l10.71,10.71m-.56,43.98l-10.15,10.15m64.83-64.83l-10.71,10.71m7.32,33.9l13.23,5.56m-84.53-35.51l13.96,5.86m16.11,40.92l-5.56,13.23m35.51-84.53l-5.86,13.96m17.23,16.33l13.28-5.46m-84.8,34.86l14-5.76m40.37,17.45l5.46,13.28m-34.86-84.8l5.76,14"/><path class="cls-3" d="M1275.65,816.37c-12.3,0-22.27-9.97-22.27-22.27s9.97-22.27,22.27-22.27,22.27,9.97,22.27,22.27-9.97,22.27-22.27,22.27"/></g><path class="cls-3" d="M244.3,961.57c-5.13,0-9.58,3.82-10.34,8.89l-.15,1.03-1.04,.05c-5.69,.25-10.15,4.91-10.15,10.61s4.77,10.63,10.62,10.63h26.15c5.86,0,10.63-4.77,10.63-10.63s-4.77-10.63-10.63-10.63c-1.04,0-2.08,.15-3.08,.45l-1.46,.44-.16-1.51c-.57-5.32-5.04-9.33-10.4-9.33Z"/><path class="cls-3" d="M375.42,1035.49l-.16,1.51-1.46-.44c-1-.3-2.03-.45-3.08-.45-5.86,0-10.63,4.77-10.63,10.63s4.77,10.63,10.63,10.63h26.15c5.86,0,10.62-4.77,10.62-10.63s-4.46-10.36-10.15-10.61l-1.04-.05-.15-1.03c-.76-5.07-5.21-8.89-10.34-8.89s-9.83,4.01-10.4,9.33Z"/><g><g><rect x="1391.21" y="963.04" width="8.64" height="26.06"/><path d="M1386.89,987.16l-.72-.43c-4.63-2.8-9.62-4.55-14.72-5.16h0v-10.98h0c5.11-.62,10.09-2.37,14.72-5.16l.72-.43v22.18Z"/><rect x="1386.89" y="961.07" width="8.64" height="30" rx="4.32" ry="4.32"/><rect x="1369.18" y="969.55" width="3.76" height="13.04" rx="1.88" ry="1.88"/></g><g><g><rect x="464.17" y="1159.78" width="8.64" height="26.06" transform="translate(1641.3 704.33) rotate(90)"/><path d="M457.39,1164.17l.43-.72c2.8-4.63,4.55-9.62,5.16-14.72h0s10.98,0,10.98,0h0c.62,5.11,2.37,10.09,5.16,14.72l.43,.72h-22.18Z"/><rect x="464.17" y="1153.49" width="8.64" height="30" rx="4.32" ry="4.32" transform="translate(1636.98 700.01) rotate(90)"/><rect x="466.61" y="1141.82" width="3.76" height="13.04" rx="1.88" ry="1.88" transform="translate(1616.83 679.86) rotate(90)"/></g><path class="cls-1" d="M572.17,823.09h597.62c11.05,0,20,8.95,20,20v112.52c0,11.05,8.95,20,20,20h176.35"/><path class="cls-1" d="M503.17,823.09h-14.26c-11.05,0-20,8.95-20,20v311.75"/></g></g><g><g><rect x="1090.08" y="1181.52" width="8.64" height="26.06" transform="translate(2288.94 100.15) rotate(90)"/><path d="M1083.31,1185.9l.43-.72c2.8-4.63,4.55-9.62,5.16-14.72h0s10.98,0,10.98,0h0c.62,5.11,2.37,10.09,5.16,14.72l.43,.72h-22.18Z"/><rect x="1090.08" y="1175.22" width="8.64" height="30" rx="4.32" ry="4.32" transform="translate(2284.62 95.82) rotate(90)"/><rect x="1092.52" y="1163.55" width="3.76" height="13.04" rx="1.88" ry="1.88" transform="translate(2264.48 75.68) rotate(90)"/></g><path class="cls-1" d="M549.25,823.09v95.64c0,11.05,8.95,20,20,20h505.15c11.05,0,20,8.95,20,20v231.49"/></g><g><circle class="cls-6" cx="551.9" cy="830.35" r="45.73"/><circle class="cls-4" cx="548.9" cy="826.35" r="45.73"/><polygon class="cls-7" points="548.55 866.13 574.17 824.09 557.25 824.09 557.25 792.58 557.25 792.58 531.63 834.61 548.55 834.61 548.55 866.13 548.55 866.13"/><polygon class="cls-2" points="544.55 863.13 570.17 821.09 553.25 821.09 553.25 789.58 553.25 789.58 527.63 831.61 544.55 831.61 544.55 863.13 544.55 863.13"/></g><line class="cls-1" x1="548.9" x2="548.9" y2="780.62"/></svg>