<?xml version="1.0" encoding="utf-8"?>
<!-- Generator: Adobe Illustrator 27.0.1, SVG Export Plug-In . SVG Version: 6.00 Build 0)  -->
<svg version="1.1" id="Layer_1" xmlns="http://www.w3.org/2000/svg" xmlns:xlink="http://www.w3.org/1999/xlink" x="0px" y="0px"
	 viewBox="0 0 720 720" style="enable-background:new 0 0 720 720;" xml:space="preserve">
<style type="text/css">
	.st0{fill:#1E00B2;}
	.st1{fill:#FFCD0C;}
	.st2{fill:none;stroke:#000000;stroke-linecap:round;stroke-linejoin:round;}
	.st3{fill:none;}
	.st4{opacity:0.93;fill:none;stroke:#000000;stroke-linecap:round;stroke-linejoin:round;enable-background:new    ;}
	.st5{fill:none;stroke:#000000;stroke-miterlimit:10;}
	.st6{fill:#FFFFFF;stroke:#000000;stroke-linecap:round;stroke-linejoin:round;}
	.st7{fill:#4019FF;}
	.st8{fill:#FFFFFF;}
	.st9{fill:none;stroke:#231F20;stroke-linecap:round;stroke-linejoin:round;}
	.st10{fill:none;stroke:#1E00B2;stroke-width:2;stroke-linecap:round;stroke-linejoin:round;}
	.st11{fill:none;stroke:#1E00B2;stroke-width:2;stroke-linecap:round;stroke-linejoin:round;stroke-dasharray:0,0,0,5.03;}
	.st12{fill:none;stroke:#1E00B2;stroke-width:2;stroke-linecap:round;stroke-linejoin:round;stroke-dasharray:0,0,0,4.98;}
	.st13{fill:none;stroke:#1E00B2;stroke-width:2;stroke-linecap:round;stroke-linejoin:round;stroke-dasharray:0,0,0,5.04;}
	.st14{fill:none;stroke:#1E00B2;stroke-width:2;stroke-linecap:round;stroke-linejoin:round;stroke-dasharray:0,0,0,4.97;}
</style>
<g>
	<rect x="18.9" y="11.4" class="st0" width="176.2" height="70.9"/>
	<rect x="132.6" y="108.1" class="st0" width="141.9" height="65"/>
	<rect x="177.9" y="200" class="st0" width="138.6" height="68.7"/>
	<g>
		<g>
			<rect x="18.9" y="560.1" class="st1" width="21.7" height="35.3"/>
			<circle class="st1" cx="29" cy="573.3" r="2.7"/>
			<circle class="st1" cx="29" cy="582.2" r="2.7"/>
		</g>
		<g>
			<path class="st1" d="M18.9,700.2c0,3.5,21.7,3.5,21.7,0v-89.4c0-3.3-21.7-3.3-21.7,0C18.9,610.8,18.9,700.2,18.9,700.2z"/>
			<circle class="st1" cx="26.8" cy="620.1" r="2.7"/>
			<circle class="st1" cx="33.2" cy="620.1" r="2.7"/>
		</g>
		<polygon class="st1" points="131.1,450.5 109.8,400.1 273,400.1 294.3,450.5 		"/>
		<polygon class="st1" points="310.1,450.5 288.8,400.1 452,400.1 473.3,450.5 		"/>
		<rect x="367.2" y="637.2" class="st1" width="58.8" height="4.9"/>
		<rect x="162" y="542.3" class="st1" width="107.6" height="25.3"/>
		<polygon class="st1" points="157.3,510.6 136.1,460.2 299.3,460.2 320.6,510.6 		"/>
		<polygon class="st1" points="336.3,510.6 315,460.2 478.3,460.2 499.6,510.6 		"/>
		<path class="st1" d="M558.9,689.7h2.2c-0.2-0.2-0.4-0.4-0.4-0.6c0-11.3,1.3-16.8,4.4-18.9c-0.1,0-0.3,0-0.4,0
			c-2.5,0-4.6,0.2-4.6-4.4s2-4.4,4.6-4.4c0.7,0,1.3,0.2,1.9,0.4c0.4-1.9,0.8-3.6,1.1-4.5c1.5-4.6,2.4-10.3,9-10.4
			c3.2,0,11.5-0.1,19.9-0.1s16.7,0,19.9,0.1c6.5,0.1,7.5,5.8,9,10.4c0.3,1,0.7,2.6,1.1,4.5c0.6-0.3,1.2-0.4,1.9-0.4
			c2.5,0,4.6-0.2,4.6,4.4s-2,4.4-4.6,4.4c-0.1,0-0.3,0-0.4,0c3.1,2.1,4.4,7.6,4.4,18.9c0,0.2-0.1,0.4-0.4,0.6h2.2
			c0,0,0.2-0.1,0.2,0.8v4.6c0,0.9-1.8,1.7-3.9,1.7h-3.3v3.8c0,2.8-2.3,5.1-5.1,5.1h-1.2c-2.8,0-5.1-2.3-5.1-5.1v-3.8h-19.2h-19.2
			v3.8c0,2.8-2.3,5.1-5.1,5.1h-1.2c-2.8,0-5.1-2.3-5.1-5.1v-3.8h-3.3c-2.2,0-3.9-0.8-3.9-1.7v-4.6
			C558.7,689.6,558.9,689.7,558.9,689.7L558.9,689.7z"/>
		<rect x="530.7" y="649.8" class="st1" width="21.2" height="55.4"/>
	</g>
	<g>
		<g>
			<g>
				<rect x="22" y="551.9" class="st2" width="21.7" height="35.3"/>
				<circle class="st2" cx="32.1" cy="565" r="2.7"/>
				<circle class="st2" cx="32.1" cy="574" r="2.7"/>
			</g>
			<g>
				<path class="st2" d="M22,692c0,3.5,21.7,3.5,21.7,0v-89.4c0-3.3-21.7-3.3-21.7,0V692z"/>
				<circle class="st2" cx="29.9" cy="611.8" r="2.7"/>
				<circle class="st2" cx="36.3" cy="611.8" r="2.7"/>
			</g>
		</g>
		<line class="st3" x1="360.9" y1="701.6" x2="171" y2="701.6"/>
		<polyline class="st2" points="43.7,516.8 43.7,702.3 486.6,702.3 486.6,516.8 		"/>
		<polygon class="st2" points="488.7,600.5 588.9,534 689.1,600.5 680.6,600.5 588.9,539.6 497.2,600.5 		"/>
		<polyline class="st2" points="504.6,596.2 504.6,702.3 673.4,702.3 673.4,596.2 		"/>
		<polyline class="st2" points="645.2,702.3 645.2,615 532.8,615 532.8,702.3 		"/>
		<g>
			<path class="st2" d="M588.6,569.5c6.8,0,12.3,5.5,12.3,12.4s-5.5,12.4-12.3,12.4s-12.3-5.5-12.3-12.4S581.8,569.5,588.6,569.5z"
				/>
			<line class="st2" x1="588.6" y1="569.5" x2="588.6" y2="594.1"/>
			<line class="st2" x1="576.4" y1="581.8" x2="600.8" y2="581.8"/>
		</g>
		<g>
			<g>
				<path class="st2" d="M627.5,659.7c0.6-0.3,1.2-0.4,1.9-0.4c2.5,0,4.6-0.2,4.6,4.4s-2,4.4-4.6,4.4c-0.1,0-0.3,0-0.4,0
					C628.7,666,628.1,662.6,627.5,659.7L627.5,659.7z"/>
				<path class="st2" d="M565.8,659.3c0.7,0,1.3,0.2,1.9,0.4c-0.6,2.9-1.2,6.3-1.5,8.4c-0.1,0-0.3,0-0.4,0c-2.5,0-4.6,0.2-4.6-4.4
					S563.2,659.3,565.8,659.3L565.8,659.3z"/>
			</g>
			<path class="st2" d="M597.6,667.6h-26.3c0.4-2.4,1.6-8.4,2.3-10.4c1.2-3.5,2-7.9,7.5-7.9c2.7,0,9.7-0.1,16.6-0.1s13.9,0,16.6,0.1
				c5.5,0.1,6.3,4.5,7.5,7.9c0.7,2,1.8,8,2.3,10.4H597.6z"/>
			<path class="st2" d="M628.3,667.7c0-0.1-0.1-0.1-0.1-0.1h-30.6H567c0,0,0,0-0.1,0.1c-0.3,0.1-0.5,0.3-0.7,0.4
				c0.6-3.5,1.8-10.5,2.6-12.9c1.5-4.6,2.4-10.3,9-10.4c3.2,0,11.5-0.1,19.9-0.1s16.7,0,19.9,0.1c6.5,0.1,7.5,5.8,9,10.4
				c0.8,2.4,2,9.5,2.6,12.9C628.8,668,628.5,667.8,628.3,667.7L628.3,667.7z"/>
			<path class="st2" d="M607.5,667.6c-0.2-0.6-0.3-1.2-0.3-1.8c0-3.6,2.9-6.5,6.5-6.5s6.5,2.9,6.5,6.5c0,0.6-0.1,1.2-0.3,1.8H607.5
				L607.5,667.6z"/>
			<path class="st2" d="M633,687.7h-70.9c-0.2-0.2-0.4-0.4-0.4-0.6c0-12.2,1.5-17.6,5.1-19.4c0-0.1,0.1-0.1,0.1-0.1h30.6h30.6
				c0,0,0,0,0.1,0.1c3.7,1.7,5.1,7.2,5.1,19.4C633.4,687.3,633.3,687.5,633,687.7L633,687.7z"/>
			<g>
				<path class="st2" d="M621.3,694.7h5.7h1.2v3.8c0,2.8-2.3,5.1-5.1,5.1h-1.2c-2.8,0-5.1-2.3-5.1-5.1v-3.8H621.3L621.3,694.7z"/>
				<path class="st2" d="M568.2,694.7h5.7h4.5v3.8c0,2.8-2.3,5.1-5.1,5.1h-1.2c-2.8,0-5.1-2.3-5.1-5.1v-3.8H568.2L568.2,694.7z"/>
			</g>
			<path class="st2" d="M559.9,687.7h75.4c0,0,0.2-0.1,0.2,0.8v4.6c0,0.9-1.8,1.7-3.9,1.7H627h-5.7h-23.7h-23.7h-5.7h-4.6
				c-2.2,0-3.9-0.8-3.9-1.7v-4.6C559.7,687.5,559.9,687.7,559.9,687.7L559.9,687.7z"/>
			<g>
				<path class="st2" d="M612.1,677.8c0,2.7,2.2,4.9,4.9,4.9s4.9-2.2,4.9-4.9s-2.2-4.9-4.9-4.9S612.1,675.1,612.1,677.8z"/>
				<path class="st2" d="M573.3,677.8c0,2.7,2.2,4.9,4.9,4.9s4.9-2.2,4.9-4.9s-2.2-4.9-4.9-4.9S573.3,675.1,573.3,677.8z"/>
			</g>
		</g>
		<g>
			<rect x="166.1" y="539.2" class="st2" width="107.6" height="25.3"/>
			<line class="st2" x1="273.1" y1="558.7" x2="166.7" y2="558.7"/>
			<circle class="st2" cx="267.6" cy="553.7" r="1.9"/>
		</g>
		<g>
			<path class="st2" d="M296.4,664.8l2.1-7.9c0.7-3.1,3.4-5.3,6.5-5.4l-14,0v13.3"/>
			<path class="st2" d="M215.5,664.8v-13.3l-14.6,0c3.1,0.1,5.9,2.3,6.6,5.4"/>
			<path class="st2" d="M288,670h-26.4h-22.4h-21.6c-0.7,0-1.4,0.2-2,0.6V646c0-2.6,2.1-4.7,4.6-4.7h18.9h23.3h23.9
				c2.6,0,4.6,2.1,4.6,4.7v25.4C290.2,670.6,289.2,670,288,670L288,670z"/>
			<polygon class="st2" points="215.8,687.8 217.9,687.8 214.9,702.2 212.5,702.2 214.8,687.8 			"/>
			<polygon class="st2" points="288.4,687.8 290.7,702.2 288.3,702.2 285.3,687.8 			"/>
			<path class="st2" d="M198.9,651.7c3.8-1,7.7,1.4,8.5,5.2l5,19.1c0.2,1,0.7,1.8,1.3,2.6c0.6,1.5,2.1,2.2,3.8,2.2h1l0,0h20.5h23.3
				h25l0,0h0.6c1.4,0,2.6-0.5,3.3-1.4c1-0.8,1.8-2,2.1-3.4l5-19.1c0.8-3.7,4.5-6.1,8.3-5.2c3.9,0,6.4,3.1,5.5,6.9l-6.7,25.8
				c-0.7,3-2.8,3.6-6.6,3.4h-4.8h-4h-27.8H239h-23.3h-3.5h-5.3c-3.8,0.2-6-0.4-6.6-3.4l-6.4-24.3
				C193.1,656.4,195.3,652.7,198.9,651.7L198.9,651.7z"/>
			<path class="st2" d="M261.6,670h-22.4h-21.6c-2.3,0-4.1,2.1-4.1,4.7v2.2c0,2.6,1.8,3.9,4.1,3.9h21.6h22.4H288
				c2.3,0,4.1-1.3,4.1-3.9v-2.2c0-2.6-1.8-4.7-4.1-4.7H261.6z"/>
		</g>
		<g>
			<g>
				<rect x="206.9" y="587.8" class="st2" width="4.4" height="21.7"/>
				<g>
					<rect x="201.5" y="588.7" class="st2" width="3.6" height="20.8"/>
					<rect x="201.5" y="591.6" class="st2" width="3.6" height="4.8"/>
				</g>
				<g>
					<rect x="193.5" y="590.6" class="st2" width="6.4" height="18.8"/>
					<rect x="193.5" y="604.1" class="st2" width="6.4" height="2.8"/>
				</g>
				
					<rect x="218" y="589.5" transform="matrix(0.7465 -0.6654 0.6654 0.7465 -343.6647 298.3138)" class="st2" width="3.4" height="21.5"/>
			</g>
			
				<rect x="206.9" y="584.5" transform="matrix(2.268878e-03 -1 1 2.268878e-03 -403.2718 817.8757)" class="st4" width="2.7" height="53"/>
			<g>
				<rect x="303.9" y="587.3" class="st2" width="27.8" height="26.5"/>
				<g>
					<rect x="264.1" y="587.3" class="st2" width="27.8" height="26.5"/>
					<rect x="272.2" y="595" class="st2" width="11.7" height="11.1"/>
				</g>
			</g>
		</g>
		<rect x="158.3" y="530.3" class="st2" width="179.7" height="171.9"/>
		<rect x="57" y="530.3" class="st2" width="93.9" height="171.9"/>
		<g>
			<path class="st2" d="M375.4,623.7c0.3,0,0.5-0.2,0.5-0.5c0-0.3-0.2-0.5-0.5-0.5h-0.9v-3.4h17.8v3.4h-0.6c-0.3,0-0.5,0.2-0.5,0.5
				c0,0.3,0.2,0.5,0.5,0.5h0.6v8.8c0,1.2-1,2.2-2.2,2.2h-13.3c-1.2,0-2.2-1-2.2-2.2v-8.8H375.4z"/>
			<path class="st2" d="M391.2,623.2L391.2,623.2c0-0.3,0.2-0.5,0.5-0.5h2.7c0.3,0,0.5,0.2,0.5,0.5l0,0c0,0.3-0.2,0.5-0.5,0.5h-2.7
				C391.4,623.7,391.2,623.5,391.2,623.2z M372.7,623.7h2.7c0.3,0,0.5-0.2,0.5-0.5l0,0c0-0.3-0.2-0.5-0.5-0.5h-2.7
				c-0.3,0-0.5,0.2-0.5,0.5l0,0C372.2,623.5,372.4,623.7,372.7,623.7z"/>
			<path class="st2" d="M374.5,619.2h17.9c0.2,0,0.3-0.2,0.3-0.3l0,0c0-0.2-0.1-0.3-0.3-0.3h-17.9c-0.2,0-0.3,0.2-0.3,0.3l0,0
				C374.1,619.1,374.3,619.2,374.5,619.2z"/>
			<rect x="367.7" y="640" class="st2" width="106.7" height="62.2"/>
			<path class="st2" d="M433,646.6H469v24.9H433V646.6z"/>
			<path class="st2" d="M433,674.2H469v24.9H433V674.2z"/>
			<path class="st2" d="M436.6,651.1h8.2c0.4,0,0.7-0.3,0.7-0.7l0,0c0-0.4-0.3-0.7-0.7-0.7h-8.2c-0.4,0-0.7,0.3-0.7,0.7l0,0
				C435.9,650.8,436.2,651.1,436.6,651.1z"/>
			<path class="st2" d="M436.6,678.3h8.2c0.4,0,0.7-0.3,0.7-0.7l0,0c0-0.4-0.3-0.7-0.7-0.7h-8.2c-0.4,0-0.7,0.3-0.7,0.7l0,0
				C435.9,678,436.2,678.3,436.6,678.3z"/>
			<rect x="437" y="611.8" class="st2" width="25.1" height="2.8"/>
			<path class="st5" d="M439,629.3v-3.6c0-0.2,0.1-0.3,0.2-0.5l0.4-0.5c0.5-0.6,1.2-0.9,2-0.9l0,0c0.8,0,1.5,0.4,2,1l0.3,0.4
				c0.1,0.1,0.2,0.3,0.2,0.5v3.6c0,0.3-0.3,0.6-0.6,0.6h-3.8C439.3,629.9,439,629.7,439,629.3L439,629.3z"/>
			<path class="st5" d="M442.1,628.5c0,0.1,0.1,0.2,0.3,0.2s0.3-0.1,0.3-0.2v-2.7c0-0.1-0.1-0.2-0.3-0.2s-0.3,0.1-0.3,0.2V628.5z"/>
			<path class="st5" d="M440.3,628.5c0,0.1,0.1,0.2,0.3,0.2s0.3-0.1,0.3-0.2v-2.7c0-0.1-0.1-0.2-0.3-0.2s-0.3,0.1-0.3,0.2V628.5z"/>
			<rect x="441.3" y="612.9" class="st2" width="0.7" height="11"/>
			<path class="st2" d="M449.3,630h0.5c0.9,0,1.7-1,1.7-2.2v-1.5c0-0.5-0.1-1-0.4-1.5l0,0c-0.4-0.6-0.9-1-1.5-1l0,0
				c-0.6,0-1.1,0.3-1.5,0.9l0,0c-0.3,0.4-0.4,1-0.4,1.5v1.4C447.6,629,448.4,630,449.3,630L449.3,630z"/>
			<rect x="449.3" y="612.9" class="st2" width="0.7" height="11"/>
			<path class="st2" d="M457.3,630h0.6c1.2,0,2.2-1,2.2-2.2v-1.5c0-0.5-0.2-1-0.5-1.4l0,0c-0.5-0.6-1.2-1-2-1l0,0
				c-0.7,0-1.4,0.3-1.9,0.9l0,0c-0.4,0.4-0.5,1-0.5,1.5v1.4C455.2,629,456.1,629.9,457.3,630L457.3,630z"/>
			<rect x="457.3" y="612.9" class="st2" width="0.7" height="11"/>
			<path class="st2" d="M457.7,613.8L457.7,613.8c-0.1,0-0.2,0-0.2-0.1v-0.4c0-0.1,0-0.1,0.1-0.1h0.1c0.1,0,0.1,0,0.1,0.1v0.4
				C457.8,613.8,457.8,613.8,457.7,613.8z"/>
			<path class="st2" d="M449.7,613.8L449.7,613.8c-0.1,0-0.2,0-0.2-0.1v-0.4c0-0.1,0-0.1,0.1-0.1h0.1c0.1,0,0.1,0,0.1,0.1v0.4
				C449.8,613.8,449.7,613.8,449.7,613.8z"/>
			<path class="st2" d="M441.6,613.8L441.6,613.8c-0.1,0-0.2,0-0.2-0.1v-0.4c0-0.1,0-0.1,0.1-0.1h0.1c0.1,0,0.1,0,0.1,0.1v0.4
				C441.8,613.8,441.7,613.8,441.6,613.8z"/>
			<rect x="372.2" y="656.8" class="st2" width="55.9" height="42.2"/>
			<path class="st2" d="M428.7,656.8h-57.2c-0.8,0-1.5-0.7-1.5-1.5v-0.6c0-0.8,0.7-1.5,1.5-1.5h57.2c0.8,0,1.5,0.7,1.5,1.5v0.6
				C430.2,656.1,429.5,656.8,428.7,656.8z"/>
			<rect x="372" y="646.6" class="st2" width="56.2" height="5.2"/>
			<path class="st2" d="M399.2,649c0-0.8-0.6-1.4-1.4-1.4s-1.4,0.6-1.4,1.4c0,0.8,0.6,1.4,1.4,1.4S399.2,649.8,399.2,649z"/>
			<path class="st2" d="M394,649c0-0.8-0.6-1.4-1.4-1.4s-1.4,0.6-1.4,1.4s0.6,1.4,1.4,1.4S394,649.8,394,649z"/>
			<rect x="375.6" y="647.6" class="st2" width="11" height="2.9"/>
			<rect x="369.3" y="635.1" class="st2" width="58.8" height="4.9"/>
			<rect x="387.8" y="530.4" class="st2" width="24.4" height="31.3"/>
			<rect x="382.4" y="561.8" class="st2" width="35.2" height="10"/>
			<polygon class="st2" points="432.9,589.9 416.8,571.8 381.6,571.8 367.2,589.9 			"/>
			<rect x="360.9" y="589.9" class="st2" width="76.5" height="5.1"/>
			<path class="st2" d="M372.8,592.8c0-0.3-0.3-0.6-0.6-0.6s-0.6,0.3-0.6,0.6c0,0.3,0.3,0.6,0.6,0.6S372.8,593.2,372.8,592.8z"/>
			<path class="st2" d="M370,592.8c0-0.3-0.3-0.6-0.6-0.6s-0.6,0.3-0.6,0.6c0,0.3,0.3,0.6,0.6,0.6S370,593.2,370,592.8z"/>
			<path class="st2" d="M367.2,592.8c0-0.3-0.3-0.6-0.6-0.6s-0.6,0.3-0.6,0.6c0,0.3,0.3,0.6,0.6,0.6S367.2,593.2,367.2,592.8z"/>
		</g>
		<rect x="359.3" y="530.3" class="st2" width="115.1" height="171.9"/>
		<g>
			<g>
				<path class="st5" d="M123.1,620.3c0-0.7,0.6-1.3,1.3-1.3l0,0c0.7,0,1.3,0.6,1.3,1.3v1.3v4c-0.4-0.5-1-0.8-1.7-0.7
					c-0.4,0.1-0.7,0.3-0.9,0.6v-4h-4.7v-1.3L123.1,620.3L123.1,620.3z"/>
				<path class="st5" d="M123.9,625.1c0.8-0.2,1.5,0.2,1.8,0.9l1.2-0.3l0.1,0.5l-1.2,0.3c0.1,0.8-0.5,1.5-1.2,1.7
					c-0.9,0.2-1.7-0.3-1.9-1.2S123.1,625.3,123.9,625.1L123.9,625.1z"/>
				<path class="st5" d="M123.1,629.2v-1.6c0.4,0.5,1,0.7,1.6,0.6c0.4-0.1,0.7-0.3,0.9-0.7v1.6H123.1z"/>
				<path class="st5" d="M140.4,629.2c-10.7,0-21.4,0-32.2,0c-0.9,4,2.6,7.4,4.9,11.1h22.4C137.8,636.6,141.3,633.2,140.4,629.2
					L140.4,629.2z"/>
			</g>
			<g>
				<rect x="97.8" y="640.4" class="st5" width="53" height="61.8"/>
				<path class="st5" d="M122.9,697.1v-49.7h-20.8v49.7H122.9L122.9,697.1z"/>
				<path class="st5" d="M119,671c-0.9,0-1.6-0.7-1.6-1.6c0-0.9,0.7-1.6,1.6-1.6s1.6,0.7,1.6,1.6S119.9,671,119,671z"/>
				<g>
					<path class="st5" d="M136.8,651.7c-0.5,0-0.9-0.4-0.9-0.9s0.4-0.9,0.9-0.9s0.9,0.4,0.9,0.9S137.3,651.7,136.8,651.7z"/>
					<path class="st5" d="M147.6,646.9h0.2v0.2v7.1v0.2h-0.2H126h-0.2v-0.2v-7.1v-0.2h0.2H147.6L147.6,646.9z"/>
				</g>
				<g>
					<path class="st5" d="M136.8,661.7c-0.5,0-0.9-0.4-0.9-0.9s0.4-0.9,0.9-0.9s0.9,0.4,0.9,0.9S137.3,661.7,136.8,661.7z"/>
					<path class="st5" d="M147.6,656.9h0.2v0.2v7.1v0.2h-0.2H126h-0.2v-0.2v-7.1v-0.2h0.2H147.6L147.6,656.9z"/>
				</g>
				<g>
					<path class="st5" d="M136.8,672.2c-0.5,0-0.9-0.4-0.9-0.9s0.4-0.9,0.9-0.9s0.9,0.4,0.9,0.9S137.3,672.2,136.8,672.2z"/>
					<path class="st5" d="M147.6,667.4h0.2v0.2v7.1v0.2h-0.2H126h-0.2v-0.2v-7.1v-0.2h0.2H147.6L147.6,667.4z"/>
				</g>
				<g>
					<path class="st5" d="M136.8,683.1c-0.5,0-0.9-0.4-0.9-0.9s0.4-0.9,0.9-0.9s0.9,0.4,0.9,0.9S137.3,683.1,136.8,683.1z"/>
					<path class="st5" d="M147.6,678.4h0.2v0.2v7.1v0.2h-0.2H126h-0.2v-0.2v-7.1v-0.2h0.2H147.6L147.6,678.4z"/>
				</g>
				<g>
					<path class="st5" d="M136.8,694.6c-0.5,0-0.9-0.4-0.9-0.9s0.4-0.9,0.9-0.9s0.9,0.4,0.9,0.9S137.3,694.6,136.8,694.6z"/>
					<path class="st5" d="M147.6,689.8h0.2v0.2v7.1v0.2h-0.2H126h-0.2v-0.2v-7.1v-0.2h0.2H147.6L147.6,689.8z"/>
				</g>
			</g>
			<g>
				<rect x="106.5" y="559.9" class="st5" width="35.6" height="50.6"/>
				<rect x="104.2" y="610.5" class="st5" width="40.3" height="2.6"/>
			</g>
		</g>
		<rect x="532.8" y="646.8" class="st2" width="21.2" height="55.4"/>
		<polygon class="st2" points="542.5,655.6 546.1,660.4 543.8,660.4 544.4,664.4 540.5,659.4 543.1,659.4 		"/>
		<polygon class="st6" points="641.3,644.7 645.2,644.7 645.2,628 641.3,628 641.3,636.3 		"/>
		<path class="st2" d="M631.5,671.5l2.1,0c2.2,0,3.8-1.8,3.8-4v-27.2c0-2.2,1.7-3.9,3.9-3.9l0,0"/>
		<path class="st2" d="M467.2,425.5l-2.8-6.6h11.9c1.7,0,3.1,1.4,3.1,3.1v0.4c0,1.7-1.4,3.1-3.1,3.1L467.2,425.5L467.2,425.5z"/>
		<g>
			<line class="st2" x1="476.5" y1="447.5" x2="455.2" y2="397"/>
			<line class="st2" x1="422" y1="447.5" x2="400.8" y2="397"/>
			<line class="st2" x1="367.6" y1="447.5" x2="346.3" y2="397"/>
			<polygon class="st2" points="313.2,447.5 291.9,397 455.2,397 476.5,447.5 			"/>
		</g>
		<g>
			<line class="st2" x1="297.4" y1="447.5" x2="276.1" y2="397"/>
			<line class="st2" x1="243" y1="447.5" x2="221.7" y2="397"/>
			<line class="st2" x1="188.6" y1="447.5" x2="167.3" y2="397"/>
			<polygon class="st2" points="134.2,447.5 112.9,397 276.1,397 297.4,447.5 			"/>
		</g>
		<path class="st2" d="M483.3,478.8h12.1c1.7,0,3.1,1.4,3.1,3.1v0.4c0,1.7-1.4,3.1-3.1,3.1h-9.4L483.3,478.8L483.3,478.8z"/>
		<g>
			<line class="st2" x1="495.4" y1="507.4" x2="474.1" y2="456.9"/>
			<line class="st2" x1="440.9" y1="507.4" x2="419.6" y2="456.9"/>
			<line class="st2" x1="386.5" y1="507.4" x2="365.2" y2="456.9"/>
			<polygon class="st2" points="332.1,507.4 310.8,456.9 474.1,456.9 495.4,507.4 			"/>
		</g>
		<g>
			<line class="st2" x1="324.6" y1="507.4" x2="303.3" y2="456.9"/>
			<line class="st2" x1="270.2" y1="507.4" x2="248.9" y2="456.9"/>
			<line class="st2" x1="215.8" y1="507.4" x2="194.5" y2="456.9"/>
			<polygon class="st2" points="161.4,507.4 140.1,456.9 303.3,456.9 324.6,507.4 			"/>
		</g>
		<path class="st2" d="M64.8,387.1h400.8l9.6,31.8h-10.7l2.8,6.6h9.1c0.3,0,0.5,0,0.8-0.1l16.1,53.4h-9.9l2.8,6.6h9.1l9.5,31.4h-115
			l-0.1,0.1H141.7l-0.1-0.1H25.7L64.8,387.1L64.8,387.1z"/>
		<polyline class="st2" points="73.5,530.2 73.5,547.3 74.9,547.3 74.9,530.2 		"/>
		<path class="st2" d="M77.2,547.3h-6.1c-1.5,0-2.8,1-3.1,2.5h12.3C80,548.3,78.7,547.3,77.2,547.3z"/>
		<rect x="57" y="558.7" class="st2" width="34.4" height="143.6"/>
		<line class="st2" x1="87.8" y1="625" x2="80.3" y2="625"/>
		<line class="st2" x1="70.5" y1="551.9" x2="70.5" y2="554.8"/>
		<line class="st2" x1="78.7" y1="553.3" x2="78.7" y2="556.2"/>
		<line class="st2" x1="73.2" y1="553.7" x2="73.2" y2="556.5"/>
		<line class="st2" x1="76" y1="551.4" x2="76" y2="554.2"/>
	</g>
	<g>
		
			<ellipse transform="matrix(1 -4.132130e-03 4.132130e-03 1 -2.2897 8.282836e-02)" class="st7" cx="18.9" cy="554.2" rx="14.3" ry="14.3"/>
		<path class="st8" d="M17,549.9H15v-2.5h4.8v13H17L17,549.9L17,549.9z"/>
	</g>
	<g>
		<circle class="st7" cx="177.9" cy="535.1" r="14.7"/>
		<path class="st8" d="M172.4,537.9l2.7-0.4c0.4,1.2,1.4,1.8,2.8,1.8c1.6,0,2.6-0.7,2.6-1.8s-0.8-1.7-2.6-1.7h-1.3v-2.1h1.1
			c1.7,0,2.5-0.5,2.5-1.6c0-1.1-0.8-1.7-2.4-1.7c-1.2,0-2.1,0.5-2.5,1.6l-2.7-0.4c0.6-2.3,2.5-3.7,5.2-3.7c3.2,0,5.2,1.5,5.2,3.8
			c0,1.5-0.8,2.6-2.4,3c1.7,0.3,2.6,1.4,2.6,3.1c0,2.4-2.2,4-5.5,4C174.8,541.7,172.8,540.2,172.4,537.9L172.4,537.9z"/>
	</g>
	<g>
		<circle class="st7" cx="132.1" cy="387.1" r="14.7"/>
		<path class="st8" d="M126.9,390.9c7-4.1,7.6-5.1,7.6-6.5c0-1.2-1-1.9-2.4-1.9s-2.4,0.7-2.6,1.9l-2.7-0.4c0.4-2.6,2.4-4.1,5.3-4.1
			c3.3,0,5.4,1.5,5.4,4.1c0,2.4-1.9,4.1-6.6,6.8h6.5v2.6h-10.4L126.9,390.9L126.9,390.9z"/>
	</g>
	<g>
		<circle class="st7" cx="416.8" cy="622.6" r="14.7"/>
		<path class="st8" d="M417,626.4h-7v-2.4l6.7-8.5h3.2v8.4h1.6v2.4h-1.6v2.6H417V626.4z M417,624V619l-4.1,5.1H417z"/>
	</g>
	<g>
		<circle class="st7" cx="527.9" cy="640.4" r="14.7"/>
		<path class="st8" d="M522.6,643.1l2.6-0.3c0.3,1,1.3,1.6,2.6,1.6c1.7,0,2.7-0.9,2.7-2.5s-1.1-2.4-2.8-2.3c-1.1,0-2,0.5-2.5,1.3
			l-2.5-0.4l1.2-7.3h8.6v2.5h-6.4l-0.5,2.7c0.8-0.5,1.7-0.8,2.7-0.8c2.9-0.1,4.9,1.7,4.9,4.4c0,2.9-2.2,4.8-5.4,4.8
			C525,646.9,523,645.6,522.6,643.1L522.6,643.1z"/>
	</g>
	<g>
		<circle class="st7" cx="622.1" cy="628.4" r="14.7"/>
		<path class="st8" d="M616.6,629.7c0-2.6,1.3-4.5,4.8-8.3h3.6c-1.4,1.3-2.7,2.8-3.6,4.1c0.5-0.3,1.1-0.4,1.6-0.4
			c2.5,0,4.7,1.6,4.7,4.7c0,3.7-2.7,5.2-5.5,5.2S616.6,633.3,616.6,629.7L616.6,629.7z M624.8,629.8c0-1.6-1-2.6-2.7-2.6
			s-2.7,1-2.7,2.6s1,2.7,2.7,2.7S624.8,631.5,624.8,629.8z"/>
	</g>
	<g>
		<path class="st9" d="M607.2,467.5c0,42.6,23.8,77.1,53.2,77.1c29.4,0,53.2-34.5,53.2-77.1s-23.8-77.1-53.2-77.1
			C631,390.3,607.2,424.9,607.2,467.5L607.2,467.5z"/>
		<line class="st9" x1="660.4" y1="445" x2="660.4" y2="580.5"/>
		<line class="st9" x1="660.4" y1="503.9" x2="690" y2="469.8"/>
		<line class="st9" x1="679.1" y1="482.3" x2="675.9" y2="454.8"/>
		<line class="st9" x1="660.4" y1="525.3" x2="632.1" y2="491.5"/>
		<line class="st9" x1="642.5" y1="503.9" x2="644.3" y2="485"/>
	</g>
	<g>
		<line class="st10" x1="18.9" y1="534.6" x2="18.9" y2="534.6"/>
		<line class="st11" x1="18.9" y1="529.6" x2="18.9" y2="89.8"/>
		<line class="st10" x1="18.9" y1="87.3" x2="18.9" y2="87.3"/>
	</g>
	<g>
		<line class="st10" x1="132.6" y1="367.4" x2="132.6" y2="367.4"/>
		<line class="st12" x1="132.6" y1="362.4" x2="132.6" y2="180.6"/>
		<line class="st10" x1="132.6" y1="178.1" x2="132.6" y2="178.1"/>
	</g>
	<g>
		<line class="st10" x1="177.9" y1="515.4" x2="177.9" y2="515.4"/>
		<line class="st13" x1="177.9" y1="510.3" x2="177.9" y2="276.2"/>
		<line class="st10" x1="177.9" y1="273.6" x2="177.9" y2="273.6"/>
	</g>
	<g>
		<line class="st10" x1="416.8" y1="603" x2="416.8" y2="603"/>
		<line class="st14" x1="416.8" y1="598" x2="416.8" y2="202.7"/>
		<line class="st10" x1="416.8" y1="200.2" x2="416.8" y2="200.2"/>
	</g>
	<g>
		<line class="st10" x1="527.9" y1="620.7" x2="527.9" y2="620.7"/>
		<line class="st11" x1="527.9" y1="615.6" x2="527.9" y2="316.4"/>
		<line class="st10" x1="527.9" y1="313.9" x2="527.9" y2="313.9"/>
	</g>
	<g>
		<line class="st10" x1="622.1" y1="608.7" x2="622.1" y2="608.7"/>
		<line class="st14" x1="622.1" y1="603.7" x2="622.1" y2="392.6"/>
		<line class="st10" x1="622.1" y1="390.2" x2="622.1" y2="390.2"/>
	</g>
	<rect x="416.8" y="156.9" class="st0" width="168.6" height="38.3"/>
	<rect x="622.1" y="349.7" class="st0" width="89" height="35.5"/>
	<rect x="527.9" y="237.4" class="st0" width="188.7" height="71.5"/>
	<g>
		<path class="st8" d="M535.3,243.5h3.7v9.8h11v-9.8h3.7v23.2h-3.7v-10.1h-11v10.1h-3.7V243.5z"/>
		<path class="st8" d="M557.7,257.5c0-6.6,4.6-9.5,9.2-9.5s9.3,2.9,9.3,9.5s-4.6,9.6-9.2,9.6S557.7,264.2,557.7,257.5z M572.6,257.5
			c0-4-2.3-6.5-5.7-6.5s-5.7,2.4-5.7,6.5c0,4,2.3,6.5,5.7,6.5S572.6,261.6,572.6,257.5z"/>
		<path class="st8" d="M579.4,258.3v-9.9h3.6v9.7c0,4,1.4,5.9,4.9,5.9s4.9-2.3,4.9-6.3v-9.2h3.6v18.3h-3.6v-3.3
			c-0.8,2.3-2.9,3.7-6,3.7C581.8,267,579.4,264.1,579.4,258.3L579.4,258.3z"/>
		<path class="st8" d="M599.5,262.2l3.3-0.9c0.9,1.7,2.8,2.6,5.3,2.6c2.8,0,4.4-0.9,4.4-2.6c0-4.2-12.2-0.4-12.2-8.1
			c0-3.1,3.3-5.2,7.5-5.2c3.3,0,6.7,1.7,7.8,4.2l-3.2,0.9c-0.8-1.3-2.6-2.1-4.5-2.1c-2.6,0-4.1,0.9-4.1,2.4c0,4.2,12.3,0.3,12.3,7.9
			c0,3.5-3.1,5.7-8,5.7C604,267,600.6,265.1,599.5,262.2L599.5,262.2z"/>
		<path class="st8" d="M618.5,257.5c0-5.6,3.8-9.5,9.2-9.5c5.8,0,9.3,4.3,8.9,10.4h-14.6c0.1,3.5,2.3,5.6,5.9,5.6
			c2.6,0,4.2-0.9,5.1-2.6l3.3,0.5c-1.5,3.4-4.3,5.1-8.5,5.1C622.2,267,618.5,263.2,618.5,257.5L618.5,257.5z M633.3,255.6
			c-0.3-2.9-2.2-4.8-5.5-4.8s-5.2,1.6-5.6,4.8H633.3z"/>
		<path class="st8" d="M640.3,242.4h3.6v9.3c0.7-2.1,2.7-3.6,6-3.6c4.8,0,7.4,2.6,7.4,8.7v9.9h-3.6V257c0-4.1-1.5-5.9-4.9-5.9
			s-4.9,2.2-4.9,6.3v9.2h-3.6V242.4L640.3,242.4z"/>
		<path class="st8" d="M660.4,257.5c0-6.6,4.6-9.5,9.2-9.5s9.3,2.9,9.3,9.5s-4.6,9.6-9.2,9.6S660.4,264.2,660.4,257.5z M675.4,257.5
			c0-4-2.3-6.5-5.7-6.5s-5.7,2.4-5.7,6.5c0,4,2.3,6.5,5.7,6.5S675.4,261.6,675.4,257.5z"/>
		<path class="st8" d="M682.5,242.4h3.6v24.2h-3.6V242.4z"/>
		<path class="st8" d="M689.7,257.5c0-6.3,3.8-9.5,8.4-9.5c2.9,0,5.5,1.4,6.5,3.9v-9.5h3.6v24.2h-3.6v-3.5c-1,2.5-3.6,3.9-6.5,3.9
			C693.6,267.1,689.7,263.8,689.7,257.5L689.7,257.5z M704.7,257.5c0-4-2.3-6.5-5.7-6.5s-5.7,2.4-5.7,6.5c0,4,2.3,6.5,5.7,6.5
			S704.7,261.6,704.7,257.5z"/>
		<path class="st8" d="M538.6,293.2v3.5H535v-24.2h3.6v9.5c1-2.5,3.6-3.9,6.5-3.9c4.5,0,8.4,3.2,8.4,9.5s-3.9,9.6-8.4,9.6
			C542.2,297.1,539.6,295.6,538.6,293.2L538.6,293.2z M549.9,287.5c0-4-2.3-6.5-5.7-6.5s-5.7,2.4-5.7,6.5s2.3,6.5,5.7,6.5
			S549.9,291.6,549.9,287.5z"/>
		<path class="st8" d="M556.4,287.5c0-6.3,3.8-9.5,8.4-9.5c2.9,0,5.4,1.4,6.5,3.9v-3.6h3.6v18.3h-3.6v-3.5c-1,2.5-3.6,3.9-6.5,3.9
			C560.3,297.1,556.4,293.9,556.4,287.5z M571.4,287.5c0-4-2.3-6.5-5.7-6.5s-5.7,2.4-5.7,6.5s2.3,6.5,5.7,6.5
			S571.4,291.6,571.4,287.5z"/>
		<path class="st8" d="M580.3,289.4v-8.2h-2.7v-2.8h2.7V275l3.6-0.8v4.1h5.4v2.8h-5.4v7.8c0,3.8,1,5.1,3.8,5.1
			c0.3,0,0.8-0.1,1.5-0.2l0.5,2.8c-0.7,0.2-1.7,0.3-2.5,0.3C582.5,296.9,580.3,295,580.3,289.4L580.3,289.4z"/>
		<path class="st8" d="M593.4,289.4v-8.2h-2.7v-2.8h2.7V275l3.6-0.8v4.1h5.4v2.8H597v7.8c0,3.8,1,5.1,3.8,5.1c0.3,0,0.8-0.1,1.5-0.2
			l0.5,2.8c-0.7,0.2-1.7,0.3-2.5,0.3C595.5,296.9,593.4,295,593.4,289.4L593.4,289.4z"/>
		<path class="st8" d="M604,287.5c0-5.6,3.8-9.5,9.2-9.5c5.8,0,9.3,4.3,8.9,10.4h-14.6c0.1,3.5,2.3,5.6,5.9,5.6
			c2.6,0,4.2-0.9,5.1-2.6l3.3,0.5c-1.5,3.4-4.3,5.1-8.5,5.1C607.7,297,604,293.2,604,287.5L604,287.5z M618.8,285.6
			c-0.3-2.9-2.2-4.8-5.5-4.8s-5.2,1.6-5.6,4.8H618.8z"/>
		<path class="st8" d="M625.7,278.4h3.6v3.1c0.7-2,2.6-3.7,6.4-3.2l-0.4,3.5c-4.1-0.8-6,1.4-6,5.9v9.1h-3.6V278.4L625.7,278.4z"/>
		<path class="st8" d="M644,296.5l-7.9-18.2h3.9l5.9,14.3l5.9-14.3h3.9l-10.5,24.2h-3.9L644,296.5L644,296.5z"/>
	</g>
	<g>
		<path class="st8" d="M422.6,180.2l3.5-0.7c1,2.4,3.2,3.7,6.1,3.7c3.2,0,5-1.3,5-3.5c0-5.5-13.6-1.7-13.6-10.6c0-3.9,3.3-6.5,8-6.5
			s7.9,2.1,9.1,5.9l-3.4,0.7c-1-2.2-2.8-3.3-5.6-3.3s-4.5,1.2-4.5,3.2c0,5.8,13.7,1.5,13.7,10.6c0,4.1-3.4,6.7-8.6,6.7
			C427.4,186.4,423.8,184.1,422.6,180.2L422.6,180.2z"/>
		<path class="st8" d="M444.8,178.8v-8.2h-2.7v-2.8h2.7v-3.4l3.6-0.8v4.1h5.4v2.8h-5.4v7.8c0,3.8,1,5.1,3.8,5.1
			c0.4,0,0.8-0.1,1.5-0.2l0.5,2.8c-0.7,0.2-1.7,0.3-2.5,0.3C446.9,186.4,444.8,184.4,444.8,178.8L444.8,178.8z"/>
		<path class="st8" d="M455.4,177c0-6.6,4.6-9.5,9.2-9.5s9.3,2.9,9.3,9.5s-4.6,9.6-9.2,9.6S455.4,183.6,455.4,177L455.4,177z
			 M470.3,177c0-4-2.3-6.5-5.7-6.5s-5.7,2.4-5.7,6.5s2.3,6.5,5.7,6.5S470.3,181,470.3,177z"/>
		<path class="st8" d="M474.9,167.8h3.9l5.9,14.4l5.9-14.4h4l-8.1,18.3h-3.6L474.9,167.8L474.9,167.8z"/>
		<path class="st8" d="M495.5,177c0-5.6,3.8-9.5,9.2-9.5c5.8,0,9.3,4.3,8.9,10.4H499c0.1,3.6,2.3,5.6,5.9,5.6c2.6,0,4.2-0.9,5.1-2.6
			l3.3,0.5c-1.5,3.4-4.4,5.1-8.5,5.1C499.2,186.5,495.5,182.7,495.5,177L495.5,177z M510.2,175.1c-0.3-2.9-2.2-4.8-5.5-4.8
			s-5.2,1.6-5.6,4.8H510.2z"/>
		<path class="st8" d="M527.2,178.8v-8.2h-2.7v-2.8h2.7v-3.4l3.6-0.8v4.1h5.4v2.8h-5.4v7.8c0,3.8,1,5.1,3.8,5.1
			c0.3,0,0.8-0.1,1.5-0.2l0.5,2.8c-0.7,0.2-1.7,0.3-2.5,0.3C529.3,186.4,527.2,184.4,527.2,178.8L527.2,178.8z"/>
		<path class="st8" d="M537.8,177c0-6.6,4.6-9.5,9.2-9.5s9.3,2.9,9.3,9.5s-4.6,9.6-9.2,9.6S537.8,183.6,537.8,177L537.8,177z
			 M552.7,177c0-4-2.3-6.5-5.7-6.5s-5.7,2.4-5.7,6.5s2.3,6.5,5.7,6.5S552.7,181,552.7,177z"/>
		<path class="st8" d="M559.9,167.8h3.6v3.5c1-2.3,3.4-3.8,6.5-3.8c4.3,0,8.4,2.9,8.4,9.5s-4.1,9.5-8.4,9.5c-3.1,0-5.5-1.5-6.5-3.9
			v9.5h-3.6V167.8L559.9,167.8z M574.8,176.9c0-4-2.3-6.5-5.7-6.5s-5.7,2.4-5.7,6.5s2.3,6.5,5.7,6.5S574.8,180.9,574.8,176.9z"/>
	</g>
	<g>
		<path class="st8" d="M186.3,205.1h3.7v23.2h-3.7V205.1z"/>
		<path class="st8" d="M194.6,209.9h3.6v3.3c0.8-2.3,2.9-3.6,6-3.6c5.1,0,7.4,2.9,7.4,8.7v9.9h-3.6v-9.6c0-4-1.5-5.9-4.9-5.9
			s-4.9,2.3-4.9,6.3v9.2h-3.6V209.9L194.6,209.9z"/>
		<path class="st8" d="M214.7,219.1c0-6.3,3.8-9.5,8.4-9.5c2.9,0,5.5,1.4,6.5,3.9V204h3.6v24.2h-3.6v-3.5c-1,2.5-3.6,3.9-6.5,3.9
			C218.6,228.6,214.7,225.4,214.7,219.1L214.7,219.1z M229.7,219.1c0-4-2.3-6.5-5.7-6.5s-5.7,2.4-5.7,6.5s2.3,6.5,5.7,6.5
			S229.7,223.1,229.7,219.1z"/>
		<path class="st8" d="M236.9,219.1c0-6.6,4.6-9.5,9.2-9.5s9.3,2.9,9.3,9.5s-4.6,9.6-9.2,9.6S236.9,225.7,236.9,219.1z M251.9,219.1
			c0-4-2.3-6.5-5.7-6.5s-5.7,2.4-5.7,6.5s2.3,6.5,5.7,6.5S251.9,223.1,251.9,219.1z"/>
		<path class="st8" d="M258.4,219.1c0-6.6,4.6-9.5,9.2-9.5s9.3,2.9,9.3,9.5s-4.6,9.6-9.2,9.6S258.4,225.7,258.4,219.1z M273.3,219.1
			c0-4-2.3-6.5-5.7-6.5s-5.7,2.4-5.7,6.5s2.3,6.5,5.7,6.5S273.3,223.1,273.3,219.1z"/>
		<path class="st8" d="M280.5,209.9h3.6v3.1c0.7-1.9,2.6-3.7,6.4-3.2l-0.4,3.5c-4.1-0.8-6,1.4-6,5.9v9.1h-3.6V209.9L280.5,209.9z"/>
		<path class="st8" d="M185.9,234h3.6v9.3c0.7-2.1,2.7-3.6,6-3.6c4.8,0,7.4,2.6,7.4,8.7v9.9h-3.6v-9.6c0-4.1-1.5-5.9-4.9-5.9
			s-4.9,2.2-4.9,6.3v9.2h-3.6V234L185.9,234z"/>
		<path class="st8" d="M206.1,249.1c0-5.6,3.8-9.5,9.2-9.5c5.8,0,9.3,4.3,8.9,10.4h-14.6c0.1,3.6,2.3,5.6,5.9,5.6
			c2.6,0,4.2-0.9,5.1-2.6l3.3,0.5c-1.5,3.4-4.4,5.1-8.5,5.1C209.8,258.6,206.1,254.8,206.1,249.1L206.1,249.1z M220.9,247.2
			c-0.3-2.9-2.2-4.8-5.5-4.8s-5.2,1.6-5.6,4.8H220.9z"/>
		<path class="st8" d="M227.2,249.1c0-6.3,3.8-9.5,8.4-9.5c2.9,0,5.4,1.4,6.5,3.9v-3.6h3.6v18.3h-3.6v-3.5c-1,2.5-3.6,3.9-6.5,3.9
			C231.1,258.6,227.2,255.4,227.2,249.1z M242.2,249.1c0-4-2.3-6.5-5.7-6.5s-5.7,2.4-5.7,6.5s2.3,6.5,5.7,6.5
			S242.2,253.1,242.2,249.1z"/>
		<path class="st8" d="M251.1,250.9v-8.2h-2.7v-2.8h2.7v-3.4l3.6-0.8v4.1h5.4v2.8h-5.4v7.8c0,3.8,1,5.1,3.8,5.1
			c0.4,0,0.8-0.1,1.5-0.2l0.5,2.8c-0.7,0.2-1.7,0.3-2.5,0.3C253.3,258.5,251.1,256.5,251.1,250.9L251.1,250.9z"/>
		<path class="st8" d="M262.8,235.3c0-1.2,0.9-1.9,2.1-1.9c1.1,0,2.1,0.7,2.1,1.9s-1,1.9-2.1,1.9
			C263.7,237.3,262.8,236.5,262.8,235.3z M263.1,239.9h3.5v18.3h-3.5V239.9z"/>
		<path class="st8" d="M271,239.9h3.6v3.3c0.8-2.3,2.9-3.6,6-3.6c5.1,0,7.4,2.9,7.4,8.7v9.9h-3.6v-9.6c0-4-1.5-5.9-4.9-5.9
			s-4.9,2.3-4.9,6.3v9.2H271L271,239.9L271,239.9z"/>
		<path class="st8" d="M291.6,259.7l3.4-0.8c0.9,1.9,2.9,3.1,5.4,3.1c3.6,0,5.7-1.8,5.7-6.4V254c-1,2.7-3.6,3.8-6.5,3.8
			c-4.6,0-8.4-3-8.4-9.1s3.8-9.1,8.4-9.1c2.9,0,5.5,1.1,6.5,3.8v-3.5h3.6V255c0,6.9-3.2,9.8-9.3,9.8
			C296,264.8,292.8,263,291.6,259.7L291.6,259.7z M306.1,248.7c0-3.9-2.3-6.3-5.7-6.3s-5.7,2.4-5.7,6.3s2.3,6.4,5.7,6.4
			S306.1,252.7,306.1,248.7L306.1,248.7z"/>
	</g>
	<g>
		<path class="st8" d="M153.6,137.3l-5.1-7.8c-0.5,0-1.1,0.1-1.7,0.1h-3v7.7h-3.7v-23.2h6.8c7.2,0,10.6,2.1,10.6,7.7
			c0,3.8-1.8,6.1-5.3,7.1l5.7,8.4L153.6,137.3L153.6,137.3z M147.1,126.5c4.4,0,6.6-0.8,6.6-4.5s-2.2-4.6-6.6-4.6h-3.4v9.1H147.1z"
			/>
		<path class="st8" d="M160,128.2c0-6.6,4.6-9.5,9.2-9.5s9.3,2.9,9.3,9.5s-4.6,9.6-9.2,9.6S160,134.9,160,128.2z M174.9,128.2
			c0-4-2.3-6.5-5.7-6.5s-5.7,2.4-5.7,6.5s2.3,6.5,5.7,6.5S174.9,132.2,174.9,128.2z"/>
		<path class="st8" d="M181.5,128.2c0-6.6,4.6-9.5,9.2-9.5s9.3,2.9,9.3,9.5s-4.6,9.6-9.2,9.6S181.5,134.9,181.5,128.2z M196.4,128.2
			c0-4-2.3-6.5-5.7-6.5s-5.7,2.4-5.7,6.5s2.3,6.5,5.7,6.5S196.4,132.2,196.4,128.2z"/>
		<path class="st8" d="M204,121.8h-2.5V119h2.5v-0.7c0-3.9,2.1-5.9,6.4-5.9c1.1,0,2.4,0.1,3.2,0.3l-0.5,2.7c-0.7-0.1-1.3-0.2-2-0.2
			c-2.3,0-3.5,1-3.5,3.2v0.6h5.1v2.8h-5.1v15.5H204L204,121.8L204,121.8z"/>
		<path class="st8" d="M216.4,130v-8.2h-2.7V119h2.7v-3.4l3.6-0.8v4.1h5.4v2.8h-5.4v7.8c0,3.8,1,5.1,3.8,5.1c0.4,0,0.8-0.1,1.5-0.2
			l0.5,2.8c-0.7,0.2-1.7,0.3-2.5,0.3C218.6,137.6,216.4,135.6,216.4,130L216.4,130z"/>
		<path class="st8" d="M227,128.2c0-6.6,4.6-9.5,9.2-9.5s9.3,2.9,9.3,9.5s-4.6,9.6-9.2,9.6S227,134.9,227,128.2z M242,128.2
			c0-4-2.3-6.5-5.7-6.5s-5.7,2.4-5.7,6.5s2.3,6.5,5.7,6.5S242,132.2,242,128.2z"/>
		<path class="st8" d="M249.1,119h3.6v3.5c1-2.3,3.4-3.8,6.5-3.8c4.3,0,8.4,2.9,8.4,9.5c0,6.6-4.1,9.5-8.4,9.5
			c-3.1,0-5.5-1.5-6.5-3.9v9.5h-3.6L249.1,119L249.1,119z M264,128.2c0-4-2.3-6.5-5.7-6.5s-5.7,2.4-5.7,6.5c0,4.1,2.3,6.5,5.7,6.5
			S264,132.2,264,128.2z"/>
		<path class="st8" d="M138.5,162.9l3.3-0.9c0.9,1.7,2.8,2.6,5.3,2.6c2.9,0,4.4-0.9,4.4-2.6c0-4.2-12.2-0.4-12.2-8.1
			c0-3.1,3.3-5.2,7.6-5.2c3.3,0,6.7,1.7,7.8,4.2l-3.2,0.9c-0.8-1.3-2.6-2.1-4.5-2.1c-2.6,0-4.1,0.9-4.1,2.4c0,4.2,12.3,0.3,12.3,7.9
			c0,3.5-3.1,5.7-8,5.7C143,167.7,139.6,165.8,138.5,162.9L138.5,162.9z"/>
		<path class="st8" d="M157.5,158.2c0-6.6,4.6-9.5,9.2-9.5s9.3,2.9,9.3,9.5s-4.6,9.6-9.2,9.6S157.5,164.9,157.5,158.2z M172.4,158.2
			c0-4-2.3-6.5-5.7-6.5s-5.7,2.4-5.7,6.5s2.3,6.5,5.7,6.5S172.4,162.2,172.4,158.2z"/>
		<path class="st8" d="M179.6,143.1h3.6v24.2h-3.6V143.1z"/>
		<path class="st8" d="M186.8,158.2c0-6.3,3.8-9.5,8.4-9.5c2.9,0,5.4,1.4,6.5,3.9v-3.6h3.6v18.3h-3.6v-3.5c-1,2.5-3.6,3.9-6.5,3.9
			C190.7,167.8,186.8,164.5,186.8,158.2z M201.8,158.2c0-4-2.3-6.5-5.7-6.5s-5.7,2.4-5.7,6.5s2.3,6.5,5.7,6.5
			S201.8,162.2,201.8,158.2z"/>
		<path class="st8" d="M209.7,149h3.6v3.1c0.7-1.9,2.6-3.7,6.4-3.2l-0.4,3.5c-4.1-0.8-6.1,1.4-6.1,5.9v9.1h-3.6L209.7,149L209.7,149
			z"/>
	</g>
	<g>
		<path class="st8" d="M26.3,17.5H30v9.8h11v-9.8h3.7v23.2h-3.7V30.6H30v10.1h-3.7C26.3,40.7,26.3,17.5,26.3,17.5z"/>
		<path class="st8" d="M48.7,31.5c0-6.6,4.6-9.5,9.2-9.5s9.3,2.9,9.3,9.5s-4.6,9.6-9.2,9.6S48.7,38.2,48.7,31.5z M63.6,31.5
			c0-4-2.3-6.5-5.7-6.5s-5.7,2.4-5.7,6.5S54.5,38,58,38S63.6,35.6,63.6,31.5z"/>
		<path class="st8" d="M70.9,33.4v-8.2h-2.7v-2.8h2.7V19l3.6-0.8v4.1H80v2.8h-5.4V33c0,3.8,1,5.1,3.8,5.1c0.3,0,0.8-0.1,1.5-0.2
			l0.5,2.8c-0.7,0.2-1.7,0.3-2.5,0.3C73.1,40.9,70.9,39,70.9,33.4L70.9,33.4z"/>
		<path class="st8" d="M89.8,22.4h3.9l5.1,14.1l4.7-14.1h2.8l4.7,14.1l5.1-14.1h3.9L113,40.7h-3.6L105,27.3l-4.4,13.4h-3.7
			C96.9,40.7,89.8,22.4,89.8,22.4z"/>
		<path class="st8" d="M121,31.5c0-6.3,3.8-9.5,8.4-9.5c2.9,0,5.4,1.4,6.5,3.9v-3.6h3.6v18.3h-3.6v-3.5c-1,2.5-3.6,3.9-6.5,3.9
			C124.9,41.1,121,37.9,121,31.5z M136,31.5c0-4-2.3-6.5-5.7-6.5s-5.7,2.4-5.7,6.5s2.3,6.5,5.7,6.5S136,35.6,136,31.5z"/>
		<path class="st8" d="M144.9,33.4v-8.2h-2.7v-2.8h2.7V19l3.6-0.8v4.1h5.4v2.8h-5.4V33c0,3.8,1,5.1,3.8,5.1c0.4,0,0.8-0.1,1.5-0.2
			l0.5,2.8c-0.7,0.2-1.7,0.3-2.5,0.3C147.1,40.9,144.9,39,144.9,33.4L144.9,33.4z"/>
		<path class="st8" d="M155.5,31.5c0-5.6,3.8-9.5,9.2-9.5c5.8,0,9.3,4.3,8.9,10.4h-14.6c0.1,3.5,2.3,5.6,5.9,5.6
			c2.6,0,4.2-0.9,5.1-2.6l3.3,0.5c-1.5,3.4-4.4,5.1-8.5,5.1C159.2,41,155.5,37.3,155.5,31.5L155.5,31.5z M170.3,29.6
			c-0.3-2.9-2.2-4.8-5.5-4.8s-5.2,1.6-5.6,4.8H170.3z"/>
		<path class="st8" d="M177.3,22.4h3.6v3.1c0.7-2,2.6-3.7,6.4-3.2l-0.4,3.5c-4.1-0.8-6.1,1.4-6.1,5.9v9.1h-3.6L177.3,22.4
			L177.3,22.4z"/>
		<path class="st8" d="M26,52.4h3.6v3.5c1-2.3,3.4-3.8,6.5-3.8c4.3,0,8.4,2.9,8.4,9.5S40.3,71,36.1,71c-3.1,0-5.5-1.5-6.5-3.9v9.5
			H26C26,76.6,26,52.4,26,52.4z M40.9,61.5c0-4-2.3-6.5-5.7-6.5s-5.7,2.4-5.7,6.5s2.3,6.5,5.7,6.5S40.9,65.5,40.9,61.5z"/>
		<path class="st8" d="M47.7,62.3v-10h3.6V62c0,4,1.4,5.9,4.9,5.9s4.9-2.3,4.9-6.3v-9.2h3.6v18.3H61v-3.3c-0.8,2.3-2.9,3.7-6,3.7
			C50,71,47.7,68.1,47.7,62.3L47.7,62.3z"/>
		<path class="st8" d="M69,52.4h3.6v3.5c0.6-2.4,2.7-3.8,5.6-3.8c3.1,0,4.6,1.2,5.6,4.3c0.9-2.8,3.3-4.4,6.7-4.4
			c4.6,0,6.5,2.8,6.5,9.3v9.3h-3.6v-9c0-4.7-1.2-6.5-4.3-6.5s-4.4,1.9-4.4,6.5v9.1h-3.6v-9c0-4.8-1.1-6.5-4.1-6.5s-4.4,2.1-4.4,6.8
			v8.7H69L69,52.4L69,52.4z"/>
		<path class="st8" d="M100.8,52.4h3.6v3.5c1-2.3,3.4-3.8,6.5-3.8c4.3,0,8.4,2.9,8.4,9.5s-4.1,9.5-8.4,9.5c-3.1,0-5.5-1.5-6.5-3.9
			v9.5h-3.6C100.8,76.6,100.8,52.4,100.8,52.4z M115.7,61.5c0-4-2.3-6.5-5.7-6.5s-5.7,2.4-5.7,6.5s2.3,6.5,5.7,6.5
			S115.7,65.5,115.7,61.5z"/>
	</g>
	<g>
		<path class="st8" d="M628.8,367.4c0-8.2,5.4-11.9,10.9-11.9c4.2,0,8.8,2,10.2,7.9l-3.7,0.7c-0.9-3.4-3.5-5.2-6.6-5.2
			c-4.3,0-7.1,3.3-7.1,8.5s2.8,8.5,7.1,8.5c3.2,0,5.7-1.8,6.6-5.3l3.7,0.7c-1.4,6-6,8.1-10.3,8.1
			C634.2,379.3,628.8,375.8,628.8,367.4L628.8,367.4z"/>
		<path class="st8" d="M652.8,369.8c0-6.3,3.8-9.5,8.4-9.5c2.9,0,5.4,1.4,6.5,3.9v-3.6h3.6v18.3h-3.6v-3.5c-1,2.5-3.6,3.9-6.5,3.9
			C656.7,379.3,652.8,376.1,652.8,369.8z M667.8,369.8c0-4-2.3-6.5-5.7-6.5s-5.7,2.4-5.7,6.5s2.3,6.5,5.7,6.5
			S667.8,373.8,667.8,369.8z"/>
		<path class="st8" d="M675.7,360.6h3.6v3.1c0.7-2,2.6-3.7,6.4-3.2l-0.4,3.5c-4.1-0.8-6,1.4-6,5.9v9h-3.6V360.6z"/>
		<path class="st8" d="M686.2,374.5l3.3-0.9c0.9,1.7,2.8,2.6,5.3,2.6c2.8,0,4.4-0.9,4.4-2.6c0-4.2-12.2-0.4-12.2-8.1
			c0-3.1,3.3-5.2,7.5-5.2c3.3,0,6.7,1.7,7.8,4.2l-3.2,0.9c-0.8-1.3-2.6-2.1-4.5-2.1c-2.6,0-4.1,0.9-4.1,2.4c0,4.2,12.3,0.3,12.3,7.9
			c0,3.5-3.1,5.7-8,5.7C690.7,379.2,687.3,377.4,686.2,374.5L686.2,374.5z"/>
	</g>
</g>
</svg>
