<?xml version="1.0" encoding="UTF-8"?><svg id="Layer_1" xmlns="http://www.w3.org/2000/svg" viewBox="0 0 1920 1080"><defs><style>.cls-1{stroke-width:6px;}.cls-1,.cls-2,.cls-3,.cls-4,.cls-5{fill:none;}.cls-1,.cls-2,.cls-4{stroke:#000;}.cls-1,.cls-4{stroke-miterlimit:10;}.cls-6{fill:#f9cd25;}.cls-7{fill:#fff;}.cls-8{fill:#fdeba8;}.cls-9{fill:#1e00b2;}.cls-2,.cls-3,.cls-4,.cls-5{stroke-width:2px;}.cls-2,.cls-3,.cls-5{stroke-linecap:round;stroke-linejoin:round;}.cls-3,.cls-5{stroke:#231f20;}.cls-5{stroke-dasharray:0 12;}</style></defs><g><path class="cls-3" d="M1228.63,686.04c-.88-5.06-5.26-8.9-10.55-8.9-4.2,0-7.83,2.43-9.58,5.96-.94-.27-1.94-.42-2.97-.42-3.3,0-6.25,1.5-8.21,3.86-1.02-.32-2.11-.5-3.23-.5-5.91,0-10.71,4.81-10.71,10.75s4.72,10.68,10.57,10.75h0s34.4,0,34.4,0c5.91,0,10.71-4.81,10.71-10.75s-4.64-10.59-10.42-10.75Z"/><line class="cls-3" x1="1193.94" y1="707.54" x2="1166.84" y2="707.54"/><line class="cls-3" x1="1160.85" y1="707.21" x2="1151.3" y2="707.21"/><line class="cls-3" x1="1242.56" y1="715.27" x2="1174.11" y2="715.27"/><line class="cls-3" x1="1252.25" y1="707.21" x2="1266.34" y2="707.21"/></g><g><rect class="cls-8" x="470.14" y="877.07" width="172.99" height="30.65"/><g><rect class="cls-6" x="543.84" y="890.04" width="6.11" height="16.68"/><rect class="cls-6" x="528.44" y="882.83" width="4.51" height="23.89"/><rect class="cls-6" x="520.47" y="882.83" width="4.51" height="23.89"/><rect class="cls-6" x="512.5" y="882.83" width="4.51" height="23.89"/><rect class="cls-6" x="500.7" y="890.04" width="4.51" height="16.68"/><rect class="cls-6" x="500.7" y="881.93" width="4.51" height="8.11"/><rect class="cls-6" x="492.6" y="890.04" width="4.51" height="16.68"/><rect class="cls-6" x="492.6" y="881.93" width="4.51" height="8.11"/><rect class="cls-6" x="484.5" y="890.04" width="4.51" height="16.68"/><rect class="cls-6" x="484.5" y="881.93" width="4.51" height="8.11"/><rect class="cls-6" x="476.4" y="890.04" width="4.51" height="16.68"/><rect class="cls-6" x="476.4" y="881.93" width="4.51" height="8.11"/><rect class="cls-6" x="449.3" y="876.07" width="14.74" height="30.65"/><rect class="cls-6" x="255.44" y="880.12" width="5.58" height="11.27"/><rect class="cls-6" x="321.17" y="864.87" width="5.58" height="15.25"/><rect class="cls-6" x="388.49" y="856.24" width="5.58" height="10.78"/><rect class="cls-6" x="564.02" y="890.04" width="6.11" height="16.68"/><g><polygon class="cls-6" points="554.19 890.04 554.19 906.71 556.98 906.71 559.77 906.71 559.77 890.04 556.98 890.04 554.19 890.04"/><polygon class="cls-6" points="556.98 881.93 554.19 881.93 554.19 890.04 556.98 890.04 559.77 890.04 559.77 881.93 556.98 881.93"/></g><rect class="cls-6" x="581.02" y="882.83" width="4.51" height="23.89"/><rect class="cls-6" x="588.98" y="882.83" width="4.51" height="23.89"/><rect class="cls-6" x="596.95" y="882.83" width="4.51" height="23.89"/><rect class="cls-6" x="608.53" y="890.04" width="4.51" height="16.68"/><rect class="cls-6" x="608.53" y="881.93" width="4.51" height="8.11"/><rect class="cls-6" x="616.63" y="890.04" width="4.51" height="16.68"/><rect class="cls-6" x="616.63" y="881.93" width="4.51" height="8.11"/><rect class="cls-6" x="624.73" y="890.04" width="4.51" height="16.68"/><rect class="cls-6" x="624.73" y="881.93" width="4.51" height="8.11"/><rect class="cls-6" x="632.83" y="890.04" width="4.51" height="16.68"/><rect class="cls-6" x="632.83" y="881.93" width="4.51" height="8.11"/><rect class="cls-6" x="649.93" y="876.07" width="14.74" height="30.65"/><rect class="cls-6" x="852.95" y="880.12" width="5.58" height="11.27"/><rect class="cls-6" x="787.22" y="864.87" width="5.58" height="15.25"/><rect class="cls-6" x="719.9" y="856.24" width="5.58" height="10.78"/><rect class="cls-6" x="654.51" y="841.36" width="5.58" height="15.45"/><polygon class="cls-6" points="490.19 830.19 548.36 756.73 548.36 699.04 545.31 693.63 549.94 693.63 552.2 699.04 552.2 759.43 501.88 830.19 490.19 830.19"/><g><path class="cls-8" d="M867.29,889.23v-11.27h-66.12v-13.52h-66.52v-10.37h-68.12v-11.72h-42.75v-12.17h-11.68v22.49c6.33,.03,11.26,.04,13.28,.04,8.5,0,18.06,11.27,104.5,24.34,71.16,10.76,139.88,34.04,161.96,41.93l11.32,2.68v-32.45h-35.85Z"/><path class="cls-8" d="M384.1,877.07c86.44-13.07,96-24.34,104.5-24.34,2.02,0,6.95-.02,13.28-.04v-22.49h-11.68v12.17h-42.75v11.72h-68.12v10.37h-66.52v13.52h-66.12v11.27h-35.85v32.45l11.32-2.68c22.07-7.89,90.79-31.17,161.96-41.93Z"/></g><polygon class="cls-6" points="623.77 830.19 565.6 756.73 565.6 699.04 568.65 693.63 564.02 693.63 561.76 699.04 561.76 759.43 612.09 830.19 623.77 830.19"/><rect class="cls-6" x="548.36" y="747.27" width="17.24" height="3.61"/><path class="cls-9" d="M594.07,661.29c-12.43-6.06-24.86,6.06-37.29,0v-21.63c12.43,6.06,24.86-6.06,37.29,0v21.63Z"/></g><g><polyline class="cls-2" points="499.88 850.69 499.88 847.53 499.88 828.19 488.19 828.19 488.19 840.36 445.44 840.36 445.44 852.08 377.32 852.08 377.32 862.45 310.8 862.45 310.8 875.97 244.68 875.97 244.68 887.24 208.83 887.24 208.83 919.68"/><polygon class="cls-2" points="478.63 875.07 475.98 871.61 492.71 863.95 501.47 875.07 478.63 875.07"/><rect class="cls-2" x="451.88" y="840.36" width="5.58" height="15.45"/><polygon class="cls-2" points="488.19 828.19 546.36 754.73 546.36 697.04 543.31 691.63 547.94 691.63 550.2 697.04 550.2 757.43 499.88 828.19 488.19 828.19"/><polygon class="cls-2" points="527.76 850.56 527.76 844.26 547.94 844.26 554.98 835.55 554.98 850.43 527.76 850.56"/><polyline class="cls-2" points="610.09 850.69 610.09 847.53 610.09 828.19 621.77 828.19 621.77 840.36 664.53 840.36 664.53 852.08 732.64 852.08 732.64 862.45 799.16 862.45 799.16 875.97 865.29 875.97 865.29 887.24 901.14 887.24 901.14 919.68"/><path class="cls-2" d="M897.16,919.68s-82.85-31.55-169.29-44.62c-86.44-13.07-96-24.34-104.5-24.34s-68.38-.3-68.38-.3c0,0-59.88,.3-68.38,.3s-18.06,11.27-104.5,24.34c-86.44,13.07-169.29,44.62-169.29,44.62"/><polyline class="cls-2" points="782.43 919.68 622.7 858.39 554.98 858.39 487.26 858.39 327.53 919.68"/><rect class="cls-2" x="468.14" y="875.07" width="172.99" height="30.65"/><polygon class="cls-2" points="631.33 875.07 633.99 871.61 617.26 863.95 608.49 875.07 631.33 875.07"/><polygon class="cls-2" points="554.98 863.95 492.71 863.95 501.47 875.07 554.98 875.07 608.49 875.07 617.26 863.95 554.98 863.95"/><polygon class="cls-2" points="621.77 828.19 563.6 754.73 563.6 697.04 566.65 691.63 562.02 691.63 559.76 697.04 559.76 757.43 610.09 828.19 621.77 828.19"/><rect class="cls-2" x="546.36" y="745.27" width="17.24" height="3.61"/><polygon class="cls-2" points="582.2 850.56 582.2 844.26 562.02 844.26 554.98 835.55 554.98 850.43 582.2 850.56"/><polygon class="cls-2" points="554.98 843.07 547.94 850.43 554.98 850.43 562.02 850.43 554.98 843.07"/><polyline class="cls-2" points="327.53 919.68 447.3 905.71 662.67 905.71 782.43 919.68"/><line class="cls-2" x1="554.98" y1="633.58" x2="554.98" y2="745.27"/><g><rect class="cls-2" x="541.84" y="889.04" width="6.11" height="16.68"/><rect class="cls-2" x="526.44" y="881.83" width="4.51" height="23.89"/><rect class="cls-2" x="518.47" y="881.83" width="4.51" height="23.89"/><rect class="cls-2" x="510.5" y="881.83" width="4.51" height="23.89"/><rect class="cls-2" x="498.7" y="889.04" width="4.51" height="16.68"/><rect class="cls-2" x="498.7" y="880.93" width="4.51" height="8.11"/><rect class="cls-2" x="490.6" y="889.04" width="4.51" height="16.68"/><rect class="cls-2" x="490.6" y="880.93" width="4.51" height="8.11"/><rect class="cls-2" x="482.5" y="889.04" width="4.51" height="16.68"/><rect class="cls-2" x="482.5" y="880.93" width="4.51" height="8.11"/><rect class="cls-2" x="474.4" y="889.04" width="4.51" height="16.68"/><rect class="cls-2" x="474.4" y="880.93" width="4.51" height="8.11"/><rect class="cls-2" x="447.3" y="875.07" width="14.74" height="30.65"/><rect class="cls-2" x="253.44" y="879.12" width="5.58" height="11.27"/><rect class="cls-2" x="319.17" y="863.87" width="5.58" height="15.25"/><rect class="cls-2" x="386.49" y="855.24" width="5.58" height="10.78"/><rect class="cls-2" x="562.02" y="889.04" width="6.11" height="16.68"/><g><polygon class="cls-2" points="552.19 889.04 552.19 905.71 554.98 905.71 557.77 905.71 557.77 889.04 554.98 889.04 552.19 889.04"/><polygon class="cls-2" points="554.98 880.93 552.19 880.93 552.19 889.04 554.98 889.04 557.77 889.04 557.77 880.93 554.98 880.93"/></g><rect class="cls-2" x="579.02" y="881.83" width="4.51" height="23.89"/><rect class="cls-2" x="586.98" y="881.83" width="4.51" height="23.89"/><rect class="cls-2" x="594.95" y="881.83" width="4.51" height="23.89"/><rect class="cls-2" x="606.53" y="889.04" width="4.51" height="16.68"/><rect class="cls-2" x="606.53" y="880.93" width="4.51" height="8.11"/><rect class="cls-2" x="614.63" y="889.04" width="4.51" height="16.68"/><rect class="cls-2" x="614.63" y="880.93" width="4.51" height="8.11"/><rect class="cls-2" x="622.73" y="889.04" width="4.51" height="16.68"/><rect class="cls-2" x="622.73" y="880.93" width="4.51" height="8.11"/><rect class="cls-2" x="630.83" y="889.04" width="4.51" height="16.68"/><rect class="cls-2" x="630.83" y="880.93" width="4.51" height="8.11"/><rect class="cls-2" x="647.93" y="875.07" width="14.74" height="30.65"/><rect class="cls-2" x="850.95" y="879.12" width="5.58" height="11.27"/><rect class="cls-2" x="785.22" y="863.87" width="5.58" height="15.25"/><rect class="cls-2" x="717.9" y="855.24" width="5.58" height="10.78"/><rect class="cls-2" x="652.51" y="840.36" width="5.58" height="15.45"/><g><path class="cls-2" d="M589.64,660.24c-11.55-6.06-23.1,6.06-34.66,0v-21.63c11.55,6.06,23.1-6.06,34.66,0v21.63Z"/><path class="cls-2" d="M564.82,655.86c-.35,.06-.71,.11-1.06,.15-.01,.4-.03,.8-.04,1.21-.23-.29-.46-.58-.7-.87-.29,.25-.57,.49-.86,.73,.07-.39,.13-.79,.2-1.18-.34-.1-.69-.22-1.03-.34,.31-.17,.63-.35,.94-.54-.14-.37-.28-.74-.42-1.11,.33,.17,.65,.33,.98,.48,.17-.36,.33-.72,.5-1.08,.09,.38,.18,.77,.28,1.15,.35-.1,.7-.2,1.05-.31-.21,.35-.42,.69-.63,1.03,.27,.24,.54,.48,.81,.71Z"/><path class="cls-2" d="M577.17,645.4c-.35,.09-.71,.18-1.06,.27-.01,.4-.03,.81-.04,1.21-.23-.25-.46-.5-.7-.75-.29,.31-.57,.61-.86,.92,.07-.41,.13-.82,.2-1.23-.34-.02-.69-.04-1.03-.05,.31-.27,.63-.54,.94-.8-.14-.33-.28-.67-.42-1,.33,.08,.65,.16,.98,.24,.17-.39,.33-.79,.5-1.18,.09,.37,.18,.73,.28,1.1,.35-.15,.7-.3,1.05-.45-.21,.37-.42,.74-.63,1.1,.27,.2,.54,.41,.81,.62Z"/><path class="cls-2" d="M581.82,642.09c-.35,.02-.71,.06-1.06,.1-.01,.4-.03,.8-.04,1.21-.23-.29-.46-.57-.7-.85-.29,.27-.57,.54-.86,.82,.07-.4,.13-.81,.2-1.21-.34-.06-.69-.11-1.03-.16,.31-.24,.63-.48,.94-.71-.14-.35-.28-.7-.42-1.05,.33,.11,.65,.23,.98,.35,.17-.37,.33-.75,.5-1.12,.09,.38,.18,.76,.28,1.14,.35-.1,.7-.2,1.05-.28-.21,.33-.42,.66-.63,1,.27,.25,.54,.5,.81,.75Z"/><path class="cls-2" d="M585.57,645.38c-.35-.05-.71-.1-1.06-.13-.01,.4-.03,.8-.04,1.2-.23-.33-.46-.66-.7-.98-.29,.22-.57,.44-.86,.66,.07-.39,.13-.78,.2-1.18-.34-.12-.69-.23-1.03-.33,.31-.19,.63-.38,.94-.55-.14-.37-.28-.75-.42-1.12,.33,.16,.65,.34,.98,.52,.17-.34,.33-.68,.5-1.02,.09,.4,.18,.79,.28,1.19,.35-.03,.7-.05,1.05-.06-.21,.28-.42,.57-.63,.87,.27,.3,.54,.61,.81,.93Z"/><path class="cls-2" d="M580.07,647.88c-.24,.04-.47,.07-.71,.12,0,.27-.02,.54-.03,.81-.15-.18-.31-.36-.47-.54-.19,.19-.38,.38-.57,.57,.04-.27,.09-.54,.13-.81-.23-.03-.46-.06-.69-.09,.21-.16,.42-.33,.63-.49-.09-.23-.19-.46-.28-.69,.22,.07,.43,.14,.65,.21,.11-.25,.22-.51,.33-.76,.06,.25,.12,.5,.19,.75,.23-.08,.47-.16,.7-.23-.14,.23-.28,.46-.42,.7,.18,.15,.36,.31,.54,.46Z"/><path class="cls-2" d="M583.4,653.29c-.39,0-.77,0-1.16,.02-.02,.44-.03,.87-.05,1.31-.25-.33-.51-.66-.76-.98-.31,.27-.62,.55-.94,.84,.07-.44,.14-.87,.21-1.31-.37-.09-.75-.16-1.12-.23,.34-.25,.68-.49,1.03-.72-.15-.39-.31-.78-.46-1.16,.35,.14,.71,.29,1.06,.44,.18-.4,.36-.79,.55-1.18,.1,.42,.2,.84,.3,1.26,.38-.08,.76-.16,1.14-.22-.23,.34-.46,.69-.69,1.04,.29,.29,.59,.59,.88,.89Z"/><polyline class="cls-2" points="554.98 648.83 562.85 644.9 569.72 639.48"/><polyline class="cls-2" points="554.98 638.61 562.85 644.9 569.72 648.83"/><polyline class="cls-2" points="554.98 643.72 562.85 644.9 570.71 643.72"/><line class="cls-2" x1="562.85" y1="640.37" x2="562.85" y2="649.43"/></g></g></g></g><path class="cls-2" d="M1949.38,831.66c-272.99,0-207.99-58.84-541.76-58.84-207.11,0-309.28,29.64-504.48,148.87,0,0-632.25-4.68-908.96,3.14"/><g><path class="cls-9" d="M1395.87,730.83c0,2.44-1.98,4.42-4.42,4.42s-4.42-1.98-4.42-4.42,1.98-4.42,4.42-4.42,4.42,1.98,4.42,4.42Z"/><path class="cls-9" d="M1419.74,738.27c0,2.62-2.13,4.75-4.75,4.75s-4.75-2.13-4.75-4.75,2.13-4.75,4.75-4.75,4.75,2.13,4.75,4.75Z"/><path class="cls-9" d="M1429.16,733.94c0,2.39-1.94,4.33-4.33,4.33s-4.33-1.94-4.33-4.33,1.94-4.33,4.33-4.33,4.33,1.94,4.33,4.33Z"/><path class="cls-9" d="M1401.21,740.64c0,1.71-1.39,3.1-3.1,3.1s-3.1-1.39-3.1-3.1,1.39-3.1,3.1-3.1,3.1,1.39,3.1,3.1Z"/><g><polyline class="cls-8" points="1397.35 746.8 1396.76 772.81 1400.74 772.81 1407.62 772.81 1411.59 772.81 1411.01 746.8"/><polygon class="cls-8" points="1407.89 608.32 1407.19 576.99 1401.17 576.99 1400.46 608.32 1407.89 608.32"/><polygon class="cls-8" points="1408.06 615.98 1407.97 611.96 1400.38 611.96 1400.29 615.98 1408.06 615.98"/><polygon class="cls-8" points="1409.03 658.96 1408.15 619.61 1400.21 619.61 1399.32 658.96 1409.03 658.96"/><polygon class="cls-8" points="1409.26 669.31 1409.11 662.59 1399.24 662.59 1399.09 669.31 1409.26 669.31"/><polygon class="cls-8" points="1409.58 683.57 1409.35 672.94 1399.01 672.95 1398.77 683.57 1409.58 683.57"/><polygon class="cls-8" points="1410.48 723.3 1410.24 712.79 1398.11 712.79 1397.88 723.3 1410.48 723.3"/></g><rect class="cls-6" x="1395.85" y="660.96" width="22.66" height="3.64"/><rect class="cls-6" x="1393.05" y="671.31" width="28.25" height="3.64"/><path class="cls-6" d="M1407.18,708.8h-20.64s8.49,2.42,14.58,5.99h12.13c6.09-3.58,14.58-5.99,14.58-5.99h-20.64Z"/><g><polygon class="cls-6" points="1429.1 696.21 1385.25 696.21 1385.65 700.12 1428.7 700.12 1429.1 696.21"/><polygon class="cls-6" points="1429.42 693.12 1384.94 693.12 1385.25 696.21 1429.1 696.21 1429.42 693.12"/><polygon class="cls-6" points="1428.7 700.12 1385.65 700.12 1385.96 703.2 1428.39 703.2 1428.7 700.12"/><polygon class="cls-6" points="1385.96 703.2 1386.22 705.72 1428.13 705.72 1428.39 703.2 1385.96 703.2"/><polygon class="cls-6" points="1386.53 708.8 1427.82 708.8 1428.13 705.72 1386.22 705.72 1386.53 708.8"/></g></g><g><g><polygon class="cls-2" points="1401.59 558.1 1406.76 558.1 1406.51 546.77 1401.85 546.77 1401.59 558.1"/><polygon class="cls-2" points="1401.85 546.77 1406.51 546.77 1406.25 535.45 1402.1 535.45 1401.85 546.77"/><polygon class="cls-2" points="1402.1 535.45 1406.25 535.45 1406 524.12 1402.36 524.12 1402.1 535.45"/><polygon class="cls-2" points="1401.25 573.35 1402.82 573.35 1405.54 573.35 1407.11 573.35 1406.76 558.1 1401.59 558.1 1401.25 573.35"/><polygon class="cls-2" points="1403.12 490.13 1402.87 501.46 1405.49 501.46 1405.23 490.13 1403.12 490.13"/><polygon class="cls-2" points="1404.98 478.8 1403.38 478.8 1403.12 490.13 1405.23 490.13 1404.98 478.8"/><polygon class="cls-2" points="1402.61 512.79 1405.74 512.79 1405.49 501.46 1402.87 501.46 1402.61 512.79"/><polygon class="cls-2" points="1404.82 471.52 1404.47 471.52 1403.88 471.52 1403.54 471.52 1403.38 478.8 1404.98 478.8 1404.82 471.52"/><polygon class="cls-2" points="1402.36 524.12 1406 524.12 1405.74 512.79 1402.61 512.79 1402.36 524.12"/><polyline class="cls-2" points="1397.35 746.8 1396.76 772.81 1400.74 772.81 1407.62 772.81 1411.59 772.81 1411.01 746.8"/><line class="cls-2" x1="1398.11" y1="712.79" x2="1397.88" y2="723.3"/><line class="cls-2" x1="1399.01" y1="672.95" x2="1398.77" y2="683.57"/><line class="cls-2" x1="1399.24" y1="662.59" x2="1399.09" y2="669.31"/><line class="cls-2" x1="1400.21" y1="619.61" x2="1399.32" y2="658.96"/><line class="cls-2" x1="1400.38" y1="611.96" x2="1400.29" y2="615.98"/><line class="cls-2" x1="1401.17" y1="576.99" x2="1400.46" y2="608.32"/><polyline class="cls-2" points="1407.11 573.35 1405.54 573.35 1402.82 573.35 1401.25 573.35"/><line class="cls-2" x1="1407.89" y1="608.32" x2="1407.19" y2="576.99"/><line class="cls-2" x1="1408.06" y1="615.98" x2="1407.97" y2="611.96"/><line class="cls-2" x1="1409.03" y1="658.96" x2="1408.15" y2="619.61"/><line class="cls-2" x1="1409.26" y1="669.31" x2="1409.11" y2="662.59"/><line class="cls-2" x1="1409.58" y1="683.57" x2="1409.35" y2="672.94"/><line class="cls-2" x1="1410.48" y1="723.3" x2="1410.24" y2="712.79"/></g><rect class="cls-2" x="1396.76" y="573.35" width="14.83" height="3.64"/><rect class="cls-2" x="1396.76" y="608.32" width="14.83" height="3.64"/><rect class="cls-2" x="1396.76" y="615.98" width="14.83" height="3.64"/><rect class="cls-2" x="1392.85" y="658.96" width="22.66" height="3.64"/><rect class="cls-2" x="1390.05" y="669.31" width="28.25" height="3.64"/><rect class="cls-2" x="1390.05" y="683.57" width="28.25" height="3.64"/><rect class="cls-2" x="1390.05" y="687.23" width="28.25" height="3.86"/><rect class="cls-2" x="1378.02" y="723.3" width="52.31" height="4.2"/><rect class="cls-2" x="1378.02" y="742.6" width="52.31" height="4.2"/><rect class="cls-2" x="1381.38" y="727.49" width="45.6" height="15.11"/><path class="cls-2" d="M1404.18,706.8h-20.64s8.49,2.42,14.58,5.99h12.13c6.09-3.58,14.58-5.99,14.58-5.99h-20.64Z"/><g><polygon class="cls-2" points="1426.1 694.21 1382.25 694.21 1382.65 698.12 1425.7 698.12 1426.1 694.21"/><polygon class="cls-2" points="1426.42 691.12 1381.94 691.12 1382.25 694.21 1426.1 694.21 1426.42 691.12"/><polygon class="cls-2" points="1425.7 698.12 1382.65 698.12 1382.96 701.2 1425.39 701.2 1425.7 698.12"/><polygon class="cls-2" points="1382.96 701.2 1383.22 703.72 1425.13 703.72 1425.39 701.2 1382.96 701.2"/><polygon class="cls-2" points="1383.53 706.8 1424.82 706.8 1425.13 703.72 1383.22 703.72 1383.53 706.8"/></g><line class="cls-2" x1="1408.69" y1="737.57" x2="1399.19" y2="737.57"/><polyline class="cls-2" points="1426.98 732.53 1426.98 737.57 1416.58 737.57"/><line class="cls-2" x1="1393.05" y1="732.53" x2="1419.58" y2="732.53"/><polyline class="cls-2" points="1395.11 737.57 1381.94 737.57 1381.94 732.53 1385.91 732.53"/><path class="cls-2" d="M1393.27,731.27c0,2.09-1.69,3.78-3.78,3.78s-3.78-1.69-3.78-3.78,1.69-3.78,3.78-3.78,3.78,1.69,3.78,3.78Z"/><path class="cls-2" d="M1416.67,736.59c0,2.24-1.82,4.05-4.05,4.05s-4.05-1.81-4.05-4.05,1.82-4.05,4.05-4.05,4.05,1.82,4.05,4.05Z"/><path class="cls-2" d="M1426.98,732.45c0,2.04-1.66,3.7-3.7,3.7s-3.7-1.66-3.7-3.7,1.66-3.7,3.7-3.7,3.7,1.66,3.7,3.7Z"/><path class="cls-2" d="M1399.79,739.23c0,1.46-1.18,2.64-2.64,2.64s-2.64-1.18-2.64-2.64,1.18-2.64,2.64-2.64,2.64,1.18,2.64,2.64Z"/></g><g><line class="cls-5" x1="1323.19" y1="1013.68" x2="1647.8" y2="1013.68"/><line class="cls-3" x1="1569" y1="1045.93" x2="639.21" y2="1045.93"/><line class="cls-3" x1="1569" y1="981.42" x2="639.21" y2="981.42"/><line class="cls-5" x1="564.04" y1="1010.72" x2="938.65" y2="1010.72"/></g><g><path class="cls-8" d="M1248.07,935.9l24.7-16.41s.08-.03,.1-.03,.06,0,.1,.03l24.7,16.41h27.13l-8.78-29.15h-90.09l-8.78,29.15h30.92Z"/><path class="cls-9" d="M1350.74,894.49l44.31-29.25s.07-.03,.1-.03,.06,0,.1,.03l44.31,29.25h-7.87l-36.45-24.06s-.06-.02-.08-.02-.05,0-.08,.02l-36.45,24.06h-7.87Z"/><polyline class="cls-8" points="1118.35 864.13 1066.15 864.13 1040.44 893.92 1080.72 893.92"/><path class="cls-9" d="M1170.51,890.31l-45.51-30.04s-.03-.02-.05-.02-.04,0-.05,.02l-45.51,30.04h8.95s36.57-24.14,36.57-24.14c.01,0,.03-.01,.04-.01s.03,0,.04,.01l36.57,24.14h8.95Z"/><rect class="cls-6" x="1135.57" y="913.57" width="12.69" height="10.97"/><rect class="cls-6" x="1230.24" y="945.03" width="11.72" height="17.47" rx=".14" ry=".14"/><rect class="cls-6" x="1301.5" y="945.03" width="11.72" height="17.47" rx=".15" ry=".15"/><rect class="cls-6" x="1372" y="902.46" width="11.79" height="11.79" rx=".15" ry=".15"/><rect class="cls-6" x="1398.31" y="945.55" width="20.35" height="15.32" rx=".15" ry=".15"/><rect class="cls-6" x="1406.75" y="902.46" width="11.79" height="11.79" rx=".15" ry=".15"/><rect class="cls-6" x="1135.57" y="903.32" width="12.69" height="10.25"/><rect class="cls-6" x="1118.47" y="913.57" width="12.69" height="10.97"/><rect class="cls-6" x="1118.47" y="903.32" width="12.69" height="10.25"/><rect class="cls-6" x="1101.79" y="913.57" width="12.69" height="10.97"/><rect class="cls-6" x="1101.79" y="903.32" width="12.69" height="10.25"/><rect class="cls-6" x="1135.57" y="946.46" width="12.69" height="10.97"/><rect class="cls-6" x="1135.57" y="936.21" width="12.69" height="10.25"/><rect class="cls-6" x="1118.47" y="946.46" width="12.69" height="10.97"/><rect class="cls-6" x="1118.47" y="936.21" width="12.69" height="10.25"/><rect class="cls-6" x="1101.52" y="946.46" width="12.69" height="10.97"/><rect class="cls-6" x="1101.52" y="936.21" width="12.69" height="10.25"/><rect class="cls-6" x="1067.26" y="905.98" width="15.46" height="11.23"/><rect class="cls-6" x="1051.95" y="905.98" width="15.31" height="11.23"/><rect class="cls-6" x="1051.95" y="903.32" width="30.78" height="2.66"/><path class="cls-9" d="M1238.28,939.08l32.49-21.59s.08-.03,.1-.03,.06,0,.1,.03l32.49,21.59h-6.52l-25.99-17.27s-.06-.02-.08-.02-.05,0-.08,.02l-25.99,17.27h-6.52Z"/><polygon class="cls-8" points="1357.04 937.91 1435.38 937.91 1430.4 924.65 1362.01 924.65 1357.04 937.91"/></g><g><g><g><polyline class="cls-2" points="1296.73 933.9 1322.79 933.9 1314.01 904.76 1223.92 904.76 1215.14 933.9 1241 933.9"/><rect class="cls-2" x="1227.24" y="943.03" width="11.72" height="17.47" rx=".14" ry=".14"/><rect class="cls-2" x="1298.5" y="943.03" width="11.72" height="17.47" rx=".14" ry=".14"/><path class="cls-2" d="M1236.28,937.08l32.49-21.59s.08-.03,.1-.03,.06,0,.1,.03l32.49,21.59h-6.52l-25.99-17.27s-.06-.02-.08-.02-.05,0-.08,.02l-25.99,17.27h-6.52Z"/><polyline class="cls-2" points="1290.27 933.9 1290.27 975.61 1247.32 975.61 1247.32 933.9"/><polyline class="cls-2" points="1318.75 933.9 1318.75 975.61 1219.18 975.61 1219.18 933.9"/><g><path class="cls-2" d="M1268.97,928.24c-3.43,0-6.22,2.81-6.22,6.26s2.79,6.26,6.22,6.26,6.22-2.81,6.22-6.26-2.79-6.26-6.22-6.26Z"/><line class="cls-2" x1="1268.97" y1="928.24" x2="1268.97" y2="940.67"/><line class="cls-2" x1="1275.14" y1="934.45" x2="1262.79" y2="934.45"/></g><polyline class="cls-2" points="1260.89 975.61 1260.89 949.31 1276.7 949.31 1276.7 975.61"/></g><g><polygon class="cls-2" points="1218.71 952.74 1196.2 937.77 1173.68 952.74 1175.59 952.74 1196.2 939.04 1216.8 952.74 1218.71 952.74"/><polyline class="cls-2" points="1215.14 951.39 1215.14 975.61 1177.21 975.61 1177.21 951.39"/><line class="cls-2" x1="1183.53" y1="958.79" x2="1208.82" y2="958.79"/><line class="cls-2" x1="1183.53" y1="961.6" x2="1208.82" y2="961.6"/><line class="cls-2" x1="1183.53" y1="964.4" x2="1208.82" y2="964.4"/><line class="cls-2" x1="1183.53" y1="967.2" x2="1208.82" y2="967.2"/><line class="cls-2" x1="1183.53" y1="970.01" x2="1208.82" y2="970.01"/><line class="cls-2" x1="1183.53" y1="972.81" x2="1208.82" y2="972.81"/><polyline class="cls-2" points="1183.53 975.61 1183.53 955.99 1208.82 955.99 1208.82 975.61"/><g><path class="cls-2" d="M1196.27,945.76c-1.52,0-2.76,1.25-2.76,2.78s1.24,2.78,2.76,2.78,2.76-1.25,2.76-2.78-1.24-2.78-2.76-2.78Z"/><line class="cls-2" x1="1196.27" y1="945.76" x2="1196.27" y2="951.29"/><line class="cls-2" x1="1199.02" y1="948.53" x2="1193.53" y2="948.53"/></g></g><g><rect class="cls-2" x="1318.75" y="954.67" width="22.35" height="21.04"/><line class="cls-2" x1="1321.95" y1="975.72" x2="1321.95" y2="954.66"/><line class="cls-2" x1="1325.14" y1="975.72" x2="1325.14" y2="954.66"/><line class="cls-2" x1="1328.33" y1="975.72" x2="1328.33" y2="954.66"/><line class="cls-2" x1="1331.52" y1="975.72" x2="1331.52" y2="954.66"/><line class="cls-2" x1="1334.72" y1="975.72" x2="1334.72" y2="954.66"/><line class="cls-2" x1="1337.91" y1="975.72" x2="1337.91" y2="954.66"/></g></g><g><path class="cls-2" d="M1427.29,890.99v30.32c0,.08-.07,.15-.15,.15h-68.26c-.08,0-.15-.06-.15-.15v-30.14"/><rect class="cls-2" x="1370" y="899.46" width="11.79" height="11.79" rx=".15" ry=".15"/><line class="cls-2" x1="1369.93" y1="902.36" x2="1381.85" y2="902.36"/><rect class="cls-2" x="1396.31" y="942.55" width="20.35" height="15.32" rx=".15" ry=".15"/><path class="cls-2" d="M1374.54,875.25c-.08,0-.15-.07-.15-.15v-7.69h-9.33v14.04c0,.08-.07,.15-.15,.15"/><path class="cls-2" d="M1365.3,867.41c-1.15,0-2.08-.93-2.08-2.08s.93-2.12,2.08-2.12h8.66c1.15,0,2.08,.93,2.08,2.08s-.93,2.12-2.08,2.12h-8.66Z"/><path class="cls-2" d="M1348.74,892.49l44.31-29.25s.07-.03,.1-.03,.06,0,.1,.03l44.31,29.25h-7.87l-36.45-24.06s-.06-.02-.08-.02-.05,0-.08,.02l-36.45,24.06h-7.87Z"/><polyline class="cls-2" points="1427.29 934.72 1427.29 975.61 1358.75 975.61 1358.75 934.72"/><polygon class="cls-2" points="1353.85 934.72 1432.19 934.72 1427.21 921.45 1358.82 921.45 1353.85 934.72"/><g><path class="cls-2" d="M1393.01,878.33c-3.45,0-6.26,2.81-6.26,6.26s2.81,6.26,6.26,6.26,6.26-2.81,6.26-6.26-2.81-6.26-6.26-6.26Z"/><line class="cls-2" x1="1393.01" y1="878.33" x2="1393.01" y2="890.76"/><line class="cls-2" x1="1399.23" y1="884.54" x2="1386.8" y2="884.54"/></g><polyline class="cls-2" points="1370.39 975.61 1370.39 948.26 1385.87 948.26 1385.87 975.61"/><line class="cls-2" x1="1396.31" y1="945.7" x2="1416.66" y2="945.7"/><line class="cls-2" x1="1404.69" y1="902.36" x2="1416.6" y2="902.36"/><rect class="cls-2" x="1404.75" y="899.46" width="11.79" height="11.79" rx=".15" ry=".15"/></g><g><polygon class="cls-2" points="1088.92 886.6 1088.92 975.92 1157.26 975.92 1157.26 886.78 1122.96 864.13 1088.92 886.6"/><polyline class="cls-2" points="1117.11 862.07 1064.9 862.07 1039.2 891.85 1088.92 891.85"/><path class="cls-2" d="M1168.51,888.31l-45.51-30.04s-.03-.02-.05-.02-.04,0-.05,.02l-45.51,30.04h8.95s36.57-24.14,36.57-24.14c.01,0,.03-.01,.04-.01s.03,0,.04,.01l36.57,24.14h8.95Z"/><rect class="cls-2" x="1133.57" y="910.57" width="12.69" height="10.97"/><rect class="cls-2" x="1133.57" y="900.32" width="12.69" height="10.25"/><rect class="cls-2" x="1116.47" y="910.57" width="12.69" height="10.97"/><rect class="cls-2" x="1116.47" y="900.32" width="12.69" height="10.25"/><rect class="cls-2" x="1099.79" y="910.57" width="12.69" height="10.97"/><rect class="cls-2" x="1099.79" y="900.32" width="12.69" height="10.25"/><rect class="cls-2" x="1133.57" y="943.46" width="12.69" height="10.97"/><rect class="cls-2" x="1133.57" y="933.21" width="12.69" height="10.25"/><rect class="cls-2" x="1116.47" y="943.46" width="12.69" height="10.97"/><rect class="cls-2" x="1116.47" y="933.21" width="12.69" height="10.25"/><rect class="cls-2" x="1099.52" y="943.46" width="12.69" height="10.97"/><rect class="cls-2" x="1099.52" y="933.21" width="12.69" height="10.25"/><rect class="cls-2" x="1065.26" y="902.98" width="15.46" height="11.23"/><rect class="cls-2" x="1049.95" y="902.98" width="15.31" height="11.23"/><rect class="cls-2" x="1049.95" y="900.32" width="30.78" height="2.66"/><polygon class="cls-2" points="1075.6 975.92 1088.92 975.92 1088.92 891.85 1041.47 891.85 1041.47 975.92 1054.59 975.92 1075.6 975.92"/><rect class="cls-2" x="1054.69" y="941.42" width="20.65" height="34.51"/><line class="cls-2" x1="1123.17" y1="873.7" x2="1123.17" y2="886.57"/><line class="cls-2" x1="1129.6" y1="880.13" x2="1116.73" y2="880.13"/><circle class="cls-2" cx="1123.17" cy="880.13" r="6.44"/></g></g><g><g><path class="cls-3" d="M1690.55,909.8c0,20.84-11.65,37.73-26.03,37.73s-26.03-16.89-26.03-37.73,11.65-37.73,26.03-37.73,26.03,16.89,26.03,37.73Z"/><line class="cls-3" x1="1664.52" y1="918.37" x2="1664.52" y2="976.68"/></g><g><path class="cls-3" d="M1623.99,885.46c0,28.42-15.89,51.46-35.5,51.46s-35.5-23.04-35.5-51.46,15.89-51.46,35.5-51.46,35.5,23.04,35.5,51.46Z"/><line class="cls-3" x1="1588.49" y1="870.43" x2="1588.49" y2="976.68"/><line class="cls-3" x1="1588.49" y1="909.73" x2="1568.78" y2="886.99"/><line class="cls-3" x1="1576.03" y1="895.35" x2="1578.15" y2="876.99"/><line class="cls-3" x1="1588.49" y1="924.05" x2="1607.37" y2="901.49"/><line class="cls-3" x1="1600.48" y1="909.73" x2="1599.22" y2="897.16"/></g></g><g><path class="cls-3" d="M1275.65,488.79v14.35m0-91.69v15.14m-31.49,30.7h-14.35m91.69,0h-15.14m-8.44,22.27l10.15,10.15m-64.83-64.83l10.71,10.71m-.56,43.98l-10.15,10.15m64.83-64.83l-10.71,10.71m7.32,33.9l13.23,5.56m-84.53-35.51l13.96,5.86m16.11,40.92l-5.56,13.23m35.51-84.53l-5.86,13.96m17.23,16.33l13.28-5.46m-84.8,34.86l14-5.76m40.37,17.45l5.46,13.28m-34.86-84.8l5.76,14"/><path class="cls-3" d="M1275.65,479.57c-12.3,0-22.27-9.97-22.27-22.27s9.97-22.27,22.27-22.27,22.27,9.97,22.27,22.27-9.97,22.27-22.27,22.27"/></g><path class="cls-3" d="M244.3,624.77c-5.13,0-9.58,3.82-10.34,8.89l-.15,1.03-1.04,.05c-5.69,.25-10.15,4.91-10.15,10.61s4.77,10.63,10.62,10.63h26.15c5.86,0,10.63-4.77,10.63-10.63s-4.77-10.63-10.63-10.63c-1.04,0-2.08,.15-3.08,.45l-1.46,.44-.16-1.51c-.57-5.32-5.04-9.33-10.4-9.33Z"/><path class="cls-3" d="M375.42,698.69l-.16,1.51-1.46-.44c-1-.3-2.03-.45-3.08-.45-5.86,0-10.63,4.77-10.63,10.63s4.77,10.63,10.63,10.63h26.15c5.86,0,10.62-4.77,10.62-10.63s-4.46-10.36-10.15-10.61l-1.04-.05-.15-1.03c-.76-5.07-5.21-8.89-10.34-8.89s-9.83,4.01-10.4,9.33Z"/><g><g><rect x="1391.21" y="626.25" width="8.64" height="26.06"/><path d="M1386.89,650.37l-.72-.43c-4.63-2.8-9.62-4.55-14.72-5.16h0v-10.98h0c5.11-.62,10.09-2.37,14.72-5.16l.72-.43v22.18Z"/><rect x="1386.89" y="624.28" width="8.64" height="30" rx="4.32" ry="4.32"/><rect x="1369.18" y="632.75" width="3.76" height="13.04" rx="1.88" ry="1.88"/></g><g><g><rect x="464.17" y="822.99" width="8.64" height="26.06" transform="translate(1304.5 367.53) rotate(90)"/><path d="M457.39,827.37l.43-.72c2.8-4.63,4.55-9.62,5.16-14.72h0s10.98,0,10.98,0h0c.62,5.11,2.37,10.09,5.16,14.72l.43,.72h-22.18Z"/><rect x="464.17" y="816.69" width="8.64" height="30" rx="4.32" ry="4.32" transform="translate(1300.18 363.21) rotate(90)"/><rect x="466.61" y="805.03" width="3.76" height="13.04" rx="1.88" ry="1.88" transform="translate(1280.03 343.06) rotate(90)"/></g><path class="cls-1" d="M572.17,486.3h597.62c11.05,0,20,8.95,20,20v112.52c0,11.05,8.95,20,20,20h176.35"/><path class="cls-1" d="M503.17,486.3h-14.26c-11.05,0-20,8.95-20,20v311.75"/></g></g><g><g><rect x="1090.08" y="844.72" width="8.64" height="26.06" transform="translate(1952.15 -236.65) rotate(90)"/><path d="M1083.31,849.11l.43-.72c2.8-4.63,4.55-9.62,5.16-14.72h0s10.98,0,10.98,0h0c.62,5.11,2.37,10.09,5.16,14.72l.43,.72h-22.18Z"/><rect x="1090.08" y="838.43" width="8.64" height="30" rx="4.32" ry="4.32" transform="translate(1947.83 -240.97) rotate(90)"/><rect x="1092.52" y="826.76" width="3.76" height="13.04" rx="1.88" ry="1.88" transform="translate(1927.68 -261.12) rotate(90)"/></g><path class="cls-1" d="M549.25,486.3v95.64c0,11.05,8.95,20,20,20h505.15c11.05,0,20,8.95,20,20v231.49"/></g><g><circle class="cls-6" cx="551.9" cy="493.56" r="45.73"/><circle class="cls-4" cx="548.9" cy="489.56" r="45.73"/><polygon class="cls-7" points="548.55 529.33 574.17 487.3 557.25 487.3 557.25 455.78 557.25 455.78 531.63 497.81 548.55 497.81 548.55 529.33 548.55 529.33"/><polygon class="cls-2" points="544.55 526.33 570.17 484.3 553.25 484.3 553.25 452.78 553.25 452.78 527.63 494.81 544.55 494.81 544.55 526.33 544.55 526.33"/></g><line class="cls-1" x1="548.9" x2="548.9" y2="443.82"/></svg>