<?xml version="1.0" encoding="UTF-8"?><svg id="Layer_1" xmlns="http://www.w3.org/2000/svg" viewBox="0 0 501.1638588295 250"><defs><style>.cls-1{fill:#f9cd25;}.cls-2{fill:#1e00b2;}</style></defs><g><g><path class="cls-1" d="M197.238143533,82.8381882215h-65.6689988913c-.4899133114,0-.886971766-.3970584546-.886971766-.886971766s.3970584546-.886971766,.886971766-.886971766h65.6689988913c.4899133114,0,.886971766,.3970584546,.886971766,.886971766s-.3970584546,.886971766-.886971766,.886971766Z"/><path class="cls-1" d="M130.5676634347,77.536106606c-.3542689964,0-.6889622487-.2136008179-.8259924571-.5635388974-.6919072722-1.7656281718-1.7212795835-3.3394833465-3.0595328828-4.6779098825-.3463001094-.3463001094-.3463001094-.9079334035,.0001732367-1.2544067496,.3464733461-.3461268728,.9079334035-.3463001094,1.2544067496,.0001732367,1.5120096824,1.5121829191,2.6749474686,3.2902841313,3.4565913375,5.2849311849,.1787802466,.4561321601-.046080955,.9706450791-.5022131152,1.1494253257-.1061940806,.0415768015-.215679658,.0613257823-.3234328686,.0613257823Z"/><path class="cls-1" d="M130.5676634347,77.536106606c-.3542689964,0-.6891354854-.2137740546-.8261656938-.5637121341-.1786070099-.4561321602,.0464274284-.9708183158,.5025595885-1.1494253257l46.0305431606-18.0233702279c.4557856868-.1789534833,.9706450791,.0464274284,1.1494253257,.5025595885,.1786070099,.4561321602-.0464274284,.9708183158-.5025595885,1.1494253257l-46.0305431606,18.0233702279c-.1061940806,.0415768015-.215679658,.0611525456-.3232596319,.0611525456Z"/><path class="cls-1" d="M209.0485537185,123.0751773251c-.118667121,0-.2390666088-.0239066609-.3547887064-.0744917694l-78.6977825984-34.4103468421c-.4488562199-.1962771506-.6536219674-.7191054298-.4573448169-1.1679616497,.1962771506-.4490294566,.7191054298-.6539684408,1.1679616497-.4573448169l78.6977825984,34.4100003688c.4488562199,.1964503872,.6536219674,.7192786665,.4573448169,1.1683081231-.145692042,.3329608856-.4713769874,.5318365863-.8131729433,.5318365863Z"/><path class="cls-1" d="M131.5691446417,82.8381882215c-.4899133114,0-.886971766-.3970584546-.886971766-.886971766,0-1.7114050931-.3165034017-3.3864304849-.940501898-4.9786487469-.1787802466-.4559589235,.046080955-.9706450791,.5022131152-1.1494253257,.4559589235-.1780872999,.9706450791,.0459077184,1.1494253257,.5022131152,.705246496,1.7992360863,1.0628069892,3.6920199761,1.0628069892,5.6258609574,0,.4899133114-.3970584546,.886971766-.886971766,.886971766Z"/><path class="cls-1" d="M130.3507711201,88.664830483c-.118667121,0-.2394130822-.0239066609-.3553084164-.0746650061-.4486829832-.1964503872-.6531022574-.7196251399-.4566518702-1.1683081231,.7586033913-1.7325399672,1.1433620422-3.5730063817,1.1433620422-5.4706408984,0-.4899133114,.3970584546-.886971766,.886971766-.886971766s.886971766,.3970584546,.886971766,.886971766c0,2.1439770657-.4348240494,4.2240297991-1.292345581,6.1822971513-.1458652787,.3329608856-.4713769874,.5313168763-.8129997066,.5313168763Z"/><path class="cls-1" d="M127.3094280879,72.5545128357c-.2269400417,0-.4540533201-.0866183365-.6271167565-.2598550096-.3464733461-.3463001094-.3464733461-.9079334035,0-1.2542335129l25.8780942208-25.8780942208c.3461268728-.3464733461,.9081066401-.3464733461,1.2542335129,0,.3464733461,.3463001094,.3464733461,.9079334035,0,1.2542335129l-25.8780942208,25.8780942208c-.1730634364,.1732366731-.4001767148,.2598550096-.6271167564,.2598550096Z"/><path class="cls-1" d="M199.3805614687,165.1931702248c-.2269400417,0-.4540533201-.0866183365-.6271167565-.2598550096l-25.1194908295-25.1196640662c-.3464733461-.3464733461-.3464733461-.9077601668,0-1.2542335129,.3461268728-.3464733461,.9081066402-.3464733461,1.2542335129,0l25.1194908295,25.1196640662c.3464733461,.3464733461,.3464733461,.9077601668,0,1.2542335129-.1730634364,.1732366731-.4001767148,.2598550096-.6271167565,.2598550096Z"/><path class="cls-1" d="M145.8024429365,111.6148784559c-.2269400417,0-.4540533201-.0866183365-.6271167565-.2598550096l-18.4930148485-18.4930148485c-.3464733461-.3464733461-.3464733461-.9079334035,0-1.2542335129,.3461268728-.3464733461,.9081066401-.3464733461,1.2542335129,0l18.4930148485,18.4930148485c.3464733461,.3464733461,.3464733461,.9077601668,0,1.2542335129-.1730634364,.1732366731-.4001767148,.2598550096-.6271167565,.2598550096Z"/><path class="cls-1" d="M127.3094280879,72.5545128357c-.2269400417,0-.4540533201-.0866183365-.6271167565-.2598550096-1.2086722679-1.2084990312-2.6169131832-2.1696160933-4.1857444943-2.856499502-.4488562199-.1964503872-.6532754941-.7194519032-.4568251068-1.1681348864,.1962771506-.4485097465,.7191054299-.6539684408,1.1681348864-.4568251068,1.772384402,.7759270586,3.3632167707,1.8617745253,4.7286682277,3.2272259823,.3464733461,.3463001094,.3464733461,.9079334035,0,1.2542335129-.1730634364,.1732366731-.4001767148,.2598550096-.6271167564,.2598550096Z"/><path class="cls-1" d="M122.8517020169,69.5128233302c-.118667121,0-.2392398455-.0239066609-.3547887064-.0744917694-.4488562199-.1962771506-.6536219674-.7191054298-.4573448169-1.1679616497l11.8566643772-27.1165631965c.1961039139-.4488562199,.7187589565-.6541416775,1.1679616497-.4573448169,.4488562199,.1962771506,.6536219674,.7191054298,.4573448169,1.1679616497l-11.8566643772,27.1165631965c-.145692042,.3331341223-.4713769874,.5318365863-.8131729433,.5318365863Z"/><path class="cls-1" d="M127.3094280879,93.1218636074c-.2269400417,0-.4540533201-.0866183365-.6271167565-.2598550096-.3464733461-.3464733461-.3464733461-.9079334035,0-1.2542335129,1.2084990312-1.2086722679,2.1696160933-2.6169131832,2.856499502-4.1857444943,.1962771506-.4486829832,.7191054298-.6537952041,1.1681348864-.4568251068,.4488562199,.1964503872,.6532754941,.7194519032,.4568251068,1.1681348864-.7759270586,1.772384402-1.8617745253,3.3632167707-3.2272259823,4.7286682277-.1730634364,.1732366731-.4001767148,.2598550096-.6271167564,.2598550096Z"/><path class="cls-1" d="M117.0257527021,137.0401320134c-.4899133114,0-.886971766-.3970584546-.886971766-.886971766v-39.658725089c0-.4899133114,.3970584546-.886971766,.886971766-.886971766s.886971766,.3970584546,.886971766,.886971766v39.658725089c0,.4899133114-.3970584546,.886971766-.886971766,.886971766Z"/><path class="cls-1" d="M117.0257527021,168.6346899717c-.4899133114,0-.886971766-.3970584546-.886971766-.886971766v-28.5611838131c0-.4899133114,.3970584546-.886971766,.886971766-.886971766s.886971766,.3970584546,.886971766,.886971766v28.5611838131c0,.4899133114-.3970584546,.886971766-.886971766,.886971766Z"/><path class="cls-1" d="M103.6996948641,77.0118924334c-.118667121,0-.2392398455-.0239066609-.3547887064-.0744917694l-33.6472392973-14.7121244591c-.4488562199-.1962771506-.6536219674-.7191054298-.4573448169-1.1679616497,.1961039139-.4488562199,.7196251399-.6541416775,1.1679616497-.4573448169l33.6472392973,14.7121244591c.4488562199,.1962771506,.6536219674,.7191054298,.4573448169,1.1679616497-.145692042,.3331341223-.4713769874,.5318365863-.8131729433,.5318365863Z"/><path class="cls-1" d="M106.7420773162,72.5545128357c-.2269400417,0-.4540533201-.0866183365-.6271167565-.2598550096l-20.9912609106-20.9912609107c-.3464733461-.3463001094-.3464733461-.9079334035,0-1.2542335129,.3461268728-.3464733461,.9081066401-.3464733461,1.2542335129,0l20.9912609107,20.9912609107c.3464733461,.3463001094,.3464733461,.9079334035,0,1.2542335129-.1730634364,.1732366731-.4001767148,.2598550096-.6271167565,.2598550096Z"/><path class="cls-1" d="M106.7420773162,72.5545128357c-.2269400417,0-.4540533201-.0866183365-.6271167565-.2598550096-.3464733461-.3463001094-.3464733461-.9079334035,0-1.2542335129,1.5120096824-1.5121829191,3.2901108946-2.675293942,5.2849311849-3.4569378108,.4559589235-.1775675899,.9708183158,.046080955,1.1494253257,.5022131152,.1787802466,.4561321602-.046080955,.9706450791-.5022131152,1.1494253257-1.7658014084,.6919072722-3.3396565831,1.7214528201-4.6779098825,3.0595328828-.1730634364,.1732366731-.4001767148,.2598550096-.6271167565,.2598550096Z"/><path class="cls-1" d="M111.7236710866,69.2964507256c-.3542689964,0-.6891354854-.2137740545-.8261656938-.5637121341l-9.5228199178-24.3206965301c-.1786070099-.4561321602,.0464274284-.9708183158,.5025595885-1.1494253257,.4559589235-.1786070099,.9706450791,.0462541917,1.1494253257,.5025595885l9.5228199178,24.3206965301c.1786070099,.4561321602-.0464274284,.9708183158-.5025595885,1.1494253257-.1061940806,.0415768015-.215679658,.0611525456-.3232596319,.0611525456Z"/><path class="cls-1" d="M102.4823607625,82.8381882215c-.4899133114,0-.886971766-.3970584546-.886971766-.886971766,0-2.1439770657,.4348240494-4.2240297991,1.292345581-6.1822971513,.1964503872-.4486829832,.7191054299-.6537952041,1.1683081231-.4566518702,.4486829832,.1964503872,.6531022574,.7196251399,.4566518702,1.1683081231-.7586033913,1.7325399672-1.1433620422,3.5730063817-1.1433620422,5.4706408984,0,.4899133114-.3970584546,.886971766-.886971766,.886971766Z"/><path class="cls-1" d="M103.4840152061,88.1406163104c-.3542689964,0-.6889622487-.2137740545-.8259924571-.5635388974-.7050732593-1.799409323-1.0626337525-3.6921932128-1.0626337525-5.6258609574,0-.4899133114,.3970584546-.886971766,.886971766-.886971766s.886971766,.3970584546,.886971766,.886971766c0,1.7112318564,.316330165,3.3862572482,.9403286613,4.9786487469,.1787802466,.4561321602-.046080955,.9706450791-.5022131152,1.1494253257-.1061940806,.0415768015-.215679658,.0613257823-.3234328686,.0613257823Z"/><path class="cls-1" d="M117.0257527021,68.294796282c-.4899133114,0-.886971766-.3970584546-.886971766-.886971766v-26.0757572648c0-.4899133114,.3970584546-.886971766,.886971766-.886971766s.886971766,.3970584546,.886971766,.886971766v26.0757572648c0,.4899133114-.3970584546,.886971766-.886971766,.886971766Z"/><path class="cls-1" d="M122.3281807909,96.3804454275c-.3542689964,0-.6887890121-.2137740545-.8259924571-.5637121341-.1787802466-.4559589235,.046080955-.9704718424,.5022131152-1.149252089,1.7659746451-.6922537455,3.3398298198-1.7219725302,4.6779098825-3.0597061195,.3461268728-.3464733461,.9081066401-.3464733461,1.2542335129,0,.3464733461,.3463001094,.3464733461,.9077601668,0,1.2542335129-1.5116632091,1.5120096824-3.2897644213,2.674774232-5.2847579482,3.4567645741-.1063673173,.0419232749-.2158528946,.0616722556-.3236061053,.0616722556Z"/><path class="cls-1" d="M132.7805886963,123.0751773251c-.3542689964,0-.6891354854-.2141205279-.8261656938-.5640586075l-10.4524079054-26.6947318976c-.1786070099-.4559589235,.0464274284-.9704718425,.5025595885-1.149252089,.4559589235-.1787802466,.9708183158,.0464274284,1.1494253257,.5027328252l10.4524079054,26.6947318976c.1786070099,.4559589235-.0464274284,.9704718425-.5025595885,1.149252089-.1061940806,.0415768015-.2156796579,.0613257823-.3232596319,.0613257823Z"/><path class="cls-1" d="M117.0257527021,97.3814069244c-2.1444967757,0-4.2245495091-.4348240494-6.1822971513-1.2919991076-.4486829832-.1964503872-.6531022574-.7196251399-.4566518702-1.1683081231s.7189321932-.6531022574,1.1683081231-.4566518702c1.7320202572,.7584301546,3.5724866717,1.1430155688,5.4706408984,1.1430155688,.4899133114,0,.886971766,.3970584546,.886971766,.886971766s-.3970584546,.886971766-.886971766,.886971766Z"/><path class="cls-1" d="M117.0257527021,97.3814069244c-.4899133114,0-.886971766-.3970584546-.886971766-.886971766s.3970584546-.886971766,.886971766-.886971766c1.7119248031,0,3.3869501949-.316330165,4.9786487469-.939982188,.4556124501-.1791267199,.9708183158,.0457344817,1.1494253257,.5020398785,.1787802466,.4559589235-.046080955,.9708183158-.5022131152,1.149252089-1.7987163763,.7050732593-3.6915002661,1.0626337525-5.6258609574,1.0626337525Z"/><path class="cls-1" d="M106.7420773162,93.1218636074c-.2269400417,0-.4540533201-.0866183365-.6271167565-.2598550096-1.5121829191-1.5120096824-2.675293942-3.2901108946-3.4569378108-5.2849311849-.1787802466-.4561321602,.046080955-.9706450791,.5022131152-1.1494253257,.4556124501-.1777408266,.9708183158,.046080955,1.1494253257,.5022131152,.6919072722,1.7658014084,1.7214528201,3.3396565831,3.0595328828,4.6779098825,.3464733461,.3463001094,.3464733461,.9077601668,0,1.2542335129-.1730634364,.1732366731-.4001767148,.2598550096-.6271167565,.2598550096Z"/><path class="cls-1" d="M103.6996948641,77.0118924334c-.118667121,0-.2394130822-.0239066609-.3551351798-.0746650061-.4488562199-.1964503872-.6532754941-.7194519032-.4568251068-1.1681348864,.7759270586-1.772384402,1.8617745253-3.3632167707,3.2272259823-4.7286682277,.3461268728-.3464733461,.9081066402-.3464733461,1.2542335129,0,.3464733461,.3463001094,.3464733461,.9079334035,0,1.2542335129-1.2084990312,1.2086722679-2.1696160933,2.6169131832-2.856499502,4.1857444943-.145692042,.3329608856-.4713769874,.5314901129-.8129997066,.5314901129Z"/><path class="cls-1" d="M102.4823607625,82.8381882215H52.8148868879c-.4899133114,0-.886971766-.3970584546-.886971766-.886971766s.3970584546-.886971766,.886971766-.886971766h49.6674738747c.4899133114,0,.886971766,.3970584546,.886971766,.886971766s-.3970584546,.886971766-.886971766,.886971766Z"/><path class="cls-1" d="M111.1987639672,96.1642460595c-.1188403577,0-.2394130822-.0242531342-.3553084164-.0748382428-1.7722111653-.7761002953-3.3632167707-1.861947762-4.728494991-3.227399219-.3464733461-.3464733461-.3464733461-.9079334035,0-1.2542335129,.3461268728-.3464733461,.9081066402-.3464733461,1.2542335129,0,1.2084990312,1.2084990312,2.6169131832,2.1696160933,4.185917731,2.8566727387,.4486829832,.1964503872,.6531022574,.7196251399,.4566518702,1.1683081231-.1458652787,.3329608856-.4713769874,.5314901129-.8129997066,.5314901129Z"/><path class="cls-1" d="M42.0730005018,112.186559477c-.3542689964,0-.6891354854-.2141205279-.8261656938-.5640586075-.1786070099-.4559589235,.0464274284-.9704718425,.5025595885-1.149252089l61.4110147043-24.0457699299c.4557856868-.1789534833,.9706450791,.0464274284,1.1494253257,.5025595885,.1786070099,.4561321602-.0464274284,.9708183158-.5025595885,1.1494253257l-61.4110147043,24.0457699299c-.1061940806,.0415768015-.215679658,.0613257823-.3232596319,.0613257823Z"/><path class="cls-1" d="M76.937920374,174.520232702c-.118667121,0-.2392398455-.0239066609-.3547887064-.0744917694-.4488562199-.1964503872-.6536219674-.7192786665-.4573448169-1.1683081231l9.3681195688-21.42556525c.1961039139-.4486829832,.7194519032-.6541416775,1.1679616497-.4573448169,.4488562199,.1964503872,.6536219674,.7192786665,.4573448169,1.1683081231l-9.3681195688,21.42556525c-.145692042,.3329608856-.4713769874,.5318365863-.8131729433,.5318365863Z"/><path class="cls-1" d="M102.2814062218,116.5583601582c-.118667121,0-.2390666088-.0239066609-.3547887064-.0744917694-.4488562199-.1964503872-.6536219674-.7192786665-.4573448169-1.1683081231l8.9173577455-20.3941140986c.1961039139-.4486829832,.7185857198-.6537952041,1.1679616497-.4573448169,.4488562199,.1964503872,.6536219674,.7192786665,.4573448169,1.1683081231l-8.9173577455,20.3941140986c-.145692042,.3329608856-.4713769874,.5318365863-.8131729433,.5318365863Z"/><path class="cls-1" d="M45.7884074288,154.0755334948c-.2269400417,0-.4540533201-.0866183365-.6271167565-.2598550096-.3464733461-.3464733461-.3464733461-.9077601668,0-1.2542335129l25.0434399301-25.0434399301c.3461268728-.3464733461,.9081066401-.3464733461,1.2542335129,0,.3464733461,.3464733461,.3464733461,.9077601668,0,1.2542335129l-25.0434399301,25.0434399301c-.1730634364,.1732366731-.4001767148,.2598550096-.6271167565,.2598550096Z"/><path class="cls-1" d="M93.8331733869,106.0307675367c-.2269400417,0-.4540533201-.0866183365-.6271167565-.2598550096-.3464733461-.3464733461-.3464733461-.9077601668,0-1.2542335129l12.9089039293-12.9089039293c.3461268728-.3464733461,.9081066402-.3464733461,1.2542335129,0,.3464733461,.3463001094,.3464733461,.9077601668,0,1.2542335129l-12.9089039293,12.9089039293c-.1730634364,.1732366731-.4001767148,.2598550096-.6271167565,.2598550096Z"/><path class="cls-1" d="M122.8517020169,69.5128233302c-.118667121,0-.2394130822-.0239066609-.3553084164-.0746650061-1.7325399672-.7586033913-3.5730063817-1.1433620422-5.4706408984-1.1433620422-.4899133114,0-.886971766-.3970584546-.886971766-.886971766s.3970584546-.886971766,.886971766-.886971766c2.1439770657,0,4.2240297991,.4348240494,6.1822971513,1.292345581,.4486829832,.1964503872,.6531022574,.7196251399,.4566518702,1.1683081231-.1458652787,.3329608856-.4713769874,.5313168763-.8129997066,.5313168763Z"/><path class="cls-1" d="M111.7236710866,69.2964507256c-.3542689964,0-.6889622487-.2137740545-.8259924571-.5635388974-.1787802466-.4561321601,.046080955-.9706450791,.5022131152-1.1494253257,1.799409323-.7050732593,3.6921932128-1.0626337525,5.6258609574-1.0626337525,.4899133114,0,.886971766,.3970584546,.886971766,.886971766s-.3970584546,.886971766-.886971766,.886971766c-1.7112318564,0-3.3862572482,.316330165-4.9786487469,.9403286613-.1061940806,.0415768015-.215679658,.0613257823-.3234328686,.0613257823Z"/><path class="cls-1" d="M42.0738666852,112.1862130036c-.0478133218,0-.0961463535-.0038112068-.1448258587-.0117800938-.4833303178-.0793423963-.8109208666-.5356477931-.7314052336-1.0189781109,1.727862577-10.5210096279,5.3803845917-20.4997884692,10.8558761169-29.6593310836,.2515396493-.4202721688,.7961957494-.5573023772,1.2164679182-.306282438,.4204454055,.2513664126,.5576488506,.7960225127,.306282438,1.2164679182-5.360635611,8.967423144-8.9365870162,18.7367588475-10.6282431286,29.0367184806-.0713735093,.4348240494-.4474703265,.7431853274-.8741522522,.7431853274Z"/><path class="cls-1" d="M45.7884074288,154.0758799682c-.3648364335,0-.7066323894-.2269400417-.8356937108-.5903905818-3.2438567029-9.1254149898-4.8887389136-18.7005523829-4.8887389136-28.458974176,0-4.6247262239,.3814671541-9.2917221959,1.1336607885-13.8710604115,.0795156329-.4836767912,.5356477931-.8097082099,1.0189781109-.7314052336,.4833303178,.0793423963,.8109208666,.5356477931,.7314052336,1.0189781109-.7366023338,4.4844045187-1.1101006009,9.0547344272-1.1101006009,13.5834875342,0,9.5553884123,1.6104081127,18.9306106847,4.7861828031,27.8651188608,.1640551294,.461502497-.0770903195,.9687394757-.5385928165,1.1326213684-.0982251936,.034993808-.1985292273,.0516245286-.2971008943,.0516245286Z"/><path class="cls-1" d="M70.0533217501,62.2995947376c-.2485946258,0-.4958033583-.1039420038-.6711188714-.306802148-.3204878452-.370380007-.2799504637-.9306274076,.09060278-1.2509420161,4.8483747688-4.1937133813,10.1856234289-7.8439833192,15.8631089149-10.84946636,.432918446-.2284991718,.9696056591-.0639243324,1.1987977775,.3689941136s.064097569,.9696056591-.3689941136,1.1987977775c-5.5591648383,2.9429446018-10.7851955543,6.5171636403-15.5325733427,10.623219265-.1676930995,.145172332-.3741912138,.216199368-.5798231447,.216199368Z"/><path class="cls-1" d="M182.9882145176,186.815185862c-.2343892186,0-.4682587273-.0921619101-.6425348204-.2754463102-.3378115125-.3547887064-.3239525786-.9160755271,.0308361278-1.2538870396,8.0787190112-7.6910153369,14.4337331255-16.7485215509,18.8885141731-26.9206325193,4.6115602367-10.5300179349,6.9499088496-21.7467460418,6.9499088496-33.3387047826,0-.8426231777-.0166307206-1.7354849907-.0523174753-2.8092058903-.0162842473-.4895668381,.3674349836-.8997912798,.8570018216-.9160755271,.4923386248-.0117800938,.8996180432,.3676082202,.9159022904,.8571750583,.0363797013,1.0938163537,.0533568953,2.0053877273,.0533568953,2.8681063591,0,11.8383012898-2.3884140114,23.2944424789-7.0988923884,34.0503610355-4.5498879811,10.3890032831-11.0400267004,19.6394951508-19.2904232546,27.4936994337-.171677543,.1635354194-.3916881178,.2446101824-.6113522192,.2446101824Z"/><path class="cls-1" d="M176.5973404119,59.5125631415c-.190213867,0-.3819868641-.0609793089-.5437899167-.1867491336-7.0193767555-5.4595537513-14.8126017295-9.7326095289-23.1631290807-12.7006734483-.461502497-.1640551294-.7026479459-.6711188714-.5385928165-1.1327946051,.1638818927-.4613292603,.6711188714-.7031676559,1.1327946051-.5385928165,8.5291343611,3.0314685418,16.488839778,7.395820046,23.657893019,12.971615605,.3866642543,.3009121011,.4564786335,.8580412416,.1557397691,1.2447054959-.1749690398,.2248612016-.4365564161,.3424889026-.7009155792,.3424889026Z"/><path class="cls-1" d="M153.1875223088,46.6765918515c-.098571667,0-.1988757007-.0164574839-.2971008943-.0514512919-5.8935116173-2.0946046139-12.0446261674-3.5194762498-18.2825322908-4.2347704728-.4867950513-.0559554454-.8360401842-.4956301216-.7802579754-.9822519362,.0559554454-.4864485779,.4940709915-.8327486874,.9822519362-.7802579754,6.3714715983,.7307122869,12.6545924933,2.1860735773,18.6747401186,4.3258929628,.461502497,.1640551294,.7026479459,.6711188714,.5385928165,1.1327946051-.1290613214,.3632773034-.4708572774,.5900441084-.8356937108,.5900441084Z"/><path class="cls-1" d="M52.8140207045,82.8383614582c-.1548735857,0-.3116527748-.0405373815-.4542265567-.1257698246-.4204454055-.2513664126-.5576488506-.7960225127-.306282438-1.2164679182,4.6718465989-7.8148795581,10.5324432484-14.7977033756,17.4192939489-20.7542731419,.370380007-.3208343185,.9306274076-.2801237003,1.2509420161,.09060278,.3204878452,.370380007,.2799504637,.9306274076-.09060278,1.2509420161-6.743583972,5.8328787817-12.4823952402,12.6705302672-17.0568828289,20.322913826-.1661339695,.2778716236-.460463077,.4320522626-.7622413614,.4320522626Z"/><path class="cls-1" d="M102.2001582221,44.9757541955c-.3873572009,0-.7431853274-.2556973294-.8533638515-.6468657372-.1326992916-.4715502241,.1420540719-.9614635355,.613604296-1.094162827,4.8660449094-1.3692626638,9.9067123853-2.3066463017,14.9820271957-2.7856457027,.4867950513-.0490259785,.9202332073,.3118260115,.9663141623,.7996604828,.046080955,.4876612347-.3119992482,.9204064439-.7996604828,.9663141623-4.9694672032,.4691249106-9.9044603085,1.3867595678-14.6681223442,2.7274381806-.0803818163,.0225207675-.1612833426,.0332614412-.2407989755,.0332614412Z"/><path class="cls-1" d="M197.2390097164,82.8383614582c-.3017782845,0-.596107392-.154180639-.7622413614-.4320522626-5.3344768734-8.9235942657-12.2059095101-16.689101372-20.4232178597-23.0806684244-.3866642543-.3007388644-.4564786335-.857868005-.1555665324-1.2445322592,.3003923911-.3868374909,.8576947683-.4564786335,1.2445322592-.1555665324,8.3917576794,6.5270381307,15.4090555948,14.4572933131,20.857002489,23.5705817358,.2513664126,.4204454055,.1141629675,.9651015056-.306282438,1.2164679182-.1425737819,.0852324431-.299352971,.1257698246-.4542265567,.1257698246Z"/><path class="cls-1" d="M134.7099255241,42.396086897c-.0336079146,0-.0677355392-.0019056034-.1020364004-.0057168102-3.1956969078-.3665688002-6.41928492-.5524517504-9.5813739133-.5524517504-2.6035739593,0-5.2674342809,.1269824814-7.9174356686,.3771362372-.4881809447,.0462541917-.9204064439-.3118260115-.9663141623-.7996604828-.046080955-.4876612346,.3118260115-.9202332073,.7996604828-.9663141623,2.7050906497-.2555240928,5.4250796534-.3851051242,8.0840893481-.3851051242,3.2294780591,0,6.5209748471,.189694157,9.7833678741,.5638853708,.4867950513,.0559554454,.8360401842,.4956301216,.7802579754,.9822519362-.0519710019,.45249419-.4355169961,.7859747856-.8802155358,.7859747856Z"/><path class="cls-1" d="M209.0485537185,123.0748308518c-.4762276142,0-.8699945721-.3780024206-.885932346-.8575215316-.4656601772-14.0356352508-4.5065788128-27.8020607118-11.6858530175-39.8110001246-.2513664126-.4204454055-.1141629675-.9651015056,.306282438-1.2164679182,.4207918788-.2510199393,.9651015056-.1139897309,1.2164679182,.306282438,7.3329351337,12.2663691089,11.4604721059,26.3272969141,11.9360067734,40.662285136,.0162842473,.4895668381-.3674349836,.8997912798-.8570018216,.9160755271-.010047727,.0003464733-.0200954541,.0003464733-.0299699444,.0003464733Z"/><path class="cls-1" d="M67.0646426666,186.815185862c-.2196641014,0-.4396746762-.081074763-.6113522192-.2446101824-9.6314393118-9.1690706314-17.0662376093-20.6096205199-21.5005767294-33.0850862932-.1640551294-.461502497,.0770903195-.9687394757,.5385928165-1.1326213684,.4613292603-.1649213127,.9689127124,.0769170828,1.1327946051,.5387660532,4.3416575001,12.2142248704,11.6214089752,23.4160546234,21.0522402196,32.3942184411,.3547887064,.3378115125,.3686476403,.8990983332,.0308361278,1.2538870396-.1742760931,.1832844001-.4081456017,.2754463102-.6425348204,.2754463102Z"/><path class="cls-1" d="M85.7515093523,51.5634251617c-.3180625317,0-.6253843897-.1715043063-.7845888923-.4722431707-.2291921184-.432918446-.0639243324-.9696056591,.3689941136-1.1987977775,5.2954986219-2.8031426067,10.8887910848-5.0430927893,16.624484093-6.6574853455,.4708572774-.1330457649,.9612902988,.1418808352,1.0939895903,.6134310593,.1328725282,.4715502241-.1418808352,.9612902988-.6134310593,1.0939895903-5.6147738104,1.5806114049-11.0906118089,3.7734412125-16.2752389601,6.517856587-.1321795815,.0699876159-.2742336534,.1032490571-.4142088853,.1032490571Z"/><path class="cls-1" d="M171.57261071,174.0788256591c-.4899133114,0-.886971766-.3970584546-.886971766-.886971766v-34.0053195005c0-.4899133114,.3970584546-.886971766,.886971766-.886971766h8.7934935242l-32.2149184845-28.4631318562-32.2150917212,28.4631318562h8.7934935242c.4899133114,0,.886971766,.3970584546,.886971766,.886971766v28.4932750373c0,.4899133114-.3970584546,.886971766-.886971766,.886971766s-.886971766-.3970584546-.886971766-.886971766v-27.6063032712h-10.2500674713c-.3688208769,0-.6990099758-.2279794617-.8294571906-.5730669145-.1306204515-.3447409794-.0341276246-.7345234938,.2421848689-.9784407294l34.5586374342-30.5336565725c.335386199-.2965811843,.8391584443-.2965811843,1.1745446433,0l34.5584641976,30.5336565725c.2763124935,.2439172357,.3728053204,.63369975,.2423581056,.9784407294-.1306204515,.3450874527-.4608095503,.5730669145-.8296304273,.5730669145h-10.2500674713v33.1183477345c0,.4899133114-.3970584546,.886971766-.886971766,.886971766Z"/><path class="cls-1" d="M144.3120878382,159.9042545964c-.0796888696,0-.1602439226-.0107406737-.2397595555-.0329149679-.3826798108-.1074067373-.6472122105-.4566518702-.6472122105-.8540567982v-15.5206200123h-7.9200342187c-.3206610818,0-.6163760827-.1732366731-.7733285085-.4528406634-.1571256625-.2796039903-.1508891422-.6219196563,.0159377739-.895980073l13.3397435352-21.8825635935c.2068445876-.3391974058,.6148169527-.4989216184,.9971502901-.3922078278,.3826798108,.1074067373,.6472122105,.4566518702,.6472122105,.8540567982l.0001732367,15.5209664856h7.919860982c.3206610818,0,.6163760827,.1732366731,.7733285085,.4528406634,.1571256625,.2796039903,.1508891422,.6219196563-.0159377739,.895980073l-13.3397435352,21.8822171202c-.1638818927,.2688633166-.4537068467,.4251227957-.7573907346,.4251227957Zm-7.2274339998-18.1815353104h7.2274339998c.4899133114,0,.886971766,.3970584546,.886971766,.886971766v13.2484478085l10.8731997842-17.8361013843h-7.2272607631c-.4899133114,0-.886971766-.3970584546-.886971766-.886971766v-13.2487942818l-10.8733730209,17.8364478577Z"/><path class="cls-1" d="M87.7187850115,171.9206431862c-.4899133114,0-.886971766-.3970584546-.886971766-.886971766v-17.9705330426c-9.347850878-.6610711444-16.8096740965-11.7198074055-16.8096740965-25.2187554432,0-13.9233778867,7.9387437794-25.250630991,17.6966458625-25.250630991,9.7575556098,0,17.6957796791,11.3272531043,17.6957796791,25.250630991,0,13.4989480377-7.4614767451,24.5576842988-16.8088079131,25.2187554432v17.9705330426c0,.4899133114-.3970584546,.886971766-.886971766,.886971766Zm0-67.5529477108c-8.7798078271,0-15.9227023304,10.5317503017-15.9227023304,23.476687459,0,12.5063019011,6.6666668891,22.7598341059,15.0357305644,23.4399612843v-5.1451291897c-.00051971-.0173236673-.00051971-.0343008613,0-.0512780552v-6.4211905234l-9.1139813694-10.5168519478c-.3208343185-.370380007-.280816647-.9306274076,.0893901233-1.2514617261,.3696870603-.3201413718,.9302809343-.2806434103,1.2511152528,.0893901233l7.7734759933,8.9701949307v-16.2308903718c0-.4899133114,.3970584546-.886971766,.886971766-.886971766s.886971766,.3970584546,.886971766,.886971766v22.945197346l7.3732992785-8.8073524581c.3145977983-.3755771072,.8739790156-.4251227957,1.2495561227-.1108714707,.3755771072,.3145977983,.4251227957,.8738057789,.1106982341,1.2493828861l-8.7335536354,10.4323124513v4.8485480054c8.3687172019-.6801271784,15.034864381-10.9336593831,15.034864381-23.4399612843,0-12.9449371573-7.14254803-23.476687459-15.9218361471-23.476687459Z"/><path class="cls-1" d="M189.4818179703,179.88987662c-.1112179441,0-.2243414916-.0211348741-.333827069-.0658299358-17.8471885314-7.2593095477-40.619322441-11.2572654884-64.1214756909-11.2572654884-23.5031926699,0-46.2753265796,3.9979559407-64.1214756909,11.2572654884-.4533603734,.1853632402-.9711647891-.0339543879-1.1558350826-.4871415246-.1844970568-.4538800834,.0336079146-.9715112625,.487487998-1.1558350826,18.0533401723-7.3438490441,41.0628083241-11.3882324132,64.7898227756-11.3882324132,23.7258017948,0,46.7354431832,4.0443833691,64.7898227756,11.3882324132,.4537068467,.1843238201,.6719850548,.7019549992,.487487998,1.1558350826-.1401484685,.3440480327-.4718966974,.5529714604-.8220080136,.5529714604Z"/></g><path class="cls-1" d="M209.9360251956,125c0,46.9088714242-38.0271537715,84.9360251956-84.9360251956,84.9360251956S40.0639748044,171.9088714242,40.0639748044,125,78.0911285758,40.0639748044,125,40.0639748044s84.9360251956,38.0271537715,84.9360251956,84.9360251956ZM125,41.7850611523c-45.9583416811,0-83.2149388477,37.2565971666-83.2149388477,83.2149388477s37.2565971666,83.2149388477,83.2149388477,83.2149388477,83.2149388477-37.2565971666,83.2149388477-83.2149388477S170.9583416811,41.7850611523,125,41.7850611523Z"/></g><g><path class="cls-2" d="M234.4273526807,105.0208979429h10.204527755c.1036676469,2.7972693886,1.7611786121,5.1798681895,5.1277415195,5.1798681895,2.9003513426,0,4.7136566247-1.7611786121,4.7136566247-4.1956112365,0-2.8488103656-2.3825988008-3.9882759426-6.9410468016-5.5939530843-7.4066726734-2.5899340947-11.6025767563-5.8531222016-11.6025767563-12.8457099802,0-7.3035907194,5.9564970021-12.1724559681,13.6747583093-12.1724559681,8.286969133,0,13.7257135934,5.3869106369,13.7778402633,13.5189639924l-9.5303952034-.051540977c-.1036676469-2.4862664478-1.4507613642-4.4547803538-4.2474450599-4.4547803538-2.3310578238,0-3.8333601651,1.4504685178-3.8333601651,3.3150219304,0,2.6417679182,2.6420607647,3.5223572243,5.8012883782,4.6099889777,7.2514640495,2.4344326243,13.4152963455,4.6099889777,13.4152963455,13.8299669332,0,8.4427634499-6.5779171908,13.4152963455-15.1764749576,13.4152963455-9.1678512856,0-15.3316835816-5.9046631787-15.3838102515-14.5550547689Z"/><path class="cls-2" d="M272.9665325466,102.6382991421v-26.4165077961h10.4628183329v26.779051714c0,3.5741910477,1.2434260704,6.4748352368,5.2835358364,6.4748352368s5.2829501435-2.9006441891,5.2829501435-6.4748352368v-26.779051714h10.4634040259v26.4165077961c0,10.307609709-6.0086236721,16.9376535698-15.7463541693,16.9376535698-9.7383161902,0-15.7463541693-6.6815848378-15.7463541693-16.9376535698Z"/><path class="cls-2" d="M314.7164810031,76.221791346h11.8614530272c10.152401085,0,15.1764749576,3.7812334952,15.1764749576,11.6544105798,0,3.6775658482-1.6053842953,6.4227085669-3.9364421191,7.9250109081,3.7296925181,1.5538433183,5.9049560251,5.1277415195,5.9049560251,9.4270204029,0,8.4430562964-5.3866177904,13.6744654628-16.9891945468,13.6744654628h-12.0172473441v-42.6809073537Zm12.0687883211,16.7824449458c3.2634809534,0,5.2314091665-1.0360907765,5.2314091665-3.8849011421,0-3.107979483-1.9163872361-4.0919435895-5.2314091665-4.0919435895h-2.2789311539v7.9768447316h2.2789311539Zm-.3625439178,16.4196081815c4.4541946609,0,6.7337115077-1.0360907765,6.7337115077-4.4029465303,0-3.3150219304-2.2795168468-4.5578623078-6.3711675899-4.5578623078h-2.2789311539v8.9608088381h1.9163872361Z"/><path class="cls-2" d="M351.4423555869,102.6382991421v-26.4165077961h10.4628183329v26.779051714c0,3.5741910477,1.2434260704,6.4748352368,5.2835358364,6.4748352368s5.2829501435-2.9006441891,5.2829501435-6.4748352368v-26.779051714h10.4634040258v26.4165077961c0,10.307609709-6.0086236721,16.9376535698-15.7463541693,16.9376535698-9.7383161902,0-15.7463541693-6.6815848378-15.7463541693-16.9376535698Z"/><path class="cls-2" d="M412.1500124962,118.9026986997l-3.5738982013-8.6500987438c-.9839641065,.1555014704-2.072181553,.2070424474-3.2113542834,.2070424474h-1.7611786121v8.4948901198h-10.4112773559v-42.7327411772h10.6701536268c14.0888432041,0,19.3202523706,8.2357210025,19.3202523706,17.0931550402,0,5.024366719-1.7090519422,9.8413981442-5.4387444603,13.0527524277l6.4748352368,12.5349998859h-12.0687883211Zm-6.4748352368-18.5951645349c4.8173242716,0,7.3035907194-3.004311836,7.3035907194-6.9925877786,0-4.0404026125-2.5378074248-6.9407539551-7.3035907194-6.9407539551h-2.07159586v13.9333417337h2.07159586Z"/><path class="cls-2" d="M432.0934421343,76.221791346h11.8614530272c10.152401085,0,15.1764749576,3.7812334952,15.1764749576,11.6544105798,0,3.6775658482-1.6053842953,6.4227085669-3.9364421191,7.9250109081,3.7296925181,1.5538433183,5.9049560251,5.1277415195,5.9049560251,9.4270204029,0,8.4430562964-5.3872034833,13.6744654628-16.9897802397,13.6744654628h-12.0166616512v-42.6809073537Zm12.0687883211,16.7824449458c3.2628952605,0,5.2314091665-1.0360907765,5.2314091665-3.8849011421,0-3.107979483-1.9163872361-4.0919435895-5.2314091665-4.0919435895h-2.2789311539v7.9768447316h2.2789311539Zm-.3625439178,16.4196081815c4.4547803538,0,6.7337115077-1.0360907765,6.7337115077-4.4029465303,0-3.3150219304-2.2789311539-4.5578623078-6.3711675899-4.5578623078h-2.2789311539v8.9608088381h1.9163872361Z"/><path class="cls-2" d="M249.3449513674,141.7953850392h-13.7257135934v-9.6861895203h28.799106597l-15.4874778984,32.891343033h15.3838102515v9.6861895203h-30.4050765852l15.4353512285-32.891343033Z"/><path class="cls-2" d="M272.8107382297,132.109195519h24.3449119361v9.7898571672h-13.9336345802v7.3551316964h12.7423351798v7.7698022842h-12.7423351798v7.7692165913h13.9336345802v9.8935248141h-24.3449119361v-42.5775325532Z"/><path class="cls-2" d="M325.7485928548,174.6867280722l-3.5738982013-8.6500987438c-.9839641065,.1552086239-2.072181553,.2073352939-3.2113542834,.2073352939h-1.7611786121v8.4943044269h-10.4112773559v-42.7321554842h10.6701536268c14.0888432041,0,19.3202523706,8.235428156,19.3202523706,17.0928621937,0,5.0240738726-1.7090519422,9.8413981442-5.4387444603,13.0527524277l6.4748352368,12.5349998859h-12.0687883211Zm-6.4748352368-18.5951645349c4.8173242716,0,7.3035907194-3.0040189896,7.3035907194-6.9925877786,0-4.040109766-2.5378074248-6.9410468016-7.3035907194-6.9410468016h-2.07159586v13.9336345802h2.07159586Z"/><path class="cls-2" d="M366.3581971949,175.4639425778c-12.8975438037,0-22.1690627362-10.307609709-22.1690627362-22.1696484291,0-11.8093263573,9.2715189325-22.1175217592,22.1690627362-22.1175217592,12.8460028267,0,22.1175217592,10.3081954019,22.1175217592,22.1175217592,0,11.8620387202-9.2715189325,22.1696484291-22.1175217592,22.1696484291Zm0-33.8237661625c-6.7852524847,0-11.7056587104,5.2835358364-11.7056587104,11.6541177334,0,6.3711675899,4.9204062256,11.7062444033,11.7056587104,11.7062444033,6.7337115077,0,11.6547034263-5.3350768134,11.6547034263-11.7062444033,0-6.370581897-4.9209919186-11.6541177334-11.6547034263-11.6541177334Z"/></g></svg>