<?xml version="1.0" encoding="UTF-8"?><svg id="Layer_1" xmlns="http://www.w3.org/2000/svg" viewBox="0 0 250 250"><defs><style>.cls-1{fill:#f9cd25;}.cls-2{fill:#fff;}</style></defs><path class="cls-2" d="M70.6968396513,185.1399854048l2.0071382945,1.7514378567c-.4597185473,.5679972616-.5427491733,1.3210342038,.1194624312,1.8991984808,.5705390154,.4978448552,1.229531065,.4625992017,1.6473953988-.0162672247,.4888639915-.5605414502,.2158796275-1.1936076105-.4051555646-2.291645276-1.0122958355-1.7809222014-1.2774854877-3.1429633674-.0770998669-4.5182216534,1.2535930015-1.4365992791,3.2609007463-1.3718692809,4.779005599-.0471071715,1.6301114726,1.4223654575,1.7751608926,3.4154393807,.3895661409,5.0242001209l-1.8658167801-1.6463786973c.4063417164-.5066562685,.4793747771-1.1251497067-.0708302074-1.6050328346-.4583629453-.4002415071-1.0028066211-.3727905655-1.3228981566-.0061002093-.4534488878,.5198733886-.0848945788,1.1465004391,.3497453305,1.9025874859,1.0085679298,1.7236480145,1.8475161524,3.2093878681,.265020202,5.0231834194-1.4493080484,1.6606125189-3.5967511557,1.5094628896-5.2878647208,.0335511509-1.8034590856-1.5735150868-2.0022242371-3.7929745533-.5276681004-5.5034054478Zm9.2036907105,6.8759525297l3.7187553407-5.8087548109,2.3007955899,1.4728616341-3.7697598681,5.8887353323c-.5032672634,.7859102921-.638149668,1.5985937248,.2502780296,2.1676076879,.8884276976,.5686750626,1.5701260816,.1057369604,2.0732238947-.6801733317l3.7697598681-5.8887353323,2.3009650402,1.4728616341-3.7187553407,5.8090937115c-1.4511720012,2.266566638-3.705707671,2.8786209664-5.847050569,1.5081072876-2.1413428981-1.3708525794-2.5220976256-3.6862208914-1.0782119855-5.9416038125Zm13.3425132384,.036940156l2.8291414913,1.2586765092c2.4214441729,1.0773647342,3.218538182,2.5122695107,2.3829789646,4.3901172591-.3902439419,.8770745304-1.0644865147,1.361363365-1.7799054998,1.4721838331,.7245692991,.7665929628,.8641963108,1.8497190057,.4080362189,2.8752319613-.8958835089,2.0137468545-2.73594385,2.6898533801-5.5032359975,1.4586278125l-2.8660816474-1.2752826344,4.5290664699-10.1795547407Zm-.7311778591,9.161158696c1.0624531116,.4724273166,1.7158533027,.4673438089,2.0732238947-.3358504094,.3517787336-.7906548993-.059985391-1.3288289156-1.0358494212-1.7629604741l-.5435964245-.241974967-.9509548424,2.1371066416,.4571767935,.203679209Zm1.8288766241-3.8780385824c.7782850305,.3463563254,1.3576354593,.3080605673,1.6599347179-.3710960629,.3297502002-.7415143248-.0228757847-1.1793737889-.813530684-1.5311525225l-.5435964245-.241974967-.8464040339,1.9025874859,.5435964245,.2416360665Zm6.2366167099,5.2566858735l1.8365018857-6.6488891853,2.6334264445,.7272805032-1.8615805237,6.7400534236c-.2484140768,.8994419643-.1372547082,1.7161922032,.8796162842,1.9968018288,1.0168709924,.2809485262,1.531491423-.36262355,1.7799054998-1.2620655143l1.8615805237-6.7403923241,2.6335958947,.7276194037-1.8365018857,6.6488891853c-.716605137,2.5942834351-2.6896839298,3.8451652325-5.1407818977,3.1683809059-2.4509285177-.6771232271-3.4986394569-2.7766119117-2.7857622256-5.3576782267Zm16.3714365828,7.7377765369l-.663228306-2.3512917665c-.259767244,.0101670154-.5434269743-.0094892144-.8387787723-.0443959673l-.4566684427-.0535462812-.2587505425,2.2025144409-2.6991731442-.3172108812,1.3018863247-11.078996705,2.766275446,.325005593c3.6526697405,.4293869513,4.7581632174,2.7237434315,4.4882289579,5.0201333147-.1530135821,1.302733576-.7428699268,2.4993912912-1.807695342,3.218538182l1.296802817,3.4469571285-3.128898996-.3677070578Zm-1.1122714871-5.0180999116c1.2490178446,.1467439226,1.9851097611-.5564746441,2.1066055954-1.5904601125,.1230208866-1.0475414889-.4466708775-1.8768310468-1.6819632513-2.0218804669l-.5371573148-.0633743961-.4246423441,3.6126794798,.5371573148,.0630354956Zm7.992968624-5.6403212555l3.0958561959-.0860807306c2.6495242189-.0735414116,3.9885201499,.8767356299,4.0454554363,2.9314894466,.0267731406,.9601051563-.372451665,1.6880634605-.9699332712,2.097116381,.9848448939,.3785518742,1.5785985945,1.2956166652,1.6097774418,2.4177162673,.061340993,2.2035311424-1.3068003822,3.6079348726-4.3348764753,3.6923211006l-3.1365242576,.0870974321-.3097550698-11.1396598971Zm3.2717455627,4.292513911c.8516569918-.023723036,1.3579743598-.3083994678,1.3373014285-1.0519471956-.0227063344-.8109889301-.530040404-1.0539805987-1.3952534164-1.0299186622l-.5947704022,.0166061252,.0579519879,2.0818658579,.5947704022-.0166061252Zm.024400837,4.2881082044c1.1627676637-.0321955488,1.7500822546-.3192442842,1.7256814176-1.1980133172-.0240619365-.8652130124-.6279826525-1.1729346792-1.6958581723-1.1434503344l-.5951093027,.0166061252,.0650688987,2.3387524475,.5002171587-.0138949211Zm16.2194397023-8.3020458929l-3.4757636722,.8713132216-.615104433-2.4526230202,7.292800162-1.8283682733-1.8337906816,9.3123083253,3.8956614091-.9767112815,.615104433,2.4526230202-7.6994807789,1.9303773281,1.8205735615-9.3089193201Zm5.6904785315-4.2826857961l5.8982245466-2.3668811902,.951971544,2.3719646979-3.376126921,1.3545853547,.7150800847,1.7822778034,3.0873836831-1.2386813789,.7554092458,1.8822534551-3.0873836831,1.2390202794,.7554092458,1.8822534551,3.376126921-1.3545853547,.9617996589,2.3970433359-5.8985634472,2.3668811902-4.1393308787-10.3161316479Zm18.3789137778,3.5408325709l-1.9344441342-1.4928567644c-.2026625074,.1633500478-.4422651708,.3165330801-.700168462,.4649715053l-.3985470045,.2290967475,1.1054934769,1.9229215168-2.3563752742,1.3549242552-5.5613574357-9.6722206712,2.4150050632-1.3888143066c3.1890538373-1.833451781,5.4451145594-.6503500865,6.5977152077,1.3545853547,.6537390916,1.1373501252,.8936806556,2.4499118161,.4676827094,3.6621589549l3.0968728975,1.9947684257-2.7318770438,1.5704649821Zm-3.8854943937-3.3662988061c1.0905818542-.626965951,1.2620655143-1.6304503731,.7432088273-2.5332813426-.5259735978-.9143535869-1.4779451418-1.2403758814-2.5563265775-.6205268412l-.4690383115,.2697648092,1.8134566507,3.1538081838,.4686994109-.2697648092Zm14.4242836793-3.8431318294c-2.592250032,2.1493070601-6.1734117641,1.6226556613-8.149879562-.7615094551-1.9679952851-2.3736592005-1.8222680641-5.9904054865,.7699819679-8.1393736461,2.5820830166-2.1408345473,6.1632447486-1.6141831485,8.1312400338,.759476052,1.976467798,2.3841651164,1.8304016764,6.0009114024-.7513424397,8.1414070492Zm-5.6362544493-6.7980054115c-1.3637356686,1.1305721149-1.4721838331,3.0124866695-.410747423,4.2928528116,1.0617753105,1.2807050426,2.9396230589,1.5328470251,4.303697628,.4022749102,1.3532297526-1.122099602,1.4532054043-3.0145200725,.3914300937-4.2948862146-1.06143641-1.2803661421-2.9308116456-1.5223411091-4.2843802987-.4002415071Z"/><g><path class="cls-1" d="M195.6333606176,81.0276025188h-64.233678382c-.4792053269,0-.867585316-.3883799891-.867585316-.867585316s.3883799891-.867585316,.867585316-.867585316h64.233678382c.4792053269,0,.867585316,.3883799891,.867585316,.867585316s-.3883799891,.867585316-.867585316,.867585316Z"/><path class="cls-1" d="M130.4200902997,75.8414079522c-.3465257756,0-.6739036722-.2089321669-.8079388255-.5512216861-.6767843266-1.7270370196-1.6836577538-3.2664926047-2.9926609894-4.5756652905-.3387310638-.3387310638-.3387310638-.8880887971,.0001694503-1.2269893111,.3389005141-.3385616135,.8880887971-.3387310638,1.2269893111,.0001694503,1.4789618433,1.4791312936,2.6164814188,3.2183687317,3.3810409785,5.1694189912,.1748726652,.4461625268-.0450737684,.9494297901-.4912362951,1.1243024554-.1038730076,.0406680617-.21096557,.059985391-.3163636299,.059985391Z"/><path class="cls-1" d="M130.4200902997,75.8414079522c-.3465257756,0-.6740731225-.2091016172-.8081082758-.5513911364-.174703215-.4461625268,.0454126689-.9495992404,.4915751956-1.1243024554l45.0244583448-17.629435291c.4458236262-.1750421155,.9494297901,.0454126689,1.1243024554,.4915751956,.174703215,.4461625268-.0454126689,.9495992404-.4915751956,1.1243024554l-45.0244583448,17.629435291c-.1038730076,.0406680617-.21096557,.0598159407-.3161941796,.0598159407Z"/><path class="cls-1" d="M207.1856318905,120.3851359178c-.1160734261,0-.2338413547-.0233841355-.3470341264-.0728636105l-76.9776933126-33.6582434541c-.439045616-.1919871412-.6393358198-.7033880169-.4473486786-1.1424336329,.1919871412-.4392150662,.7033880169-.6396747203,1.1424336329-.4473486786l76.9776933126,33.6579045536c.439045616,.1921565915,.6393358198,.7035574672,.4473486786,1.1427725334-.1425076662,.325683394-.4610741494,.5202122891-.7953995065,.5202122891Z"/><path class="cls-1" d="M131.3996822355,81.0276025188c-.4792053269,0-.867585316-.3883799891-.867585316-.867585316,0-1.6739990892-.3095856196-3.3124136244-.9199454454-4.8698309367-.1748726653-.4459930765,.0450737684-.9494297901,.4912362951-1.1243024554,.4459930765-.1741948642,.9494297901,.0449043181,1.1243024554,.4912362951,.6898319964,1.7599103695,1.0395773269,3.6113238778,1.0395773269,5.502897097,0,.4792053269-.3883799891,.867585316-.867585316,.867585316Z"/><path class="cls-1" d="M130.2079385779,86.7268924637c-.1160734261,0-.2341802552-.0233841355-.3475424772-.0730330608-.4388761657-.1921565915-.638827469-.7038963677-.4466708775-1.1427725334,.7420226755-1.6946720205,1.1183716964-3.4949115512,1.1183716964-5.3510696667,0-.4792053269,.3883799891-.867585316,.867585316-.867585316s.867585316,.3883799891,.867585316,.867585316c0,2.097116381-.4253201451,4.1317056171-1.2640989174,6.0471713226-.1426771164,.325683394-.4610741494,.5197039383-.7952300562,.5197039383Z"/><path class="cls-1" d="M127.2330698655,70.9686963611c-.2219798367,0-.4441291237-.0847251285-.6134099304-.2541753855-.3389005141-.3387310638-.3389005141-.8880887971,0-1.2268198609l25.3124793949-25.3124793949c.3385616135-.3389005141,.8882582473-.3389005141,1.2268198609,0,.3389005141,.3387310638,.3389005141,.8880887971,0,1.2268198609l-25.3124793949,25.3124793949c-.1692808068,.169450257-.3914300937,.2541753855-.6134099304,.2541753855Z"/><path class="cls-1" d="M197.7289519463,161.5825602075c-.2219798367,0-.4441291237-.0847251285-.6134099304-.2541753855l-24.5704567194-24.5706261696c-.3389005141-.3389005141-.3389005141-.8879193468,0-1.2268198609,.3385616135-.3389005141,.8882582473-.3389005141,1.2268198609,0l24.5704567194,24.5706261696c.3389005141,.3389005141,.3389005141,.8879193468,0,1.2268198609-.1692808068,.169450257-.3914300937,.2541753855-.6134099304,.2541753855Z"/><path class="cls-1" d="M145.3218848033,109.1753236143c-.2219798367,0-.4441291237-.0847251285-.6134099304-.2541753855l-18.0888149378-18.0888149378c-.3389005141-.3389005141-.3389005141-.8880887971,0-1.2268198609,.3385616135-.3389005141,.8882582473-.3389005141,1.2268198609,0l18.0888149378,18.0888149378c.3389005141,.3389005141,.3389005141,.8879193468,0,1.2268198609-.1692808068,.169450257-.3914300937,.2541753855-.6134099304,.2541753855Z"/><path class="cls-1" d="M127.2330698655,70.9686963611c-.2219798367,0-.4441291237-.0847251285-.6134099304-.2541753855-1.1822544433-1.182084993-2.5597155827-2.122195019-4.0942571103-2.7940652881-.439045616-.1921565915-.6389969193-.7037269174-.4468403278-1.1426030831,.1919871412-.4387067154,.7033880169-.6396747203,1.1426030831-.4468403278,1.7336455797,.7589677012,3.28970729,1.8210819123,4.6253142158,3.1566888382,.3389005141,.3387310638,.3389005141,.8880887971,0,1.2268198609-.1692808068,.169450257-.3914300937,.2541753855-.6134099304,.2541753855Z"/><path class="cls-1" d="M122.8727758516,67.9934887481c-.1160734261,0-.234010805-.0233841355-.3470341264-.0728636105-.439045616-.1919871412-.6393358198-.7033880169-.4473486786-1.1424336329l11.5975144915-26.5238792824c.191817691-.439045616,.7030491164-.6398441705,1.1424336329-.4473486786,.439045616,.1919871412,.6393358198,.7033880169,.4473486785,1.1424336329l-11.5975144915,26.5238792824c-.1425076662,.3258528443-.4610741494,.5202122891-.7953995065,.5202122891Z"/><path class="cls-1" d="M127.2330698655,91.0865086765c-.2219798367,0-.4441291237-.0847251285-.6134099304-.2541753855-.3389005141-.3389005141-.3389005141-.8880887971,0-1.2268198609,1.182084993-1.1822544433,2.122195019-2.5597155827,2.7940652881-4.0942571103,.1919871412-.4388761657,.7033880169-.63950527,1.1426030831-.4468403278,.439045616,.1921565915,.6389969192,.7037269174,.4468403278,1.1426030831-.7589677012,1.7336455797-1.8210819123,3.28970729-3.1566888382,4.6253142158-.1692808068,.169450257-.3914300937,.2541753855-.6134099304,.2541753855Z"/><path class="cls-1" d="M117.1741637078,134.0448600373c-.4792053269,0-.867585316-.3883799891-.867585316-.867585316v-38.791908441c0-.4792053269,.3883799891-.867585316,.867585316-.867585316s.867585316,.3883799891,.867585316,.867585316v38.791908441c0,.4792053269-.3883799891,.867585316-.867585316,.867585316Z"/><path class="cls-1" d="M117.1741637078,164.9488590137c-.4792053269,0-.867585316-.3883799891-.867585316-.867585316v-27.9369249758c0-.4792053269,.3883799891-.867585316,.867585316-.867585316s.867585316,.3883799891,.867585316,.867585316v27.9369249758c0,.4792053269-.3883799891,.867585316-.867585316,.867585316Z"/><path class="cls-1" d="M104.1393721361,75.3286514744c-.1160734261,0-.234010805-.0233841355-.3470341264-.0728636105l-32.9118150719-14.3905630781c-.439045616-.1919871412-.6393358198-.7033880169-.4473486786-1.1424336329,.191817691-.439045616,.7038963677-.6398441705,1.1424336329-.4473486786l32.9118150719,14.3905630781c.439045616,.1919871412,.6393358198,.7033880169,.4473486786,1.1424336329-.1425076662,.3258528443-.4610741494,.5202122891-.7953995065,.5202122891Z"/><path class="cls-1" d="M107.11525755,70.9686963611c-.2219798367,0-.4441291237-.0847251285-.6134099304-.2541753855l-20.5324570944-20.5324570944c-.3389005141-.3387310638-.3389005141-.8880887971,0-1.2268198609,.3385616135-.3389005141,.8882582473-.3389005141,1.2268198609,0l20.5324570944,20.5324570944c.3389005141,.3387310638,.3389005141,.8880887971,0,1.2268198609-.1692808068,.169450257-.3914300937,.2541753855-.6134099304,.2541753855Z"/><path class="cls-1" d="M107.11525755,70.9686963611c-.2219798367,0-.4441291237-.0847251285-.6134099304-.2541753855-.3389005141-.3387310638-.3389005141-.8880887971,0-1.2268198609,1.4789618433-1.4791312936,3.2181992815-2.6168203193,5.1694189912-3.381379879,.4459930765-.1736865135,.9495992404,.0450737684,1.1243024554,.4912362951,.1748726653,.4461625268-.0450737684,.9494297901-.4912362951,1.1243024554-1.7272064699,.6767843266-3.266662055,1.6838272041-4.5756652905,2.9926609894-.1692808068,.169450257-.3914300937,.2541753855-.6134099304,.2541753855Z"/><path class="cls-1" d="M111.9879691411,67.7818453771c-.3465257756,0-.6740731225-.2091016172-.8081082758-.5513911364l-9.3146806289-23.7891215842c-.174703215-.4461625268,.0454126689-.9495992404,.4915751956-1.1243024554,.4459930765-.174703215,.9494297901,.0452432186,1.1243024554,.4915751956l9.3146806289,23.7891215842c.174703215,.4461625268-.0454126689,.9495992404-.4915751956,1.1243024554-.1038730076,.0406680617-.21096557,.0598159407-.3161941796,.0598159407Z"/><path class="cls-1" d="M102.94864518,81.0276025188c-.4792053269,0-.867585316-.3883799891-.867585316-.867585316,0-2.097116381,.4253201451-4.1317056171,1.2640989174-6.0471713226,.1921565915-.4388761657,.7033880169-.63950527,1.1427725334-.4466708775,.4388761657,.1921565915,.638827469,.7038963677,.4466708775,1.1427725334-.7420226755,1.6946720205-1.1183716964,3.4949115512-1.1183716964,5.3510696667,0,.4792053269-.3883799891,.867585316-.867585316,.867585316Z"/><path class="cls-1" d="M103.9284065661,86.2141359859c-.3465257756,0-.6739036722-.2091016172-.8079388255-.5512216861-.6896625461-1.7600798198-1.0394078766-3.6114933281-1.0394078766-5.502897097,0-.4792053269,.3883799891-.867585316,.867585316-.867585316s.867585316,.3883799891,.867585316,.867585316c0,1.6738296389,.3094161693,3.3122441741,.9197759952,4.8698309367,.1748726653,.4461625268-.0450737684,.9494297901-.4912362951,1.1243024554-.1038730076,.0406680617-.21096557,.059985391-.3163636299,.059985391Z"/><path class="cls-1" d="M117.1741637078,66.802083991c-.4792053269,0-.867585316-.3883799891-.867585316-.867585316v-25.5058221382c0-.4792053269,.3883799891-.867585316,.867585316-.867585316s.867585316,.3883799891,.867585316,.867585316v25.5058221382c0,.4792053269-.3883799891,.867585316-.867585316,.867585316Z"/><path class="cls-1" d="M122.3606971749,94.2738680112c-.3465257756,0-.6737342219-.2091016172-.8079388255-.5513911364-.1748726653-.4459930765,.0450737684-.9492603399,.4912362951-1.1241330051,1.7273759202-.6771232271,3.2668315053-1.6843355549,4.5756652905-2.9928304396,.3385616135-.3389005141,.8882582473-.3389005141,1.2268198609,0,.3389005141,.3387310638,.3389005141,.8879193468,0,1.2268198609-1.4786229428,1.4789618433-3.217860381,2.6163119685-5.1692495409,3.3812104287-.1040424578,.0410069622-.2111350203,.0603242915-.3165330801,.0603242915Z"/><path class="cls-1" d="M132.5846478829,120.3851359178c-.3465257756,0-.6740731225-.2094405177-.8081082758-.5517300369l-10.2239507081-26.1112679065c-.174703215-.4459930765,.0454126689-.9492603399,.4915751956-1.1241330051,.4459930765-.1748726653,.9495992404,.0454126689,1.1243024554,.4917446459l10.2239507081,26.1112679065c.174703215,.4459930765-.0454126689,.9492603399-.4915751956,1.1241330051-.1038730076,.0406680617-.21096557,.059985391-.3161941796,.059985391Z"/><path class="cls-1" d="M117.1741637078,95.2529515963c-2.0976247318,0-4.1322139679-.4253201451-6.0471713226-1.2637600169-.4388761657-.1921565915-.638827469-.7038963677-.4466708775-1.1427725334s.7032185667-.638827469,1.1427725334-.4466708775c1.6941636698,.7418532253,3.4944032004,1.1180327959,5.3510696667,1.1180327959,.4792053269,0,.867585316,.3883799891,.867585316,.867585316s-.3883799891,.867585316-.867585316,.867585316Z"/><path class="cls-1" d="M117.1741637078,95.2529515963c-.4792053269,0-.867585316-.3883799891-.867585316-.867585316s.3883799891-.867585316,.867585316-.867585316c1.67450744,0,3.3129219752-.3094161693,4.8698309367-.9194370946,.445654176-.1752115658,.9495992404,.0447348679,1.1243024554,.4910668449,.1748726653,.4459930765-.0450737684,.9495992404-.4912362951,1.1241330051-1.7594020187,.6896625461-3.610815527,1.0394078766-5.502897097,1.0394078766Z"/><path class="cls-1" d="M107.11525755,91.0865086765c-.2219798367,0-.4441291237-.0847251285-.6134099304-.2541753855-1.4791312936-1.4789618433-2.6168203193-3.2181992815-3.381379879-5.1694189912-.1748726653-.4461625268,.0450737684-.9494297901,.4912362951-1.1243024554,.445654176-.1738559637,.9495992404,.0450737684,1.1243024554,.4912362951,.6767843266,1.7272064699,1.6838272041,3.266662055,2.9926609894,4.5756652905,.3389005141,.3387310638,.3389005141,.8879193468,0,1.2268198609-.1692808068,.169450257-.3914300937,.2541753855-.6134099304,.2541753855Z"/><path class="cls-1" d="M104.1393721361,75.3286514744c-.1160734261,0-.2341802552-.0233841355-.3473730269-.0730330608-.439045616-.1921565915-.6389969193-.7037269174-.4468403278-1.1426030831,.7589677012-1.7336455797,1.8210819123-3.2897072899,3.1566888382-4.6253142158,.3385616135-.3389005141,.8882582473-.3389005141,1.2268198609,0,.3389005141,.3387310638,.3389005141,.8880887971,0,1.2268198609-1.182084993,1.1822544433-2.122195019,2.5597155827-2.7940652881,4.0942571103-.1425076662,.325683394-.4610741494,.5198733886-.7952300562,.5198733886Z"/><path class="cls-1" d="M102.94864518,81.0276025188H54.3667481391c-.4792053269,0-.867585316-.3883799891-.867585316-.867585316s.3883799891-.867585316,.867585316-.867585316h48.5818970408c.4792053269,0,.867585316,.3883799891,.867585316,.867585316s-.3883799891,.867585316-.867585316,.867585316Z"/><path class="cls-1" d="M111.4745348623,94.0623940904c-.1162428763,0-.2341802552-.023723036-.3475424772-.073202511-1.7334761294-.7591371515-3.28970729-1.8212513625-4.6251447656-3.1568582884-.3389005141-.3389005141-.3389005141-.8880887971,0-1.2268198609,.3385616135-.3389005141,.8882582473-.3389005141,1.2268198609,0,1.182084993,1.182084993,2.5597155827,2.122195019,4.0944265606,2.7942347384,.4388761657,.1921565915,.638827469,.7038963677,.4466708775,1.1427725334-.1426771164,.325683394-.4610741494,.5198733886-.7952300562,.5198733886Z"/><path class="cls-1" d="M43.8596460516,109.7345094625c-.3465257756,0-.6740731225-.2094405177-.8081082758-.5517300369-.174703215-.4459930765,.0454126689-.9492603399,.4915751956-1.1241330051l60.0687605145-23.5202040263c.4458236262-.1750421155,.9494297901,.0454126689,1.1243024554,.4915751956,.174703215,.4461625268-.0454126689,.9495992404-.4915751956,1.1243024554l-60.0687605145,23.5202040263c-.1038730076,.0406680617-.21096557,.059985391-.3161941796,.059985391Z"/><path class="cls-1" d="M77.9625269801,170.705762046c-.1160734261,0-.234010805-.0233841355-.3470341264-.0728636105-.439045616-.1921565915-.6393358198-.7035574672-.4473486786-1.1427725334l9.1633615493-20.9572688888c.191817691-.4388761657,.7037269174-.6398441705,1.1424336329-.4473486786,.439045616,.1921565915,.6393358198,.7035574672,.4473486786,1.1427725334l-9.1633615493,20.9572688888c-.1425076662,.325683394-.4610741494,.5202122891-.7953995065,.5202122891Z"/><path class="cls-1" d="M102.7520828818,114.0107561489c-.1160734261,0-.2338413547-.0233841355-.3470341264-.0728636105-.439045616-.1921565915-.6393358198-.7035574672-.4473486786-1.1427725334l8.7224519805-19.9483620584c.191817691-.4388761657,.7028796662-.63950527,1.1424336329-.4473486786,.439045616,.1921565915,.6393358198,.7035574672,.4473486786,1.1427725334l-8.7224519805,19.9483620584c-.1425076662,.325683394-.4610741494,.5202122891-.7953995065,.5202122891Z"/><path class="cls-1" d="M47.493845714,150.7079205125c-.2219798367,0-.4441291237-.0847251285-.6134099304-.2541753855-.3389005141-.3389005141-.3389005141-.8879193468,0-1.2268198609l24.4960680565-24.4960680565c.3385616135-.3389005141,.8882582473-.3389005141,1.2268198609,0,.3389005141,.3389005141,.3389005141,.8879193468,0,1.2268198609l-24.4960680566,24.4960680565c-.1692808068,.169450257-.3914300937,.2541753855-.6134099304,.2541753855Z"/><path class="cls-1" d="M94.4885021973,103.7132640292c-.2219798367,0-.4441291237-.0847251285-.6134099304-.2541753855-.3389005141-.3389005141-.3389005141-.8879193468,0-1.2268198609l12.6267553527-12.6267553527c.3385616135-.3389005141,.8882582473-.3389005141,1.2268198609,0,.3389005141,.3387310638,.3389005141,.8879193468,0,1.2268198609l-12.6267553527,12.6267553527c-.1692808068,.169450257-.3914300937,.2541753855-.6134099304,.2541753855Z"/><path class="cls-1" d="M122.8727758516,67.9934887481c-.1160734261,0-.2341802552-.0233841355-.3475424772-.0730330608-1.6946720205-.7420226755-3.4949115512-1.1183716964-5.3510696667-1.1183716964-.4792053269,0-.867585316-.3883799891-.867585316-.867585316s.3883799891-.867585316,.867585316-.867585316c2.097116381,0,4.1317056171,.4253201451,6.0471713226,1.2640989174,.4388761657,.1921565915,.638827469,.7038963677,.4466708775,1.1427725334-.1426771164,.325683394-.4610741494,.5197039383-.7952300562,.5197039383Z"/><path class="cls-1" d="M111.9879691411,67.7818453771c-.3465257756,0-.6739036722-.2091016172-.8079388255-.5512216861-.1748726653-.4461625268,.0450737684-.9494297901,.4912362951-1.1243024554,1.7600798198-.6896625461,3.611493328-1.0394078766,5.502897097-1.0394078766,.4792053269,0,.867585316,.3883799891,.867585316,.867585316s-.3883799891,.867585316-.867585316,.867585316c-1.6738296389,0-3.3122441741,.3094161693-4.8698309367,.9197759952-.1038730076,.0406680617-.21096557,.059985391-.3163636299,.059985391Z"/><path class="cls-1" d="M43.8604933028,109.734170562c-.0467682709,0-.0940448927-.0037279057-.1416604149-.0115226175-.4727662171-.0776082177-.7931966531-.5239401947-.7154189852-.9967064118,1.6900968636-10.2910530099,5.2627860828-20.0517267152,10.6186003567-29.0110701551,.2460417732-.4110863236,.7787933813-.5451214769,1.1898797049-.2995880544,.4112557738,.2458723229,.5454603774,.778623931,.2995880544,1.1898797049-5.2434687535,8.7714231048-8.7412609591,18.3272314494-10.395942719,28.4020659313-.0698135059,.4253201451-.4376900139,.7269416027-.855045997,.7269416027Z"/><path class="cls-1" d="M47.493845714,150.708259413c-.3568622413,0-.6911875984-.2219798367-.8174280399-.577486476-3.1729560629-8.9259617392-4.7818862533-18.2918163457-4.7818862533-27.8369493241,0-4.5236440616,.373129466-9.088633986,1.108882482-13.5678820803,.077777668-.4731051176,.5239401947-.7920105014,.9967064118-.7154189852,.4727662171,.0776082177,.7931966531,.5239401947,.7154189852,.9967064118-.7205024929,4.3863893534-1.085837247,8.8568260344-1.085837247,13.2865946536,0,9.3465372772,1.5752095893,18.516846287,4.6815717012,27.256073843,.1604693934,.4514154847-.0754053644,.9475658373-.5268208491,1.1078657805-.0960782957,.0342289519-.1941899946,.0504961766-.2906071908,.0504961766Z"/><path class="cls-1" d="M71.2284043155,60.937918946c-.2431611188,0-.4849666356-.1016701542-.6564502957-.3000964052-.3134829755-.3622846495-.2738316154-.9102867808,.0886224844-1.223600306,4.7424043435-4.1020518221,9.9629973122-7.672538188,15.5163905858-10.6123306972,.4234561923-.223504889,.9484130886-.0625271448,1.1725957786,.3609290475s.0626965951,.9484130886-.3609290475,1.1725957786c-5.437658748,2.8786209664-10.5494646518,6.3747186694-15.1930794954,10.3910286615-.1640278488,.1419993154-.3660125552,.2114739208-.5671500103,.2114739208Z"/><path class="cls-1" d="M181.6948908252,182.7319856878c-.2292661978,0-.4580240447-.0901475367-.6284910033-.2694259087-.3304280012-.3470341264-.3168719806-.8960529592,.0301621458-1.2264809604,7.9021432863-7.522913611,14.1182565151-16.3824508495,18.4756698746-26.3322310417,4.5107658421-10.2998644232,6.7980054115-21.2714296653,6.7980054115-32.6100241641,0-.8242060502-.0162672247-1.6975526749-.0511739776-2.747805368-.0159283242-.4788664264,.3594039952-.880124635,.8382704215-.8960529592,.4815776305-.0115226175,.8799551847,.3595734454,.8958835089,.8384398718,.035584554,1.0699089229,.0521906792,1.9615561754,.0521906792,2.8054184554,0,11.5795527643-2.3362106936,22.7852982616-6.9437326325,33.30612582-4.4504415506,10.161931914-10.7987259799,19.2102367388-18.8687944709,26.892772492-.1679252047,.1599610426-.3831270311,.2392637629-.5979899571,.2392637629Z"/><path class="cls-1" d="M175.4437013932,58.2118032109c-.1860563822,0-.3736378167-.0596464905-.5319043568-.1826673771-6.8659549645-5.3402248503-14.4888442272-9.5198848901-22.6568549668-12.4230761438-.4514154847-.1604693934-.6872902425-.6564502957-.5268208491-1.1080352307,.1602999431-.4512460345,.6564502957-.6877985933,1.1080352307-.5268208491,8.3427139545,2.9652100477,16.1284449142,7.2341703731,23.1408049008,12.6880963458,.3782129737,.2943350965,.4465014273,.8392871231,.1523357811,1.2175000967-.1711447596,.2199464336-.4270146477,.3350031581-.6855957399,.3350031581Z"/><path class="cls-1" d="M152.5455492604,45.6563864164c-.0964171962,0-.1945288951-.0160977744-.2906071908-.0503267263-5.7646977441-2.0488230577-11.7813680204-3.4425514218-17.8829328755-4.1422115331-.4761552223-.054732433-.8177669404-.4847971854-.7632039577-.9607829574,.054732433-.4758163217,.483272133-.8145473855,.9607829573-.7632039577,6.2322110032,.7147411841,12.3780023754,2.1382927934,18.2665682574,4.2313423683,.4514154847,.1604693934,.6872902425,.6564502957,.5268208491,1.1080352307-.1262404415,.355337189-.4605657986,.5771475754-.8174280399,.5771475754Z"/><path class="cls-1" d="M54.3659008878,81.027771969c-.1514885298,0-.3048410124-.0396513601-.4442985739-.1230208866-.4112557738-.245872323-.5454603774-.778623931-.2995880544-1.1898797049,4.5697345315-7.6440705448,10.3022367268-14.4742715051,17.0385622447-20.3006491428,.3622846495-.313821876,.9102867808-.2740010656,1.223600306,.0886224844,.3134829755,.3622846495,.2738316154,.9102867808-.0886224844,1.223600306-6.5961901553,5.7053901541-12.2095688199,12.3935917991-16.684072307,19.8787180028-.1625027965,.2717982123-.4503987832,.422608941-.7455811309,.422608941Z"/><path class="cls-1" d="M102.6726107113,43.9927237929c-.3788907747,0-.7269416026-.2501085794-.8347119661-.6327272597-.1297988969-.4612435996,.1389492108-.9404489265,.6001928104-1.0702478234,4.7596882697-1.3393348316,9.6901823984-2.2562301723,14.6545665786-2.724760133,.4761552222-.0479544227,.9001197653,.3050104627,.9451935337,.7821823864,.0450737684,.4770024735-.3051799129,.9002892156-.7821823864,.9451935337-4.8608500731,.458871296-9.6879795451,1.3564493075-14.3475227129,2.6678248467-.0786249193,.0220285334-.1577581893,.0325344493-.2355358573,.0325344493Z"/><path class="cls-1" d="M195.6342078689,81.027771969c-.2951823477,0-.5830783344-.1508107288-.7455811309-.422608941-5.2178817647-8.7285521898-11.9391262097-16.3243294114-19.9768297016-22.5761966444-.3782129737-.2941656462-.4465014273-.8391176728-.1521663308-1.2173306465,.2938267457-.3783824239,.8389482225-.4465014273,1.2173306465-.1521663308,8.2083399007,6.3843773341,15.0722614622,14.1413017501,20.4011331452,23.0554019713,.2458723229,.4112557738,.1116677194,.9440073819-.2995880544,1.1898797049-.1394575615,.0833695265-.2928100441,.1230208866-.4442985739,.1230208866Z"/><path class="cls-1" d="M134.4718153955,41.4694400155c-.0328733499,0-.0662550505-.0018639528-.0998062014-.0055918585-3.1258488914-.3585567439-6.2789792742-.5403768697-9.3719548157-.5403768697-2.5466679129,0-5.1523045152,.1242070384-7.744385097,.3688932096-.4775108243,.0452432186-.9002892156-.3050104627-.9451935337-.7821823864-.0450737684-.4770024735,.3050104627-.9001197653,.7821823864-.9451935337,2.6459657635-.2499391291,5.3065042491-.3766879214,7.9073962442-.3766879214,3.1588916915,0,6.3784465751,.1855480314,9.5695338154,.5515605866,.4761552222,.054732433,.8177669404,.4847971854,.7632039577,.9607829573-.0508350771,.4426040714-.4259979462,.7687958161-.860976756,.7687958161Z"/><path class="cls-1" d="M207.1856318905,120.3847970172c-.4658187566,0-.8509791908-.3697404608-.8665686144-.8387787723-.4554822909-13.7288598244-4.4080789863-27.1943939495-11.4304365381-38.9408552169-.245872323-.4112557738-.1116677194-.9440073819,.2995880544-1.1898797049,.4115946743-.2455334224,.9440073819-.1114982691,1.1898797049,.2995880544,7.1726599298,11.9982643494,11.2099817537,25.7518639114,11.6751227093,39.77353378,.0159283242,.4788664264-.3594039952,.880124635-.8382704215,.8960529592-.0098281149,.0003389005-.0196562298,.0003389005-.0293148945,.0003389005Z"/><path class="cls-1" d="M68.3050484813,182.7319856878c-.2148629259,0-.4300647523-.0793027203-.5979899571-.2392637629-9.42092594-8.968663204-16.6932226209-20.1591581782-21.0306408501-32.3619489878-.1604693934-.4514154847,.0754053644-.9475658373,.5268208491-1.1078657804,.4512460345-.1613166447,.9477352876,.0752359141,1.1080352307,.5269902994,4.2467623417,11.947259822,11.3674010425,22.904252342,20.5921035849,31.6861813628,.3470341264,.3304280012,.360590147,.879446834,.0301621458,1.2264809604-.1704669586,.1792783719-.3992248056,.2694259087-.6284910033,.2694259087Z"/><path class="cls-1" d="M86.5834782567,50.4364087169c-.3111106719,0-.6117154279-.1677557545-.7674402141-.4619214007-.22418269-.4234561923-.0625271448-.9484130886,.3609290475-1.1725957786,5.1797554568-2.741874609,10.6507959055-4.9328664324,16.2611244655-6.5119733776,.4605657986-.1301377974,.9402794763,.1387797605,1.0700783731,.6000233601,.1299683471,.4612435996-.1387797605,.9402794763-.6000233601,1.0700783731-5.4920522806,1.5460641451-10.848205455,3.6909654986-15.9195127473,6.3753964704-.1292905461,.0684579038-.2682397569,.1009923532-.4051555646,.1009923532Z"/><path class="cls-1" d="M170.528796688,170.274002791c-.4792053269,0-.867585316-.3883799891-.867585316-.867585316v-33.2620687531c0-.4792053269,.3883799891-.867585316,.867585316-.867585316h8.6012950468l-31.5108003468-27.8410161303-31.510969797,27.8410161303h8.6012950468c.4792053269,0,.867585316,.3883799891,.867585316,.867585316v27.870500475c0,.4792053269-.3883799891,.867585316-.867585316,.867585316s-.867585316-.3883799891-.867585316-.867585316v-27.002915159h-10.0260328079c-.3607595972,0-.6837317871-.2229965382-.8113278307-.5605414503-.1277654938-.3372060115-.0333817006-.7184690898,.2368914593-.9570550517l33.8032928741-29.8662856023c.3280556976-.29009884,.820817045-.29009884,1.1488727427,0l33.8031234238,29.8662856023c.27027316,.2385859619,.3646569531,.6198490402,.2370609096,.9570550517-.1277654938,.337544912-.4507376837,.5605414503-.8114972809,.5605414503h-10.0260328079v32.3944834372c0,.4792053269-.3883799891,.867585316-.867585316,.867585316Z"/><path class="cls-1" d="M143.8641042421,156.4092438605c-.0779471182,0-.1567414878-.0105059159-.2345191557-.0321955488-.3743156178-.1050591594-.6330661603-.4466708775-.6330661603-.8353897671v-15.1813874277h-7.7469268508c-.3136524258,0-.6029040145-.169450257-.7564259474-.4429429719-.1536913831-.2734927148-.1475911739-.6083264227,.0155894237-.8763967294l13.048178142-21.4042786668c.2023236069-.3317836033,.6013789622-.4880167402,.9753556795-.3836353819,.3743156178,.1050591594,.6330661603,.4466708775,.6330661603,.8353897672l.0001694503,15.1817263282h7.7467574006c.3136524258,0,.6029040145,.169450257,.7564259474,.4429429719,.1536913831,.2734927148,.1475911739,.6083264227-.0155894236,.8763967294l-13.048178142,21.4039397663c-.1602999431,.2629867989-.4437902232,.4158309308-.7408365237,.4158309308Zm-7.0694647232-17.7841433757h7.0694647232c.4792053269,0,.867585316,.3883799891,.867585316,.867585316v12.9588778565l10.6355453824-17.4462595631h-7.069295273c-.4792053269,0-.867585316-.3883799891-.867585316-.867585316v-12.959216757l-10.6357148327,17.4465984637Z"/><path class="cls-1" d="M88.5077553755,168.162991489c-.4792053269,0-.867585316-.3883799891-.867585316-.867585316v-17.5777529626c-9.1435358693-.6466221808-16.4422667902-11.4636487885-16.4422667902-24.6675517167,0-13.6190560579,7.7652274786-24.698730564,17.3098521062-24.698730564,9.5442857271,0,17.3090048549,11.0796745061,17.3090048549,24.698730564,0,13.2039029282-7.2983920205,24.0209295358-16.441419539,24.6675517167v17.5777529626c0,.4792053269-.3883799891,.867585316-.867585316,.867585316Zm0-66.0764499272c-8.5879084765,0-15.5746814743,10.3015589258-15.5746814743,22.963559932,0,12.2329529554,6.5209542412,22.2623747684,14.7070961583,22.9276364775v-5.0326726337c-.0005083508-.0169450257-.0005083508-.0335511509,0-.0501572761v-6.280843227l-8.9147780223-10.2869862037c-.313821876-.3622846495-.2746788666-.9102867808,.0874363326-1.2241086568,.3616068485-.313144075,.9099478802-.2745094164,1.2237697563,.0874363326l7.6035719334,8.7741343089v-15.8761334815c0-.4792053269,.3883799891-.867585316,.867585316-.867585316s.867585316,.3883799891,.867585316,.867585316v22.4436865434l7.2121418396-8.6148510673c.3077216668-.3673681572,.8548765467-.4158309307,1.2222447039-.1084481645,.3673681572,.3077216668,.4158309307,.8547070965,.1082787142,1.2220752537l-8.5426652578,10.2042944783v4.7425737937c8.1858030165-.6652617091,14.706248907-10.6946835221,14.706248907-22.9276364775,0-12.6620010062-6.9864340973-22.963559932-15.573834223-22.963559932Z"/><path class="cls-1" d="M188.0465642596,175.9580422128c-.108787065,0-.2194380828-.0206729314-.3265306453-.0643910977-17.4571043796-7.1006435705-39.7315101162-11.0112166022-62.719979236-11.0112166022-22.9894858213,0-45.263891558,3.9105730317-62.719979236,11.0112166022-.4434513226,.181311775-.9499381409-.0332122504-1.1305721149-.4764941228-.1804645237-.4439596734,.0328733499-.9502770414,.4768330233-1.1305721149,17.6587501854-7.183335296,40.1653027742-11.1393209965,63.3737183276-11.1393209965,23.2072294016,0,45.7139514406,3.9559857006,63.3737183276,11.1393209965,.4437902232,.1802950735,.657297547,.6866124415,.4768330233,1.1305721149-.1370852579,.3365282105-.4615825001,.5408852204-.8040414696,.5408852204Z"/></g></svg>