<?xml version="1.0" encoding="UTF-8"?><svg id="Layer_3" xmlns="http://www.w3.org/2000/svg" viewBox="0 0 1920 1920"><defs><style>.cls-1{stroke-width:6px;}.cls-1,.cls-2,.cls-3,.cls-4,.cls-5{fill:none;}.cls-1,.cls-2,.cls-4{stroke:#000;}.cls-1,.cls-4{stroke-miterlimit:10;}.cls-6{fill:#f9cd25;}.cls-7{fill:#fff;}.cls-8{fill:#fdeba8;}.cls-9{fill:#1e00b2;}.cls-2,.cls-3,.cls-4,.cls-5{stroke-width:2px;}.cls-2,.cls-3,.cls-5{stroke-linecap:round;stroke-linejoin:round;}.cls-3,.cls-5{stroke:#231f20;}.cls-5{stroke-dasharray:0 12;}</style></defs><g><path class="cls-3" d="M1228.63,1514.51c-.88-5.06-5.26-8.9-10.55-8.9-4.2,0-7.83,2.43-9.58,5.96-.94-.27-1.94-.42-2.97-.42-3.3,0-6.25,1.5-8.21,3.86-1.02-.32-2.11-.5-3.23-.5-5.91,0-10.71,4.81-10.71,10.75s4.72,10.68,10.57,10.75h0s34.4,0,34.4,0c5.91,0,10.71-4.81,10.71-10.75s-4.64-10.59-10.42-10.75Z"/><line class="cls-3" x1="1193.94" y1="1536.01" x2="1166.84" y2="1536.01"/><line class="cls-3" x1="1160.85" y1="1535.67" x2="1151.3" y2="1535.67"/><line class="cls-3" x1="1242.56" y1="1543.73" x2="1174.11" y2="1543.73"/><line class="cls-3" x1="1252.25" y1="1535.67" x2="1266.34" y2="1535.67"/></g><g><rect class="cls-8" x="470.14" y="1705.53" width="172.99" height="30.65"/><g><rect class="cls-6" x="543.84" y="1718.5" width="6.11" height="16.68"/><rect class="cls-6" x="528.44" y="1711.29" width="4.51" height="23.89"/><rect class="cls-6" x="520.47" y="1711.29" width="4.51" height="23.89"/><rect class="cls-6" x="512.5" y="1711.29" width="4.51" height="23.89"/><rect class="cls-6" x="500.7" y="1718.5" width="4.51" height="16.68"/><rect class="cls-6" x="500.7" y="1710.39" width="4.51" height="8.11"/><rect class="cls-6" x="492.6" y="1718.5" width="4.51" height="16.68"/><rect class="cls-6" x="492.6" y="1710.39" width="4.51" height="8.11"/><rect class="cls-6" x="484.5" y="1718.5" width="4.51" height="16.68"/><rect class="cls-6" x="484.5" y="1710.39" width="4.51" height="8.11"/><rect class="cls-6" x="476.4" y="1718.5" width="4.51" height="16.68"/><rect class="cls-6" x="476.4" y="1710.39" width="4.51" height="8.11"/><rect class="cls-6" x="449.3" y="1704.53" width="14.74" height="30.65"/><rect class="cls-6" x="255.44" y="1708.59" width="5.58" height="11.27"/><rect class="cls-6" x="321.17" y="1693.34" width="5.58" height="15.25"/><rect class="cls-6" x="388.49" y="1684.7" width="5.58" height="10.78"/><rect class="cls-6" x="564.02" y="1718.5" width="6.11" height="16.68"/><g><polygon class="cls-6" points="554.19 1718.5 554.19 1735.18 556.98 1735.18 559.77 1735.18 559.77 1718.5 556.98 1718.5 554.19 1718.5"/><polygon class="cls-6" points="556.98 1710.39 554.19 1710.39 554.19 1718.5 556.98 1718.5 559.77 1718.5 559.77 1710.39 556.98 1710.39"/></g><rect class="cls-6" x="581.02" y="1711.29" width="4.51" height="23.89"/><rect class="cls-6" x="588.98" y="1711.29" width="4.51" height="23.89"/><rect class="cls-6" x="596.95" y="1711.29" width="4.51" height="23.89"/><rect class="cls-6" x="608.53" y="1718.5" width="4.51" height="16.68"/><rect class="cls-6" x="608.53" y="1710.39" width="4.51" height="8.11"/><rect class="cls-6" x="616.63" y="1718.5" width="4.51" height="16.68"/><rect class="cls-6" x="616.63" y="1710.39" width="4.51" height="8.11"/><rect class="cls-6" x="624.73" y="1718.5" width="4.51" height="16.68"/><rect class="cls-6" x="624.73" y="1710.39" width="4.51" height="8.11"/><rect class="cls-6" x="632.83" y="1718.5" width="4.51" height="16.68"/><rect class="cls-6" x="632.83" y="1710.39" width="4.51" height="8.11"/><rect class="cls-6" x="649.93" y="1704.53" width="14.74" height="30.65"/><rect class="cls-6" x="852.95" y="1708.59" width="5.58" height="11.27"/><rect class="cls-6" x="787.22" y="1693.34" width="5.58" height="15.25"/><rect class="cls-6" x="719.9" y="1684.7" width="5.58" height="10.78"/><rect class="cls-6" x="654.51" y="1669.83" width="5.58" height="15.45"/><polygon class="cls-6" points="490.19 1658.66 548.36 1585.19 548.36 1527.51 545.31 1522.1 549.94 1522.1 552.2 1527.51 552.2 1587.9 501.88 1658.66 490.19 1658.66"/><g><path class="cls-8" d="M867.29,1717.7v-11.27h-66.12v-13.52h-66.52v-10.37h-68.12v-11.72h-42.75v-12.17h-11.68v22.49c6.33,.03,11.26,.04,13.28,.04,8.5,0,18.06,11.27,104.5,24.34,71.16,10.76,139.88,34.04,161.96,41.93l11.32,2.68v-32.45h-35.85Z"/><path class="cls-8" d="M384.1,1705.53c86.44-13.07,96-24.34,104.5-24.34,2.02,0,6.95-.02,13.28-.04v-22.49h-11.68v12.17h-42.75v11.72h-68.12v10.37h-66.52v13.52h-66.12v11.27h-35.85v32.45l11.32-2.68c22.07-7.89,90.79-31.17,161.96-41.93Z"/></g><polygon class="cls-6" points="623.77 1658.66 565.6 1585.19 565.6 1527.51 568.65 1522.1 564.02 1522.1 561.76 1527.51 561.76 1587.9 612.09 1658.66 623.77 1658.66"/><rect class="cls-6" x="548.36" y="1575.73" width="17.24" height="3.61"/><path class="cls-9" d="M594.07,1489.75c-12.43-6.06-24.86,6.06-37.29,0v-21.63c12.43,6.06,24.86-6.06,37.29,0v21.63Z"/></g><g><polyline class="cls-2" points="499.88 1679.15 499.88 1676 499.88 1656.66 488.19 1656.66 488.19 1668.83 445.44 1668.83 445.44 1680.55 377.32 1680.55 377.32 1690.91 310.8 1690.91 310.8 1704.43 244.68 1704.43 244.68 1715.7 208.83 1715.7 208.83 1748.15"/><polygon class="cls-2" points="478.63 1703.53 475.98 1700.07 492.71 1692.41 501.47 1703.53 478.63 1703.53"/><rect class="cls-2" x="451.88" y="1668.83" width="5.58" height="15.45"/><polygon class="cls-2" points="488.19 1656.66 546.36 1583.19 546.36 1525.51 543.31 1520.1 547.94 1520.1 550.2 1525.51 550.2 1585.9 499.88 1656.66 488.19 1656.66"/><polygon class="cls-2" points="527.76 1679.02 527.76 1672.72 547.94 1672.72 554.98 1664.01 554.98 1678.89 527.76 1679.02"/><polyline class="cls-2" points="610.09 1679.15 610.09 1676 610.09 1656.66 621.77 1656.66 621.77 1668.83 664.53 1668.83 664.53 1680.55 732.64 1680.55 732.64 1690.91 799.16 1690.91 799.16 1704.43 865.29 1704.43 865.29 1715.7 901.14 1715.7 901.14 1748.15"/><path class="cls-2" d="M897.16,1748.15s-82.85-31.55-169.29-44.62c-86.44-13.07-96-24.34-104.5-24.34s-68.38-.3-68.38-.3c0,0-59.88,.3-68.38,.3s-18.06,11.27-104.5,24.34c-86.44,13.07-169.29,44.62-169.29,44.62"/><polyline class="cls-2" points="782.43 1748.15 622.7 1686.85 554.98 1686.85 487.26 1686.85 327.53 1748.15"/><rect class="cls-2" x="468.14" y="1703.53" width="172.99" height="30.65"/><polygon class="cls-2" points="631.33 1703.53 633.99 1700.07 617.26 1692.41 608.49 1703.53 631.33 1703.53"/><polygon class="cls-2" points="554.98 1692.41 492.71 1692.41 501.47 1703.53 554.98 1703.53 608.49 1703.53 617.26 1692.41 554.98 1692.41"/><polygon class="cls-2" points="621.77 1656.66 563.6 1583.19 563.6 1525.51 566.65 1520.1 562.02 1520.1 559.76 1525.51 559.76 1585.9 610.09 1656.66 621.77 1656.66"/><rect class="cls-2" x="546.36" y="1573.73" width="17.24" height="3.61"/><polygon class="cls-2" points="582.2 1679.02 582.2 1672.72 562.02 1672.72 554.98 1664.01 554.98 1678.89 582.2 1679.02"/><polygon class="cls-2" points="554.98 1671.53 547.94 1678.89 554.98 1678.89 562.02 1678.89 554.98 1671.53"/><polyline class="cls-2" points="327.53 1748.15 447.3 1734.18 662.67 1734.18 782.43 1748.15"/><line class="cls-2" x1="554.98" y1="1462.04" x2="554.98" y2="1573.73"/><g><rect class="cls-2" x="541.84" y="1717.5" width="6.11" height="16.68"/><rect class="cls-2" x="526.44" y="1710.29" width="4.51" height="23.89"/><rect class="cls-2" x="518.47" y="1710.29" width="4.51" height="23.89"/><rect class="cls-2" x="510.5" y="1710.29" width="4.51" height="23.89"/><rect class="cls-2" x="498.7" y="1717.5" width="4.51" height="16.68"/><rect class="cls-2" x="498.7" y="1709.39" width="4.51" height="8.11"/><rect class="cls-2" x="490.6" y="1717.5" width="4.51" height="16.68"/><rect class="cls-2" x="490.6" y="1709.39" width="4.51" height="8.11"/><rect class="cls-2" x="482.5" y="1717.5" width="4.51" height="16.68"/><rect class="cls-2" x="482.5" y="1709.39" width="4.51" height="8.11"/><rect class="cls-2" x="474.4" y="1717.5" width="4.51" height="16.68"/><rect class="cls-2" x="474.4" y="1709.39" width="4.51" height="8.11"/><rect class="cls-2" x="447.3" y="1703.53" width="14.74" height="30.65"/><rect class="cls-2" x="253.44" y="1707.59" width="5.58" height="11.27"/><rect class="cls-2" x="319.17" y="1692.34" width="5.58" height="15.25"/><rect class="cls-2" x="386.49" y="1683.7" width="5.58" height="10.78"/><rect class="cls-2" x="562.02" y="1717.5" width="6.11" height="16.68"/><g><polygon class="cls-2" points="552.19 1717.5 552.19 1734.18 554.98 1734.18 557.77 1734.18 557.77 1717.5 554.98 1717.5 552.19 1717.5"/><polygon class="cls-2" points="554.98 1709.39 552.19 1709.39 552.19 1717.5 554.98 1717.5 557.77 1717.5 557.77 1709.39 554.98 1709.39"/></g><rect class="cls-2" x="579.02" y="1710.29" width="4.51" height="23.89"/><rect class="cls-2" x="586.98" y="1710.29" width="4.51" height="23.89"/><rect class="cls-2" x="594.95" y="1710.29" width="4.51" height="23.89"/><rect class="cls-2" x="606.53" y="1717.5" width="4.51" height="16.68"/><rect class="cls-2" x="606.53" y="1709.39" width="4.51" height="8.11"/><rect class="cls-2" x="614.63" y="1717.5" width="4.51" height="16.68"/><rect class="cls-2" x="614.63" y="1709.39" width="4.51" height="8.11"/><rect class="cls-2" x="622.73" y="1717.5" width="4.51" height="16.68"/><rect class="cls-2" x="622.73" y="1709.39" width="4.51" height="8.11"/><rect class="cls-2" x="630.83" y="1717.5" width="4.51" height="16.68"/><rect class="cls-2" x="630.83" y="1709.39" width="4.51" height="8.11"/><rect class="cls-2" x="647.93" y="1703.53" width="14.74" height="30.65"/><rect class="cls-2" x="850.95" y="1707.59" width="5.58" height="11.27"/><rect class="cls-2" x="785.22" y="1692.34" width="5.58" height="15.25"/><rect class="cls-2" x="717.9" y="1683.7" width="5.58" height="10.78"/><rect class="cls-2" x="652.51" y="1668.83" width="5.58" height="15.45"/><g><path class="cls-2" d="M589.64,1488.71c-11.55-6.06-23.1,6.06-34.66,0v-21.63c11.55,6.06,23.1-6.06,34.66,0v21.63Z"/><path class="cls-2" d="M564.82,1484.33c-.35,.06-.71,.11-1.06,.15-.01,.4-.03,.8-.04,1.21-.23-.29-.46-.58-.7-.87-.29,.25-.57,.49-.86,.73,.07-.39,.13-.79,.2-1.18-.34-.1-.69-.22-1.03-.34,.31-.17,.63-.35,.94-.54-.14-.37-.28-.74-.42-1.11,.33,.17,.65,.33,.98,.48,.17-.36,.33-.72,.5-1.08,.09,.38,.18,.77,.28,1.15,.35-.1,.7-.2,1.05-.31-.21,.35-.42,.69-.63,1.03,.27,.24,.54,.48,.81,.71Z"/><path class="cls-2" d="M577.17,1473.86c-.35,.09-.71,.18-1.06,.27-.01,.4-.03,.81-.04,1.21-.23-.25-.46-.5-.7-.75-.29,.31-.57,.61-.86,.92,.07-.41,.13-.82,.2-1.23-.34-.02-.69-.04-1.03-.05,.31-.27,.63-.54,.94-.8-.14-.33-.28-.67-.42-1,.33,.08,.65,.16,.98,.24,.17-.39,.33-.79,.5-1.18,.09,.37,.18,.73,.28,1.1,.35-.15,.7-.3,1.05-.45-.21,.37-.42,.74-.63,1.1,.27,.2,.54,.41,.81,.62Z"/><path class="cls-2" d="M581.82,1470.55c-.35,.02-.71,.06-1.06,.1-.01,.4-.03,.8-.04,1.21-.23-.29-.46-.57-.7-.85-.29,.27-.57,.54-.86,.82,.07-.4,.13-.81,.2-1.21-.34-.06-.69-.11-1.03-.16,.31-.24,.63-.48,.94-.71-.14-.35-.28-.7-.42-1.05,.33,.11,.65,.23,.98,.35,.17-.37,.33-.75,.5-1.12,.09,.38,.18,.76,.28,1.14,.35-.1,.7-.2,1.05-.28-.21,.33-.42,.66-.63,1,.27,.25,.54,.5,.81,.75Z"/><path class="cls-2" d="M585.57,1473.85c-.35-.05-.71-.1-1.06-.13-.01,.4-.03,.8-.04,1.2-.23-.33-.46-.66-.7-.98-.29,.22-.57,.44-.86,.66,.07-.39,.13-.78,.2-1.18-.34-.12-.69-.23-1.03-.33,.31-.19,.63-.38,.94-.55-.14-.37-.28-.75-.42-1.12,.33,.16,.65,.34,.98,.52,.17-.34,.33-.68,.5-1.02,.09,.4,.18,.79,.28,1.19,.35-.03,.7-.05,1.05-.06-.21,.28-.42,.57-.63,.87,.27,.3,.54,.61,.81,.93Z"/><path class="cls-2" d="M580.07,1476.35c-.24,.04-.47,.07-.71,.12,0,.27-.02,.54-.03,.81-.15-.18-.31-.36-.47-.54-.19,.19-.38,.38-.57,.57,.04-.27,.09-.54,.13-.81-.23-.03-.46-.06-.69-.09,.21-.16,.42-.33,.63-.49-.09-.23-.19-.46-.28-.69,.22,.07,.43,.14,.65,.21,.11-.25,.22-.51,.33-.76,.06,.25,.12,.5,.19,.75,.23-.08,.47-.16,.7-.23-.14,.23-.28,.46-.42,.7,.18,.15,.36,.31,.54,.46Z"/><path class="cls-2" d="M583.4,1481.75c-.39,0-.77,0-1.16,.02-.02,.44-.03,.87-.05,1.31-.25-.33-.51-.66-.76-.98-.31,.27-.62,.55-.94,.84,.07-.44,.14-.87,.21-1.31-.37-.09-.75-.16-1.12-.23,.34-.25,.68-.49,1.03-.72-.15-.39-.31-.78-.46-1.16,.35,.14,.71,.29,1.06,.44,.18-.4,.36-.79,.55-1.18,.1,.42,.2,.84,.3,1.26,.38-.08,.76-.16,1.14-.22-.23,.34-.46,.69-.69,1.04,.29,.29,.59,.59,.88,.89Z"/><polyline class="cls-2" points="554.98 1477.29 562.85 1473.36 569.72 1467.94"/><polyline class="cls-2" points="554.98 1467.08 562.85 1473.36 569.72 1477.29"/><polyline class="cls-2" points="554.98 1472.18 562.85 1473.36 570.71 1472.18"/><line class="cls-2" x1="562.85" y1="1468.84" x2="562.85" y2="1477.89"/></g></g></g></g><path class="cls-2" d="M1949.38,1660.12c-272.99,0-207.99-58.84-541.76-58.84-207.11,0-309.28,29.64-504.48,148.87,0,0-632.25-4.68-908.96,3.14"/><g><path class="cls-9" d="M1395.87,1559.3c0,2.44-1.98,4.42-4.42,4.42s-4.42-1.98-4.42-4.42,1.98-4.42,4.42-4.42,4.42,1.98,4.42,4.42Z"/><path class="cls-9" d="M1419.74,1566.74c0,2.62-2.13,4.75-4.75,4.75s-4.75-2.13-4.75-4.75,2.13-4.75,4.75-4.75,4.75,2.13,4.75,4.75Z"/><path class="cls-9" d="M1429.16,1562.4c0,2.39-1.94,4.33-4.33,4.33s-4.33-1.94-4.33-4.33,1.94-4.33,4.33-4.33,4.33,1.94,4.33,4.33Z"/><path class="cls-9" d="M1401.21,1569.11c0,1.71-1.39,3.1-3.1,3.1s-3.1-1.39-3.1-3.1,1.39-3.1,3.1-3.1,3.1,1.39,3.1,3.1Z"/><g><polyline class="cls-8" points="1397.35 1575.26 1396.76 1601.28 1400.74 1601.28 1407.62 1601.28 1411.59 1601.28 1411.01 1575.26"/><polygon class="cls-8" points="1407.89 1436.78 1407.19 1405.45 1401.17 1405.45 1400.46 1436.78 1407.89 1436.78"/><polygon class="cls-8" points="1408.06 1444.44 1407.97 1440.42 1400.38 1440.42 1400.29 1444.44 1408.06 1444.44"/><polygon class="cls-8" points="1409.03 1487.42 1408.15 1448.08 1400.21 1448.08 1399.32 1487.42 1409.03 1487.42"/><polygon class="cls-8" points="1409.26 1497.77 1409.11 1491.06 1399.24 1491.06 1399.09 1497.77 1409.26 1497.77"/><polygon class="cls-8" points="1409.58 1512.04 1409.35 1501.41 1399.01 1501.41 1398.77 1512.04 1409.58 1512.04"/><polygon class="cls-8" points="1410.48 1551.76 1410.24 1541.26 1398.11 1541.26 1397.88 1551.76 1410.48 1551.76"/></g><rect class="cls-6" x="1395.85" y="1489.42" width="22.66" height="3.64"/><rect class="cls-6" x="1393.05" y="1499.77" width="28.25" height="3.64"/><path class="cls-6" d="M1407.18,1537.26h-20.64s8.49,2.42,14.58,5.99h12.13c6.09-3.58,14.58-5.99,14.58-5.99h-20.64Z"/><g><polygon class="cls-6" points="1429.1 1524.67 1385.25 1524.67 1385.65 1528.58 1428.7 1528.58 1429.1 1524.67"/><polygon class="cls-6" points="1429.42 1521.58 1384.94 1521.58 1385.25 1524.67 1429.1 1524.67 1429.42 1521.58"/><polygon class="cls-6" points="1428.7 1528.58 1385.65 1528.58 1385.96 1531.66 1428.39 1531.66 1428.7 1528.58"/><polygon class="cls-6" points="1385.96 1531.66 1386.22 1534.18 1428.13 1534.18 1428.39 1531.66 1385.96 1531.66"/><polygon class="cls-6" points="1386.53 1537.26 1427.82 1537.26 1428.13 1534.18 1386.22 1534.18 1386.53 1537.26"/></g></g><g><g><polygon class="cls-2" points="1401.59 1386.57 1406.76 1386.57 1406.51 1375.24 1401.85 1375.24 1401.59 1386.57"/><polygon class="cls-2" points="1401.85 1375.24 1406.51 1375.24 1406.25 1363.91 1402.1 1363.91 1401.85 1375.24"/><polygon class="cls-2" points="1402.1 1363.91 1406.25 1363.91 1406 1352.58 1402.36 1352.58 1402.1 1363.91"/><polygon class="cls-2" points="1401.25 1401.82 1402.82 1401.82 1405.54 1401.82 1407.11 1401.82 1406.76 1386.57 1401.59 1386.57 1401.25 1401.82"/><polygon class="cls-2" points="1403.12 1318.59 1402.87 1329.92 1405.49 1329.92 1405.23 1318.59 1403.12 1318.59"/><polygon class="cls-2" points="1404.98 1307.26 1403.38 1307.26 1403.12 1318.59 1405.23 1318.59 1404.98 1307.26"/><polygon class="cls-2" points="1402.61 1341.25 1405.74 1341.25 1405.49 1329.92 1402.87 1329.92 1402.61 1341.25"/><polygon class="cls-2" points="1404.82 1299.99 1404.47 1299.99 1403.88 1299.99 1403.54 1299.99 1403.38 1307.26 1404.98 1307.26 1404.82 1299.99"/><polygon class="cls-2" points="1402.36 1352.58 1406 1352.58 1405.74 1341.25 1402.61 1341.25 1402.36 1352.58"/><polyline class="cls-2" points="1397.35 1575.26 1396.76 1601.28 1400.74 1601.28 1407.62 1601.28 1411.59 1601.28 1411.01 1575.26"/><line class="cls-2" x1="1398.11" y1="1541.26" x2="1397.88" y2="1551.76"/><line class="cls-2" x1="1399.01" y1="1501.41" x2="1398.77" y2="1512.04"/><line class="cls-2" x1="1399.24" y1="1491.06" x2="1399.09" y2="1497.77"/><line class="cls-2" x1="1400.21" y1="1448.08" x2="1399.32" y2="1487.42"/><line class="cls-2" x1="1400.38" y1="1440.42" x2="1400.29" y2="1444.44"/><line class="cls-2" x1="1401.17" y1="1405.45" x2="1400.46" y2="1436.78"/><polyline class="cls-2" points="1407.11 1401.82 1405.54 1401.82 1402.82 1401.82 1401.25 1401.82"/><line class="cls-2" x1="1407.89" y1="1436.78" x2="1407.19" y2="1405.45"/><line class="cls-2" x1="1408.06" y1="1444.44" x2="1407.97" y2="1440.42"/><line class="cls-2" x1="1409.03" y1="1487.42" x2="1408.15" y2="1448.08"/><line class="cls-2" x1="1409.26" y1="1497.77" x2="1409.11" y2="1491.06"/><line class="cls-2" x1="1409.58" y1="1512.04" x2="1409.35" y2="1501.41"/><line class="cls-2" x1="1410.48" y1="1551.76" x2="1410.24" y2="1541.26"/></g><rect class="cls-2" x="1396.76" y="1401.82" width="14.83" height="3.64"/><rect class="cls-2" x="1396.76" y="1436.78" width="14.83" height="3.64"/><rect class="cls-2" x="1396.76" y="1444.44" width="14.83" height="3.64"/><rect class="cls-2" x="1392.85" y="1487.42" width="22.66" height="3.64"/><rect class="cls-2" x="1390.05" y="1497.77" width="28.25" height="3.64"/><rect class="cls-2" x="1390.05" y="1512.04" width="28.25" height="3.64"/><rect class="cls-2" x="1390.05" y="1515.7" width="28.25" height="3.86"/><rect class="cls-2" x="1378.02" y="1551.76" width="52.31" height="4.2"/><rect class="cls-2" x="1378.02" y="1571.06" width="52.31" height="4.2"/><rect class="cls-2" x="1381.38" y="1555.96" width="45.6" height="15.11"/><path class="cls-2" d="M1404.18,1535.26h-20.64s8.49,2.42,14.58,5.99h12.13c6.09-3.58,14.58-5.99,14.58-5.99h-20.64Z"/><g><polygon class="cls-2" points="1426.1 1522.67 1382.25 1522.67 1382.65 1526.58 1425.7 1526.58 1426.1 1522.67"/><polygon class="cls-2" points="1426.42 1519.58 1381.94 1519.58 1382.25 1522.67 1426.1 1522.67 1426.42 1519.58"/><polygon class="cls-2" points="1425.7 1526.58 1382.65 1526.58 1382.96 1529.66 1425.39 1529.66 1425.7 1526.58"/><polygon class="cls-2" points="1382.96 1529.66 1383.22 1532.18 1425.13 1532.18 1425.39 1529.66 1382.96 1529.66"/><polygon class="cls-2" points="1383.53 1535.26 1424.82 1535.26 1425.13 1532.18 1383.22 1532.18 1383.53 1535.26"/></g><line class="cls-2" x1="1408.69" y1="1566.03" x2="1399.19" y2="1566.03"/><polyline class="cls-2" points="1426.98 1561 1426.98 1566.03 1416.58 1566.03"/><line class="cls-2" x1="1393.05" y1="1561" x2="1419.58" y2="1561"/><polyline class="cls-2" points="1395.11 1566.03 1381.94 1566.03 1381.94 1561 1385.91 1561"/><path class="cls-2" d="M1393.27,1559.73c0,2.09-1.69,3.78-3.78,3.78s-3.78-1.69-3.78-3.78,1.69-3.78,3.78-3.78,3.78,1.69,3.78,3.78Z"/><path class="cls-2" d="M1416.67,1565.05c0,2.24-1.82,4.05-4.05,4.05s-4.05-1.81-4.05-4.05,1.82-4.05,4.05-4.05,4.05,1.82,4.05,4.05Z"/><path class="cls-2" d="M1426.98,1560.92c0,2.04-1.66,3.7-3.7,3.7s-3.7-1.66-3.7-3.7,1.66-3.7,3.7-3.7,3.7,1.66,3.7,3.7Z"/><path class="cls-2" d="M1399.79,1567.7c0,1.46-1.18,2.64-2.64,2.64s-2.64-1.18-2.64-2.64,1.18-2.64,2.64-2.64,2.64,1.18,2.64,2.64Z"/></g><g><line class="cls-5" x1="1323.19" y1="1842.14" x2="1647.8" y2="1842.14"/><line class="cls-3" x1="1569" y1="1874.4" x2="639.21" y2="1874.4"/><line class="cls-3" x1="1569" y1="1809.88" x2="639.21" y2="1809.88"/><line class="cls-5" x1="564.04" y1="1839.18" x2="938.65" y2="1839.18"/></g><g><path class="cls-8" d="M1248.07,1764.37l24.7-16.41s.08-.03,.1-.03,.06,0,.1,.03l24.7,16.41h27.13l-8.78-29.15h-90.09l-8.78,29.15h30.92Z"/><path class="cls-9" d="M1350.74,1722.96l44.31-29.25s.07-.03,.1-.03,.06,0,.1,.03l44.31,29.25h-7.87l-36.45-24.06s-.06-.02-.08-.02-.05,0-.08,.02l-36.45,24.06h-7.87Z"/><polyline class="cls-8" points="1118.35 1692.6 1066.15 1692.6 1040.44 1722.38 1080.72 1722.38"/><path class="cls-9" d="M1170.51,1718.77l-45.51-30.04s-.03-.02-.05-.02-.04,0-.05,.02l-45.51,30.04h8.95s36.57-24.14,36.57-24.14c.01,0,.03-.01,.04-.01s.03,0,.04,.01l36.57,24.14h8.95Z"/><rect class="cls-6" x="1135.57" y="1742.03" width="12.69" height="10.97"/><rect class="cls-6" x="1230.24" y="1773.5" width="11.72" height="17.47" rx=".14" ry=".14"/><rect class="cls-6" x="1301.5" y="1773.5" width="11.72" height="17.47" rx=".15" ry=".15"/><rect class="cls-6" x="1372" y="1730.93" width="11.79" height="11.79" rx=".15" ry=".15"/><rect class="cls-6" x="1398.31" y="1774.01" width="20.35" height="15.32" rx=".15" ry=".15"/><rect class="cls-6" x="1406.75" y="1730.93" width="11.79" height="11.79" rx=".15" ry=".15"/><rect class="cls-6" x="1135.57" y="1731.78" width="12.69" height="10.25"/><rect class="cls-6" x="1118.47" y="1742.03" width="12.69" height="10.97"/><rect class="cls-6" x="1118.47" y="1731.78" width="12.69" height="10.25"/><rect class="cls-6" x="1101.79" y="1742.03" width="12.69" height="10.97"/><rect class="cls-6" x="1101.79" y="1731.78" width="12.69" height="10.25"/><rect class="cls-6" x="1135.57" y="1774.93" width="12.69" height="10.97"/><rect class="cls-6" x="1135.57" y="1764.68" width="12.69" height="10.25"/><rect class="cls-6" x="1118.47" y="1774.93" width="12.69" height="10.97"/><rect class="cls-6" x="1118.47" y="1764.68" width="12.69" height="10.25"/><rect class="cls-6" x="1101.52" y="1774.93" width="12.69" height="10.97"/><rect class="cls-6" x="1101.52" y="1764.68" width="12.69" height="10.25"/><rect class="cls-6" x="1067.26" y="1734.44" width="15.46" height="11.23"/><rect class="cls-6" x="1051.95" y="1734.44" width="15.31" height="11.23"/><rect class="cls-6" x="1051.95" y="1731.78" width="30.78" height="2.66"/><path class="cls-9" d="M1238.28,1767.55l32.49-21.59s.08-.03,.1-.03,.06,0,.1,.03l32.49,21.59h-6.52l-25.99-17.27s-.06-.02-.08-.02-.05,0-.08,.02l-25.99,17.27h-6.52Z"/><polygon class="cls-8" points="1357.04 1766.37 1435.38 1766.37 1430.4 1753.11 1362.01 1753.11 1357.04 1766.37"/></g><g><g><g><polyline class="cls-2" points="1296.73 1762.37 1322.79 1762.37 1314.01 1733.22 1223.92 1733.22 1215.14 1762.37 1241 1762.37"/><rect class="cls-2" x="1227.24" y="1771.5" width="11.72" height="17.47" rx=".14" ry=".14"/><rect class="cls-2" x="1298.5" y="1771.5" width="11.72" height="17.47" rx=".14" ry=".14"/><path class="cls-2" d="M1236.28,1765.55l32.49-21.59s.08-.03,.1-.03,.06,0,.1,.03l32.49,21.59h-6.52l-25.99-17.27s-.06-.02-.08-.02-.05,0-.08,.02l-25.99,17.27h-6.52Z"/><polyline class="cls-2" points="1290.27 1762.37 1290.27 1804.08 1247.32 1804.08 1247.32 1762.37"/><polyline class="cls-2" points="1318.75 1762.37 1318.75 1804.08 1219.18 1804.08 1219.18 1762.37"/><g><path class="cls-2" d="M1268.97,1756.7c-3.43,0-6.22,2.81-6.22,6.26s2.79,6.26,6.22,6.26,6.22-2.81,6.22-6.26-2.79-6.26-6.22-6.26Z"/><line class="cls-2" x1="1268.97" y1="1756.7" x2="1268.97" y2="1769.14"/><line class="cls-2" x1="1275.14" y1="1762.92" x2="1262.79" y2="1762.92"/></g><polyline class="cls-2" points="1260.89 1804.08 1260.89 1777.78 1276.7 1777.78 1276.7 1804.08"/></g><g><polygon class="cls-2" points="1218.71 1781.2 1196.2 1766.23 1173.68 1781.2 1175.59 1781.2 1196.2 1767.5 1216.8 1781.2 1218.71 1781.2"/><polyline class="cls-2" points="1215.14 1779.85 1215.14 1804.08 1177.21 1804.08 1177.21 1779.85"/><line class="cls-2" x1="1183.53" y1="1787.26" x2="1208.82" y2="1787.26"/><line class="cls-2" x1="1183.53" y1="1790.06" x2="1208.82" y2="1790.06"/><line class="cls-2" x1="1183.53" y1="1792.86" x2="1208.82" y2="1792.86"/><line class="cls-2" x1="1183.53" y1="1795.67" x2="1208.82" y2="1795.67"/><line class="cls-2" x1="1183.53" y1="1798.47" x2="1208.82" y2="1798.47"/><line class="cls-2" x1="1183.53" y1="1801.27" x2="1208.82" y2="1801.27"/><polyline class="cls-2" points="1183.53 1804.08 1183.53 1784.45 1208.82 1784.45 1208.82 1804.08"/><g><path class="cls-2" d="M1196.27,1774.23c-1.52,0-2.76,1.25-2.76,2.78s1.24,2.78,2.76,2.78,2.76-1.25,2.76-2.78-1.24-2.78-2.76-2.78Z"/><line class="cls-2" x1="1196.27" y1="1774.23" x2="1196.27" y2="1779.75"/><line class="cls-2" x1="1199.02" y1="1776.99" x2="1193.53" y2="1776.99"/></g></g><g><rect class="cls-2" x="1318.75" y="1783.14" width="22.35" height="21.04"/><line class="cls-2" x1="1321.95" y1="1804.19" x2="1321.95" y2="1783.13"/><line class="cls-2" x1="1325.14" y1="1804.19" x2="1325.14" y2="1783.13"/><line class="cls-2" x1="1328.33" y1="1804.19" x2="1328.33" y2="1783.13"/><line class="cls-2" x1="1331.52" y1="1804.19" x2="1331.52" y2="1783.13"/><line class="cls-2" x1="1334.72" y1="1804.19" x2="1334.72" y2="1783.13"/><line class="cls-2" x1="1337.91" y1="1804.19" x2="1337.91" y2="1783.13"/></g></g><g><path class="cls-2" d="M1427.29,1719.46v30.32c0,.08-.07,.15-.15,.15h-68.26c-.08,0-.15-.06-.15-.15v-30.14"/><rect class="cls-2" x="1370" y="1727.93" width="11.79" height="11.79" rx=".15" ry=".15"/><line class="cls-2" x1="1369.93" y1="1730.82" x2="1381.85" y2="1730.82"/><rect class="cls-2" x="1396.31" y="1771.01" width="20.35" height="15.32" rx=".15" ry=".15"/><path class="cls-2" d="M1374.54,1703.71c-.08,0-.15-.07-.15-.15v-7.69h-9.33v14.04c0,.08-.07,.15-.15,.15"/><path class="cls-2" d="M1365.3,1695.88c-1.15,0-2.08-.93-2.08-2.08s.93-2.12,2.08-2.12h8.66c1.15,0,2.08,.93,2.08,2.08s-.93,2.12-2.08,2.12h-8.66Z"/><path class="cls-2" d="M1348.74,1720.96l44.31-29.25s.07-.03,.1-.03,.06,0,.1,.03l44.31,29.25h-7.87l-36.45-24.06s-.06-.02-.08-.02-.05,0-.08,.02l-36.45,24.06h-7.87Z"/><polyline class="cls-2" points="1427.29 1763.18 1427.29 1804.08 1358.75 1804.08 1358.75 1763.18"/><polygon class="cls-2" points="1353.85 1763.18 1432.19 1763.18 1427.21 1749.92 1358.82 1749.92 1353.85 1763.18"/><g><path class="cls-2" d="M1393.01,1706.79c-3.45,0-6.26,2.81-6.26,6.26s2.81,6.26,6.26,6.26,6.26-2.81,6.26-6.26-2.81-6.26-6.26-6.26Z"/><line class="cls-2" x1="1393.01" y1="1706.79" x2="1393.01" y2="1719.23"/><line class="cls-2" x1="1399.23" y1="1713.01" x2="1386.8" y2="1713.01"/></g><polyline class="cls-2" points="1370.39 1804.08 1370.39 1776.72 1385.87 1776.72 1385.87 1804.08"/><line class="cls-2" x1="1396.31" y1="1774.16" x2="1416.66" y2="1774.16"/><line class="cls-2" x1="1404.69" y1="1730.82" x2="1416.6" y2="1730.82"/><rect class="cls-2" x="1404.75" y="1727.93" width="11.79" height="11.79" rx=".15" ry=".15"/></g><g><polygon class="cls-2" points="1088.92 1715.06 1088.92 1804.39 1157.26 1804.39 1157.26 1715.24 1122.96 1692.6 1088.92 1715.06"/><polyline class="cls-2" points="1117.11 1690.53 1064.9 1690.53 1039.2 1720.31 1088.92 1720.31"/><path class="cls-2" d="M1168.51,1716.77l-45.51-30.04s-.03-.02-.05-.02-.04,0-.05,.02l-45.51,30.04h8.95s36.57-24.14,36.57-24.14c.01,0,.03-.01,.04-.01s.03,0,.04,.01l36.57,24.14h8.95Z"/><rect class="cls-2" x="1133.57" y="1739.03" width="12.69" height="10.97"/><rect class="cls-2" x="1133.57" y="1728.78" width="12.69" height="10.25"/><rect class="cls-2" x="1116.47" y="1739.03" width="12.69" height="10.97"/><rect class="cls-2" x="1116.47" y="1728.78" width="12.69" height="10.25"/><rect class="cls-2" x="1099.79" y="1739.03" width="12.69" height="10.97"/><rect class="cls-2" x="1099.79" y="1728.78" width="12.69" height="10.25"/><rect class="cls-2" x="1133.57" y="1771.93" width="12.69" height="10.97"/><rect class="cls-2" x="1133.57" y="1761.68" width="12.69" height="10.25"/><rect class="cls-2" x="1116.47" y="1771.93" width="12.69" height="10.97"/><rect class="cls-2" x="1116.47" y="1761.68" width="12.69" height="10.25"/><rect class="cls-2" x="1099.52" y="1771.93" width="12.69" height="10.97"/><rect class="cls-2" x="1099.52" y="1761.68" width="12.69" height="10.25"/><rect class="cls-2" x="1065.26" y="1731.44" width="15.46" height="11.23"/><rect class="cls-2" x="1049.95" y="1731.44" width="15.31" height="11.23"/><rect class="cls-2" x="1049.95" y="1728.78" width="30.78" height="2.66"/><polygon class="cls-2" points="1075.6 1804.39 1088.92 1804.39 1088.92 1720.31 1041.47 1720.31 1041.47 1804.39 1054.59 1804.39 1075.6 1804.39"/><rect class="cls-2" x="1054.69" y="1769.88" width="20.65" height="34.51"/><line class="cls-2" x1="1123.17" y1="1702.16" x2="1123.17" y2="1715.03"/><line class="cls-2" x1="1129.6" y1="1708.6" x2="1116.73" y2="1708.6"/><circle class="cls-2" cx="1123.17" cy="1708.6" r="6.44"/></g></g><g><g><path class="cls-3" d="M1690.55,1738.26c0,20.84-11.65,37.73-26.03,37.73s-26.03-16.89-26.03-37.73,11.65-37.73,26.03-37.73,26.03,16.89,26.03,37.73Z"/><line class="cls-3" x1="1664.52" y1="1746.84" x2="1664.52" y2="1805.15"/></g><g><path class="cls-3" d="M1623.99,1713.93c0,28.42-15.89,51.46-35.5,51.46s-35.5-23.04-35.5-51.46,15.89-51.46,35.5-51.46,35.5,23.04,35.5,51.46Z"/><line class="cls-3" x1="1588.49" y1="1698.89" x2="1588.49" y2="1805.15"/><line class="cls-3" x1="1588.49" y1="1738.2" x2="1568.78" y2="1715.46"/><line class="cls-3" x1="1576.03" y1="1723.82" x2="1578.15" y2="1705.45"/><line class="cls-3" x1="1588.49" y1="1752.51" x2="1607.37" y2="1729.96"/><line class="cls-3" x1="1600.48" y1="1738.2" x2="1599.22" y2="1725.62"/></g></g><g><path class="cls-3" d="M1275.65,1317.26v14.35m0-91.69v15.14m-31.49,30.7h-14.35m91.69,0h-15.14m-8.44,22.27l10.15,10.15m-64.83-64.83l10.71,10.71m-.56,43.98l-10.15,10.15m64.83-64.83l-10.71,10.71m7.32,33.9l13.23,5.56m-84.53-35.51l13.96,5.86m16.11,40.92l-5.56,13.23m35.51-84.53l-5.86,13.96m17.23,16.33l13.28-5.46m-84.8,34.86l14-5.76m40.37,17.45l5.46,13.28m-34.86-84.8l5.76,14"/><path class="cls-3" d="M1275.65,1308.03c-12.3,0-22.27-9.97-22.27-22.27s9.97-22.27,22.27-22.27,22.27,9.97,22.27,22.27-9.97,22.27-22.27,22.27"/></g><path class="cls-3" d="M244.3,1453.24c-5.13,0-9.58,3.82-10.34,8.89l-.15,1.03-1.04,.05c-5.69,.25-10.15,4.91-10.15,10.61s4.77,10.63,10.62,10.63h26.15c5.86,0,10.63-4.77,10.63-10.63s-4.77-10.63-10.63-10.63c-1.04,0-2.08,.15-3.08,.45l-1.46,.44-.16-1.51c-.57-5.32-5.04-9.33-10.4-9.33Z"/><path class="cls-3" d="M375.42,1527.16l-.16,1.51-1.46-.44c-1-.3-2.03-.45-3.08-.45-5.86,0-10.63,4.77-10.63,10.63s4.77,10.63,10.63,10.63h26.15c5.86,0,10.62-4.77,10.62-10.63s-4.46-10.36-10.15-10.61l-1.04-.05-.15-1.03c-.76-5.07-5.21-8.89-10.34-8.89s-9.83,4.01-10.4,9.33Z"/><g><g><rect x="1391.21" y="1454.71" width="8.64" height="26.06"/><path d="M1386.89,1478.83l-.72-.43c-4.63-2.8-9.62-4.55-14.72-5.16h0v-10.98h0c5.11-.62,10.09-2.37,14.72-5.16l.72-.43v22.18Z"/><rect x="1386.89" y="1452.74" width="8.64" height="30" rx="4.32" ry="4.32"/><rect x="1369.18" y="1461.22" width="3.76" height="13.04" rx="1.88" ry="1.88"/></g><g><g><rect x="464.17" y="1651.45" width="8.64" height="26.06" transform="translate(2132.96 1195.99) rotate(90)"/><path d="M457.39,1655.84l.43-.72c2.8-4.63,4.55-9.62,5.16-14.72h0s10.98,0,10.98,0h0c.62,5.11,2.37,10.09,5.16,14.72l.43,.72h-22.18Z"/><rect x="464.17" y="1645.16" width="8.64" height="30" rx="4.32" ry="4.32" transform="translate(2128.64 1191.67) rotate(90)"/><rect x="466.61" y="1633.49" width="3.76" height="13.04" rx="1.88" ry="1.88" transform="translate(2108.5 1171.53) rotate(90)"/></g><path class="cls-1" d="M572.17,1314.76h597.62c11.05,0,20,8.95,20,20v112.52c0,11.05,8.95,20,20,20h176.35"/><path class="cls-1" d="M503.17,1314.76h-14.26c-11.05,0-20,8.95-20,20v311.75"/></g></g><g><g><rect x="1090.08" y="1673.18" width="8.64" height="26.06" transform="translate(2780.61 591.81) rotate(90)"/><path d="M1083.31,1677.57l.43-.72c2.8-4.63,4.55-9.62,5.16-14.72h0s10.98,0,10.98,0h0c.62,5.11,2.37,10.09,5.16,14.72l.43,.72h-22.18Z"/><rect x="1090.08" y="1666.89" width="8.64" height="30" rx="4.32" ry="4.32" transform="translate(2776.29 587.49) rotate(90)"/><rect x="1092.52" y="1655.22" width="3.76" height="13.04" rx="1.88" ry="1.88" transform="translate(2756.14 567.35) rotate(90)"/></g><path class="cls-1" d="M549.25,1314.76v95.64c0,11.05,8.95,20,20,20h505.15c11.05,0,20,8.95,20,20v231.49"/></g><g><circle class="cls-6" cx="551.9" cy="1322.02" r="45.73"/><circle class="cls-4" cx="548.9" cy="1318.02" r="45.73"/><polygon class="cls-7" points="548.55 1357.8 574.17 1315.76 557.25 1315.76 557.25 1284.24 557.25 1284.24 531.63 1326.28 548.55 1326.28 548.55 1357.8 548.55 1357.8"/><polygon class="cls-2" points="544.55 1354.8 570.17 1312.76 553.25 1312.76 553.25 1281.24 553.25 1281.24 527.63 1323.28 544.55 1323.28 544.55 1354.8 544.55 1354.8"/></g><line class="cls-1" x1="548.9" x2="548.9" y2="1272.29"/></svg>