<?xml version="1.0" encoding="UTF-8"?><svg id="Layer_1" xmlns="http://www.w3.org/2000/svg" viewBox="0 0 720 540"><defs><style>.cls-1{fill:#fff;}.cls-2{fill:#ffcd0c;}.cls-3{fill:#231f20;}.cls-4{fill:#1e00b2;}.cls-5{fill:none;stroke:#231f20;stroke-linecap:round;stroke-linejoin:round;stroke-width:2px;}</style></defs><g><path class="cls-2" d="M551.5589691882,421.4843936892s-16.4053577709-18.3963251514-16.8487458187-37.0186231615,4.8482540688-36.3578199246,4.8482540688-36.3578199246c0,0,1.3591786012,32.8107155417,12.0004917499,39.9049243075,10.6413131487,7.0942087658,.8287471804-57.197058174-4.6845889602-65.1780430355s12.8627818008,9.3111490051,13.650953907,27.4900589674,14.9765896377-48.6670920975,5.2220525848-56.7008735426c0,0,16.8487458187,9.7017404693,13.3016414358,43.8426201546s17.2921338666,2.8176714051,15.961969723-5.4636790393,5.8864002748,19.6520965708,.0611778263,33.3971260545-2.7215061134,26.1598948238-2.7215061134,26.1598948238c0,0,14.6318055794-13.3016414358,12.4148653401-30.5937753024s12.4288504025,23.0561784888,.2286865551,41.2350884511c0,0-18.7918340266-10.7745693952-31.130386237-3.5664471578-19.5090741059,11.3971062808-22.3048660615,22.8495484049-22.3048660615,22.8495484049Z"/><path class="cls-2" d="M504.3556280705,489.170655475s-7.8701378495-14.3992951376-8.3135258974-25.927384382c0,0,6.8228963971,13.7900557418,10.9738541846,11.6389362563,0,0-10.3087721128-18.9179804571-2.7711752991-44.671345822,0,0,7.6484438256,24.1398544799,11.6389362563,27.2559678792,0,0-.4433880479-9.2604603934,5.3206565743-11.4965464064,0,0,2.3381026605,14.5755048573,5.7979367601,17.5557681454,6.9965719188,6.0267705999,6.8716203519,10.0956257861,6.8716203519,10.0956257861,0,0-3.4338228011-3.9540329292-13.4220240995-2.8928715831s-16.0962788313,18.4418501265-16.0962788313,18.4418501265Z"/><path class="cls-2" d="M633.9429157348,467.6676440023s-5.3096230397-3.6120317095-4.4228469439-19.1306133846-2.8820223111-20.1741561777-2.8820223111-20.1741561777l11.3063952205,19.2904163981c2.8820223111-17.7385582306-3.9904924307-42.7899829348-3.9904924307-42.7899829348,0,0,11.1773839969,13.1496285231,12.2858541165,22.6824715521,0,0,5.4496677979-7.6072779248,4.7845857261-13.371322547,0,0,5.5423505983,7.5375968136,4.8772685265,18.4006039862s3.8614812072,13.5930165709,3.8614812072,13.5930165709c0,0,6.429126694-1.5518581675,8.331690109-12.3432533322,0,0,4.6716160415,7.9093728536,.5360708482,17.8856039305,0,0-7.1839884522-4.5868801861-15.7054204952-3.6512856295-11.0015787115,1.2078975816-18.982563573,19.6085015678-18.982563573,19.6085015678Z"/></g><path class="cls-4" d="M378.7464599609,132.1796822283s-1.427734375-2.6489257812-5.624206543-8.0323486328c-4.196472168-5.3833618164-5.7619018555-3.1965942383-8.1796264648-6.637878418-10.0269775391-14.2720947266-16.8717651367-16.2719726562-16.8717651367-16.2719726562-2.3455200195-.1944580078-4.7023925781-.1600341797-7.0523681641,.0819702148l-.752746582-.0819702148c-17.6494140625-30.5099487305-51.302734375-51.1248168945-89.9163818359-51.1248168945-19.4303588867,0-37.604675293,5.2198486328-53.1159057617,14.2937011719v-.0035400391h-69.0276489258s-21.8822021484-17.4176025391-28.9097290039-21.5827636719c-13.7791137695-8.166809082-17.8907470703-3.1976318359-17.8907470703-3.1976318359l-1.9383544922-1.143371582-9.9652099609-5.8782348633s-14.5920410156-7.7384033203-25.1647949219,4.3262329102l-.0003662109-.0044555664c-3.4844970703,.2553100586-6.8618774414,1.3952026367-9.8265991211,3.2818603516h-.0100097656l-9.5200195312-.5800170898s-.4699707031,3.4099731445,4.1500244141,5.3900146484c-1.3690185547,1.7087402344-2.5083007812,3.6572265625-3.3580322266,5.805480957l-15.541015625-6.128112793s-1.5469360352,14.1892089844,14.9368896484,20.6964111328c0,0,.6622314453,1.9959716797,1.2891235352,3.2716064453l-4.4755249023-1.3306274414s-1.973449707,12.2145385742,14.862121582,16.32421875c2.0254516602,5.3157348633,6.4000854492,9.6672973633,12.2758178711,11.4064331055l48.0830688477,14.2321777344-4.3695678711,.2344360352s.9376220703,7.303527832,11.2463989258,6.8046875v.0053100586c2.0551757812,2.6932373047,5.2888793945,4.4387817383,8.9382324219,4.4387817383h.3635864258c25.2464599609,34.040222168,48.0101318359,25.5374145508,48.0101318359,25.5374145508l5.0166015625-1.2374267578c8.4078369141-13.7599487305,8.1874389648-27.6211547852,8.1874389648-27.62109375v-.0000610352c0-16.9019775391,13.7017822266-30.6038208008,30.6038208008-30.6038208008h57.8130493164c16.9019775391,0,30.6038208008,13.7018432617,30.6038208008,30.6038208008v.0000610352s-.7330322266,36.6732177734,2.1159057617,46.3936157227c3.7008056641,12.6265258789,15.7162475586,21.748046875,16.2059326172,33.2540893555,1.2586669922,.1104125977,2.5327758789,.166809082,3.8200683594,.166809082,17.86328125,0,33.1907958984-10.8568725586,39.7439575195-26.33203125l.3088378906-.7490234375c18.5586547852,38.5899658203,32.442199707,32.6873779297,32.442199707,32.6873779297,8.8667602539-10.1207275391,16.4360351562-27.3706054688,16.4360351562-41.8832397461l-25.9424438477-28.8120727539Zm-40.3192749023,40.9025268555c-2.6049194336,.0026245117-7.2026977539-1.2623901367-7.5641479492-4.0383911133-.3614501953-2.7760620117,3.0194091797-5.1220092773,4.9592285156-5.1960449219,1.9398193359-.0740966797,6.4439086914,1.5842285156,6.6859130859,4.579284668,.2420043945,2.9951171875-1.4761352539,4.6525268555-4.0809936523,4.6551513672Z"/><path class="cls-1" d="M6.8886575386,522.5331012015H152.2011575386c25.9033203125,0,105.07421875-43.8642578125,132.1381835938-123.51171875,21.6142578125-63.6098632812,36.6831054688-138.0502929687,40.23828125-160.8740234375,3.076171875-19.7446289062,9.548828125-33.3173828125,19.23828125-40.3408203125,6.2709960938-4.5458984375,13.8408203125-6.2563476562,21.8950195312-4.9389648438,3.443359375,.5620117188,8.48828125,2.8569335938,24.8681640625,23.0961914062,8.1640625,10.0869140625,15.2392578125,19.8422851562,15.5361328125,20.2524414062l-9.71875,7.0390625c-6.0031591151-8.2874928107-12.9021591831-17.1536683241-19.7322859121-24.9283142773l-.2010742815-2.8495155578c-2.0909314454-1.9970835789-6.5257112988-5.7503223962-6.5257112988-5.7503223962-3.2756819593-3.300367341-5.6302563336-4.7873246761-6.1649887225-5.0160637332l.0049195899-.0007059104c-4.9614257812-.8090820312-9.189453125,.109375-12.9189453125,2.8125-6.9067382812,5.005859375-11.8940429688,16.234375-14.4233398438,32.4711914062-3.755859375,24.1069335938-18.6538085938,97.9077148437-40.7338867188,162.888671875-29.68359375,87.3564453125-111.1416015625,131.650390625-143.5,131.650390625H6.8886575386"/><polygon class="cls-1" points="414.6556396484 257.4194946289 407.1084594727 239.2857055664 404.2378540039 235.3222045898 389.1810302734 246.2272338867 392.0516357422 250.1907348633 406.9274291992 263.0167236328 409.2583007812 266.2350463867 416.9865112305 260.6378173828 414.6556396484 257.4194946289"/><path class="cls-3" d="M341.0296866167,172.101048389s-2.6049047812-2.9396538244-4.5447274906-2.3299952586-1.0530466137,5.0937087056,.9421996017,5.3734531579,4.2676099607-1.4339682186,3.6025278889-3.0434578994Z"/><g><g><path class="cls-5" d="M116.3712163334,77.8712924391l-57.5302234023-16.9718228304c-10.0025149208-2.9606583016-20.5113647049,2.747960425-23.4720520938,12.7505736168"/><path class="cls-5" d="M58.8409929311,60.8994696087c-10.0025149208-2.9606583016-20.5113647049,2.747960425-23.4720520938,12.7505736168"/><path class="cls-5" d="M35.8435662961,85.7157338704c2.0254720656,5.3157366972,6.400098742,9.6672674895,12.2758207995,11.4064306325l48.0830474253,14.2321680749"/><path class="cls-5" d="M35.3689287405,73.6500840941l-14.387494522-4.2585745118s.7339776698,13.0066518991,17.5695630185,17.1163552756"/><path class="cls-5" d="M38.2071017429,74.7486437084s4.2581980166,3.1905305926,1.9683917267,9.2423528194"/></g><g><path class="cls-5" d="M114.4732331955,64.7982057135l-62.1539684743-24.4411663946c-10.8053295158-4.2607310817-23.1381649722,1.3471691512-27.5460263115,12.5256255541"/><path class="cls-5" d="M52.3192647212,40.3570393189c-10.8053295158-4.2607310817-23.1381649722,1.3471691512-27.5460263115,12.5256255541"/><path class="cls-5" d="M23.9600876671,66.7207942117c.3682963652,1.3848234622,.8699992635,2.7256905442,1.4968550353,4.0013503722"/><path class="cls-5" d="M24.7732204001,52.8827105458l-15.542253168-6.1285832197s-.6290656946,14.9367742997,17.6548811419,21.1093688069"/><path class="cls-5" d="M27.8104498791,54.3872418899s4.3853691898,4.0208795488,1.1635702404,10.7404885467"/></g><path class="cls-5" d="M362.9326171875,193.0688476562c3.443359375,.5620117188,8.48828125,2.8569335938,24.8681640625,23.0961914062,8.1640625,10.0869140625,15.2392578125,19.8422851562,15.5361328125,20.2524414062l-9.71875,7.0390625c-6.0031591151-8.2874928107-12.9021591831-17.1536683241-18.9264726398-24.3168535456"/><g><path class="cls-5" d="M593.489222687,72.6163088762c-1.8351876401-10.5974275208-11.0302827639-18.6573989198-22.1080017188-18.6573989198-8.7986532389,0-16.4110216046,5.0860871157-20.0917355418,12.488261462-1.9777242718-.5723510933-4.0652967744-.8856276048-6.2256199737-.8856276048-6.9189181502,0-13.1029554373,3.144624163-17.2201735553,8.0874144517-2.1395698658-.6784743668-4.4141504291-1.0482333942-6.7764575381-1.0482333942-12.3962018028,0-22.4465167166,10.0934179912-22.4465167166,22.5423013331,0,12.3509701783,9.8943988437,22.3790113678,22.1584786913,22.5350034575v.0072978755h72.1042266636c12.3962778223,0,22.4465927361-10.0933419717,22.4465927361-22.5423013331,0-12.2439346704-9.7251793545-22.2030261399-21.8407930466-22.526717328Z"/><line class="cls-5" x1="520.779196334" y1="117.6780296618" x2="463.9561128982" y2="117.6780296618"/><line class="cls-5" x1="451.4113689203" y1="116.9750009846" x2="431.3953488372" y2="116.9750009846"/><line class="cls-5" x1="622.6944083701" y1="133.8789332665" x2="479.213462011" y2="133.8789332665"/><line class="cls-5" x1="643.0147346594" y1="116.9750009846" x2="672.5391263778" y2="116.9750009846"/></g><path class="cls-5" d="M435.1560324271,13.6042292029c-5.133940732,0-9.5797377601,3.8218968655-10.341014728,8.8903343789l-.1539325639,1.0255932525-1.0361385509,.0456722992c-5.6910420079,.2507837515-10.1491118917,4.9125254566-10.1491118917,10.6128890763,0,5.8586870588,4.7662949195,10.6251979229,10.6249819782,10.6251979229h26.1474452672c5.8586870588,0,10.625017969-4.7665108642,10.625017969-10.6251979229s-4.7663309103-10.625017969-10.625017969-10.625017969c-1.0449203011,0-2.0803390365,.1528888313-3.0778234902,.4542756188l-1.455107215,.4396993531-.1620304893-1.5115047665c-.5693741316-5.3200490528-5.0390690373-9.3319412433-10.3972683164-9.3319412433Z"/><path class="cls-5" d="M650.7091456267,163.9744272521l-.1620304894,1.5115047665-1.455107215-.4396993532c-.9974844537-.3013867876-2.0329031891-.4542756189-3.0778234902-.4542756189-5.8586870588-.0000000003-10.6250179692,4.7663309098-10.6250179695,10.6250179685s4.7663309098,10.6251979231,10.6250179685,10.6251979234l26.1474452672,.0000000012c5.8586870588,.0000000003,10.6249819785-4.7665108637,10.6249819787-10.6251979224,.0000000003-5.7003636198-4.4580698834-10.362105325-10.1491118913-10.6128890768l-1.0361385509-.0456722992-.1539325639-1.0255932525c-.7612769677-5.0684375134-5.2070739956-8.8903343791-10.3410147276-8.8903343793-5.3581992791-.0000000002-9.8278941849,4.01189219-10.3972683168,9.3319412428Z"/><g><path class="cls-5" d="M677.6168848718,480.2157918646c0,16.9013867766-9.4528162291,30.6016131498-21.1144864526,30.6016131498-11.6604157274,0-21.1132319565-13.7002263733-21.1132319565-30.6016131498s9.4528162291-30.6028676459,21.1132319565-30.6028676459c11.6616702235,0,21.1144864526,13.7014808694,21.1144864526,30.6028676459Z"/><line class="cls-5" x1="656.5023984192" y1="487.170655475" x2="656.5023984192" y2="534.4654090501"/></g><g><path class="cls-5" d="M541.5328610958,495.47591538c0,12.1471182089-6.7937902174,21.9935450995-15.1750957629,21.9935450995-8.3804039324,0-15.1741941498-9.8464268906-15.1741941498-21.9935450995s6.7937902174-21.9944467127,15.1741941498-21.9944467127c8.3813055456,0,15.1750957629,9.8473285038,15.1750957629,21.9944467127Z"/><line class="cls-5" x1="526.3577653329" y1="500.4744135221" x2="526.3577653329" y2="534.4654090501"/></g><g><path class="cls-5" d="M620.9560844707,447.6235281793c0,27.05542641-15.1317227932,48.9872840388-33.7979872664,48.9872840388-18.6677369535,0-33.7994597467-21.9318576288-33.7994597467-48.9872840388,0-27.055352786,15.1317227932-48.9886828951,33.7994597467-48.9886828951,18.6662644732,0,33.7979872664,21.9333301091,33.7979872664,48.9886828951Z"/><line class="cls-5" x1="587.1580972043" y1="433.3128603939" x2="587.1580972043" y2="534.4654090501"/><line class="cls-5" x1="587.1573609642" y1="470.7288053485" x2="568.3967105047" y2="449.0801793029"/><line class="cls-5" x1="575.2949861513" y1="457.0404077322" x2="577.3135357522" y2="439.5541153367"/><line class="cls-5" x1="587.1573609642" y1="484.3585982494" x2="605.1350200313" y2="462.8847556137"/><line class="cls-5" x1="598.5680524492" y1="470.7288053485" x2="597.3682018876" y2="458.7562890102"/></g><g><g><rect class="cls-5" x="390.8492045495" y="239.3095396235" width="18.5910666869" height="4.8938534684" transform="translate(-65.7388015449 280.6734031596) rotate(-35.914257081)"/><polygon class="cls-5" points="416.6556166907 256.4195305654 408.927399042 262.0167584033 394.0516287143 249.190739094 409.1084538046 238.285704534 416.6556166907 256.4195305654"/><rect class="cls-5" x="409.1858355893" y="258.8404317502" width="9.5422380758" height="3.9737422803" transform="translate(-74.2994948733 292.4007369518) rotate(-35.914257081)"/></g><line class="cls-5" x1="425.6111003001" y1="262.6910203703" x2="513.9944785669" y2="311.3429146412"/><line class="cls-5" x1="412.3445699097" y1="272.411449401" x2="446.5502278881" y2="349.2053890309"/><line class="cls-5" x1="494.1344041228" y1="320.3617390568" x2="506.8909689637" y2="331.1137012982"/><g><line class="cls-5" x1="452.7299587492" y1="329.7799632487" x2="454.9924752118" y2="333.8527927893"/><line class="cls-5" x1="458.2362768094" y1="339.6920656473" x2="464.1817922143" y2="350.3947814843"/><line class="cls-5" x1="467.3142606383" y1="356.033639872" x2="475.2016892109" y2="370.2320568214"/></g><g><line class="cls-5" x1="474.4763053228" y1="320.4767888952" x2="482.0880023854" y2="329.7390186874"/><line class="cls-5" x1="484.6224719984" y1="332.8230667997" x2="487.7092683702" y2="336.5792091005"/><line class="cls-5" x1="490.1138228267" y1="339.5051710431" x2="494.0466187347" y2="344.2907607909"/></g></g><path class="cls-5" d="M554.5589691882,419.4843936892s-16.4053577709-18.3963251514-16.8487458187-37.0186231615,4.8482540688-36.3578199246,4.8482540688-36.3578199246c0,0,1.3591786012,32.8107155417,12.0004917499,39.9049243075,10.6413131487,7.0942087658,.8287471804-57.197058174-4.6845889602-65.1780430355s12.8627818008,9.3111490051,13.650953907,27.4900589674,14.9765896377-48.6670920975,5.2220525848-56.7008735426c0,0,16.8487458187,9.7017404693,13.3016414358,43.8426201546s17.2921338666,2.8176714051,15.961969723-5.4636790393,5.8864002748,19.6520965708,.0611778263,33.3971260545-2.7215061134,26.1598948238-2.7215061134,26.1598948238c0,0,14.6318055794-13.3016414358,12.4148653401-30.5937753024s12.4288504025,23.0561784888,.2286865551,41.2350884511"/><path class="cls-5" d="M507.3556280705,487.170655475s-7.8701378495-14.3992951376-8.3135258974-25.927384382c0,0,6.8228963971,13.7900557418,10.9738541846,11.6389362563,0,0-10.3087721128-18.9179804571-2.7711752991-44.671345822,0,0,7.6484438256,24.1398544799,11.6389362563,27.2559678792,0,0-.4433880479-9.2604603934,5.3206565743-11.4965464064,0,0,2.3381026605,14.5755048573,5.7979367601,17.5557681454,6.9965719188,6.0267705999,7.6815278886,13.4622494312,7.6815278886,13.4622494312"/><path class="cls-5" d="M634.3863037826,464.7425471794s-2.7530110875-.6869348865-1.8662349918-16.2055165616-2.8820223111-20.1741561777-2.8820223111-20.1741561777l11.3063952205,19.2904163981c2.8820223111-17.7385582306-3.9904924307-42.7899829348-3.9904924307-42.7899829348,0,0,11.1773839969,13.1496285231,12.2858541165,22.6824715521,0,0,5.4496677979-7.6072779248,4.7845857261-13.371322547,0,0,5.5423505983,7.5375968136,4.8772685265,18.4006039862s3.8614812072,13.5930165709,3.8614812072,13.5930165709c0,0,6.429126694-1.5518581675,8.331690109-12.3432533322,0,0,4.6716160415,7.9093728536,.5360708482,17.8856039305"/><path class="cls-5" d="M355.9596217495,169.0185584513c-5.4621788428,17.5614584873-21.8428847443,30.3123823416-41.201728483,30.3123823416-1.2873091164,0-2.5614492675-.0563830433-3.8200856402-.166814317"/><path class="cls-5" d="M378.7440797332,156.1896672424s10.3906046671,8.8651340348,14.6318055794,23.6104135486"/><path class="cls-5" d="M354.8106690889,172.249929379c18.5586332686,38.5899416845,32.4422215173,32.6873382974,32.4422215173,32.6873382974,8.8667414974-10.1207240594,16.435996035-27.3706154696,16.435996035-41.8832455251l-25.9424300157-28.8120632781s-1.4277130384-2.6489348092-5.6241831526-8.0323265947-5.7619185829-3.1965832658-8.1796254701-6.6378693012c-10.0269962452-14.2721031811-16.8717992341-16.2719874237-16.8717992341-16.2719874237-22.5019434289-1.8659052998-46.0500986144,17.3407000332-54.4550313278,38.6924368371"/><path class="cls-5" d="M322.8053982452,232.7060196277l-39.3901425115,13.9315932257c-10.6635796301,3.6242244077-22.1276691351,5.5947353601-34.0659002976,5.5947353601-26.810928602,0-51.2304592257-9.938540169-69.5618129756-26.2272493444"/><line class="cls-5" x1="360.5248309692" y1="219.3653270078" x2="336.2995547394" y2="227.9333763415"/><g><path class="cls-5" d="M322.0797884625,175.9167409555c-1.0492501574-2.2647705078-1.6593166069-4.8903198242-1.6593166069-7.7000732422,0-8.4797973633,5.4722805038-15.3540649414,12.2227075526-15.3540649414,6.2992907806,0,11.4816002291,5.9875488281,12.1467650661,13.6782836914,.0491221074-.6220703125,.0759910741-1.2523803711,.0759910741-1.8906860352,0-10.4495239258-6.7434304282-18.9205932617-15.0618779021-18.9205932617s-15.0618779021,8.4710693359-15.0618779021,18.9205932617c0,4.2269897461,1.1170299198,8.1168212891,2.9818236703,11.2665405273"/><path class="cls-5" d="M334.8222539467,165.9100329612c1.9398227094-.0740487554,6.4439393729,1.5842640388,6.6859388104,4.5793295545s-1.476129248,4.6525168504-4.0810340292,4.6551437728-7.2026680547-1.262399397-7.5641147051-4.0384318552,3.0193872145-5.1219927166,4.9592099239-5.196041472Z"/><path class="cls-5" d="M341.0296866167,172.101048389s-2.6049047812-2.9396538244-4.5447274906-2.3299952586-1.0530466137,5.0937087056,.9421996017,5.3734531579,4.2676099607-1.4339682186,3.6025278889-3.0434578994Z"/></g><path class="cls-5" d="M160.3912344082,148.3749528988s-22.7636771044,8.5027983177-48.0101529011-25.5374218456l35.9419780133,49.1939849432"/><path class="cls-5" d="M173.5952750433,119.5164609009v-.0000612077c0-16.902025571,13.7017989528-30.6038245238,30.6038245238-30.6038245238h57.8130273454c16.902025571,0,30.6038245238,13.7017989528,30.6038245238,30.6038245238v.0000612077"/><path class="cls-5" d="M292.6159514363,119.5164609009s-.7330407612,36.6732063415,2.1159493711,46.3935720603c3.700770428,12.6265239022,15.7162234536,21.7480745264,16.205906819,33.2540935148,1.3270793854,31.1821917712-17.2952186247,34.6210760645-17.2952186247,34.6210760645,0,0-1.3301641436,6.1520091641-6.5676854589,6.1520091641-5.1543860564,0-6.6521234226-5.4995791466-6.6521234226-5.4995791466,0,0-10.2311983783-6.2419569906-12.7218240329-14.8367239835"/><path class="cls-5" d="M291.8829106751,232.316066836s-5.0484324634-3.6602824841-9.9038360899,0"/><path class="cls-5" d="M259.0723511437,222.3365052086s-5.0484324634-3.6602824841-9.9038360899,0"/><path class="cls-5" d="M220.5579760369,237.0952406079s-3.9632896269-2.8735176128-7.7750412877,0"/><path class="cls-5" d="M235.7804487558,127.5937650777s-.091484584,41.8647732411,.8867760957,48.5877000979c3.7687984068,25.9004134105,1.4993913778,42.1158343536-5.3965145611,52.8341282156-2.4386342632,3.7903647304-9.4569850423,10.1031301502-9.4569850423,10.1031301502,0,0-.5806441082,4.8104515235-4.2121864547,4.8104515235s-6.1256001157-4.8104515235-6.1256001157-4.8104515235c0,0-4.7911620982-2.401731502-9.9740941399-13.1136246722s-5.7459855997-21.8370226732,4.7932990352-49.8236336935c4.7354906312-12.5748889871,6.0681107171-48.5877000979,6.0681107171-48.5877000979"/><path class="cls-5" d="M270.2008579023,127.5937650777s3.9092382276,31.3720663234,6.8029699216,46.501502488,5.3174021678,33.8034534545-4.3965528104,41.3185593712-11.8598395172,9.168446688-11.8598395172,9.168446688c0,0-2.3013782029,5.7640446222-6.8725147418,5.7640446222s-7.0141630055-7.2306730121-7.0141630055-7.2306730121c0,0-8.920071922-6.3386545215-9.6436785214-9.7918576318"/><line class="cls-5" x1="243.8986896776" y1="148.9846114646" x2="238.1429828064" y2="189.5340650727"/><path class="cls-5" d="M199.4226288312,130.3623134545s-16.8097257386,59.0577384281-15.4622792946,70.6049751964,3.2691079784,19.4533622549,15.4622792946,21.3692165577"/><path class="cls-5" d="M173.5952750433,119.5163996932s.2282000922,14.0613906413-8.3656963693,27.9181238317-37.1924255484,42.5961494476-22.8497223011,73.8223397411c4.0507347011,8.8190496885,12.1251957624,12.1726238248,12.1251957624,12.1726238248,0,0,1.7400601261,4.3466170038,5.8149905205,4.2355654301s6.6508207179-3.9933239148,6.6508207179-3.9933239148c0,0,14.3117108307-6.5598015737,21.3864919287-17.3007343393"/><path class="cls-5" d="M124.1839167551,100.3399658203h-12.1663996653c-6.2124633789,0-11.2487182617,5.0362548828-11.2487182617,11.2487792969"/><path class="cls-5" d="M103.079284668,118.3987426758c2.0551757812,2.6932373047,5.2888793945,4.4387817383,8.9382324219,4.4387817383h32.0933837891"/><path class="cls-5" d="M100.7687988281,111.5887705003h-8.9359309673s2.6176406393,7.3035041382,12.9264127521,6.8046925843"/><path class="cls-5" d="M103.079284668,112.6576662014s1.8639986293,.6915392132,1.6853870614,3.102644363"/><g><path class="cls-5" d="M124.1839167551,100.3399658203h-12.1663996653c-6.2124633789,0-11.2487182617,5.0362548828-11.2487182617,11.2487792969"/><path class="cls-5" d="M103.079284668,118.3987426758c2.0551757812,2.6932373047,5.2888793945,4.4387817383,8.9382324219,4.4387817383h32.0933837891"/><path class="cls-5" d="M100.7687988281,111.5887705003h-8.9359309673s2.6176406393,7.3035041382,12.9264127521,6.8046925843"/><path class="cls-5" d="M103.079284668,112.6576662014s1.8639986293,.6915392132,1.6853870614,3.102644363"/></g><g><path class="cls-5" d="M88.1866849661,104.5300584069c2.0551757812,2.6932373047,5.2888793945,4.4387817383,8.9382324219,4.4387817383h3.9557698059"/><path class="cls-5" d="M85.8761991262,97.7200862314h-8.9359309673s2.6176406393,7.3035041382,12.9264127521,6.8046925843"/><path class="cls-5" d="M88.1866849661,98.7889819325s1.8639986293,.6915392132,1.6853870614,3.102644363"/><path class="cls-5" d="M143.7460778443,97.7200608483c-23.7585792974-13.9108654968-46.6211604563-11.2487792969-46.6211604563-11.2487792969-6.2124633789,0-11.2487182617,5.0362548828-11.2487182617,11.2487792969"/></g><g><path class="cls-5" d="M33.5065504928,42.2618038138l-9.5283325542-.5770999315s-.4724025055,3.4124088315,4.1567629487,5.3931810248"/><path class="cls-5" d="M121.0423288741,65.6553702198l-42.5753583215-25.1140437462-9.9652087417-5.8782050967s-14.5920149181-7.738387699-25.1648151937,4.3261971199"/></g><path class="cls-5" d="M80.4053164185,41.6847038823s4.1116486526-4.9691522079,17.8907578183,3.1976467205c7.0275133989,4.1651668627,28.909726299,21.5827513453,28.909726299,21.5827513453h69.0276607718v.0035775685c15.5112265415-9.0738833551,33.6855618363-14.293749193,53.1158941285-14.293749193,38.6136408701,0,72.2669622307,20.6148600711,89.9163768228,51.1248452302"/><path class="cls-5" d="M165.06676568,232.1412301979s-3.9632896269-2.8735176128-7.7750412877,0"/><path class="cls-5" d="M351.5347926652,193.2921084087l-6.9166037057-5.9664210305"/><path class="cls-5" d="M4.1103515625,519.734375H149.4228515625c25.9033203125,0,105.07421875-43.8642578125,132.1381835938-123.51171875,21.6142578125-63.6098632812,36.6831054688-135.0502929688,40.23828125-157.8740234375,3.076171875-19.7446289062,9.548828125-33.3173828125,19.23828125-40.3408203125,6.2709960938-4.5458984375,13.8408203125-6.2563476562,21.8950195312-4.9389648438"/><path class="cls-5" d="M352.1333270531,205.5636772967c2.8246130863,4.8812807635,4.7059970463,11.341091181,9.3418359008,14.5349131104,5.9965328169,4.1312605145,16.7721538713-.4254751569,13.0154541874-3.8084165417-2.8967447178-2.6085443107-7.3315245712-6.361783128-7.3315245712-6.361783128-3.2756819593-3.300367341-5.6302563336-4.7873246761-6.1649887225-5.0160637332l.0049195899-.0007059104c-4.9614257812-.8090820312-9.189453125,.109375-12.9189453125,2.8125-6.9067382812,5.005859375-11.8940429688,16.234375-14.4233398438,32.4711914062-3.755859375,24.1069335938-18.6538085938,94.9077148438-40.7338867188,159.888671875-29.68359375,87.3564453125-111.1416015625,131.650390625-143.5,131.650390625H4.1103515625"/><path class="cls-5" d="M340.4828553679,190.823011446s.7815413716,2.8158965905,5.1243069651,4.4812485763"/></g></svg>