<?xml version="1.0" encoding="UTF-8"?><svg id="Layer_2" xmlns="http://www.w3.org/2000/svg" viewBox="0 0 720 720"><defs><style>.cls-1{fill:#fff;}.cls-2{fill:#ffcd0c;}.cls-3{fill:#231f20;}.cls-4{fill:#1e00b2;}.cls-5{fill:none;stroke:#231f20;stroke-linecap:round;stroke-linejoin:round;stroke-width:2px;}</style></defs><path class="cls-1" d="M5.8886575386,699.1328023233H151.2011575386c25.9033203125,0,105.07421875-43.8642578125,132.1381835938-123.51171875,21.6142578125-63.6098632812,36.6831054688-252.0502929687,40.23828125-274.8740234375,3.076171875-19.7446289062,9.548828125-33.3173828125,19.23828125-40.3408203125,6.2709960938-4.5458984375,13.8408203125-6.2563476562,21.8950195312-4.9389648438,3.443359375,.5620117188,8.48828125,2.8569335938,24.8681640625,23.0961914062,8.1640625,10.0869140625,15.2392578125,19.8422851562,15.5361328125,20.2524414062l-9.71875,7.0390625c-6.0031591151-8.2874928107-12.9021591831-17.1536683241-19.7322859121-24.9283142773l-.2010742815-2.8495155578c-2.0909314454-1.9970835789-6.5257112988-5.7503223962-6.5257112988-5.7503223962-3.2756819593-3.300367341-5.6302563336-4.7873246761-6.1649887225-5.0160637332l.0049195899-.0007059104c-4.9614257812-.8090820312-9.189453125,.109375-12.9189453125,2.8125-6.9067382812,5.005859375-11.8940429688,16.234375-14.4233398438,32.4711914062-3.755859375,24.1069335938-18.6538085938,211.9077148437-40.7338867188,276.888671875-29.68359375,87.3564453125-111.1416015625,131.650390625-143.5,131.650390625H5.8886575386"/><polygon class="cls-1" points="415.8504946876 320.5298435498 408.3033145119 302.3960544873 405.4327090431 298.4325535108 390.3758853126 309.3375828076 393.2464907814 313.3010837842 408.1222842384 326.1270725537 410.4531558204 329.3453953076 418.1813662697 323.7481663037 415.8504946876 320.5298435498"/><path class="cls-4" d="M379.7464599609,193.9852294922s-1.427734375-2.6489257812-5.624206543-8.0323486328c-4.196472168-5.3833618164-5.7619018555-3.1965942383-8.1796264648-6.637878418-10.0269775391-14.2720947266-16.8717651367-16.2719726562-16.8717651367-16.2719726562-2.3455200195-.1944580078-4.7023925781-.1600341797-7.0523681641,.0819702148l-.752746582-.0819702148c-17.6494140625-30.5099487305-51.302734375-51.1248168945-89.9163818359-51.1248168945-19.4303588867,0-37.604675293,5.2198486328-53.1159057617,14.2937011719v-.0035400391h-69.0276489258s-21.8822021484-17.4176025391-28.9097290039-21.5827636719c-13.7791137695-8.166809082-17.8907470703-3.1976318359-17.8907470703-3.1976318359l-1.9383544922-1.143371582-9.9652099609-5.8782348633s-14.5920410156-7.7384033203-25.1647949219,4.3262329102l-.0003662109-.0044555664c-3.4844970703,.2553100586-6.8618774414,1.3952026367-9.8265991211,3.2818603516h-.0100097656l-9.5200195312-.5800170898s-.4699707031,3.4099731445,4.1500244141,5.3900146484c-1.3690185547,1.7087402344-2.5083007812,3.6572265625-3.3580322266,5.805480957l-15.541015625-6.128112793s-1.5469360352,14.1892089844,14.9368896484,20.6964111328c0,0,.6622314453,1.9959716797,1.2891235352,3.2716064453l-4.4755249023-1.3306274414s-1.973449707,12.2145385742,14.862121582,16.32421875c2.0254516602,5.3157348633,6.4000854492,9.6672973633,12.2758178711,11.4064331055l48.0830688477,14.2321777344-4.3695678711,.2344360352s.9376220703,7.303527832,11.2463989258,6.8046875v.0053100586c2.0551757812,2.6932373047,5.2888793945,4.4387817383,8.9382324219,4.4387817383h.3635864258c25.2464599609,34.040222168,48.0101318359,25.5374145508,48.0101318359,25.5374145508l5.0166015625-1.2374267578c8.4078369141-13.7599487305,8.1874389648-27.6211547852,8.1874389648-27.62109375v-.0000610352c0-16.9019775391,13.7017822266-30.6038208008,30.6038208008-30.6038208008h57.8130493164c16.9019775391,0,30.6038208008,13.7018432617,30.6038208008,30.6038208008v.0000610352s-.7330322266,36.6732177734,2.1159057617,46.3936157227c3.7008056641,12.6265258789,15.7162475586,21.748046875,16.2059326172,33.2540893555,1.2586669922,.1104125977,2.5327758789,.166809082,3.8200683594,.166809082,17.86328125,0,33.1907958984-10.8568725586,39.7439575195-26.33203125l.3088378906-.7490234375c18.5586547852,38.5899658203,32.442199707,32.6873779297,32.442199707,32.6873779297,8.8667602539-10.1207275391,16.4360351562-27.3706054688,16.4360351562-41.8832397461l-25.9424438477-28.8120727539Zm-40.3192749023,40.9025268555c-2.6049194336,.0026245117-7.2026977539-1.2623901367-7.5641479492-4.0383911133-.3614501953-2.7760620117,3.0194091797-5.1220092773,4.9592285156-5.1960449219,1.9398193359-.0740966797,6.4439086914,1.5842285156,6.6859130859,4.579284668,.2420043945,2.9951171875-1.4761352539,4.6525268555-4.0809936523,4.6551513672Z"/><path class="cls-3" d="M341.0296866167,233.844327279s-2.6049047812-2.9396538244-4.5447274906-2.3299952586-1.0530466137,5.0937087056,.9421996017,5.3734531579,4.2676099607-1.4339682186,3.6025278889-3.0434578994Z"/><g><g><path class="cls-5" d="M482.125895623,39.6598242789c-2.0367185229-11.7611825927-12.2415717758-20.7062586622-24.5357889416-20.7062586622-9.764876156,0-18.2131957256,5.6446150854-22.2981067667,13.8596582077-2.1949077956-.6352037513-4.5117267906-.9828826806-6.9092855903-.9828826806-7.6787182124,0-14.5418547189,3.4899506408-19.1112045885,8.9755327775-2.3745264416-.7529809377-4.8988897623-1.1633450028-7.5206133073-1.1633450028-13.7574890295,0-24.9114779181,11.2018253247-24.9114779181,25.0177811094,0,13.7072903003,10.9809509163,24.8365594786,24.591809036,25.0096818186v.0080992908h80.022342576c13.7575733971,0,24.9115622858-11.2017409571,24.9115622858-25.0177811094,0-13.5885007025-10.7931486118-24.6412484567-24.2392367852-25.0004857489Z"/><line class="cls-5" x1="401.4312275464" y1="89.6699918464" x2="338.3681248778" y2="89.6699918464"/><line class="cls-5" x1="324.4457815344" y1="88.88976017" x2="302.2317049093" y2="88.88976017"/><line class="cls-5" x1="514.5382448273" y1="107.6499954922" x2="355.3009577227" y2="107.6499954922"/><line class="cls-5" x1="537.0900450035" y1="88.88976017" x2="569.8566538108" y2="88.88976017"/></g><path class="cls-5" d="M49.5985966953,327.7340029744c-6.9197801751,0-12.9120461054,5.1513423199-13.9381329937,11.9828340052l-.2074779511,1.3823454977-1.3965589744,.0615593921c-7.67066893,.3380187896-13.6794768246,6.6213456754-13.6794768246,14.3045787366,0,7.8966292517,6.4242488984,14.3211692111,14.3208781501,14.3211692111h35.2428247291c7.8966292517,0,14.3209266603-6.4245399594,14.3209266603-14.3211692111s-6.4242974086-14.3209266603-14.3209266603-14.3209266603c-1.4083954532,0-2.8039842244,.2060711565-4.1484432878,.6122952299l-1.9612657381,.5926486154-.2183927369-2.0372811576c-.7674307192-7.1706262085-6.7919073953-12.5780536591-14.0139543726-12.5780536591Z"/><path class="cls-5" d="M596.0011489853,209.9203094825l-.3269133343,3.0496177911-2.9358298758-.8871390947c-2.0125284444-.6080791339-4.1015932403-.9165482241-6.2098284317-.9165482242-11.8205093911-.0000000005-21.4370768444,9.6165674519-21.4370768449,21.437076843-.0000000005,11.8205093911,9.6165674519,21.4374399201,21.437076843,21.4374399206l52.7551854595,.0000000024c11.8205093911,.0000000005,21.4370042292-9.6169305276,21.4370042298-21.4374399187,.0000000005-11.5010754157-8.9946188275-20.906623289-20.4768869234-21.4126055446l-2.0905170986-.0921486054-.3105749289-2.0692408643c-1.5359553182-10.2260988894-10.5058123855-17.9371726061-20.8640708191-17.9371726065-10.8107233348-.0000000005-19.828796852,8.0944090088-20.9775682755,18.8281603013Z"/><g><path class="cls-2" d="M511.9735545182,552.8559977838s-22.5623192016-25.3005003609-23.1721116125-50.9117816168,6.6678128816-50.00297769,6.6678128816-50.00297769c0,0,1.8692808704,45.1246384032,16.5042987309,54.8813169769,14.6350178605,9.7566785737,1.1397775461-78.6632210002-6.4427239518-89.6394843956s17.6902078494,12.8056406279,18.77418242,37.807129473c1.0839745706,25.001488845,20.5973317179-66.9319427138,7.1818986791-77.9808173492,0,0,23.1721116125,13.3428217987,18.2937723256,60.2968374345-4.8783392868,46.9540156358,23.7819040233,3.8751487493,21.9525267907-7.5142079936-1.8293772326-11.3893567429,8.0955772987,27.0275651409,.0841379788,45.9311298774-8.0114393199,18.9035647365-3.7428924439,35.9777522404-3.7428924439,35.9777522404,0,0,20.1231495582-18.2937723256,17.0741875039-42.0756763489-3.0489620543-23.7819040233,17.0934211864,31.7092053644,.3145130467,56.7106942094,0,0-25.8444444562-14.8182854254-42.8136783701-4.9049414414-26.8308660776,15.6744615676-30.675923979,31.425026624-30.675923979,31.425026624Z"/><path class="cls-2" d="M420.4819343528,620.7484155177s-15.6350043448-28.6059845893-16.51584966-51.5079627845c0,0,13.5545293936,27.3956550141,21.8009215512,23.122189524,0,0-20.4796535784-37.5829130693-5.50528322-88.7451655065,0,0,15.1945816872,47.9568130688,23.122189524,54.14735858,0,0-.8808453152-18.3970524093,10.5701437824-22.8393144378,0,0,4.6449307439,28.9560470387,11.5183200306,34.8767094653,13.8995573447,11.9729268174,13.6513255692,20.0562119809,13.6513255692,20.0562119809,0,0-6.8217146182-7.8551765179-26.664514539-5.7470479723-19.8427999208,2.1081285455-31.9772530385,36.6370211509-31.9772530385,36.6370211509Z"/><path class="cls-2" d="M627.502308266,584.308028986s-10.3852298016-7.0648667661-8.6507613717-37.4180642882-5.637022397-39.4591567787-5.637022397-39.4591567787l22.1144724804,37.7306271587c5.637022397-34.6953074065-7.8051079343-83.6940405493-7.8051079343-83.6940405493,0,0,21.8621360727,25.7197004378,24.03022161,44.3652360585,0,0,10.6591469867-14.8792727513,9.3582956643-26.1533175452,0,0,10.8404276865,14.7429816536,9.5395763641,35.9902199191-1.3008513224,21.2472382655,7.5527715266,26.5869346527,7.5527715266,26.5869346527,0,0,12.5748961163-3.0353197522,16.2961693836-24.1424902289,0,0,9.1373353199,15.4701480798,1.0485149147,34.9829179154,0,0-14.0513498625-8.9715982564-30.7186404298-7.1416445292-21.5182739425,2.3625582962-37.128489811,38.3527782152-37.128489811,38.3527782152Z"/></g><g><g><path class="cls-5" d="M487.3648310251,630.9494549051c0,24.0216241383-13.4351104739,43.4934990147-30.0096237157,43.4934990147-16.5727302501,0-30.007840724-19.4718748763-30.007840724-43.4934990147s13.4351104739-43.4952820064,30.007840724-43.4952820064c16.5745132418,0,30.0096237157,19.4736578681,30.0096237157,43.4952820064Z"/><line class="cls-5" x1="457.3552073094" y1="640.8342721565" x2="457.3552073094" y2="708.0534186748"/></g><g><path class="cls-5" d="M600.3762633953,589.6696189196c0,36.8822525526-20.6277296523,66.7800002263-46.0737850971,66.7800002263-25.448062746,0-46.0757923983-29.8977476737-46.0757923983-66.7800002263,0-36.8821521875,20.6277296523-66.7819071624,46.0757923983-66.7819071624,25.4460554448,0,46.0737850971,29.8997549749,46.0737850971,66.7819071624Z"/><line class="cls-5" x1="554.3024782981" y1="570.1611604145" x2="554.3024782981" y2="708.0534186748"/><line class="cls-5" x1="554.3014746475" y1="621.166984917" x2="528.726751196" y2="591.6553416284"/><line class="cls-5" x1="538.1305558422" y1="602.5068118976" x2="540.8822646876" y2="578.6693072667"/><line class="cls-5" x1="554.3014746475" y1="639.7472673487" x2="578.8088156877" y2="610.4738907122"/><line class="cls-5" x1="569.8566538108" y1="621.166984917" x2="568.2210044307" y2="604.8459199821"/></g><path class="cls-5" d="M509.8629912147,551.3100436851s-22.3639627537-25.0780712154-22.9683941795-50.4641910979c-.6044314258-25.3861198826,6.6091928582-49.5633769136,6.6091928582-49.5633769136,0,0,1.8528471026,44.7279255074,16.3592013213,54.3988283198s1.129757201-77.9716539251-6.386082796-88.8514195891c-7.5158399969-10.879765664,17.5346845293,12.6930599413,18.6091293462,37.4747483981,1.0744448168,24.7816884568,20.4162504417-66.3435110775,7.1187590746-77.2952496204,0,0,22.9683941795,13.2255184881,18.1329427733,59.7667382729-4.8354514062,46.5412197848,23.5728256053,3.8410804102,21.7595313279-7.4481468944s8.024405096,26.7899525193,.0833982805,45.5273267183c-7.9410068155,18.7373741991-3.7099868351,35.6614541208-3.7099868351,35.6614541208,0,0,19.9462370506-18.1329427733,16.9240799217-41.7057683785-3.0221571289-23.5728256053,16.9431445114,31.4304341404,.3117480077,56.2121225972"/><path class="cls-5" d="M419.777389156,614.5253262864s-15.5636497552-28.4754334077-16.4404750935-51.2728922039c0,0,13.4926696166,27.2706275003,21.7014271234,23.0166651309,0,0-20.3861891159-37.4113932359-5.4801583645-88.3401528357,0,0,15.125237086,47.7379491247,23.0166651309,53.9002423998,0,0-.8768253383-18.3130924629,10.5219040598-22.735081022,0,0,4.6237323407,28.823898252,11.4657530481,34.7175401272,13.8361229388,11.9182851134,15.1906627213,26.6223716877,15.1906627213,26.6223716877"/><g><g><path class="cls-5" d="M707.6168848718,607.9099008082c0,31.1995626226-17.4496765147,56.489858403-38.9768455708,56.489858403-21.5248532858,0-38.9745298005-25.2902957804-38.9745298005-56.489858403s17.4496765147-56.4921741732,38.9745298005-56.4921741732c21.5271690561,0,38.9768455708,25.2926115507,38.9768455708,56.4921741732Z"/><line class="cls-5" x1="668.640039301" y1="620.7484155177" x2="668.640039301" y2="708.0534186748"/></g><path class="cls-5" d="M627.8142485714,579.3466549091s-5.0819937418-1.26806565-3.445025918-29.9150025663c1.6369678238-28.6469369164-5.3201454273-37.2410179913-5.3201454273-37.2410179913l20.8713397533,35.6096551358c5.3201454273-32.7449614441-7.3663552071-78.9893024662-7.3663552071-78.9893024662,0,0,20.6331880678,24.2739050939,22.6793978475,41.8713091997,0,0,10.0599586283-14.0428561952,8.8322327605-24.6831470499,0,0,10.2310488987,13.9142265022,9.0033230309,33.9670823437-1.2277258678,20.0528558414,7.1282035215,25.0923890058,7.1282035215,25.0923890058,0,0,11.8680167225-2.8646936916,15.3801040556-22.7853554502,0,0,8.6236933787,14.6005163313,.9895741823,33.0164043489"/></g></g><g><g><path class="cls-5" d="M116.3712163334,139.6145713291l-57.5302234023-16.9718228304c-10.0025149208-2.9606583016-20.5113647049,2.747960425-23.4720520938,12.7505736168"/><path class="cls-5" d="M58.8409929311,122.6427484987c-10.0025149208-2.9606583016-20.5113647049,2.747960425-23.4720520938,12.7505736168"/><path class="cls-5" d="M35.8435662961,147.4590127604c2.0254720656,5.3157366972,6.400098742,9.6672674895,12.2758207995,11.4064306325l48.0830474253,14.2321680749"/><path class="cls-5" d="M35.3689287405,135.3933629841l-14.387494522-4.2585745118s.7339776698,13.0066518991,17.5695630185,17.1163552756"/><path class="cls-5" d="M38.2071017429,136.4919225984s4.2581980166,3.1905305926,1.9683917267,9.2423528194"/></g><g><path class="cls-5" d="M114.4732331955,126.5414846035l-62.1539684743-24.4411663946c-10.8053295158-4.2607310817-23.1381649722,1.3471691512-27.5460263115,12.5256255541"/><path class="cls-5" d="M52.3192647212,102.1003182089c-10.8053295158-4.2607310817-23.1381649722,1.3471691512-27.5460263115,12.5256255541"/><path class="cls-5" d="M23.9600876671,128.4640731017c.3682963652,1.3848234622,.8699992635,2.7256905442,1.4968550353,4.0013503722"/><path class="cls-5" d="M24.7732204001,114.6259894358l-15.542253168-6.1285832197s-.6290656946,14.9367742997,17.6548811419,21.1093688069"/><path class="cls-5" d="M27.8104498791,116.1305207799s4.3853691898,4.0208795488,1.1635702404,10.7404885467"/></g><path class="cls-5" d="M362.9326171875,254.8121265462c3.443359375,.5620117188,8.48828125,2.8569335938,24.8681640625,23.0961914062,8.1640625,10.0869140625,15.2392578125,19.8422851562,15.5361328125,20.2524414062l-9.71875,7.0390625c-6.0031591151-8.2874928107-12.9021591831-17.1536683241-18.9264726398-24.3168535456"/><g><g><rect class="cls-5" x="390.8492045495" y="301.0528185135" width="18.5910666869" height="4.8938534684" transform="translate(-101.9557976692 292.4110655668) rotate(-35.914257081)"/><polygon class="cls-5" points="416.6556166907 318.1628094554 408.927399042 323.7600372933 394.0516287143 310.934017984 409.1084538046 300.028983424 416.6556166907 318.1628094554"/><rect class="cls-5" x="409.1858355893" y="320.5837106401" width="9.5422380758" height="3.9737422803" transform="translate(-110.5164909976 304.1383993589) rotate(-35.914257081)"/></g><line class="cls-5" x1="425.6111003001" y1="324.4342992603" x2="513.9944785669" y2="373.0861935311"/><line class="cls-5" x1="412.3445699097" y1="334.154728291" x2="446.5502278881" y2="410.9486679209"/><line class="cls-5" x1="494.1344041228" y1="382.1050179468" x2="506.8909689637" y2="392.8569801882"/><g><line class="cls-5" x1="452.7299587492" y1="391.5232421387" x2="454.9924752118" y2="395.5960716793"/><line class="cls-5" x1="458.2362768094" y1="401.4353445373" x2="464.1817922143" y2="412.1380603743"/><line class="cls-5" x1="467.3142606383" y1="417.776918762" x2="475.2016892109" y2="431.9753357114"/></g><g><line class="cls-5" x1="474.4763053228" y1="382.2200677852" x2="482.0880023854" y2="391.4822975774"/><line class="cls-5" x1="484.6224719984" y1="394.5663456897" x2="487.7092683702" y2="398.3224879905"/><line class="cls-5" x1="490.1138228267" y1="401.248449933" x2="494.0466187347" y2="406.0340396809"/></g></g><path class="cls-5" d="M355.9596217495,230.7618373412c-5.4621788428,17.5614584873-21.8428847443,30.3123823416-41.201728483,30.3123823416-1.2873091164,0-2.5614492675-.0563830433-3.8200856402-.166814317"/><path class="cls-5" d="M378.7440797332,217.9329461323s10.3906046671,8.8651340348,14.6318055794,23.6104135486"/><path class="cls-5" d="M354.8106690889,233.993208269c18.5586332686,38.5899416845,32.4422215173,32.6873382974,32.4422215173,32.6873382974,8.8667414974-10.1207240594,16.435996035-27.3706154696,16.435996035-41.8832455251l-25.9424300157-28.8120632781s-1.4277130384-2.6489348092-5.6241831526-8.0323265947-5.7619185829-3.1965832658-8.1796254701-6.6378693012c-10.0269962452-14.2721031811-16.8717992341-16.2719874237-16.8717992341-16.2719874237-22.5019434289-1.8659052998-46.0500986144,17.3407000332-54.4550313278,38.6924368371"/><path class="cls-5" d="M322.8053982452,294.4492985177l-39.3901425115,13.9315932257c-10.6635796301,3.6242244077-22.1276691351,5.5947353601-34.0659002976,5.5947353601-26.810928602,0-51.2304592257-9.938540169-69.5618129756-26.2272493444"/><line class="cls-5" x1="360.5248309692" y1="281.1086058978" x2="336.2995547394" y2="289.6766552315"/><g><path class="cls-5" d="M322.0797884625,237.6600198455c-1.0492501574-2.2647705078-1.6593166069-4.8903198242-1.6593166069-7.7000732422,0-8.4797973633,5.4722805038-15.3540649414,12.2227075526-15.3540649414,6.2992907806,0,11.4816002291,5.9875488281,12.1467650661,13.6782836914,.0491221074-.6220703125,.0759910741-1.2523803711,.0759910741-1.8906860352,0-10.4495239258-6.7434304282-18.9205932617-15.0618779021-18.9205932617s-15.0618779021,8.4710693359-15.0618779021,18.9205932617c0,4.2269897461,1.1170299198,8.1168212891,2.9818236703,11.2665405273"/><path class="cls-5" d="M334.8222539467,227.6533118511c1.9398227094-.0740487554,6.4439393729,1.5842640388,6.6859388104,4.5793295545s-1.476129248,4.6525168504-4.0810340292,4.6551437728-7.2026680547-1.262399397-7.5641147051-4.0384318552,3.0193872145-5.1219927166,4.9592099239-5.196041472Z"/><path class="cls-5" d="M341.0296866167,233.844327279s-2.6049047812-2.9396538244-4.5447274906-2.3299952586-1.0530466137,5.0937087056,.9421996017,5.3734531579,4.2676099607-1.4339682186,3.6025278889-3.0434578994Z"/></g><path class="cls-5" d="M160.3912344082,210.1182317888s-22.7636771044,8.5027983177-48.0101529011-25.5374218456l35.9419780133,49.1939849432"/><path class="cls-5" d="M291.8829106751,294.0593457259s-5.0484324634-3.6602824841-9.9038360899,0"/><path class="cls-5" d="M259.0723511437,284.0797840986s-5.0484324634-3.6602824841-9.9038360899,0"/><path class="cls-5" d="M220.5579760369,298.8385194979s-3.9632896269-2.8735176128-7.7750412877,0"/><path class="cls-5" d="M235.7804487558,189.3370439677s-.091484584,41.8647732411,.8867760957,48.5877000979c3.7687984068,25.9004134105,1.4993913778,42.1158343536-5.3965145611,52.8341282156-2.4386342632,3.7903647304-9.4569850423,10.1031301502-9.4569850423,10.1031301502,0,0-.5806441082,4.8104515235-4.2121864547,4.8104515235s-6.1256001157-4.8104515235-6.1256001157-4.8104515235c0,0-4.7911620982-2.401731502-9.9740941399-13.1136246722s-5.7459855997-21.8370226732,4.7932990352-49.8236336935c4.7354906312-12.5748889871,6.0681107171-48.5877000979,6.0681107171-48.5877000979"/><path class="cls-5" d="M270.2008579023,189.3370439677s3.9092382276,31.3720663234,6.8029699216,46.501502488,5.3174021678,33.8034534545-4.3965528104,41.3185593712c-9.7139549782,7.5151059167-11.8598395172,9.168446688-11.8598395172,9.168446688,0,0-2.3013782029,5.7640446222-6.8725147418,5.7640446222s-7.0141630055-7.2306730121-7.0141630055-7.2306730121c0,0-8.920071922-6.3386545215-9.6436785214-9.7918576318"/><line class="cls-5" x1="243.8986896776" y1="210.7278903546" x2="238.1429828064" y2="251.2773439627"/><path class="cls-5" d="M199.4226288312,192.1055923445s-16.8097257386,59.0577384281-15.4622792946,70.6049751964,3.2691079784,19.4533622549,15.4622792946,21.3692165577"/><path class="cls-5" d="M188.3573553024,278.1142731568c-7.074781098,10.7409327656-21.3864919287,17.3007343393-21.3864919287,17.3007343393,0,0-2.5758903235,3.8822723412-6.6508207179,3.9933239148s-5.8149905205-4.2355654301-5.8149905205-4.2355654301c0,0-8.0744610612-3.3535741362-12.1251957624-12.1726238248-14.3427032474-31.2261902936,14.2558258396-59.9656065508,22.8497223011-73.8223397411,8.5938964614-13.8567331903,8.3656963693-27.9181238317,8.3656963693-27.9180626239v-.0000612077c0-16.902025571,13.7017989528-30.6038245238,30.6038245238-30.6038245238h57.8130273454c16.902025571,0,30.6038245238,13.7017989528,30.6038245238,30.6038245238v.0000612077s-.7330407612,36.6732063415,2.1159493711,46.3935720603c3.700770428,12.6265239022,15.7162234536,21.7480745264,16.205906819,33.2540935148,1.3270793854,31.1821917712-17.2952186247,34.6210760645-17.2952186247,34.6210760645,0,0-1.3301641436,6.1520091641-6.5676854589,6.1520091641-5.1543860564,0-6.6521234226-5.4995791466-6.6521234226-5.4995791466,0,0-10.2311983783-6.2419569906-12.7218240329-14.8367239835"/><path class="cls-5" d="M124.1839167551,162.0832447103h-12.1663996653c-6.2124633789,0-11.2487182617,5.0362548828-11.2487182617,11.2487792969"/><path class="cls-5" d="M103.079284668,180.1420215658c2.0551757812,2.6932373047,5.2888793945,4.4387817383,8.9382324219,4.4387817383h32.0933837891"/><path class="cls-5" d="M100.7687988281,173.3320493903h-8.9359309673s2.6176406393,7.3035041382,12.9264127521,6.8046925843"/><path class="cls-5" d="M103.079284668,174.4009450914s1.8639986293,.6915392132,1.6853870614,3.102644363"/><g><path class="cls-5" d="M124.1839167551,162.0832447103h-12.1663996653c-6.2124633789,0-11.2487182617,5.0362548828-11.2487182617,11.2487792969"/><path class="cls-5" d="M103.079284668,180.1420215658c2.0551757812,2.6932373047,5.2888793945,4.4387817383,8.9382324219,4.4387817383h32.0933837891"/><path class="cls-5" d="M100.7687988281,173.3320493903h-8.9359309673s2.6176406393,7.3035041382,12.9264127521,6.8046925843"/><path class="cls-5" d="M103.079284668,174.4009450914s1.8639986293,.6915392132,1.6853870614,3.102644363"/></g><g><path class="cls-5" d="M88.1866849661,166.2733372969c2.0551757812,2.6932373047,5.2888793945,4.4387817383,8.9382324219,4.4387817383h3.9557698059"/><path class="cls-5" d="M85.8761991262,159.4633651214h-8.9359309673s2.6176406393,7.3035041382,12.9264127521,6.8046925843"/><path class="cls-5" d="M88.1866849661,160.5322608225s1.8639986293,.6915392132,1.6853870614,3.102644363"/><path class="cls-5" d="M143.7460778443,159.4633397383c-23.7585792974-13.9108654968-46.6211604563-11.2487792969-46.6211604563-11.2487792969-6.2124633789,0-11.2487182617,5.0362548828-11.2487182617,11.2487792969"/></g><g><path class="cls-5" d="M33.5065504928,104.0050827038l-9.5283325542-.5770999315s-.4724025055,3.4124088315,4.1567629487,5.3931810248"/><path class="cls-5" d="M121.0423288741,127.3986491098l-42.5753583215-25.1140437462-9.9652087417-5.8782050967s-14.5920149181-7.738387699-25.1648151937,4.3261971199"/></g><path class="cls-5" d="M80.4053164185,103.4279827723s4.1116486526-4.9691522079,17.8907578183,3.1976467205c7.0275133989,4.1651668627,28.909726299,21.5827513453,28.909726299,21.5827513453h69.0276607718v.0035775685c15.5112265415-9.0738833551,33.6855618363-14.293749193,53.1158941285-14.293749193,38.6136408701,0,72.2669622307,20.6148600711,89.9163768228,51.1248452302"/><path class="cls-5" d="M165.06676568,293.8845090879s-3.9632896269-2.8735176128-7.7750412877,0"/><path class="cls-5" d="M351.5347926652,255.0353872987l-6.9166037057-5.9664210305"/><path class="cls-5" d="M4.1103515625,698.47765389H149.4228515625c25.9033203125,0,105.07421875-43.8642578125,132.1381835938-123.51171875,21.6142578125-63.6098632812,36.6831054688-252.0502929687,40.23828125-274.8740234375,3.076171875-19.7446289062,9.548828125-33.3173828125,19.23828125-40.3408203125,6.2709960938-4.5458984375,13.8408203125-6.2563476562,21.8950195312-4.9389648438"/><path class="cls-5" d="M352.1333270531,267.3069561867c2.8246130863,4.8812807635,4.7059970463,11.341091181,9.3418359008,14.5349131104,5.9965328169,4.1312605145,16.7721538713-.4254751569,13.0154541874-3.8084165417-2.8967447178-2.6085443107-7.3315245712-6.361783128-7.3315245712-6.361783128-3.2756819593-3.300367341-5.6302563336-4.7873246761-6.1649887225-5.0160637332l.0049195899-.0007059104c-4.9614257812-.8090820312-9.189453125,.109375-12.9189453125,2.8125-6.9067382812,5.005859375-11.8940429688,16.234375-14.4233398438,32.4711914062-3.755859375,24.1069335938-18.6538085938,211.9077148437-40.7338867188,276.888671875-29.68359375,87.3564453125-111.1416015625,131.650390625-143.5,131.650390625H4.1103515625"/><path class="cls-5" d="M340.4828553679,252.566290336s.7815413716,2.8158965905,5.1243069651,4.4812485763"/></g></g></svg>