<?xml version="1.0" encoding="utf-8"?>
<!-- Generator: Adobe Illustrator 27.0.1, SVG Export Plug-In . SVG Version: 6.00 Build 0)  -->
<svg version="1.1" id="Layer_1" xmlns="http://www.w3.org/2000/svg" xmlns:xlink="http://www.w3.org/1999/xlink" x="0px" y="0px"
	 viewBox="0 0 720 540" style="enable-background:new 0 0 720 540;" xml:space="preserve">
<style type="text/css">
	.st0{fill:#1E00B2;}
	.st1{fill:#FFCD0C;}
	.st2{fill:none;stroke:#000000;stroke-linecap:round;stroke-linejoin:round;}
	.st3{fill:none;}
	.st4{opacity:0.93;fill:none;stroke:#000000;stroke-linecap:round;stroke-linejoin:round;enable-background:new    ;}
	.st5{fill:none;stroke:#000000;stroke-miterlimit:10;}
	.st6{fill:#FFFFFF;stroke:#000000;stroke-linecap:round;stroke-linejoin:round;}
	.st7{fill:#4019FF;}
	.st8{fill:#FFFFFF;}
	.st9{fill:none;stroke:#231F20;stroke-linecap:round;stroke-linejoin:round;}
	.st10{fill:none;stroke:#1E00B2;stroke-width:2;stroke-linecap:round;stroke-linejoin:round;}
	.st11{fill:none;stroke:#1E00B2;stroke-width:2;stroke-linecap:round;stroke-linejoin:round;stroke-dasharray:0,0,0,5.02;}
	.st12{fill:none;stroke:#1E00B2;stroke-width:2;stroke-linecap:round;stroke-linejoin:round;stroke-dasharray:0,0,0,5.14;}
	.st13{fill:none;stroke:#1E00B2;stroke-width:2;stroke-linecap:round;stroke-linejoin:round;stroke-dasharray:0,0,0,4.96;}
	.st14{fill:none;stroke:#1E00B2;stroke-width:2;stroke-linecap:round;stroke-linejoin:round;stroke-dasharray:0,0,0,5.01;}
	.st15{fill:none;stroke:#1E00B2;stroke-width:2;stroke-linecap:round;stroke-linejoin:round;stroke-dasharray:0,0,0,5;}
	.st16{fill:none;stroke:#1E00B2;stroke-width:2;stroke-linecap:round;stroke-linejoin:round;stroke-dasharray:0,0,0,5.03;}
</style>
<g>
	<rect x="18.9" y="11.4" class="st0" width="279.6" height="41.2"/>
	<rect x="132.6" y="68.5" class="st0" width="232.8" height="40.7"/>
	<rect x="416.8" y="33.1" class="st0" width="168.6" height="38.3"/>
	<rect x="622.1" y="175.8" class="st0" width="89" height="35.5"/>
	<rect x="527.9" y="87.9" class="st0" width="188.7" height="71.5"/>
	<rect x="177.9" y="125" class="st0" width="138.3" height="70.4"/>
</g>
<g>
	<g id="Layer_1_00000121990808225553348960000001471615735966714301_">
		<g>
			<g>
				<rect x="18.9" y="390.1" class="st1" width="21.7" height="35.3"/>
				<circle class="st1" cx="29" cy="403.3" r="2.7"/>
				<circle class="st1" cx="29" cy="412.2" r="2.7"/>
			</g>
			<g>
				<path class="st1" d="M18.9,530.2c0,3.5,21.7,3.5,21.7,0v-89.4c0-3.3-21.7-3.3-21.7,0C18.9,440.8,18.9,530.2,18.9,530.2z"/>
				<circle class="st1" cx="26.8" cy="450.1" r="2.7"/>
				<circle class="st1" cx="33.2" cy="450.1" r="2.7"/>
			</g>
			<polygon class="st1" points="131.1,280.5 109.8,230.1 273,230.1 294.3,280.5 			"/>
			<polygon class="st1" points="310.1,280.5 288.8,230.1 452,230.1 473.3,280.5 			"/>
			<rect x="367.2" y="467.2" class="st1" width="58.8" height="4.9"/>
			<rect x="162" y="372.3" class="st1" width="107.6" height="25.3"/>
			<polygon class="st1" points="157.3,340.6 136.1,290.2 299.3,290.2 320.6,340.6 			"/>
			<polygon class="st1" points="336.3,340.6 315,290.2 478.3,290.2 499.6,340.6 			"/>
			<path class="st1" d="M558.9,519.7h2.2c-0.2-0.2-0.4-0.4-0.4-0.6c0-11.3,1.3-16.8,4.4-18.9c-0.1,0-0.3,0-0.4,0
				c-2.5,0-4.6,0.1-4.6-4.4s2-4.4,4.6-4.4c0.7,0,1.3,0.2,1.9,0.4c0.4-1.9,0.8-3.6,1.1-4.5c1.5-4.6,2.4-10.3,9-10.4
				c3.2,0,11.5-0.1,19.9-0.1s16.7,0,19.9,0.1c6.5,0.1,7.5,5.8,9,10.4c0.3,1,0.7,2.6,1.1,4.5c0.6-0.3,1.2-0.4,1.9-0.4
				c2.5,0,4.6-0.1,4.6,4.4s-2,4.4-4.6,4.4c-0.1,0-0.3,0-0.4,0c3.1,2.1,4.4,7.6,4.4,18.9c0,0.2-0.1,0.4-0.4,0.6h2.2
				c0,0,0.2-0.1,0.2,0.8v4.6c0,0.9-1.8,1.7-3.9,1.7h-3.3v3.8c0,2.8-2.3,5.1-5.1,5.1h-1.2c-2.8,0-5.1-2.3-5.1-5.1v-3.8h-19.2h-19.2
				v3.8c0,2.8-2.3,5.1-5.1,5.1h-1.2c-2.8,0-5.1-2.3-5.1-5.1v-3.8h-3.3c-2.2,0-3.9-0.8-3.9-1.7v-4.6
				C558.7,519.6,558.9,519.7,558.9,519.7L558.9,519.7z"/>
			<rect x="530.7" y="479.8" class="st1" width="21.2" height="55.4"/>
		</g>
		<g>
			<g>
				<g>
					<rect x="22" y="381.9" class="st2" width="21.7" height="35.3"/>
					<circle class="st2" cx="32.1" cy="395" r="2.7"/>
					<circle class="st2" cx="32.1" cy="404" r="2.7"/>
				</g>
				<g>
					<path class="st2" d="M22,522c0,3.5,21.7,3.5,21.7,0v-89.4c0-3.3-21.7-3.3-21.7,0V522z"/>
					<circle class="st2" cx="29.9" cy="441.9" r="2.7"/>
					<circle class="st2" cx="36.3" cy="441.9" r="2.7"/>
				</g>
			</g>
			<line class="st3" x1="360.9" y1="531.6" x2="171" y2="531.6"/>
			<polyline class="st2" points="43.7,346.8 43.7,532.3 486.6,532.3 486.6,346.8 			"/>
			<polygon class="st2" points="488.7,430.5 588.9,364 689.1,430.5 680.6,430.5 588.9,369.6 497.2,430.5 			"/>
			<polyline class="st2" points="504.6,426.2 504.6,532.3 673.4,532.3 673.4,426.2 			"/>
			<polyline class="st2" points="645.2,532.3 645.2,445 532.8,445 532.8,532.3 			"/>
			<g>
				<path class="st2" d="M588.6,399.5c6.8,0,12.3,5.5,12.3,12.4s-5.5,12.4-12.3,12.4s-12.3-5.5-12.3-12.4S581.8,399.5,588.6,399.5z"
					/>
				<line class="st2" x1="588.6" y1="399.5" x2="588.6" y2="424.1"/>
				<line class="st2" x1="576.4" y1="411.8" x2="600.8" y2="411.8"/>
			</g>
			<g>
				<g>
					<path class="st2" d="M627.5,489.7c0.6-0.3,1.2-0.4,1.9-0.4c2.5,0,4.6-0.1,4.6,4.4s-2,4.4-4.6,4.4c-0.1,0-0.3,0-0.4,0
						C628.7,496,628.1,492.6,627.5,489.7L627.5,489.7z"/>
					<path class="st2" d="M565.8,489.3c0.7,0,1.3,0.2,1.9,0.4c-0.6,2.9-1.2,6.3-1.5,8.4c-0.1,0-0.3,0-0.4,0c-2.5,0-4.6,0.1-4.6-4.4
						S563.2,489.3,565.8,489.3L565.8,489.3z"/>
				</g>
				<path class="st2" d="M597.6,497.6h-26.3c0.4-2.4,1.6-8.4,2.3-10.4c1.2-3.5,2-7.9,7.5-7.9c2.7,0,9.7-0.1,16.6-0.1
					s13.9,0,16.6,0.1c5.5,0.1,6.3,4.5,7.5,7.9c0.7,2,1.8,8,2.3,10.4H597.6z"/>
				<path class="st2" d="M628.3,497.7c0-0.1-0.1-0.1-0.1-0.1h-30.6H567c0,0,0,0-0.1,0.1c-0.3,0.1-0.5,0.3-0.7,0.4
					c0.6-3.5,1.8-10.5,2.6-12.9c1.5-4.6,2.4-10.3,9-10.4c3.2,0,11.5-0.1,19.9-0.1s16.7,0,19.9,0.1c6.5,0.1,7.5,5.8,9,10.4
					c0.8,2.4,2,9.5,2.6,12.9C628.8,498,628.5,497.8,628.3,497.7L628.3,497.7z"/>
				<path class="st2" d="M607.5,497.6c-0.2-0.6-0.3-1.2-0.3-1.8c0-3.6,2.9-6.5,6.5-6.5s6.5,2.9,6.5,6.5c0,0.6-0.1,1.2-0.3,1.8H607.5
					L607.5,497.6z"/>
				<path class="st2" d="M633,517.7h-70.9c-0.2-0.2-0.4-0.4-0.4-0.6c0-12.2,1.5-17.6,5.1-19.4c0-0.1,0.1-0.1,0.1-0.1h30.6h30.6
					c0,0,0,0,0.1,0.1c3.7,1.7,5.1,7.2,5.1,19.4C633.4,517.3,633.3,517.5,633,517.7L633,517.7z"/>
				<g>
					<path class="st2" d="M621.3,524.7h5.7h1.2v3.8c0,2.8-2.3,5.1-5.1,5.1h-1.2c-2.8,0-5.1-2.3-5.1-5.1v-3.8H621.3L621.3,524.7z"/>
					<path class="st2" d="M568.2,524.7h5.7h4.5v3.8c0,2.8-2.3,5.1-5.1,5.1h-1.2c-2.8,0-5.1-2.3-5.1-5.1v-3.8H568.2L568.2,524.7z"/>
				</g>
				<path class="st2" d="M559.9,517.7h75.4c0,0,0.2-0.1,0.2,0.8v4.6c0,0.9-1.8,1.7-3.9,1.7H627h-5.7h-23.7h-23.7h-5.7h-4.6
					c-2.2,0-3.9-0.8-3.9-1.7v-4.6C559.7,517.5,559.9,517.7,559.9,517.7L559.9,517.7z"/>
				<g>
					<path class="st2" d="M612.1,507.8c0,2.7,2.2,4.9,4.9,4.9s4.9-2.2,4.9-4.9s-2.2-4.9-4.9-4.9S612.1,505.1,612.1,507.8
						L612.1,507.8z"/>
					<path class="st2" d="M573.3,507.8c0,2.7,2.2,4.9,4.9,4.9s4.9-2.2,4.9-4.9s-2.2-4.9-4.9-4.9S573.3,505.1,573.3,507.8
						L573.3,507.8z"/>
				</g>
			</g>
			<g>
				<rect x="166.1" y="369.2" class="st2" width="107.6" height="25.3"/>
				<line class="st2" x1="273.1" y1="388.7" x2="166.7" y2="388.7"/>
				<circle class="st2" cx="267.6" cy="383.7" r="1.9"/>
			</g>
			<g>
				<path class="st2" d="M296.4,494.8l2.1-7.9c0.7-3.1,3.4-5.3,6.5-5.4l-14,0v13.3"/>
				<path class="st2" d="M215.5,494.8v-13.3l-14.6,0c3.1,0.1,5.9,2.3,6.6,5.4"/>
				<path class="st2" d="M288,500h-26.4h-22.4h-21.6c-0.7,0-1.4,0.2-2,0.6V476c0-2.6,2.1-4.6,4.6-4.6h18.9h23.3h23.9
					c2.6,0,4.6,2.1,4.6,4.6v25.4C290.2,500.6,289.2,500,288,500L288,500z"/>
				<polygon class="st2" points="215.8,517.8 217.9,517.8 214.9,532.2 212.5,532.2 214.8,517.8 				"/>
				<polygon class="st2" points="288.4,517.8 290.7,532.2 288.3,532.2 285.3,517.8 				"/>
				<path class="st2" d="M198.9,481.7c3.8-1,7.7,1.4,8.5,5.2l5,19.1c0.2,1,0.7,1.8,1.3,2.6c0.6,1.5,2.1,2.2,3.8,2.2h1l0,0h20.5h23.3
					h25l0,0h0.6c1.4,0,2.6-0.5,3.3-1.4c1-0.9,1.8-2,2.1-3.4l5-19.1c0.8-3.7,4.5-6.1,8.3-5.2c3.9,0,6.4,3.1,5.5,6.9l-6.7,25.8
					c-0.7,3-2.8,3.6-6.6,3.4h-4.8h-4h-27.8H239h-23.3h-3.5h-5.3c-3.8,0.2-6-0.4-6.6-3.4l-6.4-24.3
					C193.1,486.4,195.3,482.7,198.9,481.7L198.9,481.7z"/>
				<path class="st2" d="M261.6,500h-22.4h-21.6c-2.3,0-4.1,2.1-4.1,4.7v2.2c0,2.6,1.8,3.9,4.1,3.9h21.6h22.4H288
					c2.3,0,4.1-1.3,4.1-3.9v-2.2c0-2.6-1.8-4.7-4.1-4.7H261.6z"/>
			</g>
			<g>
				<g>
					<rect x="206.9" y="417.8" class="st2" width="4.4" height="21.7"/>
					<g>
						<rect x="201.5" y="418.7" class="st2" width="3.6" height="20.8"/>
						<rect x="201.5" y="421.6" class="st2" width="3.6" height="4.8"/>
					</g>
					<g>
						<rect x="193.5" y="420.6" class="st2" width="6.4" height="18.9"/>
						<rect x="193.5" y="434.1" class="st2" width="6.4" height="2.8"/>
					</g>
					
						<rect x="218" y="419.5" transform="matrix(0.7465 -0.6654 0.6654 0.7465 -230.5522 255.2231)" class="st2" width="3.4" height="21.5"/>
				</g>
				
					<rect x="206.9" y="414.5" transform="matrix(2.268878e-03 -1 1 2.268878e-03 -233.2561 648.2462)" class="st4" width="2.7" height="53"/>
				<g>
					<rect x="303.9" y="417.3" class="st2" width="27.9" height="26.5"/>
					<g>
						<rect x="264.1" y="417.3" class="st2" width="27.9" height="26.5"/>
						<rect x="272.2" y="425" class="st2" width="11.6" height="11.1"/>
					</g>
				</g>
			</g>
			<rect x="158.3" y="360.3" class="st2" width="179.7" height="171.9"/>
			<rect x="57" y="360.3" class="st2" width="93.9" height="171.9"/>
			<g>
				<path class="st2" d="M375.4,453.7c0.3,0,0.5-0.2,0.5-0.5s-0.2-0.5-0.5-0.5h-0.9v-3.4h17.8v3.4h-0.6c-0.3,0-0.5,0.2-0.5,0.5
					s0.2,0.5,0.5,0.5h0.6v8.8c0,1.2-1,2.2-2.2,2.2h-13.3c-1.2,0-2.2-1-2.2-2.2v-8.8H375.4z"/>
				<path class="st2" d="M391.2,453.2L391.2,453.2c0-0.3,0.2-0.5,0.5-0.5h2.7c0.3,0,0.5,0.2,0.5,0.5l0,0c0,0.3-0.2,0.5-0.5,0.5h-2.7
					C391.4,453.7,391.2,453.5,391.2,453.2z M372.7,453.7h2.7c0.3,0,0.5-0.2,0.5-0.5l0,0c0-0.3-0.2-0.5-0.5-0.5h-2.7
					c-0.3,0-0.5,0.2-0.5,0.5l0,0C372.2,453.5,372.4,453.7,372.7,453.7z"/>
				<path class="st2" d="M374.5,449.2h17.9c0.2,0,0.3-0.1,0.3-0.3l0,0c0-0.2-0.1-0.3-0.3-0.3h-17.9c-0.2,0-0.3,0.1-0.3,0.3l0,0
					C374.1,449.1,374.3,449.2,374.5,449.2z"/>
				<rect x="367.7" y="470" class="st2" width="106.7" height="62.2"/>
				<path class="st2" d="M433,476.6H469v24.9H433V476.6L433,476.6z"/>
				<path class="st2" d="M433,504.2H469v24.9H433V504.2L433,504.2z"/>
				<path class="st2" d="M436.6,481.1h8.2c0.4,0,0.7-0.3,0.7-0.7l0,0c0-0.4-0.3-0.7-0.7-0.7h-8.2c-0.4,0-0.7,0.3-0.7,0.7l0,0
					C435.9,480.8,436.2,481.1,436.6,481.1z"/>
				<path class="st2" d="M436.6,508.3h8.2c0.4,0,0.7-0.3,0.7-0.7l0,0c0-0.4-0.3-0.7-0.7-0.7h-8.2c-0.4,0-0.7,0.3-0.7,0.7l0,0
					C435.9,508,436.2,508.3,436.6,508.3z"/>
				<rect x="437" y="441.8" class="st2" width="25.1" height="2.8"/>
				<path class="st5" d="M439,459.3v-3.6c0-0.2,0.1-0.4,0.2-0.5l0.4-0.5c0.5-0.6,1.2-0.9,2-0.9l0,0c0.8,0,1.5,0.4,2,1l0.3,0.4
					c0.1,0.1,0.2,0.3,0.2,0.5v3.6c0,0.4-0.3,0.6-0.6,0.6h-3.8C439.3,459.9,439,459.6,439,459.3L439,459.3z"/>
				<path class="st5" d="M442.1,458.5c0,0.1,0.1,0.2,0.3,0.2s0.3-0.1,0.3-0.2v-2.7c0-0.1-0.1-0.2-0.3-0.2s-0.3,0.1-0.3,0.2V458.5z"
					/>
				<path class="st5" d="M440.3,458.5c0,0.1,0.1,0.2,0.3,0.2s0.3-0.1,0.3-0.2v-2.7c0-0.1-0.1-0.2-0.3-0.2s-0.3,0.1-0.3,0.2V458.5z"
					/>
				<rect x="441.3" y="442.9" class="st2" width="0.7" height="11"/>
				<path class="st2" d="M449.3,460h0.5c0.9,0,1.7-1,1.7-2.2v-1.5c0-0.5-0.1-1-0.4-1.5l0,0c-0.4-0.6-0.9-1-1.5-1l0,0
					c-0.6,0-1.1,0.3-1.5,0.9l0,0c-0.3,0.4-0.4,1-0.4,1.5v1.4C447.6,459,448.4,460,449.3,460L449.3,460z"/>
				<rect x="449.3" y="442.9" class="st2" width="0.7" height="11"/>
				<path class="st2" d="M457.3,460h0.6c1.2,0,2.2-1,2.2-2.2v-1.5c0-0.5-0.2-1-0.5-1.4l0,0c-0.5-0.6-1.2-1-2-1l0,0
					c-0.7,0-1.4,0.3-1.9,0.9l0,0c-0.4,0.4-0.5,1-0.5,1.5v1.4C455.2,459,456.1,459.9,457.3,460L457.3,460z"/>
				<rect x="457.3" y="442.9" class="st2" width="0.7" height="11"/>
				<path class="st2" d="M457.7,443.8L457.7,443.8c-0.1,0-0.2,0-0.2-0.1v-0.4c0-0.1,0-0.1,0.1-0.1h0.1c0.1,0,0.1,0,0.1,0.1v0.4
					C457.8,443.8,457.8,443.8,457.7,443.8z"/>
				<path class="st2" d="M449.7,443.8L449.7,443.8c-0.1,0-0.2,0-0.2-0.1v-0.4c0-0.1,0-0.1,0.1-0.1h0.1c0.1,0,0.1,0,0.1,0.1v0.4
					C449.8,443.8,449.7,443.8,449.7,443.8z"/>
				<path class="st2" d="M441.6,443.8L441.6,443.8c-0.1,0-0.2,0-0.2-0.1v-0.4c0-0.1,0-0.1,0.1-0.1h0.1c0.1,0,0.1,0,0.1,0.1v0.4
					C441.8,443.8,441.7,443.8,441.6,443.8z"/>
				<rect x="372.2" y="486.8" class="st2" width="55.9" height="42.2"/>
				<path class="st2" d="M428.7,486.8h-57.2c-0.8,0-1.5-0.7-1.5-1.5v-0.6c0-0.8,0.7-1.5,1.5-1.5h57.2c0.8,0,1.5,0.7,1.5,1.5v0.6
					C430.2,486.1,429.5,486.8,428.7,486.8z"/>
				<rect x="372" y="476.6" class="st2" width="56.2" height="5.2"/>
				<path class="st2" d="M399.2,479c0-0.8-0.6-1.4-1.4-1.4s-1.4,0.6-1.4,1.4s0.6,1.4,1.4,1.4S399.2,479.8,399.2,479z"/>
				<path class="st2" d="M394,479c0-0.8-0.6-1.4-1.4-1.4s-1.4,0.6-1.4,1.4s0.6,1.4,1.4,1.4S394,479.8,394,479z"/>
				<rect x="375.6" y="477.6" class="st2" width="11" height="2.9"/>
				<rect x="369.3" y="465.1" class="st2" width="58.8" height="4.9"/>
				<rect x="387.8" y="360.4" class="st2" width="24.4" height="31.3"/>
				<rect x="382.4" y="391.8" class="st2" width="35.2" height="10"/>
				<polygon class="st2" points="432.9,419.9 416.8,401.8 381.6,401.8 367.2,419.9 				"/>
				<rect x="360.9" y="419.9" class="st2" width="76.5" height="5.1"/>
				<path class="st2" d="M372.8,422.8c0-0.3-0.3-0.6-0.6-0.6s-0.6,0.3-0.6,0.6c0,0.3,0.3,0.6,0.6,0.6S372.8,423.2,372.8,422.8z"/>
				<path class="st2" d="M370,422.8c0-0.3-0.3-0.6-0.6-0.6s-0.6,0.3-0.6,0.6c0,0.3,0.3,0.6,0.6,0.6S370,423.2,370,422.8z"/>
				<path class="st2" d="M367.2,422.8c0-0.3-0.3-0.6-0.6-0.6s-0.6,0.3-0.6,0.6c0,0.3,0.3,0.6,0.6,0.6S367.2,423.2,367.2,422.8z"/>
			</g>
			<rect x="359.3" y="360.3" class="st2" width="115.1" height="171.9"/>
			<g>
				<g>
					<path class="st5" d="M123.1,450.4c0-0.7,0.6-1.3,1.3-1.3l0,0c0.7,0,1.3,0.6,1.3,1.3v1.3v4c-0.4-0.5-1-0.8-1.7-0.6
						c-0.4,0.1-0.7,0.3-0.9,0.6v-4h-4.7v-1.3L123.1,450.4L123.1,450.4z"/>
					<path class="st5" d="M123.9,455.1c0.8-0.2,1.5,0.2,1.8,0.9l1.2-0.3l0.1,0.5l-1.2,0.3c0.1,0.8-0.5,1.5-1.2,1.7
						c-0.9,0.2-1.7-0.3-1.9-1.2C122.6,456.1,123.1,455.3,123.9,455.1L123.9,455.1z"/>
					<path class="st5" d="M123.1,459.2v-1.6c0.4,0.5,1,0.7,1.6,0.6c0.4-0.1,0.7-0.3,0.9-0.6v1.6L123.1,459.2L123.1,459.2z"/>
					<path class="st5" d="M140.4,459.2c-10.7,0-21.4,0-32.2,0c-0.9,4,2.6,7.4,4.9,11.1h22.4C137.8,466.6,141.3,463.2,140.4,459.2
						L140.4,459.2z"/>
				</g>
				<g>
					<rect x="97.8" y="470.4" class="st5" width="53" height="61.8"/>
					<path class="st5" d="M122.9,527.1v-49.7h-20.8v49.7H122.9L122.9,527.1z"/>
					<path class="st5" d="M119,501c-0.9,0-1.6-0.7-1.6-1.6c0-0.9,0.7-1.6,1.6-1.6s1.6,0.7,1.6,1.6S119.9,501,119,501z"/>
					<g>
						<path class="st5" d="M136.8,481.7c-0.5,0-0.9-0.4-0.9-0.9s0.4-0.9,0.9-0.9s0.9,0.4,0.9,0.9S137.3,481.7,136.8,481.7z"/>
						<path class="st5" d="M147.6,476.9h0.2v0.2v7.1v0.2h-0.2H126h-0.2v-0.2v-7.1v-0.2h0.2H147.6L147.6,476.9z"/>
					</g>
					<g>
						<path class="st5" d="M136.8,491.7c-0.5,0-0.9-0.4-0.9-0.9c0-0.5,0.4-0.9,0.9-0.9s0.9,0.4,0.9,0.9S137.3,491.7,136.8,491.7z"/>
						<path class="st5" d="M147.6,486.9h0.2v0.2v7.1v0.2h-0.2H126h-0.2v-0.2v-7.1v-0.2h0.2H147.6L147.6,486.9z"/>
					</g>
					<g>
						<path class="st5" d="M136.8,502.2c-0.5,0-0.9-0.4-0.9-0.9s0.4-0.9,0.9-0.9s0.9,0.4,0.9,0.9S137.3,502.2,136.8,502.2z"/>
						<path class="st5" d="M147.6,497.4h0.2v0.2v7.1v0.2h-0.2H126h-0.2v-0.2v-7.1v-0.2h0.2H147.6L147.6,497.4z"/>
					</g>
					<g>
						<path class="st5" d="M136.8,513.1c-0.5,0-0.9-0.4-0.9-0.9s0.4-0.9,0.9-0.9s0.9,0.4,0.9,0.9
							C137.8,512.7,137.3,513.1,136.8,513.1z"/>
						<path class="st5" d="M147.6,508.4h0.2v0.2v7.1v0.2h-0.2H126h-0.2v-0.2v-7.1v-0.2h0.2H147.6L147.6,508.4z"/>
					</g>
					<g>
						<path class="st5" d="M136.8,524.6c-0.5,0-0.9-0.4-0.9-0.9s0.4-0.9,0.9-0.9s0.9,0.4,0.9,0.9S137.3,524.6,136.8,524.6z"/>
						<path class="st5" d="M147.6,519.8h0.2v0.2v7.1v0.2h-0.2H126h-0.2v-0.2v-7.1v-0.2h0.2H147.6L147.6,519.8z"/>
					</g>
				</g>
				<g>
					<rect x="106.5" y="389.9" class="st5" width="35.6" height="50.6"/>
					<rect x="104.2" y="440.5" class="st5" width="40.3" height="2.6"/>
				</g>
			</g>
			<rect x="532.8" y="476.8" class="st2" width="21.2" height="55.4"/>
			<polygon class="st2" points="542.5,485.6 546.1,490.4 543.8,490.4 544.4,494.4 540.5,489.4 543.1,489.4 			"/>
			<polygon class="st6" points="641.3,474.7 645.2,474.7 645.2,458 641.3,458 641.3,466.3 			"/>
			<path class="st2" d="M631.5,501.5l2.1,0c2.2,0,3.8-1.8,3.8-4v-27.2c0-2.1,1.7-3.9,3.9-3.9l0,0"/>
			<path class="st2" d="M467.2,255.5l-2.8-6.6h11.9c1.7,0,3.1,1.4,3.1,3.1v0.4c0,1.7-1.4,3.1-3.1,3.1L467.2,255.5L467.2,255.5z"/>
			<g>
				<line class="st2" x1="476.5" y1="277.5" x2="455.2" y2="227"/>
				<line class="st2" x1="422" y1="277.5" x2="400.8" y2="227"/>
				<line class="st2" x1="367.6" y1="277.5" x2="346.3" y2="227"/>
				<polygon class="st2" points="313.2,277.5 291.9,227 455.2,227 476.5,277.5 				"/>
			</g>
			<g>
				<line class="st2" x1="297.4" y1="277.5" x2="276.1" y2="227"/>
				<line class="st2" x1="243" y1="277.5" x2="221.7" y2="227"/>
				<line class="st2" x1="188.6" y1="277.5" x2="167.3" y2="227"/>
				<polygon class="st2" points="134.2,277.5 112.9,227 276.1,227 297.4,277.5 				"/>
			</g>
			<path class="st2" d="M483.3,308.8h12.1c1.7,0,3.1,1.4,3.1,3.1v0.4c0,1.7-1.4,3.1-3.1,3.1h-9.4L483.3,308.8L483.3,308.8z"/>
			<g>
				<line class="st2" x1="495.4" y1="337.4" x2="474.1" y2="286.9"/>
				<line class="st2" x1="440.9" y1="337.4" x2="419.6" y2="286.9"/>
				<line class="st2" x1="386.5" y1="337.4" x2="365.2" y2="286.9"/>
				<polygon class="st2" points="332.1,337.4 310.8,286.9 474.1,286.9 495.4,337.4 				"/>
			</g>
			<g>
				<line class="st2" x1="324.6" y1="337.4" x2="303.3" y2="286.9"/>
				<line class="st2" x1="270.2" y1="337.4" x2="248.9" y2="286.9"/>
				<line class="st2" x1="215.8" y1="337.4" x2="194.5" y2="286.9"/>
				<polygon class="st2" points="161.4,337.4 140.1,286.9 303.3,286.9 324.6,337.4 				"/>
			</g>
			<path class="st2" d="M64.8,217.1h400.8l9.6,31.8h-10.7l2.8,6.6h9.1c0.3,0,0.5-0.1,0.8-0.1l16.1,53.4h-9.9l2.8,6.6h9.1l9.5,31.4
				h-115l-0.1,0.1H141.7l-0.1-0.1H25.7L64.8,217.1L64.8,217.1z"/>
			<polyline class="st2" points="73.5,360.2 73.5,377.3 74.9,377.3 74.9,360.2 			"/>
			<path class="st2" d="M77.2,377.3h-6.1c-1.5,0-2.8,1-3.1,2.5h12.3C80,378.3,78.7,377.3,77.2,377.3z"/>
			<rect x="57" y="388.7" class="st2" width="34.4" height="143.6"/>
			<line class="st2" x1="87.8" y1="455" x2="80.3" y2="455"/>
			<line class="st2" x1="70.5" y1="381.9" x2="70.5" y2="384.8"/>
			<line class="st2" x1="78.7" y1="383.3" x2="78.7" y2="386.2"/>
			<line class="st2" x1="73.2" y1="383.7" x2="73.2" y2="386.5"/>
			<line class="st2" x1="76" y1="381.4" x2="76" y2="384.2"/>
		</g>
		<g>
			<circle class="st7" cx="18.9" cy="384.2" r="14.3"/>
			<path class="st8" d="M17,379.9H15v-2.5h4.8v13H17L17,379.9L17,379.9z"/>
		</g>
		<g>
			<circle class="st7" cx="177.9" cy="365.1" r="14.7"/>
			<path class="st8" d="M172.4,367.9l2.7-0.4c0.4,1.1,1.4,1.8,2.8,1.8c1.6,0,2.6-0.7,2.6-1.8s-0.8-1.7-2.6-1.7h-1.3v-2.1h1.1
				c1.7,0,2.5-0.5,2.5-1.6c0-1.1-0.8-1.7-2.4-1.7c-1.2,0-2.1,0.5-2.5,1.6l-2.7-0.4c0.6-2.3,2.5-3.7,5.2-3.7c3.2,0,5.2,1.5,5.2,3.8
				c0,1.5-0.8,2.6-2.4,3c1.7,0.3,2.6,1.4,2.6,3.1c0,2.4-2.2,4-5.5,4C174.8,371.7,172.8,370.2,172.4,367.9L172.4,367.9z"/>
		</g>
		<g>
			<circle class="st7" cx="132.1" cy="217.1" r="14.7"/>
			<path class="st8" d="M126.9,220.9c7-4.1,7.6-5.1,7.6-6.5c0-1.2-1-1.9-2.4-1.9s-2.4,0.7-2.6,1.9l-2.7-0.4c0.4-2.6,2.4-4.1,5.3-4.1
				c3.3,0,5.4,1.5,5.4,4.1c0,2.4-1.9,4.1-6.6,6.8h6.5v2.6h-10.4L126.9,220.9L126.9,220.9z"/>
		</g>
		<g>
			<circle class="st7" cx="416.8" cy="452.6" r="14.7"/>
			<path class="st8" d="M417,456.4h-7v-2.4l6.7-8.5h3.2v8.4h1.6v2.4h-1.6v2.6H417V456.4z M417,454V449l-4.1,5.1H417z"/>
		</g>
		<g>
			<circle class="st7" cx="527.9" cy="470.4" r="14.7"/>
			<path class="st8" d="M522.6,473.1l2.6-0.3c0.3,1,1.3,1.6,2.6,1.6c1.7,0,2.7-0.9,2.7-2.5s-1.1-2.4-2.8-2.3c-1.1,0-2,0.5-2.5,1.3
				l-2.5-0.4l1.2-7.3h8.6v2.5h-6.4l-0.5,2.7c0.8-0.5,1.7-0.8,2.7-0.8c2.9-0.1,4.9,1.7,4.9,4.4c0,2.9-2.2,4.8-5.4,4.8
				C525,476.9,523,475.6,522.6,473.1L522.6,473.1z"/>
		</g>
		<g>
			<circle class="st7" cx="622.1" cy="458.4" r="14.7"/>
			<path class="st8" d="M616.6,459.7c0-2.6,1.3-4.5,4.8-8.3h3.6c-1.4,1.3-2.7,2.8-3.6,4.1c0.5-0.3,1.1-0.4,1.6-0.4
				c2.5,0,4.7,1.6,4.7,4.7c0,3.7-2.7,5.2-5.5,5.2S616.6,463.3,616.6,459.7L616.6,459.7z M624.8,459.8c0-1.6-1-2.6-2.7-2.6
				s-2.7,1-2.7,2.6s1,2.6,2.7,2.6S624.8,461.5,624.8,459.8z"/>
		</g>
		<g>
			<path class="st9" d="M607.2,297.5c0,42.6,23.8,77.1,53.2,77.1c29.4,0,53.2-34.5,53.2-77.1s-23.8-77.1-53.2-77.1
				C631,220.3,607.2,254.9,607.2,297.5L607.2,297.5z"/>
			<line class="st9" x1="660.4" y1="275" x2="660.4" y2="410.5"/>
			<line class="st9" x1="660.4" y1="333.9" x2="690" y2="299.8"/>
			<line class="st9" x1="679.1" y1="312.3" x2="675.9" y2="284.8"/>
			<line class="st9" x1="660.4" y1="355.3" x2="632.1" y2="321.5"/>
			<line class="st9" x1="642.5" y1="333.9" x2="644.3" y2="315"/>
		</g>
		<g>
			<line class="st10" x1="18.9" y1="364.6" x2="18.9" y2="364.6"/>
			<line class="st11" x1="18.9" y1="359.6" x2="18.9" y2="61.2"/>
			<line class="st10" x1="18.9" y1="58.7" x2="18.9" y2="58.7"/>
		</g>
		<g>
			<line class="st10" x1="132.6" y1="197.4" x2="132.6" y2="197.4"/>
			<line class="st12" x1="132.6" y1="192.3" x2="132.6" y2="117.7"/>
			<line class="st10" x1="132.6" y1="115.2" x2="132.6" y2="115.2"/>
		</g>
		<g>
			<line class="st10" x1="177.9" y1="345.4" x2="177.9" y2="345.4"/>
			<line class="st13" x1="177.9" y1="340.4" x2="177.9" y2="203.9"/>
			<line class="st10" x1="177.9" y1="201.4" x2="177.9" y2="201.4"/>
		</g>
		<g>
			<line class="st10" x1="416.8" y1="433" x2="416.8" y2="433"/>
			<line class="st14" x1="416.8" y1="427.9" x2="416.8" y2="80"/>
			<line class="st10" x1="416.8" y1="77.5" x2="416.8" y2="77.5"/>
		</g>
		<g>
			<line class="st10" x1="527.9" y1="450.7" x2="527.9" y2="450.7"/>
			<line class="st15" x1="527.9" y1="445.7" x2="527.9" y2="167.9"/>
			<line class="st10" x1="527.9" y1="165.4" x2="527.9" y2="165.4"/>
		</g>
		<g>
			<line class="st10" x1="622.1" y1="438.7" x2="622.1" y2="438.7"/>
			<line class="st16" x1="622.1" y1="433.6" x2="622.1" y2="219.9"/>
			<line class="st10" x1="622.1" y1="217.4" x2="622.1" y2="217.4"/>
		</g>
		<g>
			<path class="st8" d="M535.3,94h3.7v9.8h11V94h3.7v23.2h-3.7V107h-11v10.1h-3.7V94z"/>
			<path class="st8" d="M557.7,108c0-6.6,4.6-9.5,9.2-9.5s9.3,2.9,9.3,9.5s-4.6,9.6-9.2,9.6S557.7,114.7,557.7,108z M572.6,108
				c0-4-2.3-6.5-5.7-6.5s-5.7,2.4-5.7,6.5s2.3,6.5,5.7,6.5S572.6,112,572.6,108z"/>
			<path class="st8" d="M579.4,108.8v-9.9h3.6v9.7c0,4,1.4,5.9,4.9,5.9s4.9-2.3,4.9-6.3v-9.2h3.6v18.3h-3.6v-3.3
				c-0.8,2.3-2.9,3.7-6,3.7C581.8,117.5,579.4,114.6,579.4,108.8z"/>
			<path class="st8" d="M599.5,112.7l3.3-0.9c0.9,1.7,2.8,2.6,5.3,2.6c2.8,0,4.4-0.9,4.4-2.6c0-4.2-12.2-0.4-12.2-8.1
				c0-3.1,3.3-5.2,7.5-5.2c3.3,0,6.7,1.7,7.8,4.2l-3.2,0.9c-0.8-1.3-2.6-2.1-4.5-2.1c-2.6,0-4.1,0.9-4.1,2.4
				c0,4.2,12.3,0.3,12.3,7.9c0,3.5-3.1,5.7-8,5.7C604,117.5,600.6,115.6,599.5,112.7L599.5,112.7z"/>
			<path class="st8" d="M618.5,108c0-5.6,3.8-9.5,9.2-9.5c5.8,0,9.3,4.3,8.9,10.4h-14.6c0.1,3.6,2.3,5.6,5.9,5.6
				c2.6,0,4.2-0.9,5.1-2.6l3.3,0.5c-1.5,3.4-4.3,5.1-8.5,5.1C622.2,117.5,618.5,113.7,618.5,108L618.5,108z M633.3,106.1
				c-0.3-2.9-2.2-4.8-5.5-4.8s-5.2,1.6-5.6,4.8H633.3z"/>
			<path class="st8" d="M640.3,92.9h3.6v9.3c0.7-2.1,2.7-3.7,6-3.7c4.8,0,7.4,2.6,7.4,8.7v9.9h-3.6v-9.6c0-4.1-1.5-5.9-4.9-5.9
				s-4.9,2.2-4.9,6.3v9.2h-3.6V92.9z"/>
			<path class="st8" d="M660.4,108c0-6.6,4.6-9.5,9.2-9.5s9.3,2.9,9.3,9.5s-4.6,9.6-9.2,9.6S660.4,114.7,660.4,108z M675.4,108
				c0-4-2.3-6.5-5.7-6.5S664,104,664,108s2.3,6.5,5.7,6.5S675.4,112,675.4,108z"/>
			<path class="st8" d="M682.5,92.9h3.6v24.2h-3.6V92.9z"/>
			<path class="st8" d="M689.7,108c0-6.3,3.8-9.5,8.4-9.5c2.9,0,5.5,1.4,6.5,3.9v-9.5h3.6v24.2h-3.6v-3.5c-1,2.5-3.6,3.9-6.5,3.9
				C693.6,117.6,689.7,114.3,689.7,108L689.7,108z M704.7,108c0-4-2.3-6.5-5.7-6.5s-5.7,2.4-5.7,6.5s2.3,6.5,5.7,6.5
				S704.7,112,704.7,108z"/>
			<path class="st8" d="M538.6,143.7v3.5H535v-24.2h3.6v9.5c1-2.5,3.6-3.9,6.5-3.9c4.5,0,8.4,3.2,8.4,9.5s-3.9,9.6-8.4,9.6
				C542.2,147.6,539.6,146.1,538.6,143.7L538.6,143.7z M549.9,138c0-4-2.3-6.5-5.7-6.5s-5.7,2.4-5.7,6.5s2.3,6.5,5.7,6.5
				S549.9,142,549.9,138z"/>
			<path class="st8" d="M556.4,138c0-6.3,3.8-9.5,8.4-9.5c2.9,0,5.4,1.4,6.5,3.9v-3.6h3.6v18.3h-3.6v-3.5c-1,2.5-3.6,3.9-6.5,3.9
				C560.3,147.6,556.4,144.3,556.4,138z M571.4,138c0-4-2.3-6.5-5.7-6.5S560,134,560,138s2.3,6.5,5.7,6.5S571.4,142,571.4,138z"/>
			<path class="st8" d="M580.3,139.9v-8.2h-2.7v-2.8h2.7v-3.4l3.6-0.8v4.1h5.4v2.8h-5.4v7.8c0,3.8,1,5.1,3.8,5.1
				c0.3,0,0.8-0.1,1.5-0.2l0.5,2.8c-0.7,0.2-1.7,0.3-2.5,0.3C582.5,147.4,580.3,145.5,580.3,139.9L580.3,139.9z"/>
			<path class="st8" d="M593.4,139.9v-8.2h-2.7v-2.8h2.7v-3.4l3.6-0.8v4.1h5.4v2.8H597v7.8c0,3.8,1,5.1,3.8,5.1
				c0.3,0,0.8-0.1,1.5-0.2l0.5,2.8c-0.7,0.2-1.7,0.3-2.5,0.3C595.5,147.4,593.4,145.5,593.4,139.9L593.4,139.9z"/>
			<path class="st8" d="M604,138c0-5.6,3.8-9.5,9.2-9.5c5.8,0,9.3,4.3,8.9,10.4h-14.6c0.1,3.6,2.3,5.6,5.9,5.6
				c2.6,0,4.2-0.9,5.1-2.6l3.3,0.5c-1.5,3.4-4.3,5.1-8.5,5.1C607.7,147.5,604,143.7,604,138L604,138z M618.8,136.1
				c-0.3-2.9-2.2-4.8-5.5-4.8s-5.2,1.6-5.6,4.8H618.8z"/>
			<path class="st8" d="M625.7,128.9h3.6v3.1c0.7-1.9,2.6-3.7,6.4-3.2l-0.4,3.5c-4.1-0.8-6,1.4-6,5.9v9.1h-3.6V128.9L625.7,128.9z"
				/>
			<path class="st8" d="M644,147l-7.9-18.2h3.9l5.9,14.3l5.9-14.3h3.9l-10.5,24.2h-3.9L644,147L644,147z"/>
		</g>
		<g>
			<path class="st8" d="M422.6,56.4l3.5-0.7c1,2.4,3.2,3.7,6.1,3.7c3.2,0,5-1.3,5-3.5c0-5.5-13.6-1.7-13.6-10.6c0-3.9,3.3-6.5,8-6.5
				s7.9,2.1,9.1,6l-3.4,0.7c-1-2.2-2.8-3.3-5.6-3.3s-4.5,1.2-4.5,3.2c0,5.8,13.7,1.5,13.7,10.6c0,4.1-3.4,6.7-8.6,6.7
				C427.4,62.7,423.8,60.4,422.6,56.4L422.6,56.4z"/>
			<path class="st8" d="M444.8,55.1v-8.2h-2.7v-2.8h2.7v-3.4l3.6-0.8v4.1h5.4v2.8h-5.4v7.8c0,3.8,1,5.1,3.8,5.1
				c0.4,0,0.8-0.1,1.5-0.2l0.5,2.8c-0.7,0.2-1.7,0.3-2.5,0.3C446.9,62.6,444.8,60.7,444.8,55.1L444.8,55.1z"/>
			<path class="st8" d="M455.4,53.2c0-6.6,4.6-9.5,9.2-9.5s9.3,2.9,9.3,9.5s-4.6,9.6-9.2,9.6S455.4,59.9,455.4,53.2z M470.3,53.2
				c0-4-2.3-6.5-5.7-6.5s-5.7,2.4-5.7,6.5s2.3,6.5,5.7,6.5S470.3,57.2,470.3,53.2z"/>
			<path class="st8" d="M474.9,44.1h3.9l5.9,14.4l5.9-14.4h4l-8.1,18.3h-3.6L474.9,44.1L474.9,44.1z"/>
			<path class="st8" d="M495.5,53.2c0-5.6,3.8-9.5,9.2-9.5c5.8,0,9.3,4.3,8.9,10.4H499c0.1,3.5,2.3,5.6,5.9,5.6
				c2.6,0,4.2-0.9,5.1-2.6l3.3,0.5c-1.5,3.4-4.4,5.1-8.5,5.1C499.2,62.7,495.5,58.9,495.5,53.2L495.5,53.2z M510.2,51.3
				c-0.3-2.9-2.2-4.8-5.5-4.8s-5.2,1.6-5.6,4.8H510.2z"/>
			<path class="st8" d="M527.2,55.1v-8.2h-2.7v-2.8h2.7v-3.4l3.6-0.8v4.1h5.4v2.8h-5.4v7.8c0,3.8,1,5.1,3.8,5.1
				c0.3,0,0.8-0.1,1.5-0.2l0.5,2.8c-0.7,0.2-1.7,0.3-2.5,0.3C529.3,62.6,527.2,60.7,527.2,55.1L527.2,55.1z"/>
			<path class="st8" d="M537.8,53.2c0-6.6,4.6-9.5,9.2-9.5s9.3,2.9,9.3,9.5s-4.6,9.6-9.2,9.6S537.8,59.9,537.8,53.2z M552.7,53.2
				c0-4-2.3-6.5-5.7-6.5s-5.7,2.4-5.7,6.5s2.3,6.5,5.7,6.5S552.7,57.2,552.7,53.2z"/>
			<path class="st8" d="M559.9,44.1h3.6v3.5c1-2.3,3.4-3.8,6.5-3.8c4.3,0,8.4,2.9,8.4,9.5s-4.1,9.5-8.4,9.5c-3.1,0-5.5-1.5-6.5-3.9
				v9.5h-3.6C559.9,68.3,559.9,44.1,559.9,44.1z M574.8,53.2c0-4-2.3-6.5-5.7-6.5s-5.7,2.4-5.7,6.5s2.3,6.5,5.7,6.5
				S574.8,57.2,574.8,53.2z"/>
		</g>
		<g>
			<path class="st8" d="M185.4,131.1h3.7v23.2h-3.7V131.1z"/>
			<path class="st8" d="M193.7,135.9h3.6v3.3c0.8-2.3,2.9-3.6,6-3.6c5.1,0,7.4,2.9,7.4,8.7v9.9H207v-9.6c0-4-1.5-5.9-4.9-5.9
				s-4.9,2.3-4.9,6.3v9.2h-3.6V135.9z"/>
			<path class="st8" d="M213.8,145.1c0-6.3,3.8-9.5,8.4-9.5c2.9,0,5.5,1.4,6.5,3.9V130h3.6v24.2h-3.6v-3.5c-1,2.5-3.6,3.9-6.5,3.9
				C217.7,154.6,213.8,151.4,213.8,145.1L213.8,145.1z M228.8,145.1c0-4-2.3-6.5-5.7-6.5s-5.7,2.4-5.7,6.5s2.3,6.5,5.7,6.5
				S228.8,149.1,228.8,145.1z"/>
			<path class="st8" d="M236,145.1c0-6.6,4.6-9.5,9.2-9.5s9.3,2.9,9.3,9.5s-4.6,9.6-9.2,9.6S236,151.7,236,145.1z M251,145.1
				c0-4-2.3-6.5-5.7-6.5s-5.7,2.4-5.7,6.5s2.3,6.5,5.7,6.5S251,149.1,251,145.1z"/>
			<path class="st8" d="M257.5,145.1c0-6.6,4.6-9.5,9.2-9.5s9.3,2.9,9.3,9.5s-4.6,9.6-9.2,9.6S257.5,151.7,257.5,145.1z
				 M272.4,145.1c0-4-2.3-6.5-5.7-6.5s-5.7,2.4-5.7,6.5s2.3,6.5,5.7,6.5S272.4,149.1,272.4,145.1z"/>
			<path class="st8" d="M279.6,135.9h3.6v3.1c0.7-1.9,2.6-3.7,6.4-3.2l-0.4,3.5c-4.1-0.8-6,1.4-6,5.9v9.1h-3.6V135.9L279.6,135.9z"
				/>
			<path class="st8" d="M185.1,160h3.6v9.3c0.7-2.1,2.7-3.6,6-3.6c4.8,0,7.4,2.6,7.4,8.7v9.9h-3.6v-9.6c0-4.1-1.5-5.9-4.9-5.9
				s-4.9,2.2-4.9,6.3v9.2h-3.6V160z"/>
			<path class="st8" d="M205.2,175.1c0-5.6,3.8-9.5,9.2-9.5c5.8,0,9.3,4.3,8.9,10.4h-14.6c0.1,3.6,2.3,5.6,5.9,5.6
				c2.6,0,4.2-0.9,5.1-2.6l3.3,0.5c-1.5,3.4-4.4,5.1-8.5,5.1C208.9,184.6,205.2,180.8,205.2,175.1L205.2,175.1z M220,173.2
				c-0.3-2.9-2.2-4.8-5.5-4.8s-5.2,1.6-5.6,4.8H220z"/>
			<path class="st8" d="M226.3,175.1c0-6.3,3.8-9.5,8.4-9.5c2.9,0,5.4,1.4,6.5,3.9v-3.6h3.6v18.3h-3.6v-3.5c-1,2.5-3.6,3.9-6.5,3.9
				C230.2,184.6,226.3,181.4,226.3,175.1z M241.3,175.1c0-4-2.3-6.5-5.7-6.5s-5.7,2.4-5.7,6.5s2.3,6.5,5.7,6.5
				S241.3,179.1,241.3,175.1z"/>
			<path class="st8" d="M250.2,176.9v-8.2h-2.7v-2.8h2.7v-3.4l3.6-0.8v4.1h5.4v2.8h-5.4v7.8c0,3.8,1,5.1,3.8,5.1
				c0.4,0,0.8-0.1,1.5-0.2l0.5,2.8c-0.7,0.2-1.7,0.3-2.5,0.3C252.4,184.5,250.2,182.5,250.2,176.9L250.2,176.9z"/>
			<path class="st8" d="M261.9,161.3c0-1.2,0.9-1.9,2.1-1.9c1.1,0,2.1,0.7,2.1,1.9s-1,1.9-2.1,1.9
				C262.8,163.3,261.9,162.5,261.9,161.3z M262.2,165.9h3.5v18.3h-3.5V165.9z"/>
			<path class="st8" d="M270.1,165.9h3.6v3.3c0.8-2.3,2.9-3.6,6-3.6c5.1,0,7.4,2.9,7.4,8.7v9.9h-3.6v-9.6c0-4-1.5-5.9-4.9-5.9
				s-4.9,2.3-4.9,6.3v9.2h-3.6L270.1,165.9L270.1,165.9z"/>
			<path class="st8" d="M290.7,185.7l3.4-0.8c0.9,1.9,2.9,3.1,5.4,3.1c3.6,0,5.7-1.8,5.7-6.4V180c-1,2.7-3.6,3.8-6.5,3.8
				c-4.6,0-8.4-3-8.4-9.1s3.8-9.1,8.4-9.1c2.9,0,5.5,1.1,6.5,3.8v-3.5h3.6V181c0,6.9-3.2,9.8-9.3,9.8
				C295.1,190.8,291.9,189,290.7,185.7L290.7,185.7z M305.2,174.7c0-3.9-2.3-6.3-5.7-6.3s-5.7,2.4-5.7,6.3s2.3,6.4,5.7,6.4
				S305.2,178.7,305.2,174.7z"/>
		</g>
		<g>
			<path class="st8" d="M153.6,97.7l-5.1-7.8c-0.5,0-1.1,0.1-1.7,0.1h-3v7.7h-3.7V74.6h6.8c7.2,0,10.6,2.1,10.6,7.7
				c0,3.8-1.8,6.1-5.3,7.1l5.7,8.4L153.6,97.7L153.6,97.7z M147.1,86.9c4.4,0,6.6-0.8,6.6-4.5s-2.2-4.6-6.6-4.6h-3.4v9.1H147.1z"/>
			<path class="st8" d="M160,88.6c0-6.6,4.6-9.5,9.2-9.5s9.3,2.9,9.3,9.5s-4.6,9.6-9.2,9.6S160,95.2,160,88.6z M174.9,88.6
				c0-4-2.3-6.5-5.7-6.5s-5.7,2.4-5.7,6.5s2.3,6.5,5.7,6.5S174.9,92.6,174.9,88.6z"/>
			<path class="st8" d="M181.5,88.6c0-6.6,4.6-9.5,9.2-9.5s9.3,2.9,9.3,9.5s-4.6,9.6-9.2,9.6S181.5,95.2,181.5,88.6z M196.4,88.6
				c0-4-2.3-6.5-5.7-6.5s-5.7,2.4-5.7,6.5s2.3,6.5,5.7,6.5S196.4,92.6,196.4,88.6z"/>
			<path class="st8" d="M204,82.2h-2.5v-2.8h2.5v-0.7c0-3.9,2.1-5.9,6.4-5.9c1.1,0,2.4,0.1,3.2,0.3l-0.5,2.7c-0.7-0.1-1.3-0.2-2-0.2
				c-2.3,0-3.5,1-3.5,3.2v0.6h5.1v2.8h-5.1v15.5H204L204,82.2L204,82.2z"/>
			<path class="st8" d="M216.4,90.4v-8.2h-2.7v-2.8h2.7v-3.4l3.6-0.8v4.1h5.4v2.8h-5.4V90c0,3.8,1,5.1,3.8,5.1
				c0.4,0,0.8-0.1,1.5-0.2l0.5,2.8c-0.7,0.2-1.7,0.3-2.5,0.3C218.6,98,216.4,96,216.4,90.4L216.4,90.4z"/>
			<path class="st8" d="M227,88.6c0-6.6,4.6-9.5,9.2-9.5s9.3,2.9,9.3,9.5s-4.6,9.6-9.2,9.6S227,95.2,227,88.6z M242,88.6
				c0-4-2.3-6.5-5.7-6.5s-5.7,2.4-5.7,6.5s2.3,6.5,5.7,6.5S242,92.6,242,88.6z"/>
			<path class="st8" d="M249.1,79.4h3.6v3.5c1-2.3,3.4-3.8,6.5-3.8c4.3,0,8.4,2.9,8.4,9.5s-4.1,9.5-8.4,9.5c-3.1,0-5.5-1.5-6.5-3.9
				v9.5h-3.6L249.1,79.4L249.1,79.4z M264,88.5c0-4-2.3-6.5-5.7-6.5s-5.7,2.4-5.7,6.5s2.3,6.5,5.7,6.5S264,92.5,264,88.5z"/>
			<path class="st8" d="M278.9,93.3l3.3-0.9c0.9,1.7,2.8,2.6,5.3,2.6c2.9,0,4.4-0.9,4.4-2.6c0-4.2-12.2-0.4-12.2-8.1
				c0-3.1,3.3-5.2,7.5-5.2c3.3,0,6.7,1.7,7.8,4.2l-3.2,0.9c-0.8-1.3-2.6-2.1-4.5-2.1c-2.6,0-4.1,0.9-4.1,2.4
				c0,4.2,12.3,0.3,12.3,7.9c0,3.5-3.1,5.7-8,5.7C283.4,98,280,96.2,278.9,93.3L278.9,93.3z"/>
			<path class="st8" d="M297.9,88.6c0-6.6,4.6-9.5,9.2-9.5s9.3,2.9,9.3,9.5s-4.6,9.6-9.2,9.6S297.9,95.2,297.9,88.6z M312.8,88.6
				c0-4-2.3-6.5-5.7-6.5s-5.7,2.4-5.7,6.5s2.3,6.5,5.7,6.5S312.8,92.6,312.8,88.6z"/>
			<path class="st8" d="M320,73.5h3.6v24.2H320V73.5z"/>
			<path class="st8" d="M327.2,88.6c0-6.3,3.8-9.5,8.4-9.5c2.9,0,5.4,1.4,6.5,3.9v-3.6h3.6v18.3h-3.6v-3.5c-1,2.5-3.6,3.9-6.5,3.9
				C331.1,98.1,327.2,94.9,327.2,88.6z M342.2,88.6c0-4-2.3-6.5-5.7-6.5s-5.7,2.4-5.7,6.5s2.3,6.5,5.7,6.5S342.2,92.6,342.2,88.6z"
				/>
			<path class="st8" d="M350,79.4h3.6v3.1c0.7-1.9,2.6-3.7,6.4-3.2l-0.4,3.5c-4.1-0.8-6,1.4-6,5.9v9.1H350V79.4L350,79.4z"/>
		</g>
		<g>
			<path class="st8" d="M26.3,17.5H30v9.8h11v-9.8h3.7v23.2h-3.7V30.6H30v10.1h-3.7C26.3,40.7,26.3,17.5,26.3,17.5z"/>
			<path class="st8" d="M48.7,31.5c0-6.6,4.6-9.5,9.2-9.5s9.3,2.9,9.3,9.5s-4.6,9.6-9.2,9.6S48.7,38.2,48.7,31.5z M63.6,31.5
				c0-4-2.3-6.5-5.7-6.5s-5.7,2.4-5.7,6.5S54.5,38,58,38S63.6,35.6,63.6,31.5z"/>
			<path class="st8" d="M70.9,33.4v-8.2h-2.7v-2.8h2.7V19l3.6-0.8v4.1H80v2.8h-5.4V33c0,3.8,1,5.1,3.8,5.1c0.3,0,0.8-0.1,1.5-0.2
				l0.5,2.8c-0.7,0.2-1.7,0.3-2.5,0.3C73.1,40.9,70.9,39,70.9,33.4L70.9,33.4z"/>
			<path class="st8" d="M89.8,22.4h3.9l5.1,14.1l4.7-14.1h2.8l4.7,14.1l5.1-14.1h3.9L113,40.7h-3.6L105,27.3l-4.4,13.4h-3.7
				C96.9,40.7,89.8,22.4,89.8,22.4z"/>
			<path class="st8" d="M121,31.5c0-6.3,3.8-9.5,8.4-9.5c2.9,0,5.4,1.4,6.5,3.9v-3.6h3.6v18.3h-3.6v-3.5c-1,2.5-3.6,3.9-6.5,3.9
				C124.9,41.1,121,37.9,121,31.5z M136,31.5c0-4-2.3-6.5-5.7-6.5s-5.7,2.4-5.7,6.5s2.3,6.5,5.7,6.5S136,35.6,136,31.5z"/>
			<path class="st8" d="M144.9,33.4v-8.2h-2.7v-2.8h2.7V19l3.6-0.8v4.1h5.4v2.8h-5.4V33c0,3.8,1,5.1,3.8,5.1c0.4,0,0.8-0.1,1.5-0.2
				l0.5,2.8c-0.7,0.2-1.7,0.3-2.5,0.3C147.1,40.9,144.9,39,144.9,33.4L144.9,33.4z"/>
			<path class="st8" d="M155.5,31.5c0-5.6,3.8-9.5,9.2-9.5c5.8,0,9.3,4.3,8.9,10.4h-14.6c0.1,3.5,2.3,5.6,5.9,5.6
				c2.6,0,4.2-0.9,5.1-2.6l3.3,0.5c-1.5,3.4-4.4,5.1-8.5,5.1C159.2,41,155.5,37.3,155.5,31.5L155.5,31.5z M170.3,29.6
				c-0.3-2.9-2.2-4.8-5.5-4.8s-5.2,1.6-5.6,4.8H170.3z"/>
			<path class="st8" d="M177.3,22.4h3.6v3.1c0.7-2,2.6-3.7,6.4-3.2l-0.4,3.5c-4.1-0.8-6.1,1.4-6.1,5.9v9.1h-3.6L177.3,22.4
				L177.3,22.4z"/>
			<path class="st8" d="M198.6,22.4h3.6v3.5c1-2.3,3.4-3.8,6.5-3.8c4.3,0,8.4,2.9,8.4,9.5s-4.1,9.5-8.4,9.5c-3.1,0-5.5-1.5-6.5-3.9
				v9.5h-3.6V22.4z M213.5,31.5c0-4-2.3-6.5-5.7-6.5s-5.7,2.4-5.7,6.5s2.3,6.5,5.7,6.5S213.5,35.5,213.5,31.5z"/>
			<path class="st8" d="M220.3,32.3v-10h3.6V32c0,4,1.4,5.9,4.9,5.9s4.9-2.3,4.9-6.3v-9.2h3.6v18.3h-3.6v-3.3
				c-0.8,2.3-2.9,3.7-5.9,3.7C222.6,41,220.3,38.1,220.3,32.3z"/>
			<path class="st8" d="M241.6,22.4h3.6v3.5c0.6-2.4,2.7-3.8,5.6-3.8c3.1,0,4.6,1.1,5.6,4.4c0.9-2.8,3.3-4.4,6.7-4.4
				c4.6,0,6.5,2.8,6.5,9.3v9.3H266v-9c0-4.7-1.2-6.5-4.3-6.5s-4.5,1.9-4.5,6.5v9.1h-3.6v-9c0-4.8-1.1-6.5-4.1-6.5s-4.4,2.1-4.4,6.8
				v8.7h-3.6L241.6,22.4L241.6,22.4z"/>
			<path class="st8" d="M273.4,22.4h3.6v3.5c1-2.3,3.4-3.8,6.5-3.8c4.3,0,8.4,2.9,8.4,9.5s-4.1,9.5-8.4,9.5c-3.1,0-5.5-1.5-6.5-3.9
				v9.5h-3.6V22.4z M288.3,31.5c0-4-2.3-6.5-5.7-6.5s-5.7,2.4-5.7,6.5s2.3,6.5,5.7,6.5S288.3,35.5,288.3,31.5z"/>
		</g>
		<g>
			<path class="st8" d="M628.8,193.6c0-8.2,5.4-11.9,10.9-11.9c4.2,0,8.8,2.1,10.2,7.9l-3.7,0.7c-0.9-3.4-3.5-5.2-6.6-5.2
				c-4.3,0-7.1,3.3-7.1,8.5s2.8,8.4,7.1,8.4c3.2,0,5.7-1.8,6.6-5.3l3.7,0.7c-1.4,6-6,8.1-10.3,8.1
				C634.2,205.5,628.8,202,628.8,193.6L628.8,193.6z"/>
			<path class="st8" d="M652.8,195.9c0-6.3,3.8-9.5,8.4-9.5c2.9,0,5.4,1.4,6.5,3.9v-3.6h3.6v18.3h-3.6v-3.5c-1,2.5-3.6,3.9-6.5,3.9
				C656.7,205.5,652.8,202.3,652.8,195.9L652.8,195.9z M667.8,195.9c0-4-2.3-6.5-5.7-6.5s-5.7,2.4-5.7,6.5s2.3,6.5,5.7,6.5
				S667.8,200,667.8,195.9z"/>
			<path class="st8" d="M675.7,186.8h3.6v3.1c0.7-1.9,2.6-3.7,6.4-3.2l-0.4,3.5c-4.1-0.8-6,1.4-6,5.9v9.1h-3.6V186.8L675.7,186.8z"
				/>
			<path class="st8" d="M686.2,200.7l3.3-0.9c0.9,1.7,2.8,2.6,5.3,2.6c2.8,0,4.4-0.9,4.4-2.6c0-4.2-12.2-0.4-12.2-8.1
				c0-3.1,3.3-5.2,7.5-5.2c3.3,0,6.7,1.7,7.8,4.2l-3.2,0.9c-0.8-1.3-2.6-2.1-4.5-2.1c-2.6,0-4.1,0.9-4.1,2.4
				c0,4.2,12.3,0.3,12.3,7.9c0,3.5-3.1,5.7-8,5.7C690.7,205.4,687.3,203.5,686.2,200.7L686.2,200.7z"/>
		</g>
	</g>
</g>
</svg>
